<?xml version="1.0" encoding="UTF-8" standalone="no"?>
<!-- Created with Inkscape (http://www.inkscape.org/) -->

<svg
   xmlns:dc="http://purl.org/dc/elements/1.1/"
   xmlns:cc="http://creativecommons.org/ns#"
   xmlns:rdf="http://www.w3.org/1999/02/22-rdf-syntax-ns#"
   xmlns:svg="http://www.w3.org/2000/svg"
   xmlns="http://www.w3.org/2000/svg"
   xmlns:sodipodi="http://sodipodi.sourceforge.net/DTD/sodipodi-0.dtd"
   xmlns:inkscape="http://www.inkscape.org/namespaces/inkscape"
   width="250"
   height="250"
   viewBox="0 0 250 250"
   version="1.1"
   id="svg4553"
   inkscape:version="0.92.3 (2405546, 2018-03-11)"
   sodipodi:docname="p-star.svg">
  <sodipodi:namedview
     id="base"
     pagecolor="#ffffff"
     bordercolor="#666666"
     borderopacity="1.0"
     inkscape:pageopacity="0"
     inkscape:pageshadow="2"
     inkscape:zoom="1.82"
     inkscape:cx="88.736265"
     inkscape:cy="109.82258"
     inkscape:document-units="px"
     inkscape:current-layer="layer1"
     showgrid="false"
     units="px"
     inkscape:pagecheckerboard="false"
     inkscape:showpageshadow="false"
     inkscape:snap-bbox="true"
     inkscape:bbox-nodes="true"
     inkscape:bbox-paths="true"
     inkscape:snap-bbox-edge-midpoints="true"
     inkscape:snap-bbox-midpoints="true"
     inkscape:snap-global="false" />
  <defs
     id="defs4547">
    <clipPath
       clipPathUnits="userSpaceOnUse"
       id="clipPath11028">
      <rect
         height="250"
         width="250"
         y="9.9999997e-06"
         x="2.5106485e-06"
         id="rect11030"
         style="opacity:1;vector-effect:none;fill:none;fill-opacity:1;stroke:none;stroke-width:1;stroke-linecap:round;stroke-linejoin:bevel;stroke-miterlimit:4;stroke-dasharray:none;stroke-dashoffset:0;stroke-opacity:1;paint-order:markers stroke fill" />
    </clipPath>
    <clipPath
       clipPathUnits="userSpaceOnUse"
       id="clipPath11262">
      <rect
         y="0"
         x="-1.0063043e-06"
         height="250"
         width="250"
         id="rect11264"
         style="opacity:1;vector-effect:none;fill:none;fill-opacity:1;stroke:none;stroke-width:1;stroke-linecap:round;stroke-linejoin:bevel;stroke-miterlimit:4;stroke-dasharray:none;stroke-dashoffset:0;stroke-opacity:1;paint-order:markers stroke fill" />
    </clipPath>
  </defs>
  <metadata
     id="metadata4550">
    <rdf:RDF>
      <cc:Work
         rdf:about="">
        <dc:format>image/svg+xml</dc:format>
        <dc:type
           rdf:resource="http://purl.org/dc/dcmitype/StillImage" />
        <dc:title></dc:title>
      </cc:Work>
    </rdf:RDF>
  </metadata>
  <g
     id="layer1"
     inkscape:groupmode="layer"
     inkscape:label="Layer 1">
    <path
       style="opacity:1;vector-effect:none;fill:#161B3D;fill-opacity:1;stroke:none;stroke-width:1;stroke-linecap:butt;stroke-linejoin:miter;stroke-miterlimit:4;stroke-dasharray:none;stroke-dashoffset:0;stroke-opacity:1"
       d="M 32.967033,18.131868 C 8.2417586,19.230769 2.7472526,29.67033 2.1978026,36.813187 c -0.549451,7.142857 6.937612,12.087912 33.5164834,12.087912 17.032967,0 21.428572,-5.494506 21.428572,-5.494506 0,0 7.692307,15.384616 34.615386,14.285715 26.923076,-1.098901 31.318676,-13.736264 31.318676,-13.736264 0,0 22.52747,0 29.67033,-10.439561 7.14286,-10.43956 -25.27473,-20.32967 -36.26374,-18.681318 -10.98901,1.648351 -23.076916,7.142857 -23.076916,7.142857 0,0 -3.2967,-19.2307689 -24.175824,-19.7802199 C 48.351649,1.6483521 32.967033,18.131868 32.967033,18.131868 Z"
       id="path11285"
       inkscape:connector-curvature="0"
       sodipodi:nodetypes="csscscsscsc" />
    <path
       style="opacity:1;vector-effect:none;fill:#161B3D;fill-opacity:1;stroke:none;stroke-width:1;stroke-linecap:butt;stroke-linejoin:miter;stroke-miterlimit:4;stroke-dasharray:none;stroke-dashoffset:0;stroke-opacity:1"
       d="m 170.87912,101.0989 c 25.21978,0.13822 41.75824,18.13187 41.75824,18.13187 14.32273,-3.12969 23.95396,-0.89767 28.02198,7.69231 21.82732,-3.51231 53.10318,-3.54165 54.94506,17.03297 1.84188,20.57462 -61.84434,31.24364 -84.61539,17.58241 0,0 -24.07382,8.99409 -50,7.69231 -25.92617,-1.30178 -34.12022,-6.09137 -44.50549,-15.93406 L 98.351648,152.1978 c -20.444257,3.04499 -39.111853,-1.72621 -41.208791,-13.73626 -2.096938,-12.01005 3.448804,-23.56282 26.923077,-25.27473 23.474276,-1.7119 34.065936,7.14286 34.065936,7.14286 16.84982,-10.34612 27.52748,-19.36898 52.74725,-19.23077 z"
       id="path11287"
       inkscape:connector-curvature="0"
       sodipodi:nodetypes="zcczczcczzcz" />
    <path
       style="opacity:1;vector-effect:none;fill:#161B3D;fill-opacity:1;stroke:none;stroke-width:1;stroke-linecap:butt;stroke-linejoin:miter;stroke-miterlimit:4;stroke-dasharray:none;stroke-dashoffset:0;stroke-opacity:1"
       d="m 9.89011,197.8022 c 26.373626,-1.0989 29.120879,7.69231 29.120879,7.69231 0,0 18.681319,-7.69231 26.923077,-0.54945 8.241758,7.14286 8.791209,7.14286 8.791209,13.73626 0,6.59341 -12.637363,9.34066 -20.879121,8.24176 -8.241758,-1.0989 -15.384616,-3.2967 -15.384616,-3.2967 0,0 0.549451,4.94505 -15.934065,4.94505 -16.483517,0 -15.934066,-12.08791 -15.934066,-12.08791 0,0 -15.3846158,1.64835 -15.9340663,-8.24176 C -9.8901099,198.35165 2.197802,197.8022 9.89011,197.8022 Z"
       id="path11289"
       inkscape:connector-curvature="0" />
  </g>
</svg>
