<svg version="1.1" viewBox="0 0 300 300" xmlns="http://www.w3.org/2000/svg">
 <g fill="#DC143C" fill-opacity=".9909">
  <path d="m16.27 158.7v-1.57a1.181 2.087 36.95 0 1 1.57 0.6634z" style="paint-order:normal"/>
  <path d="m30.04 150.8a1.181 2.087 36.95 0 1 1.569-2.476v1.57z" style="paint-order:normal"/>
  <path d="m16.27 145v-1.57l1.57-0.9062a1.181 2.087 36.95 0 1-1.57 2.476z" style="paint-order:normal"/>
  <path d="m31.61 136.1a1.181 2.087 36.95 0 1-1.569-0.6636l1.569-0.906z" style="paint-order:normal"/>
  <path d="m16.27 158.7v-1.57a1.181 2.087 36.95 0 1 1.57 0.6634z" style="paint-order:normal"/>
  <path d="m30.04 150.8a1.181 2.087 36.95 0 1 1.569-2.476v1.57z" style="paint-order:normal"/>
  <path d="m16.27 145v-1.57l1.57-0.9062a1.181 2.087 36.95 0 1-1.57 2.476z" style="paint-order:normal"/>
  <path d="m31.61 136.1a1.181 2.087 36.95 0 1-1.569-0.6636l1.569-0.906z" style="paint-order:normal"/>
  <path d="m16.27 143.4v-1.57a1.181 2.087 36.95 0 1 1.57 0.6634z" style="paint-order:normal"/>
  <path d="m30.04 135.5a1.181 2.087 36.95 0 1 1.569-2.476v1.57z" style="paint-order:normal"/>
  <path d="m16.27 129.7v-1.57l1.57-0.9062a1.181 2.087 36.95 0 1-1.57 2.476z" style="paint-order:normal"/>
  <path d="m31.61 120.8a1.181 2.087 36.95 0 1-1.569-0.6636l1.569-0.906z" style="paint-order:normal"/>
  <path d="m16.27 128.1v-1.57a1.181 2.087 36.95 0 1 1.57 0.6634z" style="paint-order:normal"/>
  <path d="m30.04 120.1a1.181 2.087 36.95 0 1 1.569-2.476v1.57z" style="paint-order:normal"/>
  <path d="m16.27 114.3v-1.57l1.57-0.9062a1.181 2.087 36.95 0 1-1.57 2.476z" style="paint-order:normal"/>
  <path d="m31.61 105.5a1.181 2.087 36.95 0 1-1.569-0.6636l1.569-0.906z" style="paint-order:normal"/>
  <path d="m16.27 112.8v-1.57a1.181 2.087 36.95 0 1 1.57 0.6634z" style="paint-order:normal"/>
  <path d="m30.04 104.8a1.181 2.087 36.95 0 1 1.569-2.476v1.57z" style="paint-order:normal"/>
  <path d="m16.27 98.99v-1.57l1.57-0.9062a1.181 2.087 36.95 0 1-1.57 2.476z" style="paint-order:normal"/>
  <path d="m31.61 90.14a1.181 2.087 36.95 0 1-1.569-0.6636l1.569-0.906z" style="paint-order:normal"/>
  <path d="m16.27 97.42v-1.57a1.181 2.087 36.95 0 1 1.57 0.6634z" style="paint-order:normal"/>
  <path d="m30.04 89.48a1.181 2.087 36.95 0 1 1.569-2.476v1.57z" style="paint-order:normal"/>
  <path d="m16.27 83.66v-1.57l1.57-0.9062a1.181 2.087 36.95 0 1-1.57 2.476z" style="paint-order:normal"/>
  <path d="m31.61 74.81a1.181 2.087 36.95 0 1-1.569-0.6636l1.569-0.906z" style="paint-order:normal"/>
  <path d="m31.61 149.9v-1.57a1.181 2.087 36.95 0 1 1.57 0.6634z" style="paint-order:normal"/>
  <path d="m45.37 141.9a1.181 2.087 36.95 0 1 1.569-2.476v1.57z" style="paint-order:normal"/>
  <path d="m31.61 136.1v-1.57l1.57-0.9062a1.181 2.087 36.95 0 1-1.57 2.476z" style="paint-order:normal"/>
  <path d="m46.94 127.3a1.181 2.087 36.95 0 1-1.569-0.6636l1.569-0.906z" style="paint-order:normal"/>
  <path d="m31.61 134.6v-1.57a1.181 2.087 36.95 0 1 1.57 0.6634z" style="paint-order:normal"/>
  <path d="m45.37 126.6a1.181 2.087 36.95 0 1 1.569-2.476v1.57z" style="paint-order:normal"/>
  <path d="m31.61 120.8v-1.57l1.57-0.9062a1.181 2.087 36.95 0 1-1.57 2.476z" style="paint-order:normal"/>
  <path d="m46.94 112a1.181 2.087 36.95 0 1-1.569-0.6636l1.569-0.906z" style="paint-order:normal"/>
  <path d="m31.61 119.2v-1.57a1.181 2.087 36.95 0 1 1.57 0.6634z" style="paint-order:normal"/>
  <path d="m45.37 111.3a1.181 2.087 36.95 0 1 1.569-2.476v1.57z" style="paint-order:normal"/>
  <path d="m31.61 105.5v-1.57l1.57-0.9062a1.181 2.087 36.95 0 1-1.57 2.476z" style="paint-order:normal"/>
  <path d="m46.94 96.62a1.181 2.087 36.95 0 1-1.569-0.6636l1.569-0.906z" style="paint-order:normal"/>
  <path d="m31.61 103.9v-1.57a1.181 2.087 36.95 0 1 1.57 0.6634z" style="paint-order:normal"/>
  <path d="m45.37 95.96a1.181 2.087 36.95 0 1 1.569-2.476v1.57z" style="paint-order:normal"/>
  <path d="m31.61 90.14v-1.57l1.57-0.9062a1.181 2.087 36.95 0 1-1.57 2.476z" style="paint-order:normal"/>
  <path d="m46.94 81.29a1.181 2.087 36.95 0 1-1.569-0.6636l1.569-0.906z" style="paint-order:normal"/>
  <path d="m31.61 88.57v-1.57a1.181 2.087 36.95 0 1 1.57 0.6634z" style="paint-order:normal"/>
  <path d="m45.37 80.63a1.181 2.087 36.95 0 1 1.569-2.476v1.57z" style="paint-order:normal"/>
  <path d="m31.61 74.81v-1.57l1.57-0.9062a1.181 2.087 36.95 0 1-1.57 2.476z" style="paint-order:normal"/>
  <path d="m46.94 65.96a1.181 2.087 36.95 0 1-1.569-0.6636l1.569-0.906z" style="paint-order:normal"/>
  <path d="m46.94 141v-1.57a1.181 2.087 36.95 0 1 1.57 0.6634z" style="paint-order:normal"/>
  <path d="m60.7 133.1a1.181 2.087 36.95 0 1 1.569-2.476v1.57z" style="paint-order:normal"/>
  <path d="m46.94 127.3v-1.57l1.57-0.9062a1.181 2.087 36.95 0 1-1.57 2.476z" style="paint-order:normal"/>
  <path d="m62.27 118.4a1.181 2.087 36.95 0 1-1.569-0.6636l1.569-0.906z" style="paint-order:normal"/>
  <path d="m46.94 125.7v-1.57a1.181 2.087 36.95 0 1 1.57 0.6634z" style="paint-order:normal"/>
  <path d="m60.7 117.8a1.181 2.087 36.95 0 1 1.569-2.476v1.57z" style="paint-order:normal"/>
  <path d="m46.94 112v-1.57l1.57-0.9062a1.181 2.087 36.95 0 1-1.57 2.476z" style="paint-order:normal"/>
  <path d="m62.27 103.1a1.181 2.087 36.95 0 1-1.569-0.6636l1.569-0.906z" style="paint-order:normal"/>
  <path d="m46.94 110.4v-1.57a1.181 2.087 36.95 0 1 1.57 0.6634z" style="paint-order:normal"/>
  <path d="m60.7 102.4a1.181 2.087 36.95 0 1 1.569-2.476v1.57z" style="paint-order:normal"/>
  <path d="m46.94 96.62v-1.57l1.57-0.9062a1.181 2.087 36.95 0 1-1.57 2.476z" style="paint-order:normal"/>
  <path d="m62.27 87.77a1.181 2.087 36.95 0 1-1.569-0.6636l1.569-0.906z" style="paint-order:normal"/>
  <path d="m46.94 95.05v-1.57a1.181 2.087 36.95 0 1 1.57 0.6634z" style="paint-order:normal"/>
  <path d="m60.7 87.11a1.181 2.087 36.95 0 1 1.569-2.476v1.57z" style="paint-order:normal"/>
  <path d="m46.94 81.29v-1.57l1.57-0.9062a1.181 2.087 36.95 0 1-1.57 2.476z" style="paint-order:normal"/>
  <path d="m62.27 72.44a1.181 2.087 36.95 0 1-1.569-0.6636l1.569-0.906z" style="paint-order:normal"/>
  <path d="m46.94 79.72v-1.57a1.181 2.087 36.95 0 1 1.57 0.6634z" style="paint-order:normal"/>
  <path d="m60.7 71.77a1.181 2.087 36.95 0 1 1.569-2.476v1.57z" style="paint-order:normal"/>
  <path d="m46.94 65.96v-1.57l1.57-0.9062a1.181 2.087 36.95 0 1-1.57 2.476z" style="paint-order:normal"/>
  <path d="m62.27 57.11a1.181 2.087 36.95 0 1-1.569-0.6636l1.569-0.906z" style="paint-order:normal"/>
  <path d="m62.27 132.2v-1.57a1.181 2.087 36.95 0 1 1.57 0.6634z" style="paint-order:normal"/>
  <path d="m76.03 124.2a1.181 2.087 36.95 0 1 1.569-2.476v1.57z" style="paint-order:normal"/>
  <path d="m62.27 118.4v-1.57l1.57-0.9062a1.181 2.087 36.95 0 1-1.57 2.476z" style="paint-order:normal"/>
  <path d="m77.6 109.6a1.181 2.087 36.95 0 1-1.569-0.6636l1.569-0.906z" style="paint-order:normal"/>
  <path d="m62.27 116.9v-1.57a1.181 2.087 36.95 0 1 1.57 0.6634z" style="paint-order:normal"/>
  <path d="m76.03 108.9a1.181 2.087 36.95 0 1 1.569-2.476v1.57z" style="paint-order:normal"/>
  <path d="m62.27 103.1v-1.57l1.57-0.9062a1.181 2.087 36.95 0 1-1.57 2.476z" style="paint-order:normal"/>
  <path d="m77.6 94.25a1.181 2.087 36.95 0 1-1.569-0.6636l1.569-0.906z" style="paint-order:normal"/>
  <path d="m62.27 101.5v-1.57a1.181 2.087 36.95 0 1 1.57 0.6634z" style="paint-order:normal"/>
  <path d="m76.03 93.58a1.181 2.087 36.95 0 1 1.569-2.476v1.57z" style="paint-order:normal"/>
  <path d="m62.27 87.77v-1.57l1.57-0.9062a1.181 2.087 36.95 0 1-1.57 2.476z" style="paint-order:normal"/>
  <path d="m77.6 78.92a1.181 2.087 36.95 0 1-1.569-0.6636l1.569-0.906z" style="paint-order:normal"/>
  <path d="m62.27 86.2v-1.57a1.181 2.087 36.95 0 1 1.57 0.6634z" style="paint-order:normal"/>
  <path d="m76.03 78.25a1.181 2.087 36.95 0 1 1.569-2.476v1.57z" style="paint-order:normal"/>
  <path d="m62.27 72.44v-1.57l1.57-0.9062a1.181 2.087 36.95 0 1-1.57 2.476z" style="paint-order:normal"/>
  <path d="m77.6 63.59a1.181 2.087 36.95 0 1-1.569-0.6636l1.569-0.906z" style="paint-order:normal"/>
  <path d="m62.27 70.87v-1.57a1.181 2.087 36.95 0 1 1.57 0.6634z" style="paint-order:normal"/>
  <path d="m76.03 62.92a1.181 2.087 36.95 0 1 1.569-2.476v1.57z" style="paint-order:normal"/>
  <path d="m62.27 57.11v-1.57l1.57-0.9062a1.181 2.087 36.95 0 1-1.57 2.476z" style="paint-order:normal"/>
  <path d="m77.6 48.26a1.181 2.087 36.95 0 1-1.569-0.6636l1.569-0.906z" style="paint-order:normal"/>
  <path d="m77.6 123.3v-1.57a1.181 2.087 36.95 0 1 1.57 0.6634z" style="paint-order:normal"/>
  <path d="m91.36 115.4a1.181 2.087 36.95 0 1 1.569-2.476v1.57z" style="paint-order:normal"/>
  <path d="m77.6 109.6v-1.57l1.57-0.9062a1.181 2.087 36.95 0 1-1.57 2.476z" style="paint-order:normal"/>
  <path d="m92.93 100.7a1.181 2.087 36.95 0 1-1.569-0.6636l1.569-0.906z" style="paint-order:normal"/>
  <path d="m77.6 108v-1.57a1.181 2.087 36.95 0 1 1.57 0.6634z" style="paint-order:normal"/>
  <path d="m91.36 100.1a1.181 2.087 36.95 0 1 1.569-2.476v1.57z" style="paint-order:normal"/>
  <path d="m77.6 94.25v-1.57l1.57-0.9062a1.181 2.087 36.95 0 1-1.57 2.476z" style="paint-order:normal"/>
  <path d="m92.93 85.4a1.181 2.087 36.95 0 1-1.569-0.6636l1.569-0.906z" style="paint-order:normal"/>
  <path d="m77.6 92.68v-1.57a1.181 2.087 36.95 0 1 1.57 0.6634z" style="paint-order:normal"/>
  <path d="m91.36 84.73a1.181 2.087 36.95 0 1 1.569-2.476v1.57z" style="paint-order:normal"/>
  <path d="m77.6 78.92v-1.57l1.57-0.9062a1.181 2.087 36.95 0 1-1.57 2.476z" style="paint-order:normal"/>
  <path d="m92.93 70.07a1.181 2.087 36.95 0 1-1.569-0.6636l1.569-0.906z" style="paint-order:normal"/>
  <path d="m77.6 77.35v-1.57a1.181 2.087 36.95 0 1 1.57 0.6634z" style="paint-order:normal"/>
  <path d="m91.36 69.4a1.181 2.087 36.95 0 1 1.569-2.476v1.57z" style="paint-order:normal"/>
  <path d="m77.6 63.59v-1.57l1.57-0.9062a1.181 2.087 36.95 0 1-1.57 2.476z" style="paint-order:normal"/>
  <path d="m92.93 54.74a1.181 2.087 36.95 0 1-1.569-0.6636l1.569-0.906z" style="paint-order:normal"/>
  <path d="m77.6 62.02v-1.57a1.181 2.087 36.95 0 1 1.57 0.6634z" style="paint-order:normal"/>
  <path d="m91.36 54.07a1.181 2.087 36.95 0 1 1.569-2.476v1.57z" style="paint-order:normal"/>
  <path d="m77.6 48.26v-1.57l1.57-0.9062a1.181 2.087 36.95 0 1-1.57 2.476z" style="paint-order:normal"/>
  <path d="m92.93 39.4a1.181 2.087 36.95 0 1-1.569-0.6636l1.569-0.906z" style="paint-order:normal"/>
 </g>
 <path d="m143.3 111.3 114.4-9.436v75.49l-49.03-28.31-32.69 18.87v-37.75z" fill="#8393FF"/>
 <path d="m176 130.2v37.75l32.69-18.87 49.03-47.18z" fill="#161B3D"/>
 <path d="m176 168 81.72-66.05" fill="none" stroke="#fff" stroke-width=".5925"/>
 <path d="m176 130.2 81.72-28.31-49.03 47.18" fill="none" stroke="#fff" stroke-width=".5925"/>
 <path d="m43.17 120.3 90.66-7.477v59.82l-38.85-22.43-25.9 14.95v-29.91z" fill="#8393FF"/>
 <path d="m69.08 135.3v29.91l25.9-14.95 38.85-37.39z" fill="#161B3D"/>
 <path d="m69.08 165.2 64.76-52.34" fill="none" stroke="#fff" stroke-width=".4695"/>
 <path d="m69.08 135.3 64.76-22.43-38.85 37.39" fill="none" stroke="#fff" stroke-width=".4695"/>
 <path d="m167.1 194.5 90.66-7.477v59.82l-38.85-22.43-25.9 14.95v-29.91z" fill="#8393FF"/>
 <path d="m193 209.5v29.91l25.9-14.95 38.85-37.39z" fill="#161B3D"/>
 <path d="m193 239.4 64.76-52.34" fill="none" stroke="#fff" stroke-width=".4695"/>
 <path d="m193 209.5 64.76-22.43-38.85 37.39" fill="none" stroke="#fff" stroke-width=".4695"/>
</svg>
