<svg version="1.1" viewBox="0 0 300 300" xmlns="http://www.w3.org/2000/svg">
 <g fill="#DC143C" fill-opacity=".9909">
  <path d="m247.1 200.6v-1.881a2.5 1.414 53.05 0 0-1.881 0.7948z" style="paint-order:normal"/>
  <path d="m230.6 191a2.5 1.414 53.05 0 0-1.88-2.966v1.881z" style="paint-order:normal"/>
  <path d="m247.1 184.1v-1.881l-1.881-1.086a2.5 1.414 53.05 0 0 1.881 2.966z" style="paint-order:normal"/>
  <path d="m228.7 173.5a2.5 1.414 53.05 0 0 1.88-0.795l-1.88-1.086z" style="paint-order:normal"/>
  <path d="m247.1 200.6v-1.881a2.5 1.414 53.05 0 0-1.881 0.7948z" style="paint-order:normal"/>
  <path d="m230.6 191a2.5 1.414 53.05 0 0-1.88-2.966v1.881z" style="paint-order:normal"/>
  <path d="m247.1 184.1v-1.881l-1.881-1.086a2.5 1.414 53.05 0 0 1.881 2.966z" style="paint-order:normal"/>
  <path d="m228.7 173.5a2.5 1.414 53.05 0 0 1.88-0.795l-1.88-1.086z" style="paint-order:normal"/>
  <path d="m247.1 182.2v-1.881a2.5 1.414 53.05 0 0-1.881 0.7948z" style="paint-order:normal"/>
  <path d="m230.6 172.7a2.5 1.414 53.05 0 0-1.88-2.966v1.881z" style="paint-order:normal"/>
  <path d="m247.1 165.7v-1.881l-1.881-1.086a2.5 1.414 53.05 0 0 1.881 2.966z" style="paint-order:normal"/>
  <path d="m228.7 155.1a2.5 1.414 53.05 0 0 1.88-0.795l-1.88-1.086z" style="paint-order:normal"/>
  <path d="m247.1 163.8v-1.881a2.5 1.414 53.05 0 0-1.881 0.7948z" style="paint-order:normal"/>
  <path d="m230.6 154.3a2.5 1.414 53.05 0 0-1.88-2.966v1.881z" style="paint-order:normal"/>
  <path d="m247.1 147.3v-1.881l-1.881-1.086a2.5 1.414 53.05 0 0 1.881 2.966z" style="paint-order:normal"/>
  <path d="m228.7 136.7a2.5 1.414 53.05 0 0 1.88-0.795l-1.88-1.086z" style="paint-order:normal"/>
  <path d="m247.1 145.5v-1.881a2.5 1.414 53.05 0 0-1.881 0.7948z" style="paint-order:normal"/>
  <path d="m230.6 135.9a2.5 1.414 53.05 0 0-1.88-2.966v1.881z" style="paint-order:normal"/>
  <path d="m247.1 129v-1.881l-1.881-1.086a2.5 1.414 53.05 0 0 1.881 2.966z" style="paint-order:normal"/>
  <path d="m228.7 118.4a2.5 1.414 53.05 0 0 1.88-0.795l-1.88-1.086z" style="paint-order:normal"/>
  <path d="m247.1 127.1v-1.881a2.5 1.414 53.05 0 0-1.881 0.7948z" style="paint-order:normal"/>
  <path d="m230.6 117.6a2.5 1.414 53.05 0 0-1.88-2.966v1.881z" style="paint-order:normal"/>
  <path d="m247.1 110.6v-1.881l-1.881-1.086a2.5 1.414 53.05 0 0 1.881 2.966z" style="paint-order:normal"/>
  <path d="m228.7 100a2.5 1.414 53.05 0 0 1.88-0.795l-1.88-1.086z" style="paint-order:normal"/>
  <path d="m228.7 190v-1.881a2.5 1.414 53.05 0 0-1.881 0.7948z" style="paint-order:normal"/>
  <path d="m212.2 180.4a2.5 1.414 53.05 0 0-1.88-2.966v1.881z" style="paint-order:normal"/>
  <path d="m228.7 173.5v-1.881l-1.881-1.086a2.5 1.414 53.05 0 0 1.881 2.966z" style="paint-order:normal"/>
  <path d="m210.3 162.9a2.5 1.414 53.05 0 0 1.88-0.795l-1.88-1.086z" style="paint-order:normal"/>
  <path d="m228.7 171.6v-1.881a2.5 1.414 53.05 0 0-1.881 0.7948z" style="paint-order:normal"/>
  <path d="m212.2 162.1a2.5 1.414 53.05 0 0-1.88-2.966v1.881z" style="paint-order:normal"/>
  <path d="m228.7 155.1v-1.881l-1.881-1.086a2.5 1.414 53.05 0 0 1.881 2.966z" style="paint-order:normal"/>
  <path d="m210.3 144.5a2.5 1.414 53.05 0 0 1.88-0.795l-1.88-1.086z" style="paint-order:normal"/>
  <path d="m228.7 153.2v-1.881a2.5 1.414 53.05 0 0-1.881 0.7948z" style="paint-order:normal"/>
  <path d="m212.2 143.7a2.5 1.414 53.05 0 0-1.88-2.966v1.881z" style="paint-order:normal"/>
  <path d="m228.7 136.7v-1.881l-1.881-1.086a2.5 1.414 53.05 0 0 1.881 2.966z" style="paint-order:normal"/>
  <path d="m210.3 126.1a2.5 1.414 53.05 0 0 1.88-0.795l-1.88-1.086z" style="paint-order:normal"/>
  <path d="m228.7 134.9v-1.881a2.5 1.414 53.05 0 0-1.881 0.7948z" style="paint-order:normal"/>
  <path d="m212.2 125.3a2.5 1.414 53.05 0 0-1.88-2.966v1.881z" style="paint-order:normal"/>
  <path d="m228.7 118.4v-1.881l-1.881-1.086a2.5 1.414 53.05 0 0 1.881 2.966z" style="paint-order:normal"/>
  <path d="m210.3 107.8a2.5 1.414 53.05 0 0 1.88-0.795l-1.88-1.086z" style="paint-order:normal"/>
  <path d="m228.7 116.5v-1.881a2.5 1.414 53.05 0 0-1.881 0.7948z" style="paint-order:normal"/>
  <path d="m212.2 107a2.5 1.414 53.05 0 0-1.88-2.966v1.881z" style="paint-order:normal"/>
  <path d="m228.7 100v-1.881l-1.881-1.086a2.5 1.414 53.05 0 0 1.881 2.966z" style="paint-order:normal"/>
  <path d="m210.3 89.39a2.5 1.414 53.05 0 0 1.88-0.795l-1.88-1.086z" style="paint-order:normal"/>
  <path d="m210.3 179.4v-1.881a2.5 1.414 53.05 0 0-1.881 0.7948z" style="paint-order:normal"/>
  <path d="m193.9 169.8a2.5 1.414 53.05 0 0-1.88-2.966v1.881z" style="paint-order:normal"/>
  <path d="m210.3 162.9v-1.881l-1.881-1.086a2.5 1.414 53.05 0 0 1.881 2.966z" style="paint-order:normal"/>
  <path d="m192 152.3a2.5 1.414 53.05 0 0 1.88-0.795l-1.88-1.086z" style="paint-order:normal"/>
  <path d="m210.3 161v-1.881a2.5 1.414 53.05 0 0-1.881 0.7948z" style="paint-order:normal"/>
  <path d="m193.9 151.5a2.5 1.414 53.05 0 0-1.88-2.966v1.881z" style="paint-order:normal"/>
  <path d="m210.3 144.5v-1.881l-1.881-1.086a2.5 1.414 53.05 0 0 1.881 2.966z" style="paint-order:normal"/>
  <path d="m192 133.9a2.5 1.414 53.05 0 0 1.88-0.795l-1.88-1.086z" style="paint-order:normal"/>
  <path d="m210.3 142.6v-1.881a2.5 1.414 53.05 0 0-1.881 0.7948z" style="paint-order:normal"/>
  <path d="m193.9 133.1a2.5 1.414 53.05 0 0-1.88-2.966v1.881z" style="paint-order:normal"/>
  <path d="m210.3 126.1v-1.881l-1.881-1.086a2.5 1.414 53.05 0 0 1.881 2.966z" style="paint-order:normal"/>
  <path d="m192 115.5a2.5 1.414 53.05 0 0 1.88-0.795l-1.88-1.086z" style="paint-order:normal"/>
  <path d="m210.3 124.2v-1.881a2.5 1.414 53.05 0 0-1.881 0.7948z" style="paint-order:normal"/>
  <path d="m193.9 114.7a2.5 1.414 53.05 0 0-1.88-2.966v1.881z" style="paint-order:normal"/>
  <path d="m210.3 107.8v-1.881l-1.881-1.086a2.5 1.414 53.05 0 0 1.881 2.966z" style="paint-order:normal"/>
  <path d="m192 97.16a2.5 1.414 53.05 0 0 1.88-0.795l-1.88-1.086z" style="paint-order:normal"/>
  <path d="m210.3 105.9v-1.881a2.5 1.414 53.05 0 0-1.881 0.7948z" style="paint-order:normal"/>
  <path d="m193.9 96.36a2.5 1.414 53.05 0 0-1.88-2.966v1.881z" style="paint-order:normal"/>
  <path d="m210.3 89.39v-1.881l-1.881-1.086a2.5 1.414 53.05 0 0 1.881 2.966z" style="paint-order:normal"/>
  <path d="m192 78.79a2.5 1.414 53.05 0 0 1.88-0.795l-1.88-1.086z" style="paint-order:normal"/>
  <path d="m192 168.7v-1.881a2.5 1.414 53.05 0 0-1.881 0.7948z" style="paint-order:normal"/>
  <path d="m175.5 159.2a2.5 1.414 53.05 0 0-1.88-2.966v1.881z" style="paint-order:normal"/>
  <path d="m192 152.3v-1.881l-1.881-1.086a2.5 1.414 53.05 0 0 1.881 2.966z" style="paint-order:normal"/>
  <path d="m173.6 141.7a2.5 1.414 53.05 0 0 1.88-0.795l-1.88-1.086z" style="paint-order:normal"/>
  <path d="m192 150.4v-1.881a2.5 1.414 53.05 0 0-1.881 0.7948z" style="paint-order:normal"/>
  <path d="m175.5 140.9a2.5 1.414 53.05 0 0-1.88-2.966v1.881z" style="paint-order:normal"/>
  <path d="m192 133.9v-1.881l-1.881-1.086a2.5 1.414 53.05 0 0 1.881 2.966z" style="paint-order:normal"/>
  <path d="m173.6 123.3a2.5 1.414 53.05 0 0 1.88-0.795l-1.88-1.086z" style="paint-order:normal"/>
  <path d="m192 132v-1.881a2.5 1.414 53.05 0 0-1.881 0.7948z" style="paint-order:normal"/>
  <path d="m175.5 122.5a2.5 1.414 53.05 0 0-1.88-2.966v1.881z" style="paint-order:normal"/>
  <path d="m192 115.5v-1.881l-1.881-1.086a2.5 1.414 53.05 0 0 1.881 2.966z" style="paint-order:normal"/>
  <path d="m173.6 104.9a2.5 1.414 53.05 0 0 1.88-0.795l-1.88-1.086z" style="paint-order:normal"/>
  <path d="m192 113.6v-1.881a2.5 1.414 53.05 0 0-1.881 0.7948z" style="paint-order:normal"/>
  <path d="m175.5 104.1a2.5 1.414 53.05 0 0-1.88-2.966v1.881z" style="paint-order:normal"/>
  <path d="m192 97.16v-1.881l-1.881-1.086a2.5 1.414 53.05 0 0 1.881 2.966z" style="paint-order:normal"/>
  <path d="m173.6 86.55a2.5 1.414 53.05 0 0 1.88-0.795l-1.88-1.086z" style="paint-order:normal"/>
  <path d="m192 95.28v-1.881a2.5 1.414 53.05 0 0-1.881 0.7948z" style="paint-order:normal"/>
  <path d="m175.5 85.76a2.5 1.414 53.05 0 0-1.88-2.966v1.881z" style="paint-order:normal"/>
  <path d="m192 78.79v-1.881l-1.881-1.086a2.5 1.414 53.05 0 0 1.881 2.966z" style="paint-order:normal"/>
  <path d="m173.6 68.18a2.5 1.414 53.05 0 0 1.88-0.795l-1.88-1.086z" style="paint-order:normal"/>
  <path d="m173.6 158.1v-1.881a2.5 1.414 53.05 0 0-1.881 0.7948z" style="paint-order:normal"/>
  <path d="m157.1 148.6a2.5 1.414 53.05 0 0-1.88-2.966v1.881z" style="paint-order:normal"/>
  <path d="m173.6 141.7v-1.881l-1.881-1.086a2.5 1.414 53.05 0 0 1.881 2.966z" style="paint-order:normal"/>
  <path d="m155.2 131.1a2.5 1.414 53.05 0 0 1.88-0.795l-1.88-1.086z" style="paint-order:normal"/>
  <path d="m173.6 139.8v-1.881a2.5 1.414 53.05 0 0-1.881 0.7948z" style="paint-order:normal"/>
  <path d="m157.1 130.3a2.5 1.414 53.05 0 0-1.88-2.966v1.881z" style="paint-order:normal"/>
  <path d="m173.6 123.3v-1.881l-1.881-1.086a2.5 1.414 53.05 0 0 1.881 2.966z" style="paint-order:normal"/>
  <path d="m155.2 112.7a2.5 1.414 53.05 0 0 1.88-0.795l-1.88-1.086z" style="paint-order:normal"/>
  <path d="m173.6 121.4v-1.881a2.5 1.414 53.05 0 0-1.881 0.7948z" style="paint-order:normal"/>
  <path d="m157.1 111.9a2.5 1.414 53.05 0 0-1.88-2.966v1.881z" style="paint-order:normal"/>
  <path d="m173.6 104.9v-1.881l-1.881-1.086a2.5 1.414 53.05 0 0 1.881 2.966z" style="paint-order:normal"/>
  <path d="m155.2 94.31a2.5 1.414 53.05 0 0 1.88-0.795l-1.88-1.086z" style="paint-order:normal"/>
  <path d="m173.6 103v-1.881a2.5 1.414 53.05 0 0-1.881 0.7948z" style="paint-order:normal"/>
  <path d="m157.1 93.52a2.5 1.414 53.05 0 0-1.88-2.966v1.881z" style="paint-order:normal"/>
  <path d="m173.6 86.55v-1.881l-1.881-1.086a2.5 1.414 53.05 0 0 1.881 2.966z" style="paint-order:normal"/>
  <path d="m155.2 75.95a2.5 1.414 53.05 0 0 1.88-0.795l-1.88-1.086z" style="paint-order:normal"/>
  <path d="m173.6 84.67v-1.881a2.5 1.414 53.05 0 0-1.881 0.7948z" style="paint-order:normal"/>
  <path d="m157.1 75.15a2.5 1.414 53.05 0 0-1.88-2.966v1.881z" style="paint-order:normal"/>
  <path d="m173.6 68.18v-1.881l-1.881-1.086a2.5 1.414 53.05 0 0 1.881 2.966z" style="paint-order:normal"/>
  <path d="m155.2 57.58a2.5 1.414 53.05 0 0 1.88-0.795l-1.88-1.086z" style="paint-order:normal"/>
 </g>
 <path d="m160.1 164.8-37.46-21.63v34.75l37.46 21.63z" fill="#8393FF" style="paint-order:normal"/>
 <path d="m160.1 164.8v34.75l37.47-21.63v-34.75z" fill="#161B3D" style="paint-order:normal"/>
 <g fill="#fff">
  <path d="m126.7 158.7 5.472 3.159v1.849l-1.968-1.136v7.636l-1.531-0.8839v-7.636l-1.972-1.139z" style="font-feature-settings:normal;font-variant-caps:normal;font-variant-ligatures:normal;font-variant-numeric:normal"/>
  <path d="m133.9 169.1q-0.4454-0.2572-0.672-0.1466-0.2227 0.1129-0.2227 0.5829 0 0.432 0.179 0.7831 0.1829 0.347 0.505 0.533 0.4016 0.2319 0.676-0.0671 0.2744-0.3053 0.2744-0.9978v-0.2605zm2.175 0.3982v4.059l-1.436-0.8288v-1.055q-0.2863 0.4827-0.6442 0.5746-0.3579 0.0855-0.8709-0.2106-0.6919-0.3995-1.125-1.291-0.4295-0.8959-0.4295-1.925 0-1.252 0.5368-1.526 0.5408-0.2722 1.694 0.3936l0.8391 0.4844v-0.1779q0-0.54-0.2664-0.9416-0.2664-0.4079-0.8311-0.734-0.4573-0.264-0.851-0.3452-0.3937-0.0812-0.7317 0.0159v-1.734q0.4573 0.0861 0.9186 0.2635 0.4613 0.1711 0.9226 0.4374 1.205 0.6957 1.738 1.766 0.5368 1.066 0.5368 2.775z" style="font-feature-settings:normal;font-variant-caps:normal;font-variant-ligatures:normal;font-variant-numeric:normal"/>
  <path d="m140.7 171.1q-0.1869-0.2477-0.3738-0.4191-0.1829-0.1755-0.3698-0.2834-0.5488-0.3168-0.847 0.0763-0.2943 0.3891-0.2943 1.437v3.278l-1.424-0.8219v-7.115l1.424 0.8219v1.169q0.2744-0.5404 0.6283-0.6537 0.3579-0.1174 0.855 0.1696 0.0715 0.0413 0.1551 0.1022 0.0835 0.0542 0.2426 0.1782z" style="font-feature-settings:normal;font-variant-caps:normal;font-variant-ligatures:normal;font-variant-numeric:normal"/>
  <path d="m144.4 177.2q-0.2943 0.4527-0.6482 0.5406t-0.8192-0.1807q-0.8152-0.4707-1.348-1.801-0.5329-1.337-0.5329-2.925 0-1.595 0.5329-2.303 0.5329-0.7151 1.348-0.2445 0.4653 0.2686 0.8192 0.7652t0.6482 1.295v-1.055l1.432 0.8265v6.397q0 1.715-0.68 2.225-0.676 0.5182-1.964-0.2257-0.4175-0.2411-0.8073-0.5677-0.3897-0.3266-0.7834-0.7636v-1.772q0.3738 0.5589 0.7317 0.9307 0.3579 0.3782 0.7198 0.5871 0.6999 0.4041 1.026 0.1032 0.3261-0.3009 0.3261-1.343zm-0.9385-4.97q-0.4414-0.2548-0.688 0.1237-0.2465 0.3786-0.2465 1.332 0 0.9783 0.2386 1.624 0.2386 0.6396 0.6959 0.9036 0.4454 0.2572 0.6919-0.1214 0.2466-0.3786 0.2466-1.325 0-0.9529-0.2466-1.616t-0.6919-0.9204z" style="font-feature-settings:normal;font-variant-caps:normal;font-variant-ligatures:normal;font-variant-numeric:normal"/>
  <path d="m151.7 179v0.648l-3.328-1.922q0.0516 0.8303 0.3619 1.41 0.3102 0.5793 0.8669 0.9007 0.4494 0.2594 0.9186 0.3207 0.4732 0.0572 0.9703-0.0878v1.753q-0.505 0.0134-1.01-0.1258-0.505-0.1328-1.01-0.4243-1.209-0.698-1.881-2.064-0.6681-1.37-0.6681-3.143 0-1.741 0.6562-2.359 0.6601-0.6163 1.813 0.0495 1.05 0.6061 1.678 1.979 0.6323 1.375 0.6323 3.065zm-1.463-1.601q0-0.648-0.2386-1.18-0.2346-0.5357-0.6164-0.7561-0.4136-0.2388-0.672-0.0132-0.2585 0.2192-0.3221 0.8813z" style="font-feature-settings:normal;font-variant-caps:normal;font-variant-ligatures:normal;font-variant-numeric:normal"/>
  <path d="m154.3 175v2.02l1.467 0.8472v1.626l-1.467-0.8472v3.018q0 0.4955 0.1233 0.7446 0.1233 0.2427 0.4891 0.4539l0.7317 0.4224v1.626l-1.221-0.7048q-0.843-0.4867-1.197-1.25-0.3499-0.7674-0.3499-2.114v-3.018l-0.7078-0.4087v-1.626l0.7078 0.4087v-2.02z" style="font-feature-settings:normal;font-variant-caps:normal;font-variant-ligatures:normal;font-variant-numeric:normal"/>
  <path d="m163.5 175.6 2.541-1.467q1.133-0.6543 1.738-0.1965 0.6084 0.4492 0.6084 1.936 0 1.493-0.6084 2.651-0.6044 1.149-1.738 1.804l-1.01 0.5832v3.291l-1.531 0.8839zm1.531 0.8885v2.649l0.847-0.489q0.4454-0.2571 0.688-0.7402 0.2426-0.4894 0.2426-1.125t-0.2426-0.8383q-0.2426-0.203-0.688 0.0542z" style="font-feature-settings:normal;font-variant-caps:normal;font-variant-ligatures:normal;font-variant-numeric:normal"/>
  <path d="m173.9 174.8v4.333l-1.432 0.8265v-3.303q0-0.9339-0.0278-1.267-0.0238-0.3356-0.0875-0.4641-0.0835-0.1741-0.2267-0.2122-0.1432-0.0445-0.3261 0.0612-0.4454 0.2572-0.6999 0.9568-0.2545 0.6933-0.2545 1.665v3.5l-1.424 0.8219v-9.885l1.424-0.8219v3.812q0.3221-0.8085 0.684-1.31 0.3619-0.5075 0.7993-0.7601 0.7715-0.4454 1.169 0.081 0.4016 0.5241 0.4016 1.966z" style="font-feature-settings:normal;font-variant-caps:normal;font-variant-ligatures:normal;font-variant-numeric:normal"/>
  <path d="m178.5 171.2q-0.1869-0.0319-0.3738 0.0126-0.1829 0.0358-0.3698 0.1437-0.5488 0.3168-0.847 1.054-0.2943 0.7289-0.2943 1.777v3.278l-1.424 0.8219v-7.115l1.424-0.8219v1.169q0.2744-0.8572 0.6283-1.379 0.3579-0.5306 0.855-0.8176 0.0715-0.0413 0.1551-0.0768 0.0835-0.0423 0.2426-0.102z" style="font-feature-settings:normal;font-variant-caps:normal;font-variant-ligatures:normal;font-variant-numeric:normal"/>
  <path d="m181.2 171.6q-0.4454 0.2572-0.672 0.6294-0.2227 0.37-0.2227 0.8401 0 0.432 0.1789 0.5764 0.1829 0.1358 0.505-0.0502 0.4016-0.2319 0.676-0.8477 0.2744-0.6222 0.2744-1.315v-0.2605zm2.175-2.113v4.059l-1.436 0.8288v-1.055q-0.2863 0.8133-0.6442 1.319-0.3579 0.4988-0.8709 0.795-0.6919 0.3995-1.125 8e-3 -0.4295-0.4-0.4295-1.429 0-1.252 0.5368-2.146 0.5408-0.8967 1.694-1.563l0.8391-0.4844v-0.1779q0-0.54-0.2664-0.6339-0.2664-0.1003-0.8311 0.2257-0.4573 0.264-0.851 0.6374-0.3937 0.3734-0.7317 0.8608v-1.734q0.4573-0.4419 0.9186-0.7972 0.4613-0.3616 0.9226-0.6279 1.205-0.6957 1.738-0.241 0.5369 0.446 0.5369 2.155z" style="font-feature-settings:normal;font-variant-caps:normal;font-variant-ligatures:normal;font-variant-numeric:normal"/>
  <path d="m188.2 163.9v1.728q-0.4573-0.0409-0.8828 0.0522-0.4255 0.0932-0.8033 0.3113-0.4056 0.2342-0.6044 0.5142-0.1948 0.2713-0.1948 0.608 0 0.2732 0.1471 0.3343 0.1511 0.0588 0.5368-0.0939l0.2505-0.0875q1.094-0.409 1.471-0.119 0.3778 0.2901 0.3778 1.376 0 1.137-0.5249 2.012-0.5249 0.8748-1.567 1.476-0.4414 0.2548-0.9146 0.4138-0.4692 0.163-0.9663 0.2276v-1.728q0.4255 0.0847 0.8709-7e-3 0.4494-0.0943 0.9106-0.3606 0.4176-0.2411 0.6283-0.547 0.2108-0.3059 0.2108-0.668 0-0.3049-0.1471-0.3661-0.1432-0.0699-0.5766 0.0979l-0.2505 0.0938q-0.9504 0.3582-1.332 0.064-0.3818-0.2942-0.3818-1.342 0-1.131 0.4851-1.957 0.4852-0.8264 1.487-1.405 0.3937-0.2273 0.8272-0.3823 0.4334-0.155 0.9424-0.2456z" style="font-feature-settings:normal;font-variant-caps:normal;font-variant-ligatures:normal;font-variant-numeric:normal"/>
  <path d="m194 163.9v0.648l-3.328 1.922q0.0516 0.7706 0.3619 0.9918 0.3102 0.2211 0.8669-0.1003 0.4494-0.2594 0.9186-0.74 0.4732-0.4892 0.9703-1.208v1.753q-0.505 0.5965-1.01 1.041-0.505 0.4504-1.01 0.742-1.209 0.698-1.881 0.1076-0.6681-0.599-0.6681-2.371 0-1.741 0.6561-3.117 0.6601-1.379 1.813-2.044 1.05-0.6061 1.678 0.0412 0.6323 0.645 0.6323 2.335zm-1.463 0.0889q0-0.648-0.2386-0.9041-0.2346-0.2648-0.6164-0.0443-0.4136 0.2388-0.672 0.7628-0.2585 0.5177-0.3221 1.253z" style="font-feature-settings:normal;font-variant-caps:normal;font-variant-ligatures:normal;font-variant-numeric:normal"/>
 </g>
 <rect transform="matrix(.866 .5 0 1 0 0)" x="94.29" y="77.03" width="34.71" height="30.06" fill="#8393FF" style="paint-order:normal"/>
 <rect transform="matrix(.866 -.5 0 1 0 0)" x="240.7" y="261.9" width="34.71" height="30.06" fill="#161B3D" style="paint-order:normal"/>
 <g fill="#8393FF">
  <rect transform="matrix(.866 .5 0 1 0 0)" x="139.6" y="122.3" width="34.71" height="30.06" style="paint-order:normal"/>
  <rect transform="matrix(.866 .5 0 1 0 0)" x="94.29" y="122.3" width="34.71" height="30.06" style="paint-order:normal"/>
  <rect transform="matrix(.866 .5 0 1 0 0)" x="94.29" y="31.75" width="34.71" height="30.06" style="paint-order:normal"/>
 </g>
 <g>
  <rect transform="matrix(.866 -.5 0 1 0 0)" x="240.7" y="307.2" width="34.71" height="30.06" fill="#161B3D" style="paint-order:normal"/>
  <rect transform="matrix(.866 .5 0 1 0 0)" x="49.01" y="77.03" width="34.71" height="30.06" fill="#8393FF" style="paint-order:normal"/>
  <rect transform="matrix(.866 -.5 0 1 0 0)" x="240.7" y="216.6" width="34.71" height="30.06" fill="#161B3D" style="paint-order:normal"/>
  <rect transform="matrix(.866 -.5 0 1 0 0)" x="286" y="307.2" width="34.71" height="30.06" fill="#161B3D" style="paint-order:normal"/>
 </g>
 <g fill="#8393FF">
  <rect transform="matrix(.866 .5 0 1 0 0)" x="49.01" y="186.6" width="12.7" height="11" style="paint-order:normal"/>
  <rect transform="matrix(.866 .5 0 1 0 0)" x="65.3" y="186.6" width="12.7" height="11" style="paint-order:normal"/>
  <rect transform="matrix(.866 .5 0 1 0 0)" x="81.59" y="186.6" width="12.7" height="11" style="paint-order:normal"/>
 </g>
 <g fill="#161B3D">
  <rect transform="matrix(-.866 .5 0 1 0 0)" x="-320.7" y="371.5" width="12.7" height="11" style="paint-order:normal"/>
  <rect transform="matrix(-.866 .5 0 1 0 0)" x="-304.4" y="371.5" width="12.7" height="11" style="paint-order:normal"/>
  <rect transform="matrix(-.866 .5 0 1 0 0)" x="-288.1" y="371.5" width="12.7" height="11" style="paint-order:normal"/>
 </g>
 <g fill="#8393FF">
  <rect transform="matrix(.866 .5 0 1 0 0)" x="3.729" y="141.4" width="12.7" height="11" style="paint-order:normal"/>
  <rect transform="matrix(.866 .5 0 1 0 0)" x="20.02" y="141.4" width="12.7" height="11" style="paint-order:normal"/>
  <rect transform="matrix(.866 .5 0 1 0 0)" x="36.31" y="141.4" width="12.7" height="11" style="paint-order:normal"/>
 </g>
 <g fill="#161B3D">
  <rect transform="matrix(-.866 .5 0 1 0 0)" x="-341.4" y="398.2" width="5.809" height="5.031" style="paint-order:normal"/>
  <rect transform="matrix(-.866 .5 0 1 0 0)" x="-334" y="398.2" width="5.809" height="5.031" style="paint-order:normal"/>
  <rect transform="matrix(-.866 .5 0 1 0 0)" x="-326.5" y="398.2" width="5.809" height="5.031" style="paint-order:normal"/>
 </g>
 <g fill="#fff">
  <path d="m210.8 122.8s1.719-8.229 9.387-12.66c7.667-4.427 15.21-14.96 16.62-26.93v24.57z"/>
  <path d="m210.8 167.9s-0.1114-17.38 8.166-17.54c8.278-0.1546 16.43-10.08 17.84-22.05v24.57z"/>
  <path d="m210.8 213.4s7.822-8.839 15.49-13.27c7.667-4.427 9.11-14.35 10.51-26.32v24.57z"/>
  <path d="m250.1 190.8s2.694-14.79 10.97-14.95c8.278-0.1546 8.018-12.24 15.03-24.64v24.57z"/>
  <path d="m44.39 130.5s1.831-2.624 11.62 0.5224c9.788 3.146 12.98 0.2632 14.38-10.08v24.57z"/>
  <path d="m83.3 152.9s4.272-2.319 10.25-1.309c5.974 1.01 14.35 2.094 15.76-8.252v24.57z"/>
  <path d="m83.3 107.6s3.509-2.929 7.804-0.5457c4.295 2.383 16.8 1.331 18.2-9.015v24.57z"/>
  <path d="m83.3 198.2s3.077-4.224 7.373-3.998c4.295 0.2255 17.23 4.784 18.63-5.562v24.57z"/>
  <path d="m122.6 220.7s8.723 4.037 15.92 4.394 8.683-4.159 10.09-13.95v24.57z"/>
  <path d="m42.99 221.3s2.046-2.009 3.929-0.4005c1.883 1.609 5.107 0.689 5.622-3.111v9.026z"/>
  <path d="m71.22 237.8s2.198-1.399 4.539 0.0573c2.341 1.456 4.497 0.2313 5.012-3.569v9.026z"/>
  <path d="m57.03 229.5s2.809-1.399 4.386-1.316c1.578 0.0828 4.649 1.604 5.165-2.196v9.026z"/>
  <path d="m3.78 153.6s1.969-0.5596 4.844 0.5912c2.875 1.151 4.192-0.3027 4.707-4.103v9.026z"/>
  <path d="m32.01 170s1.893-0.8647 4.539 0.0573c2.646 0.922 4.497 0.2313 5.012-3.569v9.026z"/>
  <path d="m17.82 161.8s2.885-1.246 4.386-0.2479c1.501 0.9982 4.649 0.5364 5.165-3.264v9.026z"/>
  <path d="m239.4 243.5s1.283-3.414 3.929-4.937c2.646-1.523 5.107-5.208 5.622-9.603v9.026z"/>
  <path d="m267.6 227.4s2.198-2.793 4.539-5.184c2.341-2.391 4.497-4.961 5.012-9.356v9.026z"/>
  <path d="m253.4 235.6s2.351-3.656 4.691-4.826c2.341-1.17 4.344-5.319 4.859-9.714v9.026z"/>
  <path d="m278.1 242.2s0.9303-1.988 1.787-2.245c0.8562-0.2572 2.322-2.368 2.557-4.367v4.105z"/>
  <path d="m291 234.9s0.9997-1.79 2.064-2.357c1.064-0.567 2.045-2.256 2.279-4.255v4.105z"/>
  <path d="m284.5 238.6s1.277-2.111 1.995-2.902c0.7175-0.7908 2.114-1.712 2.349-3.71v4.105z"/>
 </g>
</svg>
