<svg version="1.1" viewBox="0 0 300 300" xmlns="http://www.w3.org/2000/svg">
 <g transform="matrix(.9294 0 0 .9294 185.7 18.38)">
  <g fill="#DC143C" fill-opacity=".9909">
   <path d="m40.46 7.786v1.57a1.57 1.57 0 0 0 1.57-1.57z"/>
   <path d="m54.22 7.786a1.57 1.57 0 0 0 1.569 1.57v-1.57z"/>
   <path d="m40.46 21.55v1.57h1.57a1.57 1.57 0 0 0-1.57-1.57z"/>
   <path d="m55.79 21.55a1.57 1.57 0 0 0-1.569 1.57h1.569z"/>
   <path d="m40.46 7.786v1.57a1.57 1.57 0 0 0 1.57-1.57z"/>
   <path d="m54.22 7.786a1.57 1.57 0 0 0 1.569 1.57v-1.57z"/>
   <path d="m40.46 21.55v1.57h1.57a1.57 1.57 0 0 0-1.57-1.57z"/>
   <path d="m55.79 21.55a1.57 1.57 0 0 0-1.569 1.57h1.569z"/>
   <path d="m40.46 23.12v1.57a1.57 1.57 0 0 0 1.57-1.57z"/>
   <path d="m54.22 23.12a1.57 1.57 0 0 0 1.569 1.57v-1.57z"/>
   <path d="m40.46 36.88v1.57h1.57a1.57 1.57 0 0 0-1.57-1.57z"/>
   <path d="m55.79 36.88a1.57 1.57 0 0 0-1.569 1.57h1.569z"/>
   <path d="m40.46 38.45v1.57a1.57 1.57 0 0 0 1.57-1.57z"/>
   <path d="m54.22 38.45a1.57 1.57 0 0 0 1.569 1.57v-1.57z"/>
   <path d="m40.46 52.21v1.57h1.57a1.57 1.57 0 0 0-1.57-1.57z"/>
   <path d="m55.79 52.21a1.57 1.57 0 0 0-1.569 1.57h1.569z"/>
   <path d="m40.46 53.78v1.57a1.57 1.57 0 0 0 1.57-1.57z"/>
   <path d="m54.22 53.78a1.57 1.57 0 0 0 1.569 1.57v-1.57z"/>
   <path d="m40.46 67.54v1.57h1.57a1.57 1.57 0 0 0-1.57-1.57z"/>
   <path d="m55.79 67.54a1.57 1.57 0 0 0-1.569 1.57h1.569z"/>
   <path d="m40.46 69.11v1.57a1.57 1.57 0 0 0 1.57-1.57z"/>
   <path d="m54.22 69.11a1.57 1.57 0 0 0 1.569 1.57v-1.57z"/>
   <path d="m40.46 82.87v1.57h1.57a1.57 1.57 0 0 0-1.57-1.57z"/>
   <path d="m55.79 82.87a1.57 1.57 0 0 0-1.569 1.57h1.569z"/>
   <path d="m55.79 7.786v1.57a1.57 1.57 0 0 0 1.57-1.57z"/>
   <path d="m69.55 7.786a1.57 1.57 0 0 0 1.569 1.57v-1.57z"/>
   <path d="m55.79 21.55v1.57h1.57a1.57 1.57 0 0 0-1.57-1.57z"/>
   <path d="m71.12 21.55a1.57 1.57 0 0 0-1.569 1.57h1.569z"/>
   <path d="m55.79 23.12v1.57a1.57 1.57 0 0 0 1.57-1.57z"/>
   <path d="m69.55 23.12a1.57 1.57 0 0 0 1.569 1.57v-1.57z"/>
   <path d="m55.79 36.88v1.57h1.57a1.57 1.57 0 0 0-1.57-1.57z"/>
   <path d="m71.12 36.88a1.57 1.57 0 0 0-1.569 1.57h1.569z"/>
   <path d="m55.79 38.45v1.57a1.57 1.57 0 0 0 1.57-1.57z"/>
   <path d="m69.55 38.45a1.57 1.57 0 0 0 1.569 1.57v-1.57z"/>
   <path d="m55.79 52.21v1.57h1.57a1.57 1.57 0 0 0-1.57-1.57z"/>
   <path d="m71.12 52.21a1.57 1.57 0 0 0-1.569 1.57h1.569z"/>
   <path d="m55.79 53.78v1.57a1.57 1.57 0 0 0 1.57-1.57z"/>
   <path d="m69.55 53.78a1.57 1.57 0 0 0 1.569 1.57v-1.57z"/>
   <path d="m55.79 67.54v1.57h1.57a1.57 1.57 0 0 0-1.57-1.57z"/>
   <path d="m71.12 67.54a1.57 1.57 0 0 0-1.569 1.57h1.569z"/>
   <path d="m55.79 69.11v1.57a1.57 1.57 0 0 0 1.57-1.57z"/>
   <path d="m69.55 69.11a1.57 1.57 0 0 0 1.569 1.57v-1.57z"/>
   <path d="m55.79 82.87v1.57h1.57a1.57 1.57 0 0 0-1.57-1.57z"/>
   <path d="m71.12 82.87a1.57 1.57 0 0 0-1.569 1.57h1.569z"/>
   <path d="m71.12 7.786v1.57a1.57 1.57 0 0 0 1.57-1.57z"/>
   <path d="m84.88 7.786a1.57 1.57 0 0 0 1.569 1.57v-1.57z"/>
   <path d="m71.12 21.55v1.57h1.57a1.57 1.57 0 0 0-1.57-1.57z"/>
   <path d="m86.45 21.55a1.57 1.57 0 0 0-1.569 1.57h1.569z"/>
   <path d="m71.12 23.12v1.57a1.57 1.57 0 0 0 1.57-1.57z"/>
   <path d="m84.88 23.12a1.57 1.57 0 0 0 1.569 1.57v-1.57z"/>
   <path d="m71.12 36.88v1.57h1.57a1.57 1.57 0 0 0-1.57-1.57z"/>
   <path d="m86.45 36.88a1.57 1.57 0 0 0-1.569 1.57h1.569z"/>
   <path d="m71.12 38.45v1.57a1.57 1.57 0 0 0 1.57-1.57z"/>
   <path d="m84.88 38.45a1.57 1.57 0 0 0 1.569 1.57v-1.57z"/>
   <path d="m71.12 52.21v1.57h1.57a1.57 1.57 0 0 0-1.57-1.57z"/>
   <path d="m86.45 52.21a1.57 1.57 0 0 0-1.569 1.57h1.569z"/>
   <path d="m71.12 53.78v1.57a1.57 1.57 0 0 0 1.57-1.57z"/>
   <path d="m84.88 53.78a1.57 1.57 0 0 0 1.569 1.57v-1.57z"/>
   <path d="m71.12 67.54v1.57h1.57a1.57 1.57 0 0 0-1.57-1.57z"/>
   <path d="m86.45 67.54a1.57 1.57 0 0 0-1.569 1.57h1.569z"/>
   <path d="m71.12 69.11v1.57a1.57 1.57 0 0 0 1.57-1.57z"/>
   <path d="m84.88 69.11a1.57 1.57 0 0 0 1.569 1.57v-1.57z"/>
   <path d="m71.12 82.87v1.57h1.57a1.57 1.57 0 0 0-1.57-1.57z"/>
   <path d="m86.45 82.87a1.57 1.57 0 0 0-1.569 1.57h1.569z"/>
   <path d="m86.45 7.786v1.57a1.57 1.57 0 0 0 1.57-1.57z"/>
   <path d="m100.2 7.786a1.57 1.57 0 0 0 1.569 1.57v-1.57z"/>
   <path d="m86.45 21.55v1.57h1.57a1.57 1.57 0 0 0-1.57-1.57z"/>
   <path d="m101.8 21.55a1.57 1.57 0 0 0-1.569 1.57h1.569z"/>
   <path d="m86.45 23.12v1.57a1.57 1.57 0 0 0 1.57-1.57z"/>
   <path d="m100.2 23.12a1.57 1.57 0 0 0 1.569 1.57v-1.57z"/>
   <path d="m86.45 36.88v1.57h1.57a1.57 1.57 0 0 0-1.57-1.57z"/>
   <path d="m101.8 36.88a1.57 1.57 0 0 0-1.569 1.57h1.569z"/>
   <path d="m86.45 38.45v1.57a1.57 1.57 0 0 0 1.57-1.57z"/>
   <path d="m100.2 38.45a1.57 1.57 0 0 0 1.569 1.57v-1.57z"/>
   <path d="m86.45 52.21v1.57h1.57a1.57 1.57 0 0 0-1.57-1.57z"/>
   <path d="m101.8 52.21a1.57 1.57 0 0 0-1.569 1.57h1.569z"/>
   <path d="m86.45 53.78v1.57a1.57 1.57 0 0 0 1.57-1.57z"/>
   <path d="m100.2 53.78a1.57 1.57 0 0 0 1.569 1.57v-1.57z"/>
   <path d="m86.45 67.54v1.57h1.57a1.57 1.57 0 0 0-1.57-1.57z"/>
   <path d="m101.8 67.54a1.57 1.57 0 0 0-1.569 1.57h1.569z"/>
   <path d="m86.45 69.11v1.57a1.57 1.57 0 0 0 1.57-1.57z"/>
   <path d="m100.2 69.11a1.57 1.57 0 0 0 1.569 1.57v-1.57z"/>
   <path d="m86.45 82.87v1.57h1.57a1.57 1.57 0 0 0-1.57-1.57z"/>
   <path d="m101.8 82.87a1.57 1.57 0 0 0-1.569 1.57h1.569z"/>
   <path d="m101.8 7.786v1.57a1.57 1.57 0 0 0 1.57-1.57z"/>
   <path d="m115.5 7.786a1.57 1.57 0 0 0 1.569 1.57v-1.57z"/>
   <path d="m101.8 21.55v1.57h1.57a1.57 1.57 0 0 0-1.57-1.57z"/>
   <path d="m117.1 21.55a1.57 1.57 0 0 0-1.569 1.57h1.569z"/>
   <path d="m101.8 23.12v1.57a1.57 1.57 0 0 0 1.57-1.57z"/>
   <path d="m115.5 23.12a1.57 1.57 0 0 0 1.569 1.57v-1.57z"/>
   <path d="m101.8 36.88v1.57h1.57a1.57 1.57 0 0 0-1.57-1.57z"/>
   <path d="m117.1 36.88a1.57 1.57 0 0 0-1.569 1.57h1.569z"/>
   <path d="m101.8 38.45v1.57a1.57 1.57 0 0 0 1.57-1.57z"/>
   <path d="m115.5 38.45a1.57 1.57 0 0 0 1.569 1.57v-1.57z"/>
   <path d="m101.8 52.21v1.57h1.57a1.57 1.57 0 0 0-1.57-1.57z"/>
   <path d="m117.1 52.21a1.57 1.57 0 0 0-1.569 1.57h1.569z"/>
   <path d="m101.8 53.78v1.57a1.57 1.57 0 0 0 1.57-1.57z"/>
   <path d="m115.5 53.78a1.57 1.57 0 0 0 1.569 1.57v-1.57z"/>
   <path d="m101.8 67.54v1.57h1.57a1.57 1.57 0 0 0-1.57-1.57z"/>
   <path d="m117.1 67.54a1.57 1.57 0 0 0-1.569 1.57h1.569z"/>
   <path d="m101.8 69.11v1.57a1.57 1.57 0 0 0 1.57-1.57z"/>
   <path d="m115.5 69.11a1.57 1.57 0 0 0 1.569 1.57v-1.57z"/>
   <path d="m101.8 82.87v1.57h1.57a1.57 1.57 0 0 0-1.57-1.57z"/>
   <path d="m117.1 82.87a1.57 1.57 0 0 0-1.569 1.57h1.569z"/>
  </g>
  <g>
   <path d="m-42.35 60.28-108.2 63.51c-2.591 0.2853-7.134-0.137-7.134 2.534 0 0 90.35 54.34 92.91 54.34 2.906 3e-5 116.3-67.19 116.3-67.19 4.929-2.299-63.58-35.69-93.88-53.18z" fill="#161B3D"/>
   <path d="m-42.35 59.09-110.5 64.52-3.765 0.3634v1.833l92.07 53.16 114.9-66.35v-1.836l-2.341 0.4846z" fill="#c0c0c0"/>
   <path d="m-42.35 57.26-112.5 65.68-1.762-0.0617v1.09l2e-3 2e-3 92.07 53.16 114.9-66.35v-1.09l-1.74 0.0868z" fill="#f5f5f5"/>
   <path d="m-42.35 56.17-110.5 64.52-3.765 0.3634v1.833l92.07 53.16 114.9-66.35v-1.836l-2.341 0.4846z" fill="#a9a9a9"/>
   <path d="m-42.35 54.33-112.5 65.68-1.762-0.0617v1.09l2e-3 2e-3 92.07 53.16 114.9-66.35v-1.09l-1.74 0.0868z" fill="#f5f5f5"/>
  </g>
  <g fill="none" stroke="#161B3D" stroke-linecap="round" stroke-width=".5594">
   <path d="m-144.6 110.8s-0.3714 2.858 2.927 3.669"/>
   <path d="m-144.1 110.2s-0.3714 2.858 2.927 3.669"/>
   <path d="m-136.2 105.8s-0.3714 2.858 2.927 3.669"/>
   <path d="m-135.6 105.2s-0.3714 2.858 2.927 3.669"/>
   <path d="m-127.7 100.8s-0.3714 2.858 2.927 3.669"/>
   <path d="m-127.1 100.3s-0.3714 2.858 2.927 3.669"/>
   <path d="m-119.2 95.87s-0.3714 2.858 2.927 3.669"/>
   <path d="m-118.6 95.3s-0.3714 2.858 2.927 3.669"/>
   <path d="m-110.7 90.91s-0.3714 2.858 2.927 3.669"/>
   <path d="m-110.1 90.34s-0.3714 2.858 2.927 3.669"/>
   <path d="m-102.2 85.94s-0.3714 2.858 2.927 3.669"/>
   <path d="m-101.6 85.38s-0.3714 2.858 2.927 3.669"/>
   <path d="m-93.67 80.98s-0.3714 2.858 2.927 3.669"/>
   <path d="m-93.11 80.42s-0.3714 2.858 2.927 3.669"/>
   <path d="m-85.18 76.02s-0.3714 2.858 2.927 3.669"/>
   <path d="m-84.61 75.45s-0.3714 2.858 2.927 3.669"/>
   <path d="m-76.68 71.06s-0.3714 2.858 2.927 3.669"/>
   <path d="m-76.12 70.49s-0.3714 2.858 2.927 3.669"/>
   <path d="m-68.19 66.09s-0.3714 2.858 2.927 3.669"/>
   <path d="m-67.62 65.53s-0.3714 2.858 2.927 3.669"/>
   <path d="m-59.69 61.13s-0.3714 2.858 2.927 3.669"/>
   <path d="m-59.12 60.57s-0.3714 2.858 2.927 3.669"/>
   <path d="m-51.19 56.17s-0.3714 2.858 2.927 3.669"/>
   <path d="m-50.63 55.6s-0.3714 2.858 2.927 3.669"/>
   <path d="m-153.1 115.7s-0.3714 2.858 2.927 3.669"/>
   <path d="m-152.6 115.2s-0.3714 2.858 2.927 3.669"/>
  </g>
  <path d="m-42.35 53.24-110.5 64.52-3.765 0.3634v1.833l92.07 53.16 114.9-66.35v-1.836l-2.341 0.4846z" fill="#c0c0c0"/>
  <path d="m-64.57 171.3-92.07-53.16 114.3-66.71 92.7 53.52z" fill="#fff"/>
  <g>
   <ellipse cx="-44.49" cy="56.97" rx="1.438" ry=".559"/>
   <ellipse cx="-138" cy="111.4" rx="1.438" ry=".559"/>
   <ellipse cx="-78.48" cy="76.78" rx="1.438" ry=".559"/>
   <ellipse cx="-69.99" cy="71.83" rx="1.438" ry=".559"/>
   <ellipse cx="-61.49" cy="66.87" rx="1.438" ry=".559"/>
   <ellipse cx="-52.99" cy="61.92" rx="1.438" ry=".559"/>
   <ellipse cx="-146.5" cy="116.4" rx="1.438" ry=".559"/>
   <ellipse cx="-129.5" cy="106.5" rx="1.438" ry=".559"/>
   <ellipse cx="-121" cy="101.5" rx="1.438" ry=".559"/>
   <ellipse cx="-112.5" cy="96.59" rx="1.438" ry=".559"/>
   <ellipse cx="-104" cy="91.63" rx="1.438" ry=".559"/>
   <ellipse cx="-95.48" cy="86.68" rx="1.438" ry=".559"/>
   <ellipse cx="-86.98" cy="81.73" rx="1.438" ry=".559"/>
  </g>
  <g fill="none" stroke="#161B3D" stroke-width=".5594">
   <path d="m-138.5 111.8s-0.1365-3.489-2.749-3.688c-1.977-0.151-3.356 1.146-3.433 2.744"/>
   <path d="m-137.9 111.2s-0.1365-3.489-2.749-3.688c-1.977-0.151-3.356 1.146-3.433 2.744"/>
   <path d="m-130 106.8s-0.1365-3.489-2.749-3.688c-1.977-0.151-3.356 1.146-3.433 2.744"/>
   <path d="m-129.4 106.3s-0.1365-3.489-2.749-3.688c-1.977-0.151-3.356 1.146-3.433 2.744"/>
   <path d="m-121.5 101.9s-0.1365-3.489-2.749-3.688c-1.977-0.151-3.356 1.146-3.433 2.744"/>
   <path d="m-120.9 101.3s-0.1365-3.489-2.749-3.688c-1.977-0.151-3.356 1.146-3.433 2.744"/>
   <path d="m-113 96.91s-0.1365-3.489-2.749-3.688c-1.977-0.151-3.356 1.146-3.433 2.744"/>
   <path d="m-112.4 96.34s-0.1365-3.489-2.749-3.688c-1.977-0.151-3.356 1.146-3.433 2.744"/>
   <path d="m-104.5 91.95s-0.1365-3.489-2.749-3.688c-1.977-0.151-3.356 1.146-3.433 2.744"/>
   <path d="m-103.9 91.38s-0.1365-3.489-2.749-3.688c-1.977-0.151-3.356 1.146-3.433 2.744"/>
   <path d="m-96 86.98s-0.1365-3.489-2.749-3.688c-1.977-0.151-3.356 1.146-3.433 2.744"/>
   <path d="m-95.44 86.42s-0.1365-3.489-2.749-3.688c-1.977-0.151-3.356 1.146-3.433 2.744"/>
   <path d="m-87.51 82.02s-0.1365-3.489-2.749-3.688c-1.977-0.151-3.356 1.146-3.433 2.744"/>
   <path d="m-86.94 81.46s-0.1365-3.489-2.749-3.688c-1.977-0.151-3.356 1.146-3.433 2.744"/>
   <path d="m-79.01 77.06s-0.1365-3.489-2.749-3.688c-1.977-0.151-3.356 1.146-3.433 2.744"/>
   <path d="m-78.44 76.49s-0.1365-3.489-2.749-3.688c-1.977-0.151-3.356 1.146-3.433 2.744"/>
   <path d="m-70.51 72.1s-0.1365-3.489-2.749-3.688c-1.977-0.151-3.356 1.146-3.433 2.744"/>
   <path d="m-69.95 71.53s-0.1365-3.489-2.749-3.688c-1.977-0.151-3.356 1.146-3.433 2.744"/>
   <path d="m-62.02 67.13s-0.1365-3.489-2.749-3.688c-1.977-0.151-3.356 1.146-3.433 2.744"/>
   <path d="m-61.45 66.57s-0.1365-3.489-2.749-3.688c-1.977-0.151-3.356 1.146-3.433 2.744"/>
   <path d="m-53.52 62.17s-0.1365-3.489-2.749-3.688c-1.977-0.151-3.356 1.146-3.433 2.744"/>
   <path d="m-52.96 61.61s-0.1365-3.489-2.749-3.688c-1.977-0.151-3.356 1.146-3.433 2.744"/>
   <path d="m-45.03 57.21s-0.1365-3.489-2.749-3.688c-1.977-0.151-3.356 1.146-3.433 2.744"/>
   <path d="m-44.46 56.64s-0.1365-3.489-2.749-3.688c-1.977-0.151-3.356 1.146-3.433 2.744"/>
   <path d="m-147 116.8s-0.1365-3.489-2.749-3.688c-1.977-0.151-3.356 1.146-3.433 2.744"/>
   <path d="m-146.4 116.2s-0.1365-3.489-2.749-3.688c-1.977-0.151-3.356 1.146-3.433 2.744"/>
  </g>
  <g fill="#8393FF" stroke="#00bfff" stroke-width=".291">
   <path d="m-59.75 162.1-84.27-48.65"/>
   <path d="m-137.2 109.5 84.37 48.71"/>
   <path d="m-130.4 105.6 84.37 48.71"/>
   <path d="m-123.6 101.6 84.37 48.71"/>
   <path d="m-116.8 97.68 84.37 48.71"/>
   <path d="m-109.9 93.74 84.37 48.71"/>
   <path d="m-103.1 89.8 84.37 48.71"/>
   <path d="m-96.26 85.86 84.37 48.71"/>
   <path d="m-89.43 81.92 84.37 48.71"/>
   <path d="m-82.6 77.99 84.37 48.71"/>
   <path d="m-75.77 74.05 84.37 48.71"/>
   <path d="m-68.94 70.11 84.37 48.71"/>
   <path d="m-62.11 66.17 84.37 48.71"/>
   <path d="m-55.28 62.23 84.37 48.71"/>
   <path d="m-48.45 58.29 84.37 48.71"/>
  </g>
  <path d="m-141.1 126.9 114.4-66.05" fill="none" stroke="#DC143C" stroke-width=".291"/>
  <path d="m11.56 189.8 74.21-42.85-29.68-17.14-74.21 42.85z" fill="none"/>
  <g fill="#8393FF">
   <path d="m78.19 112.2c-6.204 0.0678-10.9 1.714-12.31 6.067-2.27 7.03-5.556 9.005-9.797 11.43l3.282 15.63 26.4 1.51c3.256-1.271-1.441 0.2022 8.865-3.363 0 0 11.52-2.459 12.9-8.411 2.624-6.505-4.574-15.54-16.08-20.18-3.99-1.609-8.157-2.536-12.01-2.671-0.4276-0.015-0.8479-0.0204-1.262-0.0159zm2.05 1.586c3.431 0.1203 7.145 0.9467 10.7 2.381 10.25 4.134 16.67 12.19 14.33 17.98-2.338 5.798-12.54 7.147-22.8 3.012-10.25-4.135-16.67-12.19-14.33-17.98 1.441-3.574 5.999-5.606 12.09-5.392z"/>
   <path d="m108.2 132.8v-9.263s-3.035 5.43-3.354 5.51c-0.3194 0.0799-20.92 8.625-20.92 8.625l-11.66 5.909v11.18l14.77-8.465 11.18-5.271 7.826-4.712z"/>
   <path d="m56.08 129.9-66.4 38.34 0.0079 0.0102c-0.05241 0.0234-1.565 0.8951-1.617 0.9185l-1.233 0.712c-3.169 1.873-2.248 4.516 2.876 7.399 0.0045 2e-3 0.0079 5e-3 0.01249 8e-3l17.51 10.11 0.00907-5e-3c3.018 1.887 5.867 1.725 8.584 0l0.02837 0.0113 69.91-40.36z"/>
   <path d="m-15 172.1v-8.357l11.52 3.458-0.4517 11.75z"/>
  </g>
  <g>
   <path d="m56.08 121.5-66.4 38.34c-0.4961 0.3078-1.078 0.6268-1.609 0.9288l-1.233 0.712c-3.169 1.873-2.248 4.516 2.876 7.399 0.0045 2e-3 0.0079 5e-3 0.01249 8e-3l17.51 10.11 0.00907-5e-3c3.018 1.887 5.867 1.725 8.584 0l0.02837 0.0113 69.91-40.36z" fill="#161B3D"/>
   <path d="m65.86 119.7s-0.9035-6.55 1.581-9.712c2.485-3.162 8.037-6.746 19.2-4.291 20.71 4.554 21.42 21.83 19.88 21.68l-10.39-9.486c-4.568-2.267-8.104-4.878-17.84-5.421-4.21 0.4536-6.83 1.438-9.261 2.485z" fill="#8393FF"/>
   <path d="m85.58 112.2s-3.001 0.1761-6.412 0.3599c0.8565 2.474 1.234 5.312 0.9186 8.665l6.981-0.3361c0.6435-2.896 0.8174-5.793-1.487-8.689zm-7.183 0.4031c-0.5316 0.028-1.116 0.0536-1.67 0.0817 0.8362 2.474 1.195 5.312 0.8641 8.66l1.746-0.084c0.3363-3.396-0.05744-6.213-0.9402-8.658zm-2.442 0.1192c-0.5606 0.028-1.105 0.0548-1.671 0.0817 0.8175 2.475 1.156 5.315 0.8107 8.661l1.747-0.084c0.352-3.394-0.0236-6.213-0.8868-8.659zm-2.444 0.1192c-2.502 0.1158-4.939 0.2178-6.829 0.26-2.315 0.4236 1.146 4.203 1.663 8.69l5.997-0.2896c0.3677-3.393 0.01134-6.213-0.8323-8.66z" fill="#DC143C" stroke="#fff" stroke-width=".52"/>
   <path d="m86.69 115.5c-1.979 0.0386-3.899 0.4903-5.695 1.804l1.66 6.036c3.146-1.357 5.986-1.914 8.602-1.904 0.5935 2e-3 1.173 0.0424 1.744 0.0999l-1.617-5.588c-1.58-0.2592-3.155-0.4785-4.694-0.4485zm4.562 6.677c-2.536-0.0118-5.299 0.5372-8.399 1.889l0.3599 1.308c2.922-1.186 5.584-1.689 8.044-1.679 0.8309 3e-3 1.635 0.0753 2.423 0.1851l-0.4542-1.568c-0.645-0.0769-1.299-0.132-1.973-0.1351zm0 2.258c-2.384-0.011-4.966 0.4703-7.843 1.651l0.4303 1.567c2.943-1.201 5.621-1.709 8.095-1.7 0.8226 3e-3 1.618 0.0751 2.398 0.1828l-0.4281-1.48c-0.8592-0.136-1.741-0.2172-2.652-0.2214zm0.6767 2.258c-2.398-0.0111-4.996 0.4754-7.893 1.671l1.927 7.009 10.39-2.26-1.795-6.203c-0.8518-0.1336-1.725-0.2138-2.629-0.218z" fill="#DC143C" stroke="#fff" stroke-width=".52"/>
   <path d="m78.19 104c-6.204 0.0678-10.9 1.714-12.31 6.067-2.27 7.03-5.556 9.005-9.797 11.43l3.282 15.63 26.4 1.51c3.256-1.271-1.441 0.2022 8.865-3.363 0 0 11.52-2.459 12.9-8.411 2.624-6.505-4.574-15.54-16.08-20.18-3.99-1.609-8.157-2.536-12.01-2.671-0.4276-0.015-0.8479-0.0204-1.262-0.0159zm2.05 1.586c3.431 0.1203 7.145 0.9467 10.7 2.381 10.25 4.134 16.67 12.19 14.33 17.98-2.338 5.798-12.54 7.147-22.8 3.012-10.25-4.135-16.67-12.19-14.33-17.98 1.441-3.574 5.999-5.606 12.09-5.392z" fill="#161B3D"/>
   <path d="m60.08 123.9-29.39 17.17 19.48 11.34 29.87-17.01z" fill="#fff"/>
   <text transform="matrix(1.007 .5963 -.7547 .5463 0 0)" x="126.86227" y="97.556297" fill="#161B3D" font-family="sans-serif" font-size="5.633px" letter-spacing="0px" stroke-width=".2641" word-spacing="0px" style="font-feature-settings:normal;font-variant-caps:normal;font-variant-ligatures:normal;font-variant-numeric:normal;line-height:1.25" xml:space="preserve"><tspan x="126.86227" y="97.556297" fill="#161B3D" font-family="Segment7" font-size="5.633px" font-style="italic" font-weight="600" stroke-width=".2641" style="font-feature-settings:normal;font-variant-caps:normal;font-variant-ligatures:normal;font-variant-numeric:normal">22:31</tspan></text>
  </g>
  <g fill="#8393FF">
   <ellipse transform="matrix(.9633 .2684 .4666 .8845 0 0)" cx="-59.26" cy="183.8" rx="3.82" ry="2.3"/>
   <ellipse transform="matrix(.9633 .2684 .4666 .8845 0 0)" cx="-50.92" cy="188.5" rx="3.82" ry="2.3"/>
   <path d="m21.52 150.3a6.88 4.34 20.54 0 0-4.236 4.784 6.88 4.34 20.54 0 0 8.349 4.67 6.88 4.34 20.54 0 0 4.236-4.784 6.88 4.34 20.54 0 0-8.349-4.67zm0.2493 0.573a6.046 3.814 20.54 0 1 7.337 4.103 6.046 3.814 20.54 0 1-3.723 4.204 6.046 3.814 20.54 0 1-7.337-4.104 6.046 3.814 20.54 0 1 3.722-4.204z"/>
  </g>
  <g fill="#DC143C">
   <ellipse transform="matrix(1 -.009077 .3989 .917 0 0)" cx="-43.69" cy="168.6" rx="4.195" ry="3.436" fill-opacity=".7725" stroke="#fff" stroke-linecap="round" stroke-width=".3429"/>
   <g fill-opacity=".9909">
    <path d="m-194 199.1v1.57a1.57 1.57 0 0 0 1.57-1.57z"/>
    <path d="m-180.3 199.1a1.57 1.57 0 0 0 1.569 1.57v-1.57z"/>
    <path d="m-194 212.8v1.57h1.57a1.57 1.57 0 0 0-1.57-1.57z"/>
    <path d="m-178.7 212.8a1.57 1.57 0 0 0-1.569 1.57h1.569z"/>
    <path d="m-194 199.1v1.57a1.57 1.57 0 0 0 1.57-1.57z"/>
    <path d="m-180.3 199.1a1.57 1.57 0 0 0 1.569 1.57v-1.57z"/>
    <path d="m-194 212.8v1.57h1.57a1.57 1.57 0 0 0-1.57-1.57z"/>
    <path d="m-178.7 212.8a1.57 1.57 0 0 0-1.569 1.57h1.569z"/>
    <path d="m-194 214.4v1.57a1.57 1.57 0 0 0 1.57-1.57z"/>
    <path d="m-180.3 214.4a1.57 1.57 0 0 0 1.569 1.57v-1.57z"/>
    <path d="m-194 228.2v1.57h1.57a1.57 1.57 0 0 0-1.57-1.57z"/>
    <path d="m-178.7 228.2a1.57 1.57 0 0 0-1.569 1.57h1.569z"/>
    <path d="m-194 229.7v1.57a1.57 1.57 0 0 0 1.57-1.57z"/>
    <path d="m-180.3 229.7a1.57 1.57 0 0 0 1.569 1.57v-1.57z"/>
    <path d="m-194 243.5v1.57h1.57a1.57 1.57 0 0 0-1.57-1.57z"/>
    <path d="m-178.7 243.5a1.57 1.57 0 0 0-1.569 1.57h1.569z"/>
    <path d="m-194 245.1v1.57a1.57 1.57 0 0 0 1.57-1.57z"/>
    <path d="m-180.3 245.1a1.57 1.57 0 0 0 1.569 1.57v-1.57z"/>
    <path d="m-194 258.8v1.57h1.57a1.57 1.57 0 0 0-1.57-1.57z"/>
    <path d="m-178.7 258.8a1.57 1.57 0 0 0-1.569 1.57h1.569z"/>
    <path d="m-194 260.4v1.57a1.57 1.57 0 0 0 1.57-1.57z"/>
    <path d="m-180.3 260.4a1.57 1.57 0 0 0 1.569 1.57v-1.57z"/>
    <path d="m-194 274.2v1.57h1.57a1.57 1.57 0 0 0-1.57-1.57z"/>
    <path d="m-178.7 274.2a1.57 1.57 0 0 0-1.569 1.57h1.569z"/>
    <path d="m-178.7 199.1v1.57a1.57 1.57 0 0 0 1.57-1.57z"/>
    <path d="m-164.9 199.1a1.57 1.57 0 0 0 1.569 1.57v-1.57z"/>
    <path d="m-178.7 212.8v1.57h1.57a1.57 1.57 0 0 0-1.57-1.57z"/>
    <path d="m-163.4 212.8a1.57 1.57 0 0 0-1.569 1.57h1.569z"/>
    <path d="m-178.7 214.4v1.57a1.57 1.57 0 0 0 1.57-1.57z"/>
    <path d="m-164.9 214.4a1.57 1.57 0 0 0 1.569 1.57v-1.57z"/>
    <path d="m-178.7 228.2v1.57h1.57a1.57 1.57 0 0 0-1.57-1.57z"/>
    <path d="m-163.4 228.2a1.57 1.57 0 0 0-1.569 1.57h1.569z"/>
    <path d="m-178.7 229.7v1.57a1.57 1.57 0 0 0 1.57-1.57z"/>
    <path d="m-164.9 229.7a1.57 1.57 0 0 0 1.569 1.57v-1.57z"/>
    <path d="m-178.7 243.5v1.57h1.57a1.57 1.57 0 0 0-1.57-1.57z"/>
    <path d="m-163.4 243.5a1.57 1.57 0 0 0-1.569 1.57h1.569z"/>
    <path d="m-178.7 245.1v1.57a1.57 1.57 0 0 0 1.57-1.57z"/>
    <path d="m-164.9 245.1a1.57 1.57 0 0 0 1.569 1.57v-1.57z"/>
    <path d="m-178.7 258.8v1.57h1.57a1.57 1.57 0 0 0-1.57-1.57z"/>
    <path d="m-163.4 258.8a1.57 1.57 0 0 0-1.569 1.57h1.569z"/>
    <path d="m-178.7 260.4v1.57a1.57 1.57 0 0 0 1.57-1.57z"/>
    <path d="m-164.9 260.4a1.57 1.57 0 0 0 1.569 1.57v-1.57z"/>
    <path d="m-178.7 274.2v1.57h1.57a1.57 1.57 0 0 0-1.57-1.57z"/>
    <path d="m-163.4 274.2a1.57 1.57 0 0 0-1.569 1.57h1.569z"/>
    <path d="m-163.4 199.1v1.57a1.57 1.57 0 0 0 1.57-1.57z"/>
    <path d="m-149.6 199.1a1.57 1.57 0 0 0 1.569 1.57v-1.57z"/>
    <path d="m-163.4 212.8v1.57h1.57a1.57 1.57 0 0 0-1.57-1.57z"/>
    <path d="m-148 212.8a1.57 1.57 0 0 0-1.569 1.57h1.569z"/>
    <path d="m-163.4 214.4v1.57a1.57 1.57 0 0 0 1.57-1.57z"/>
    <path d="m-149.6 214.4a1.57 1.57 0 0 0 1.569 1.57v-1.57z"/>
    <path d="m-163.4 228.2v1.57h1.57a1.57 1.57 0 0 0-1.57-1.57z"/>
    <path d="m-148 228.2a1.57 1.57 0 0 0-1.569 1.57h1.569z"/>
    <path d="m-163.4 229.7v1.57a1.57 1.57 0 0 0 1.57-1.57z"/>
    <path d="m-149.6 229.7a1.57 1.57 0 0 0 1.569 1.57v-1.57z"/>
    <path d="m-163.4 243.5v1.57h1.57a1.57 1.57 0 0 0-1.57-1.57z"/>
    <path d="m-148 243.5a1.57 1.57 0 0 0-1.569 1.57h1.569z"/>
    <path d="m-163.4 245.1v1.57a1.57 1.57 0 0 0 1.57-1.57z"/>
    <path d="m-149.6 245.1a1.57 1.57 0 0 0 1.569 1.57v-1.57z"/>
    <path d="m-163.4 258.8v1.57h1.57a1.57 1.57 0 0 0-1.57-1.57z"/>
    <path d="m-148 258.8a1.57 1.57 0 0 0-1.569 1.57h1.569z"/>
    <path d="m-163.4 260.4v1.57a1.57 1.57 0 0 0 1.57-1.57z"/>
    <path d="m-149.6 260.4a1.57 1.57 0 0 0 1.569 1.57v-1.57z"/>
    <path d="m-163.4 274.2v1.57h1.57a1.57 1.57 0 0 0-1.57-1.57z"/>
    <path d="m-148 274.2a1.57 1.57 0 0 0-1.569 1.57h1.569z"/>
    <path d="m-148 199.1v1.57a1.57 1.57 0 0 0 1.57-1.57z"/>
    <path d="m-134.3 199.1a1.57 1.57 0 0 0 1.569 1.57v-1.57z"/>
    <path d="m-148 212.8v1.57h1.57a1.57 1.57 0 0 0-1.57-1.57z"/>
    <path d="m-132.7 212.8a1.57 1.57 0 0 0-1.569 1.57h1.569z"/>
    <path d="m-148 214.4v1.57a1.57 1.57 0 0 0 1.57-1.57z"/>
    <path d="m-134.3 214.4a1.57 1.57 0 0 0 1.569 1.57v-1.57z"/>
    <path d="m-148 228.2v1.57h1.57a1.57 1.57 0 0 0-1.57-1.57z"/>
    <path d="m-132.7 228.2a1.57 1.57 0 0 0-1.569 1.57h1.569z"/>
    <path d="m-148 229.7v1.57a1.57 1.57 0 0 0 1.57-1.57z"/>
    <path d="m-134.3 229.7a1.57 1.57 0 0 0 1.569 1.57v-1.57z"/>
    <path d="m-148 243.5v1.57h1.57a1.57 1.57 0 0 0-1.57-1.57z"/>
    <path d="m-132.7 243.5a1.57 1.57 0 0 0-1.569 1.57h1.569z"/>
    <path d="m-148 245.1v1.57a1.57 1.57 0 0 0 1.57-1.57z"/>
    <path d="m-134.3 245.1a1.57 1.57 0 0 0 1.569 1.57v-1.57z"/>
    <path d="m-148 258.8v1.57h1.57a1.57 1.57 0 0 0-1.57-1.57z"/>
    <path d="m-132.7 258.8a1.57 1.57 0 0 0-1.569 1.57h1.569z"/>
    <path d="m-148 260.4v1.57a1.57 1.57 0 0 0 1.57-1.57z"/>
    <path d="m-134.3 260.4a1.57 1.57 0 0 0 1.569 1.57v-1.57z"/>
    <path d="m-148 274.2v1.57h1.57a1.57 1.57 0 0 0-1.57-1.57z"/>
    <path d="m-132.7 274.2a1.57 1.57 0 0 0-1.569 1.57h1.569z"/>
    <path d="m-132.7 199.1v1.57a1.57 1.57 0 0 0 1.57-1.57z"/>
    <path d="m-119 199.1a1.57 1.57 0 0 0 1.569 1.57v-1.57z"/>
    <path d="m-132.7 212.8v1.57h1.57a1.57 1.57 0 0 0-1.57-1.57z"/>
    <path d="m-117.4 212.8a1.57 1.57 0 0 0-1.569 1.57h1.569z"/>
    <path d="m-132.7 214.4v1.57a1.57 1.57 0 0 0 1.57-1.57z"/>
    <path d="m-119 214.4a1.57 1.57 0 0 0 1.569 1.57v-1.57z"/>
    <path d="m-132.7 228.2v1.57h1.57a1.57 1.57 0 0 0-1.57-1.57z"/>
    <path d="m-117.4 228.2a1.57 1.57 0 0 0-1.569 1.57h1.569z"/>
    <path d="m-132.7 229.7v1.57a1.57 1.57 0 0 0 1.57-1.57z"/>
    <path d="m-119 229.7a1.57 1.57 0 0 0 1.569 1.57v-1.57z"/>
    <path d="m-132.7 243.5v1.57h1.57a1.57 1.57 0 0 0-1.57-1.57z"/>
    <path d="m-117.4 243.5a1.57 1.57 0 0 0-1.569 1.57h1.569z"/>
    <path d="m-132.7 245.1v1.57a1.57 1.57 0 0 0 1.57-1.57z"/>
    <path d="m-119 245.1a1.57 1.57 0 0 0 1.569 1.57v-1.57z"/>
    <path d="m-132.7 258.8v1.57h1.57a1.57 1.57 0 0 0-1.57-1.57z"/>
    <path d="m-117.4 258.8a1.57 1.57 0 0 0-1.569 1.57h1.569z"/>
    <path d="m-132.7 260.4v1.57a1.57 1.57 0 0 0 1.57-1.57z"/>
    <path d="m-119 260.4a1.57 1.57 0 0 0 1.569 1.57v-1.57z"/>
    <path d="m-132.7 274.2v1.57h1.57a1.57 1.57 0 0 0-1.57-1.57z"/>
    <path d="m-117.4 274.2a1.57 1.57 0 0 0-1.569 1.57h1.569z"/>
   </g>
  </g>
 </g>
</svg>
