<svg version="1.1" viewBox="0 0 300 300" xmlns="http://www.w3.org/2000/svg">
 <g transform="translate(0 -217.6)">
  <g transform="matrix(.7009 0 0 .7009 -16.12 49.66)" fill="#df00df">
   <circle cx="30" cy="246.6" r="7" style="paint-order:normal"/>
   <circle cx="30" cy="292.6" r="7" style="paint-order:normal"/>
   <circle cx="30" cy="338.6" r="7" style="paint-order:normal"/>
   <circle cx="30" cy="384.6" r="7" style="paint-order:normal"/>
   <circle cx="30" cy="430.6" r="7" style="paint-order:normal"/>
   <circle cx="30" cy="476.6" r="7" style="paint-order:normal"/>
   <circle cx="30" cy="522.6" r="7" style="paint-order:normal"/>
   <circle cx="30" cy="568.6" r="7" style="paint-order:normal"/>
   <circle cx="30" cy="614.6" r="7" style="paint-order:normal"/>
   <circle cx="30" cy="660.6" r="7" style="paint-order:normal"/>
   <circle cx="76" cy="246.6" r="7" style="paint-order:normal"/>
   <circle cx="76" cy="292.6" r="7" style="paint-order:normal"/>
   <circle cx="76" cy="338.6" r="7" style="paint-order:normal"/>
   <circle cx="76" cy="384.6" r="7" style="paint-order:normal"/>
   <circle cx="76" cy="430.6" r="7" style="paint-order:normal"/>
   <circle cx="76" cy="476.6" r="7" style="paint-order:normal"/>
   <circle cx="76" cy="522.6" r="7" style="paint-order:normal"/>
   <circle cx="76" cy="568.6" r="7" style="paint-order:normal"/>
   <circle cx="76" cy="614.6" r="7" style="paint-order:normal"/>
   <circle cx="76" cy="660.6" r="7" style="paint-order:normal"/>
   <circle cx="122" cy="246.6" r="7" style="paint-order:normal"/>
   <circle cx="122" cy="292.6" r="7" style="paint-order:normal"/>
   <circle cx="122" cy="338.6" r="7" style="paint-order:normal"/>
   <circle cx="122" cy="384.6" r="7" style="paint-order:normal"/>
   <circle cx="122" cy="430.6" r="7" style="paint-order:normal"/>
   <circle cx="122" cy="476.6" r="7" style="paint-order:normal"/>
   <circle cx="122" cy="522.6" r="7" style="paint-order:normal"/>
   <circle cx="122" cy="568.6" r="7" style="paint-order:normal"/>
   <circle cx="122" cy="614.6" r="7" style="paint-order:normal"/>
   <circle cx="122" cy="660.6" r="7" style="paint-order:normal"/>
   <circle cx="168" cy="246.6" r="7" style="paint-order:normal"/>
   <circle cx="168" cy="292.6" r="7" style="paint-order:normal"/>
   <circle cx="168" cy="338.6" r="7" style="paint-order:normal"/>
   <circle cx="168" cy="384.6" r="7" style="paint-order:normal"/>
   <circle cx="168" cy="430.6" r="7" style="paint-order:normal"/>
   <circle cx="168" cy="476.6" r="7" style="paint-order:normal"/>
   <circle cx="168" cy="522.6" r="7" style="paint-order:normal"/>
   <circle cx="168" cy="568.6" r="7" style="paint-order:normal"/>
   <circle cx="168" cy="614.6" r="7" style="paint-order:normal"/>
   <circle cx="168" cy="660.6" r="7" style="paint-order:normal"/>
   <circle cx="214" cy="246.6" r="7" style="paint-order:normal"/>
   <circle cx="214" cy="292.6" r="7" style="paint-order:normal"/>
   <circle cx="214" cy="338.6" r="7" style="paint-order:normal"/>
   <circle cx="214" cy="384.6" r="7" style="paint-order:normal"/>
   <circle cx="214" cy="430.6" r="7" style="paint-order:normal"/>
   <circle cx="214" cy="476.6" r="7" style="paint-order:normal"/>
   <circle cx="214" cy="522.6" r="7" style="paint-order:normal"/>
   <circle cx="214" cy="568.6" r="7" style="paint-order:normal"/>
   <circle cx="214" cy="614.6" r="7" style="paint-order:normal"/>
   <circle cx="214" cy="660.6" r="7" style="paint-order:normal"/>
   <circle cx="260" cy="246.6" r="7" style="paint-order:normal"/>
   <circle cx="260" cy="292.6" r="7" style="paint-order:normal"/>
   <circle cx="260" cy="338.6" r="7" style="paint-order:normal"/>
   <circle cx="260" cy="384.6" r="7" style="paint-order:normal"/>
   <circle cx="260" cy="430.6" r="7" style="paint-order:normal"/>
   <circle cx="260" cy="476.6" r="7" style="paint-order:normal"/>
   <circle cx="260" cy="522.6" r="7" style="paint-order:normal"/>
   <circle cx="260" cy="568.6" r="7" style="paint-order:normal"/>
   <circle cx="260" cy="614.6" r="7" style="paint-order:normal"/>
   <circle cx="260" cy="660.6" r="7" style="paint-order:normal"/>
   <circle cx="306" cy="246.6" r="7" style="paint-order:normal"/>
   <circle cx="306" cy="292.6" r="7" style="paint-order:normal"/>
   <circle cx="306" cy="338.6" r="7" style="paint-order:normal"/>
   <circle cx="306" cy="384.6" r="7" style="paint-order:normal"/>
   <circle cx="306" cy="430.6" r="7" style="paint-order:normal"/>
   <circle cx="306" cy="476.6" r="7" style="paint-order:normal"/>
   <circle cx="306" cy="522.6" r="7" style="paint-order:normal"/>
   <circle cx="306" cy="568.6" r="7" style="paint-order:normal"/>
   <circle cx="306" cy="614.6" r="7" style="paint-order:normal"/>
   <circle cx="306" cy="660.6" r="7" style="paint-order:normal"/>
   <circle cx="352" cy="246.6" r="7" style="paint-order:normal"/>
   <circle cx="352" cy="292.6" r="7" style="paint-order:normal"/>
   <circle cx="352" cy="338.6" r="7" style="paint-order:normal"/>
   <circle cx="352" cy="384.6" r="7" style="paint-order:normal"/>
   <circle cx="352" cy="430.6" r="7" style="paint-order:normal"/>
   <circle cx="352" cy="476.6" r="7" style="paint-order:normal"/>
   <circle cx="352" cy="522.6" r="7" style="paint-order:normal"/>
   <circle cx="352" cy="568.6" r="7" style="paint-order:normal"/>
   <circle cx="352" cy="614.6" r="7" style="paint-order:normal"/>
   <circle cx="352" cy="660.6" r="7" style="paint-order:normal"/>
   <circle cx="398" cy="246.6" r="7" style="paint-order:normal"/>
   <circle cx="398" cy="292.6" r="7" style="paint-order:normal"/>
   <circle cx="398" cy="338.6" r="7" style="paint-order:normal"/>
   <circle cx="398" cy="384.6" r="7" style="paint-order:normal"/>
   <circle cx="398" cy="430.6" r="7" style="paint-order:normal"/>
   <circle cx="398" cy="476.6" r="7" style="paint-order:normal"/>
   <circle cx="398" cy="522.6" r="7" style="paint-order:normal"/>
   <circle cx="398" cy="568.6" r="7" style="paint-order:normal"/>
   <circle cx="398" cy="614.6" r="7" style="paint-order:normal"/>
   <circle cx="398" cy="660.6" r="7" style="paint-order:normal"/>
   <circle cx="444" cy="246.6" r="7" style="paint-order:normal"/>
   <circle cx="444" cy="292.6" r="7" style="paint-order:normal"/>
   <circle cx="444" cy="338.6" r="7" style="paint-order:normal"/>
   <circle cx="444" cy="384.6" r="7" style="paint-order:normal"/>
   <circle cx="444" cy="430.6" r="7" style="paint-order:normal"/>
   <circle cx="444" cy="476.6" r="7" style="paint-order:normal"/>
   <circle cx="444" cy="522.6" r="7" style="paint-order:normal"/>
   <circle cx="444" cy="568.6" r="7" style="paint-order:normal"/>
   <circle cx="444" cy="614.6" r="7" style="paint-order:normal"/>
   <circle cx="444" cy="660.6" r="7" style="paint-order:normal"/>
  </g>
 </g>
</svg>
