<svg version="1.1" viewBox="0 0 300 300" xmlns="http://www.w3.org/2000/svg">
 <defs>
  <clipPath id="clipPath8361">
   <path d="m76 384.1 0.353 5.008s16.25-5.183 23.55-9.098c10.48-5.619 17.41-10.78 28.54-20.36 2.207-1.9 9.287-6.184 13.18-3.898 5.798 3.408 2.865 8.624 6.659 9.936 1.9 0.6574 4.793 0.0811 5.859-1.41 1.411-1.976 0.025-4.963-1.481-6.925-2.62-3.413-6.615-6.428-11.85-6.748-7.681-0.4689-23.55 10.13-34.8 15.98-10.34 5.374-30 17.51-30 17.51z" fill="#161B3D"/>
  </clipPath>
 </defs>
 <g transform="matrix(1 .5774 0 1 9.956 -287.8)" fill="#DC143C" fill-opacity=".9909">
  <g transform="translate(82.37 54.28)">
   <g transform="matrix(.1533 0 0 .1533 11.44 178.5)">
    <path transform="translate(0 217.6)" d="m61.83 100v10.24a10.24 10.24 0 0 0 10.24-10.24z" style="paint-order:normal"/>
    <path transform="translate(0 217.6)" d="m151.6 100a10.24 10.24 0 0 0 10.24 10.24v-10.24z" style="paint-order:normal"/>
    <path transform="translate(0 217.6)" d="m61.83 189.8v10.24h10.24a10.24 10.24 0 0 0-10.24-10.24z" style="paint-order:normal"/>
    <path transform="translate(0 217.6)" d="m161.8 189.8a10.24 10.24 0 0 0-10.24 10.24h10.24z" style="paint-order:normal"/>
   </g>
   <g transform="matrix(.1533 0 0 .1533 11.44 178.5)">
    <path transform="translate(0 217.6)" d="m61.83 100v10.24a10.24 10.24 0 0 0 10.24-10.24z" style="paint-order:normal"/>
    <path transform="translate(0 217.6)" d="m151.6 100a10.24 10.24 0 0 0 10.24 10.24v-10.24z" style="paint-order:normal"/>
    <path transform="translate(0 217.6)" d="m61.83 189.8v10.24h10.24a10.24 10.24 0 0 0-10.24-10.24z" style="paint-order:normal"/>
    <path transform="translate(0 217.6)" d="m161.8 189.8a10.24 10.24 0 0 0-10.24 10.24h10.24z" style="paint-order:normal"/>
   </g>
   <g transform="matrix(.1533 0 0 .1533 11.44 193.8)">
    <path transform="translate(0 217.6)" d="m61.83 100v10.24a10.24 10.24 0 0 0 10.24-10.24z" style="paint-order:normal"/>
    <path transform="translate(0 217.6)" d="m151.6 100a10.24 10.24 0 0 0 10.24 10.24v-10.24z" style="paint-order:normal"/>
    <path transform="translate(0 217.6)" d="m61.83 189.8v10.24h10.24a10.24 10.24 0 0 0-10.24-10.24z" style="paint-order:normal"/>
    <path transform="translate(0 217.6)" d="m161.8 189.8a10.24 10.24 0 0 0-10.24 10.24h10.24z" style="paint-order:normal"/>
   </g>
   <g transform="matrix(.1533 0 0 .1533 11.44 209.2)">
    <path transform="translate(0 217.6)" d="m61.83 100v10.24a10.24 10.24 0 0 0 10.24-10.24z" style="paint-order:normal"/>
    <path transform="translate(0 217.6)" d="m151.6 100a10.24 10.24 0 0 0 10.24 10.24v-10.24z" style="paint-order:normal"/>
    <path transform="translate(0 217.6)" d="m61.83 189.8v10.24h10.24a10.24 10.24 0 0 0-10.24-10.24z" style="paint-order:normal"/>
    <path transform="translate(0 217.6)" d="m161.8 189.8a10.24 10.24 0 0 0-10.24 10.24h10.24z" style="paint-order:normal"/>
   </g>
   <g transform="matrix(.1533 0 0 .1533 11.44 224.5)">
    <path transform="translate(0 217.6)" d="m61.83 100v10.24a10.24 10.24 0 0 0 10.24-10.24z" style="paint-order:normal"/>
    <path transform="translate(0 217.6)" d="m151.6 100a10.24 10.24 0 0 0 10.24 10.24v-10.24z" style="paint-order:normal"/>
    <path transform="translate(0 217.6)" d="m61.83 189.8v10.24h10.24a10.24 10.24 0 0 0-10.24-10.24z" style="paint-order:normal"/>
    <path transform="translate(0 217.6)" d="m161.8 189.8a10.24 10.24 0 0 0-10.24 10.24h10.24z" style="paint-order:normal"/>
   </g>
   <g transform="matrix(.1533 0 0 .1533 11.44 239.8)">
    <path transform="translate(0 217.6)" d="m61.83 100v10.24a10.24 10.24 0 0 0 10.24-10.24z" style="paint-order:normal"/>
    <path transform="translate(0 217.6)" d="m151.6 100a10.24 10.24 0 0 0 10.24 10.24v-10.24z" style="paint-order:normal"/>
    <path transform="translate(0 217.6)" d="m61.83 189.8v10.24h10.24a10.24 10.24 0 0 0-10.24-10.24z" style="paint-order:normal"/>
    <path transform="translate(0 217.6)" d="m161.8 189.8a10.24 10.24 0 0 0-10.24 10.24h10.24z" style="paint-order:normal"/>
   </g>
   <g transform="matrix(.1533 0 0 .1533 26.78 178.5)">
    <path transform="translate(0 217.6)" d="m61.83 100v10.24a10.24 10.24 0 0 0 10.24-10.24z" style="paint-order:normal"/>
    <path transform="translate(0 217.6)" d="m151.6 100a10.24 10.24 0 0 0 10.24 10.24v-10.24z" style="paint-order:normal"/>
    <path transform="translate(0 217.6)" d="m61.83 189.8v10.24h10.24a10.24 10.24 0 0 0-10.24-10.24z" style="paint-order:normal"/>
    <path transform="translate(0 217.6)" d="m161.8 189.8a10.24 10.24 0 0 0-10.24 10.24h10.24z" style="paint-order:normal"/>
   </g>
   <g transform="matrix(.1533 0 0 .1533 26.78 193.8)">
    <path transform="translate(0 217.6)" d="m61.83 100v10.24a10.24 10.24 0 0 0 10.24-10.24z" style="paint-order:normal"/>
    <path transform="translate(0 217.6)" d="m151.6 100a10.24 10.24 0 0 0 10.24 10.24v-10.24z" style="paint-order:normal"/>
    <path transform="translate(0 217.6)" d="m61.83 189.8v10.24h10.24a10.24 10.24 0 0 0-10.24-10.24z" style="paint-order:normal"/>
    <path transform="translate(0 217.6)" d="m161.8 189.8a10.24 10.24 0 0 0-10.24 10.24h10.24z" style="paint-order:normal"/>
   </g>
   <g transform="matrix(.1533 0 0 .1533 26.78 209.2)">
    <path transform="translate(0 217.6)" d="m61.83 100v10.24a10.24 10.24 0 0 0 10.24-10.24z" style="paint-order:normal"/>
    <path transform="translate(0 217.6)" d="m151.6 100a10.24 10.24 0 0 0 10.24 10.24v-10.24z" style="paint-order:normal"/>
    <path transform="translate(0 217.6)" d="m61.83 189.8v10.24h10.24a10.24 10.24 0 0 0-10.24-10.24z" style="paint-order:normal"/>
    <path transform="translate(0 217.6)" d="m161.8 189.8a10.24 10.24 0 0 0-10.24 10.24h10.24z" style="paint-order:normal"/>
   </g>
   <g transform="matrix(.1533 0 0 .1533 26.78 224.5)">
    <path transform="translate(0 217.6)" d="m61.83 100v10.24a10.24 10.24 0 0 0 10.24-10.24z" style="paint-order:normal"/>
    <path transform="translate(0 217.6)" d="m151.6 100a10.24 10.24 0 0 0 10.24 10.24v-10.24z" style="paint-order:normal"/>
    <path transform="translate(0 217.6)" d="m61.83 189.8v10.24h10.24a10.24 10.24 0 0 0-10.24-10.24z" style="paint-order:normal"/>
    <path transform="translate(0 217.6)" d="m161.8 189.8a10.24 10.24 0 0 0-10.24 10.24h10.24z" style="paint-order:normal"/>
   </g>
   <g transform="matrix(.1533 0 0 .1533 26.78 239.8)">
    <path transform="translate(0 217.6)" d="m61.83 100v10.24a10.24 10.24 0 0 0 10.24-10.24z" style="paint-order:normal"/>
    <path transform="translate(0 217.6)" d="m151.6 100a10.24 10.24 0 0 0 10.24 10.24v-10.24z" style="paint-order:normal"/>
    <path transform="translate(0 217.6)" d="m61.83 189.8v10.24h10.24a10.24 10.24 0 0 0-10.24-10.24z" style="paint-order:normal"/>
    <path transform="translate(0 217.6)" d="m161.8 189.8a10.24 10.24 0 0 0-10.24 10.24h10.24z" style="paint-order:normal"/>
   </g>
   <g transform="matrix(.1533 0 0 .1533 42.11 178.5)">
    <path transform="translate(0 217.6)" d="m61.83 100v10.24a10.24 10.24 0 0 0 10.24-10.24z" style="paint-order:normal"/>
    <path transform="translate(0 217.6)" d="m151.6 100a10.24 10.24 0 0 0 10.24 10.24v-10.24z" style="paint-order:normal"/>
    <path transform="translate(0 217.6)" d="m61.83 189.8v10.24h10.24a10.24 10.24 0 0 0-10.24-10.24z" style="paint-order:normal"/>
    <path transform="translate(0 217.6)" d="m161.8 189.8a10.24 10.24 0 0 0-10.24 10.24h10.24z" style="paint-order:normal"/>
   </g>
   <g transform="matrix(.1533 0 0 .1533 42.11 193.8)">
    <path transform="translate(0 217.6)" d="m61.83 100v10.24a10.24 10.24 0 0 0 10.24-10.24z" style="paint-order:normal"/>
    <path transform="translate(0 217.6)" d="m151.6 100a10.24 10.24 0 0 0 10.24 10.24v-10.24z" style="paint-order:normal"/>
    <path transform="translate(0 217.6)" d="m61.83 189.8v10.24h10.24a10.24 10.24 0 0 0-10.24-10.24z" style="paint-order:normal"/>
    <path transform="translate(0 217.6)" d="m161.8 189.8a10.24 10.24 0 0 0-10.24 10.24h10.24z" style="paint-order:normal"/>
   </g>
   <g transform="matrix(.1533 0 0 .1533 42.11 209.2)">
    <path transform="translate(0 217.6)" d="m61.83 100v10.24a10.24 10.24 0 0 0 10.24-10.24z" style="paint-order:normal"/>
    <path transform="translate(0 217.6)" d="m151.6 100a10.24 10.24 0 0 0 10.24 10.24v-10.24z" style="paint-order:normal"/>
    <path transform="translate(0 217.6)" d="m61.83 189.8v10.24h10.24a10.24 10.24 0 0 0-10.24-10.24z" style="paint-order:normal"/>
    <path transform="translate(0 217.6)" d="m161.8 189.8a10.24 10.24 0 0 0-10.24 10.24h10.24z" style="paint-order:normal"/>
   </g>
   <g transform="matrix(.1533 0 0 .1533 42.11 224.5)">
    <path transform="translate(0 217.6)" d="m61.83 100v10.24a10.24 10.24 0 0 0 10.24-10.24z" style="paint-order:normal"/>
    <path transform="translate(0 217.6)" d="m151.6 100a10.24 10.24 0 0 0 10.24 10.24v-10.24z" style="paint-order:normal"/>
    <path transform="translate(0 217.6)" d="m61.83 189.8v10.24h10.24a10.24 10.24 0 0 0-10.24-10.24z" style="paint-order:normal"/>
    <path transform="translate(0 217.6)" d="m161.8 189.8a10.24 10.24 0 0 0-10.24 10.24h10.24z" style="paint-order:normal"/>
   </g>
   <g transform="matrix(.1533 0 0 .1533 42.11 239.8)">
    <path transform="translate(0 217.6)" d="m61.83 100v10.24a10.24 10.24 0 0 0 10.24-10.24z" style="paint-order:normal"/>
    <path transform="translate(0 217.6)" d="m151.6 100a10.24 10.24 0 0 0 10.24 10.24v-10.24z" style="paint-order:normal"/>
    <path transform="translate(0 217.6)" d="m61.83 189.8v10.24h10.24a10.24 10.24 0 0 0-10.24-10.24z" style="paint-order:normal"/>
    <path transform="translate(0 217.6)" d="m161.8 189.8a10.24 10.24 0 0 0-10.24 10.24h10.24z" style="paint-order:normal"/>
   </g>
   <g transform="matrix(.1533 0 0 .1533 57.44 178.5)">
    <path transform="translate(0 217.6)" d="m61.83 100v10.24a10.24 10.24 0 0 0 10.24-10.24z" style="paint-order:normal"/>
    <path transform="translate(0 217.6)" d="m151.6 100a10.24 10.24 0 0 0 10.24 10.24v-10.24z" style="paint-order:normal"/>
    <path transform="translate(0 217.6)" d="m61.83 189.8v10.24h10.24a10.24 10.24 0 0 0-10.24-10.24z" style="paint-order:normal"/>
    <path transform="translate(0 217.6)" d="m161.8 189.8a10.24 10.24 0 0 0-10.24 10.24h10.24z" style="paint-order:normal"/>
   </g>
   <g transform="matrix(.1533 0 0 .1533 57.44 193.8)">
    <path transform="translate(0 217.6)" d="m61.83 100v10.24a10.24 10.24 0 0 0 10.24-10.24z" style="paint-order:normal"/>
    <path transform="translate(0 217.6)" d="m151.6 100a10.24 10.24 0 0 0 10.24 10.24v-10.24z" style="paint-order:normal"/>
    <path transform="translate(0 217.6)" d="m61.83 189.8v10.24h10.24a10.24 10.24 0 0 0-10.24-10.24z" style="paint-order:normal"/>
    <path transform="translate(0 217.6)" d="m161.8 189.8a10.24 10.24 0 0 0-10.24 10.24h10.24z" style="paint-order:normal"/>
   </g>
   <g transform="matrix(.1533 0 0 .1533 57.44 209.2)">
    <path transform="translate(0 217.6)" d="m61.83 100v10.24a10.24 10.24 0 0 0 10.24-10.24z" style="paint-order:normal"/>
    <path transform="translate(0 217.6)" d="m151.6 100a10.24 10.24 0 0 0 10.24 10.24v-10.24z" style="paint-order:normal"/>
    <path transform="translate(0 217.6)" d="m61.83 189.8v10.24h10.24a10.24 10.24 0 0 0-10.24-10.24z" style="paint-order:normal"/>
    <path transform="translate(0 217.6)" d="m161.8 189.8a10.24 10.24 0 0 0-10.24 10.24h10.24z" style="paint-order:normal"/>
   </g>
   <g transform="matrix(.1533 0 0 .1533 57.44 224.5)">
    <path transform="translate(0 217.6)" d="m61.83 100v10.24a10.24 10.24 0 0 0 10.24-10.24z" style="paint-order:normal"/>
    <path transform="translate(0 217.6)" d="m151.6 100a10.24 10.24 0 0 0 10.24 10.24v-10.24z" style="paint-order:normal"/>
    <path transform="translate(0 217.6)" d="m61.83 189.8v10.24h10.24a10.24 10.24 0 0 0-10.24-10.24z" style="paint-order:normal"/>
    <path transform="translate(0 217.6)" d="m161.8 189.8a10.24 10.24 0 0 0-10.24 10.24h10.24z" style="paint-order:normal"/>
   </g>
   <g transform="matrix(.1533 0 0 .1533 57.44 239.8)">
    <path transform="translate(0 217.6)" d="m61.83 100v10.24a10.24 10.24 0 0 0 10.24-10.24z" style="paint-order:normal"/>
    <path transform="translate(0 217.6)" d="m151.6 100a10.24 10.24 0 0 0 10.24 10.24v-10.24z" style="paint-order:normal"/>
    <path transform="translate(0 217.6)" d="m61.83 189.8v10.24h10.24a10.24 10.24 0 0 0-10.24-10.24z" style="paint-order:normal"/>
    <path transform="translate(0 217.6)" d="m161.8 189.8a10.24 10.24 0 0 0-10.24 10.24h10.24z" style="paint-order:normal"/>
   </g>
   <g transform="matrix(.1533 0 0 .1533 72.77 178.5)">
    <path transform="translate(0 217.6)" d="m61.83 100v10.24a10.24 10.24 0 0 0 10.24-10.24z" style="paint-order:normal"/>
    <path transform="translate(0 217.6)" d="m151.6 100a10.24 10.24 0 0 0 10.24 10.24v-10.24z" style="paint-order:normal"/>
    <path transform="translate(0 217.6)" d="m61.83 189.8v10.24h10.24a10.24 10.24 0 0 0-10.24-10.24z" style="paint-order:normal"/>
    <path transform="translate(0 217.6)" d="m161.8 189.8a10.24 10.24 0 0 0-10.24 10.24h10.24z" style="paint-order:normal"/>
   </g>
   <g transform="matrix(.1533 0 0 .1533 72.77 193.8)">
    <path transform="translate(0 217.6)" d="m61.83 100v10.24a10.24 10.24 0 0 0 10.24-10.24z" style="paint-order:normal"/>
    <path transform="translate(0 217.6)" d="m151.6 100a10.24 10.24 0 0 0 10.24 10.24v-10.24z" style="paint-order:normal"/>
    <path transform="translate(0 217.6)" d="m61.83 189.8v10.24h10.24a10.24 10.24 0 0 0-10.24-10.24z" style="paint-order:normal"/>
    <path transform="translate(0 217.6)" d="m161.8 189.8a10.24 10.24 0 0 0-10.24 10.24h10.24z" style="paint-order:normal"/>
   </g>
   <g transform="matrix(.1533 0 0 .1533 72.77 209.2)">
    <path transform="translate(0 217.6)" d="m61.83 100v10.24a10.24 10.24 0 0 0 10.24-10.24z" style="paint-order:normal"/>
    <path transform="translate(0 217.6)" d="m151.6 100a10.24 10.24 0 0 0 10.24 10.24v-10.24z" style="paint-order:normal"/>
    <path transform="translate(0 217.6)" d="m61.83 189.8v10.24h10.24a10.24 10.24 0 0 0-10.24-10.24z" style="paint-order:normal"/>
    <path transform="translate(0 217.6)" d="m161.8 189.8a10.24 10.24 0 0 0-10.24 10.24h10.24z" style="paint-order:normal"/>
   </g>
   <g transform="matrix(.1533 0 0 .1533 72.77 224.5)">
    <path transform="translate(0 217.6)" d="m61.83 100v10.24a10.24 10.24 0 0 0 10.24-10.24z" style="paint-order:normal"/>
    <path transform="translate(0 217.6)" d="m151.6 100a10.24 10.24 0 0 0 10.24 10.24v-10.24z" style="paint-order:normal"/>
    <path transform="translate(0 217.6)" d="m61.83 189.8v10.24h10.24a10.24 10.24 0 0 0-10.24-10.24z" style="paint-order:normal"/>
    <path transform="translate(0 217.6)" d="m161.8 189.8a10.24 10.24 0 0 0-10.24 10.24h10.24z" style="paint-order:normal"/>
   </g>
   <g transform="matrix(.1533 0 0 .1533 72.77 239.8)">
    <path transform="translate(0 217.6)" d="m61.83 100v10.24a10.24 10.24 0 0 0 10.24-10.24z" style="paint-order:normal"/>
    <path transform="translate(0 217.6)" d="m151.6 100a10.24 10.24 0 0 0 10.24 10.24v-10.24z" style="paint-order:normal"/>
    <path transform="translate(0 217.6)" d="m61.83 189.8v10.24h10.24a10.24 10.24 0 0 0-10.24-10.24z" style="paint-order:normal"/>
    <path transform="translate(0 217.6)" d="m161.8 189.8a10.24 10.24 0 0 0-10.24 10.24h10.24z" style="paint-order:normal"/>
   </g>
  </g>
  <g transform="translate(5.718 54.28)">
   <g transform="matrix(.1533 0 0 .1533 11.44 178.5)">
    <path transform="translate(0 217.6)" d="m61.83 100v10.24a10.24 10.24 0 0 0 10.24-10.24z" style="paint-order:normal"/>
    <path transform="translate(0 217.6)" d="m151.6 100a10.24 10.24 0 0 0 10.24 10.24v-10.24z" style="paint-order:normal"/>
    <path transform="translate(0 217.6)" d="m61.83 189.8v10.24h10.24a10.24 10.24 0 0 0-10.24-10.24z" style="paint-order:normal"/>
    <path transform="translate(0 217.6)" d="m161.8 189.8a10.24 10.24 0 0 0-10.24 10.24h10.24z" style="paint-order:normal"/>
   </g>
   <g transform="matrix(.1533 0 0 .1533 11.44 178.5)">
    <path transform="translate(0 217.6)" d="m61.83 100v10.24a10.24 10.24 0 0 0 10.24-10.24z" style="paint-order:normal"/>
    <path transform="translate(0 217.6)" d="m151.6 100a10.24 10.24 0 0 0 10.24 10.24v-10.24z" style="paint-order:normal"/>
    <path transform="translate(0 217.6)" d="m61.83 189.8v10.24h10.24a10.24 10.24 0 0 0-10.24-10.24z" style="paint-order:normal"/>
    <path transform="translate(0 217.6)" d="m161.8 189.8a10.24 10.24 0 0 0-10.24 10.24h10.24z" style="paint-order:normal"/>
   </g>
   <g transform="matrix(.1533 0 0 .1533 11.44 193.8)">
    <path transform="translate(0 217.6)" d="m61.83 100v10.24a10.24 10.24 0 0 0 10.24-10.24z" style="paint-order:normal"/>
    <path transform="translate(0 217.6)" d="m151.6 100a10.24 10.24 0 0 0 10.24 10.24v-10.24z" style="paint-order:normal"/>
    <path transform="translate(0 217.6)" d="m61.83 189.8v10.24h10.24a10.24 10.24 0 0 0-10.24-10.24z" style="paint-order:normal"/>
    <path transform="translate(0 217.6)" d="m161.8 189.8a10.24 10.24 0 0 0-10.24 10.24h10.24z" style="paint-order:normal"/>
   </g>
   <g transform="matrix(.1533 0 0 .1533 11.44 209.2)">
    <path transform="translate(0 217.6)" d="m61.83 100v10.24a10.24 10.24 0 0 0 10.24-10.24z" style="paint-order:normal"/>
    <path transform="translate(0 217.6)" d="m151.6 100a10.24 10.24 0 0 0 10.24 10.24v-10.24z" style="paint-order:normal"/>
    <path transform="translate(0 217.6)" d="m61.83 189.8v10.24h10.24a10.24 10.24 0 0 0-10.24-10.24z" style="paint-order:normal"/>
    <path transform="translate(0 217.6)" d="m161.8 189.8a10.24 10.24 0 0 0-10.24 10.24h10.24z" style="paint-order:normal"/>
   </g>
   <g transform="matrix(.1533 0 0 .1533 11.44 224.5)">
    <path transform="translate(0 217.6)" d="m61.83 100v10.24a10.24 10.24 0 0 0 10.24-10.24z" style="paint-order:normal"/>
    <path transform="translate(0 217.6)" d="m151.6 100a10.24 10.24 0 0 0 10.24 10.24v-10.24z" style="paint-order:normal"/>
    <path transform="translate(0 217.6)" d="m61.83 189.8v10.24h10.24a10.24 10.24 0 0 0-10.24-10.24z" style="paint-order:normal"/>
    <path transform="translate(0 217.6)" d="m161.8 189.8a10.24 10.24 0 0 0-10.24 10.24h10.24z" style="paint-order:normal"/>
   </g>
   <g transform="matrix(.1533 0 0 .1533 11.44 239.8)">
    <path transform="translate(0 217.6)" d="m61.83 100v10.24a10.24 10.24 0 0 0 10.24-10.24z" style="paint-order:normal"/>
    <path transform="translate(0 217.6)" d="m151.6 100a10.24 10.24 0 0 0 10.24 10.24v-10.24z" style="paint-order:normal"/>
    <path transform="translate(0 217.6)" d="m61.83 189.8v10.24h10.24a10.24 10.24 0 0 0-10.24-10.24z" style="paint-order:normal"/>
    <path transform="translate(0 217.6)" d="m161.8 189.8a10.24 10.24 0 0 0-10.24 10.24h10.24z" style="paint-order:normal"/>
   </g>
   <g transform="matrix(.1533 0 0 .1533 26.78 178.5)">
    <path transform="translate(0 217.6)" d="m61.83 100v10.24a10.24 10.24 0 0 0 10.24-10.24z" style="paint-order:normal"/>
    <path transform="translate(0 217.6)" d="m151.6 100a10.24 10.24 0 0 0 10.24 10.24v-10.24z" style="paint-order:normal"/>
    <path transform="translate(0 217.6)" d="m61.83 189.8v10.24h10.24a10.24 10.24 0 0 0-10.24-10.24z" style="paint-order:normal"/>
    <path transform="translate(0 217.6)" d="m161.8 189.8a10.24 10.24 0 0 0-10.24 10.24h10.24z" style="paint-order:normal"/>
   </g>
   <g transform="matrix(.1533 0 0 .1533 26.78 193.8)">
    <path transform="translate(0 217.6)" d="m61.83 100v10.24a10.24 10.24 0 0 0 10.24-10.24z" style="paint-order:normal"/>
    <path transform="translate(0 217.6)" d="m151.6 100a10.24 10.24 0 0 0 10.24 10.24v-10.24z" style="paint-order:normal"/>
    <path transform="translate(0 217.6)" d="m61.83 189.8v10.24h10.24a10.24 10.24 0 0 0-10.24-10.24z" style="paint-order:normal"/>
    <path transform="translate(0 217.6)" d="m161.8 189.8a10.24 10.24 0 0 0-10.24 10.24h10.24z" style="paint-order:normal"/>
   </g>
   <g transform="matrix(.1533 0 0 .1533 26.78 209.2)">
    <path transform="translate(0 217.6)" d="m61.83 100v10.24a10.24 10.24 0 0 0 10.24-10.24z" style="paint-order:normal"/>
    <path transform="translate(0 217.6)" d="m151.6 100a10.24 10.24 0 0 0 10.24 10.24v-10.24z" style="paint-order:normal"/>
    <path transform="translate(0 217.6)" d="m61.83 189.8v10.24h10.24a10.24 10.24 0 0 0-10.24-10.24z" style="paint-order:normal"/>
    <path transform="translate(0 217.6)" d="m161.8 189.8a10.24 10.24 0 0 0-10.24 10.24h10.24z" style="paint-order:normal"/>
   </g>
   <g transform="matrix(.1533 0 0 .1533 26.78 224.5)">
    <path transform="translate(0 217.6)" d="m61.83 100v10.24a10.24 10.24 0 0 0 10.24-10.24z" style="paint-order:normal"/>
    <path transform="translate(0 217.6)" d="m151.6 100a10.24 10.24 0 0 0 10.24 10.24v-10.24z" style="paint-order:normal"/>
    <path transform="translate(0 217.6)" d="m61.83 189.8v10.24h10.24a10.24 10.24 0 0 0-10.24-10.24z" style="paint-order:normal"/>
    <path transform="translate(0 217.6)" d="m161.8 189.8a10.24 10.24 0 0 0-10.24 10.24h10.24z" style="paint-order:normal"/>
   </g>
   <g transform="matrix(.1533 0 0 .1533 26.78 239.8)">
    <path transform="translate(0 217.6)" d="m61.83 100v10.24a10.24 10.24 0 0 0 10.24-10.24z" style="paint-order:normal"/>
    <path transform="translate(0 217.6)" d="m151.6 100a10.24 10.24 0 0 0 10.24 10.24v-10.24z" style="paint-order:normal"/>
    <path transform="translate(0 217.6)" d="m61.83 189.8v10.24h10.24a10.24 10.24 0 0 0-10.24-10.24z" style="paint-order:normal"/>
    <path transform="translate(0 217.6)" d="m161.8 189.8a10.24 10.24 0 0 0-10.24 10.24h10.24z" style="paint-order:normal"/>
   </g>
   <g transform="matrix(.1533 0 0 .1533 42.11 178.5)">
    <path transform="translate(0 217.6)" d="m61.83 100v10.24a10.24 10.24 0 0 0 10.24-10.24z" style="paint-order:normal"/>
    <path transform="translate(0 217.6)" d="m151.6 100a10.24 10.24 0 0 0 10.24 10.24v-10.24z" style="paint-order:normal"/>
    <path transform="translate(0 217.6)" d="m61.83 189.8v10.24h10.24a10.24 10.24 0 0 0-10.24-10.24z" style="paint-order:normal"/>
    <path transform="translate(0 217.6)" d="m161.8 189.8a10.24 10.24 0 0 0-10.24 10.24h10.24z" style="paint-order:normal"/>
   </g>
   <g transform="matrix(.1533 0 0 .1533 42.11 193.8)">
    <path transform="translate(0 217.6)" d="m61.83 100v10.24a10.24 10.24 0 0 0 10.24-10.24z" style="paint-order:normal"/>
    <path transform="translate(0 217.6)" d="m151.6 100a10.24 10.24 0 0 0 10.24 10.24v-10.24z" style="paint-order:normal"/>
    <path transform="translate(0 217.6)" d="m61.83 189.8v10.24h10.24a10.24 10.24 0 0 0-10.24-10.24z" style="paint-order:normal"/>
    <path transform="translate(0 217.6)" d="m161.8 189.8a10.24 10.24 0 0 0-10.24 10.24h10.24z" style="paint-order:normal"/>
   </g>
   <g transform="matrix(.1533 0 0 .1533 42.11 209.2)">
    <path transform="translate(0 217.6)" d="m61.83 100v10.24a10.24 10.24 0 0 0 10.24-10.24z" style="paint-order:normal"/>
    <path transform="translate(0 217.6)" d="m151.6 100a10.24 10.24 0 0 0 10.24 10.24v-10.24z" style="paint-order:normal"/>
    <path transform="translate(0 217.6)" d="m61.83 189.8v10.24h10.24a10.24 10.24 0 0 0-10.24-10.24z" style="paint-order:normal"/>
    <path transform="translate(0 217.6)" d="m161.8 189.8a10.24 10.24 0 0 0-10.24 10.24h10.24z" style="paint-order:normal"/>
   </g>
   <g transform="matrix(.1533 0 0 .1533 42.11 224.5)">
    <path transform="translate(0 217.6)" d="m61.83 100v10.24a10.24 10.24 0 0 0 10.24-10.24z" style="paint-order:normal"/>
    <path transform="translate(0 217.6)" d="m151.6 100a10.24 10.24 0 0 0 10.24 10.24v-10.24z" style="paint-order:normal"/>
    <path transform="translate(0 217.6)" d="m61.83 189.8v10.24h10.24a10.24 10.24 0 0 0-10.24-10.24z" style="paint-order:normal"/>
    <path transform="translate(0 217.6)" d="m161.8 189.8a10.24 10.24 0 0 0-10.24 10.24h10.24z" style="paint-order:normal"/>
   </g>
   <g transform="matrix(.1533 0 0 .1533 42.11 239.8)">
    <path transform="translate(0 217.6)" d="m61.83 100v10.24a10.24 10.24 0 0 0 10.24-10.24z" style="paint-order:normal"/>
    <path transform="translate(0 217.6)" d="m151.6 100a10.24 10.24 0 0 0 10.24 10.24v-10.24z" style="paint-order:normal"/>
    <path transform="translate(0 217.6)" d="m61.83 189.8v10.24h10.24a10.24 10.24 0 0 0-10.24-10.24z" style="paint-order:normal"/>
    <path transform="translate(0 217.6)" d="m161.8 189.8a10.24 10.24 0 0 0-10.24 10.24h10.24z" style="paint-order:normal"/>
   </g>
   <g transform="matrix(.1533 0 0 .1533 57.44 178.5)">
    <path transform="translate(0 217.6)" d="m61.83 100v10.24a10.24 10.24 0 0 0 10.24-10.24z" style="paint-order:normal"/>
    <path transform="translate(0 217.6)" d="m151.6 100a10.24 10.24 0 0 0 10.24 10.24v-10.24z" style="paint-order:normal"/>
    <path transform="translate(0 217.6)" d="m61.83 189.8v10.24h10.24a10.24 10.24 0 0 0-10.24-10.24z" style="paint-order:normal"/>
    <path transform="translate(0 217.6)" d="m161.8 189.8a10.24 10.24 0 0 0-10.24 10.24h10.24z" style="paint-order:normal"/>
   </g>
   <g transform="matrix(.1533 0 0 .1533 57.44 193.8)">
    <path transform="translate(0 217.6)" d="m61.83 100v10.24a10.24 10.24 0 0 0 10.24-10.24z" style="paint-order:normal"/>
    <path transform="translate(0 217.6)" d="m151.6 100a10.24 10.24 0 0 0 10.24 10.24v-10.24z" style="paint-order:normal"/>
    <path transform="translate(0 217.6)" d="m61.83 189.8v10.24h10.24a10.24 10.24 0 0 0-10.24-10.24z" style="paint-order:normal"/>
    <path transform="translate(0 217.6)" d="m161.8 189.8a10.24 10.24 0 0 0-10.24 10.24h10.24z" style="paint-order:normal"/>
   </g>
   <g transform="matrix(.1533 0 0 .1533 57.44 209.2)">
    <path transform="translate(0 217.6)" d="m61.83 100v10.24a10.24 10.24 0 0 0 10.24-10.24z" style="paint-order:normal"/>
    <path transform="translate(0 217.6)" d="m151.6 100a10.24 10.24 0 0 0 10.24 10.24v-10.24z" style="paint-order:normal"/>
    <path transform="translate(0 217.6)" d="m61.83 189.8v10.24h10.24a10.24 10.24 0 0 0-10.24-10.24z" style="paint-order:normal"/>
    <path transform="translate(0 217.6)" d="m161.8 189.8a10.24 10.24 0 0 0-10.24 10.24h10.24z" style="paint-order:normal"/>
   </g>
   <g transform="matrix(.1533 0 0 .1533 57.44 224.5)">
    <path transform="translate(0 217.6)" d="m61.83 100v10.24a10.24 10.24 0 0 0 10.24-10.24z" style="paint-order:normal"/>
    <path transform="translate(0 217.6)" d="m151.6 100a10.24 10.24 0 0 0 10.24 10.24v-10.24z" style="paint-order:normal"/>
    <path transform="translate(0 217.6)" d="m61.83 189.8v10.24h10.24a10.24 10.24 0 0 0-10.24-10.24z" style="paint-order:normal"/>
    <path transform="translate(0 217.6)" d="m161.8 189.8a10.24 10.24 0 0 0-10.24 10.24h10.24z" style="paint-order:normal"/>
   </g>
   <g transform="matrix(.1533 0 0 .1533 57.44 239.8)">
    <path transform="translate(0 217.6)" d="m61.83 100v10.24a10.24 10.24 0 0 0 10.24-10.24z" style="paint-order:normal"/>
    <path transform="translate(0 217.6)" d="m151.6 100a10.24 10.24 0 0 0 10.24 10.24v-10.24z" style="paint-order:normal"/>
    <path transform="translate(0 217.6)" d="m61.83 189.8v10.24h10.24a10.24 10.24 0 0 0-10.24-10.24z" style="paint-order:normal"/>
    <path transform="translate(0 217.6)" d="m161.8 189.8a10.24 10.24 0 0 0-10.24 10.24h10.24z" style="paint-order:normal"/>
   </g>
   <g transform="matrix(.1533 0 0 .1533 72.77 178.5)">
    <path transform="translate(0 217.6)" d="m61.83 100v10.24a10.24 10.24 0 0 0 10.24-10.24z" style="paint-order:normal"/>
    <path transform="translate(0 217.6)" d="m151.6 100a10.24 10.24 0 0 0 10.24 10.24v-10.24z" style="paint-order:normal"/>
    <path transform="translate(0 217.6)" d="m61.83 189.8v10.24h10.24a10.24 10.24 0 0 0-10.24-10.24z" style="paint-order:normal"/>
    <path transform="translate(0 217.6)" d="m161.8 189.8a10.24 10.24 0 0 0-10.24 10.24h10.24z" style="paint-order:normal"/>
   </g>
   <g transform="matrix(.1533 0 0 .1533 72.77 193.8)">
    <path transform="translate(0 217.6)" d="m61.83 100v10.24a10.24 10.24 0 0 0 10.24-10.24z" style="paint-order:normal"/>
    <path transform="translate(0 217.6)" d="m151.6 100a10.24 10.24 0 0 0 10.24 10.24v-10.24z" style="paint-order:normal"/>
    <path transform="translate(0 217.6)" d="m61.83 189.8v10.24h10.24a10.24 10.24 0 0 0-10.24-10.24z" style="paint-order:normal"/>
    <path transform="translate(0 217.6)" d="m161.8 189.8a10.24 10.24 0 0 0-10.24 10.24h10.24z" style="paint-order:normal"/>
   </g>
   <g transform="matrix(.1533 0 0 .1533 72.77 209.2)">
    <path transform="translate(0 217.6)" d="m61.83 100v10.24a10.24 10.24 0 0 0 10.24-10.24z" style="paint-order:normal"/>
    <path transform="translate(0 217.6)" d="m151.6 100a10.24 10.24 0 0 0 10.24 10.24v-10.24z" style="paint-order:normal"/>
    <path transform="translate(0 217.6)" d="m61.83 189.8v10.24h10.24a10.24 10.24 0 0 0-10.24-10.24z" style="paint-order:normal"/>
    <path transform="translate(0 217.6)" d="m161.8 189.8a10.24 10.24 0 0 0-10.24 10.24h10.24z" style="paint-order:normal"/>
   </g>
   <g transform="matrix(.1533 0 0 .1533 72.77 224.5)">
    <path transform="translate(0 217.6)" d="m61.83 100v10.24a10.24 10.24 0 0 0 10.24-10.24z" style="paint-order:normal"/>
    <path transform="translate(0 217.6)" d="m151.6 100a10.24 10.24 0 0 0 10.24 10.24v-10.24z" style="paint-order:normal"/>
    <path transform="translate(0 217.6)" d="m61.83 189.8v10.24h10.24a10.24 10.24 0 0 0-10.24-10.24z" style="paint-order:normal"/>
    <path transform="translate(0 217.6)" d="m161.8 189.8a10.24 10.24 0 0 0-10.24 10.24h10.24z" style="paint-order:normal"/>
   </g>
   <g transform="matrix(.1533 0 0 .1533 72.77 239.8)">
    <path transform="translate(0 217.6)" d="m61.83 100v10.24a10.24 10.24 0 0 0 10.24-10.24z" style="paint-order:normal"/>
    <path transform="translate(0 217.6)" d="m151.6 100a10.24 10.24 0 0 0 10.24 10.24v-10.24z" style="paint-order:normal"/>
    <path transform="translate(0 217.6)" d="m61.83 189.8v10.24h10.24a10.24 10.24 0 0 0-10.24-10.24z" style="paint-order:normal"/>
    <path transform="translate(0 217.6)" d="m161.8 189.8a10.24 10.24 0 0 0-10.24 10.24h10.24z" style="paint-order:normal"/>
   </g>
  </g>
 </g>
 <g fill="#8393FF">
  <path d="m110.9 171.4c2.329-1.529 4.363-4.968 4.93-8.068 0.4836-2.642 1.072-7.126-1.494-7.918-1.009-0.3116-1.795 1.283-2.241 2.241-1.942 4.169-3.8 15.46-1.195 13.75z"/>
  <path d="m168.5 177.5v6.761s19.44-6.107 28.31-10.99c12.73-7.004 21.26-13.59 35.07-25.88 2.74-2.44 13.7-8.885 18.07-5.599 6.504 4.899 4.121 12.19 8.451 14.16 2.17 0.9868 2.567-0.0271 3.169-0.9508 1.726-2.645 0.4386-6.68-1.162-9.402-2.785-4.736-7.211-9.009-13.31-9.719-8.95-1.043-28.39 12.38-42.05 19.65-12.55 6.681-36.55 21.97-36.55 21.97z"/>
  <path d="m64.48 117.4v6.761s19.44-6.107 28.31-10.99c12.73-7.004 21.26-13.59 35.07-25.88 2.74-2.44 13.91-8.251 18.28-4.965 6.504 4.899 1.797 12.4 6.127 14.37 2.17 0.9868 4.294-0.2203 5.282-1.796 1.678-2.676 0.4386-6.68-1.162-9.402-2.785-4.736-7.211-9.009-13.31-9.719-8.95-1.043-28.39 12.38-42.05 19.65-12.55 6.681-36.55 21.97-36.55 21.97z"/>
 </g>
 <g>
  <path d="m66.11 118.7v6.761s19.44-6.107 28.31-10.99c12.73-7.004 21.26-13.59 35.07-25.88 2.74-2.44 11.38-7.828 15.74-4.543 6.504 4.899 2.642 11.76 6.972 13.73 2.17 0.9868 5.603 0.3659 6.972-1.585 1.815-2.584 0.4386-6.68-1.162-9.402-2.785-4.736-7.211-9.009-13.31-9.719-8.95-1.043-28.39 12.38-42.05 19.65-12.55 6.681-36.55 21.97-36.55 21.97z" fill="#161B3D"/>
  <path d="m66.28 116.2v7.322s2.193 1.832 3.018 3.795c1.702 4.049-1.619 15.39 3.047 25.89 2.71 6.097 7.369 12.43 12.53 15.61 6.638 4.093 16.76 10.36 22.11 7.712 5.351-2.653 5.321-7.734 6.578-11.37 0.8136-2.355-0.526-5.873 1.5-7.322 1.326-0.9487 3.591-0.4152 4.852 0.6191 2.253 1.849 2.495 5.239 2.773 8.291 0.6499 7.113 3.043 21.33 9.582 27.65 7.281 7.042 9.864 8.402 16.09 11.64 5.94 3.093 16.4 5.07 18.75-8.241 0.5551-3.141 0.4857-6.474 0.793-9.705 0.159-1.671 0.2907-4.567 3.998-3.85v-6.76s-15.36-12.5-23.85-17.53c-18.45-10.95-20.58-6.195-26.91-9.791-9.845-5.597-16.98-15.18-26.64-21.08-8.824-5.395-28.23-12.88-28.23-12.88zm11.04 8.514c5.108 0.2534 12.1 4.351 16.8 7.277 6.729 4.185 14.72 10.8 16.16 17.43 1.481 6.825 1.09 16.23-2.324 22.29-2.886 5.125-13.13 0.3788-18.8-3.17-4.985-3.116-9.484-7.167-11.94-11.3-3.361-5.662-4.87-11.16-5.492-17.12-0.4998-4.788-1.111-12.43 1.479-14.37 0.8675-0.6504 1.928-0.9717 3.119-1.041 0.3226-0.0188 0.6555-0.0189 0.9961-2e-3zm54.23 31.37c5.108 0.2534 12.1 4.351 16.8 7.277 6.729 4.185 14.73 10.8 16.16 17.43 1.481 6.825 1.09 16.23-2.324 22.29-2.886 5.125-13.13 0.3788-18.8-3.17-4.985-3.116-9.482-7.167-11.94-11.3-3.361-5.662-4.872-11.16-5.494-17.12-0.4998-4.788-1.111-12.43 1.479-14.37 0.8675-0.6504 1.928-0.9737 3.119-1.043 0.3226-0.0188 0.6555-0.0188 0.9961-2e-3z" fill="#8393FF"/>
  <path d="m170.1 178.7v6.761s19.44-6.107 28.31-10.99c12.73-7.004 21.26-13.59 35.07-25.88 2.74-2.44 11.38-7.828 15.74-4.543 6.504 4.899 2.642 11.76 6.972 13.73 2.17 0.9868 5.603 0.3659 6.972-1.585 1.815-2.584 0.4386-6.68-1.162-9.402-2.785-4.736-7.211-9.009-13.31-9.719-8.95-1.043-28.39 12.38-42.05 19.65-12.55 6.681-36.55 21.97-36.55 21.97z" fill="#161B3D"/>
  <path d="m64.49 117.4v7.322s2.193 1.834 3.018 3.797c1.702 4.049-0.2733 14.64 4.393 25.14 2.71 6.097 7.368 12.43 12.53 15.61 6.638 4.093 14.98 10.4 22.19 7.412 3.554-1.471 3.902-6.686 5.158-10.32 0.8136-2.355-0.526-5.873 1.5-7.322 1.326-0.9487 3.53-0.3373 4.852 0.6172 2.484 1.794 3.69 5.241 3.969 8.293 0.6499 7.113 3.342 20.58 9.881 26.9 7.281 7.042 9.483 8.018 15.71 11.26 5.94 3.093 15.29 6.199 17.64-7.111 0.5551-3.141 0.4857-6.472 0.793-9.703 0.159-1.671 0.2907-4.567 3.998-3.85v-6.762s-15.36-12.49-23.85-17.53c-18.45-10.95-20.58-6.196-26.91-9.793-9.845-5.597-16.98-15.17-26.64-21.08-8.824-5.395-28.23-12.88-28.23-12.88zm11.49 8.477c5.108 0.2531 12.09 4.349 16.8 7.275 6.729 4.185 14.73 10.8 16.16 17.43 1.481 6.825 1.09 16.23-2.324 22.29-2.886 5.125-13.13 0.3788-18.8-3.17-4.985-3.116-9.482-7.167-11.94-11.3-3.361-5.662-4.872-11.16-5.494-17.12-0.4998-4.788-1.109-12.43 1.48-14.37 0.8675-0.6504 1.928-0.9717 3.119-1.041 0.3226-0.0188 0.6556-0.0188 0.9961-2e-3zm54.23 31.37c5.108 0.2534 12.1 4.351 16.8 7.277 6.729 4.185 14.72 10.8 16.16 17.43 1.481 6.825 1.09 16.23-2.324 22.29-2.886 5.125-13.13 0.3788-18.8-3.17-4.985-3.116-9.482-7.167-11.94-11.3-3.361-5.662-4.87-11.16-5.492-17.12-0.4998-4.788-1.111-12.43 1.479-14.37 0.8675-0.6504 1.928-0.9737 3.119-1.043 0.3226-0.0188 0.6555-0.0189 0.9961-2e-3z" fill="#161B3D"/>
 </g>
 <path d="m126.1 158.3c4.627-3.469 14.74 2.391 20.92 6.233 6.729 4.185 14.72 10.8 16.16 17.43 1.481 6.825 1.09 16.23-2.324 22.29-2.886 5.125-13.13 0.3794-18.8-3.169-4.985-3.116-9.483-7.168-11.94-11.3-3.361-5.662-4.871-11.16-5.493-17.11-0.4998-4.788-1.11-12.43 1.479-14.37z" fill="none" opacity=".1941"/>
 <path d="m71.86 127c4.627-3.469 14.74 2.391 20.92 6.233 6.729 4.185 14.72 10.8 16.16 17.43 1.481 6.825 1.09 16.23-2.324 22.29-2.886 5.125-13.13 0.3794-18.8-3.169-4.985-3.116-9.483-7.168-11.94-11.3-3.361-5.662-4.871-11.16-5.493-17.11-0.4998-4.788-1.11-12.43 1.479-14.37z" fill="none" opacity=".1941"/>
 <g>
  <path d="m72.25 126.7c-0.1305 0.0792-0.2658 0.15-0.3887 0.2422-2.589 1.941-1.98 9.579-1.48 14.37 0.622 5.959 2.133 11.45 5.494 17.12 2.455 4.136 6.953 8.187 11.94 11.3 5.107 3.192 13.9 7.348 17.72 4.422-4.022 2.318-12.36-1.648-17.27-4.721-4.985-3.116-9.482-7.167-11.94-11.3-3.361-5.662-4.872-11.16-5.494-17.12-0.4957-4.749-1.094-12.29 1.422-14.31zm54.23 31.38c-0.1305 0.0792-0.2658 0.15-0.3887 0.2422-2.589 1.941-1.978 9.579-1.479 14.37 0.622 5.959 2.131 11.45 5.492 17.12 2.455 4.136 6.953 8.187 11.94 11.3 5.107 3.192 13.9 7.348 17.72 4.422-4.022 2.318-12.36-1.648-17.27-4.721-4.985-3.116-9.482-7.167-11.94-11.3-3.361-5.662-4.87-11.16-5.492-17.12-0.4957-4.749-1.096-12.29 1.42-14.31z" fill="#0018cc" opacity=".1941"/>
  <ellipse transform="rotate(30)" cx="120.5" cy="72.16" rx="1.628" ry=".5009" fill="#fff" style="paint-order:normal"/>
  <ellipse transform="rotate(30)" cx="233.9" cy="72.54" rx="1.628" ry=".5009" fill="#fff" style="paint-order:normal"/>
 </g>
 <g transform="translate(-47.77 -256.2)" fill="none" stroke="#fff" stroke-width=".378">
  <path d="m123.7 385.6 9.078 15.72"/>
  <path d="m123.7 396.3 9.078 15.72"/>
 </g>
 <g transform="translate(4.824 -223.9)" fill="none" stroke="#fff" stroke-width=".378">
  <path d="m123.7 385.6 9.078 15.72"/>
  <path d="m123.7 396.3 9.078 15.72"/>
 </g>
 <g transform="translate(-2.275 -210.8)" fill="none" stroke="#fff" stroke-width=".978">
  <path d="m143.4 380.2 13.15 13.15"/>
  <path d="m146.4 387.9 13.15 13.15"/>
 </g>
 <g transform="translate(-55.46 -241.8)" fill="none" stroke="#fff" stroke-width=".978">
  <path d="m143.4 380.2 13.15 13.15"/>
  <path d="m146.4 387.9 13.15 13.15"/>
 </g>
 <g transform="matrix(1.17 .05356 -.08249 1.346 112.9 -342.5)" clip-path="url(#clipPath8361)">
  <path d="m157.3 342.6s-3.626 0.9316-3.626 0.9316c0.5545 1.897 2.617 2.985 4.586 2.453l-0.9591-3.385m-6.411 1.647s-3.801 0.9753-3.801 0.9753l-3.907 1.004c0.6233 1.956 2.865 3.059 4.983 2.487 2.087-0.5641 3.297-2.553 2.725-4.465v0m-10.71 2.749-4.103 1.054-4.22 1.083c0.7015 2.02 3.145 3.136 5.432 2.519 2.251-0.6086 3.533-2.682 2.891-4.656v0m18.79 1.494c-1.951 0.547-3.116 2.492-2.581 4.325 0.531 1.816 2.524 2.798 4.433 2.213l-0.9179-3.244-0.9334-3.294m-30.36 1.477-9.017 2.315c0.7908 2.088 3.464 3.214 5.941 2.546 2.436-0.6586 3.8-2.822 3.076-4.86v0m21.52 1.167c-0.3824-9e-4 -0.7747 0.0513-1.165 0.1605-2.1 0.5886-3.333 2.614-2.733 4.502 0.5959 1.871 2.759 2.858 4.81 2.229 2.021-0.6198 3.197-2.588 2.649-4.419-0.4487-1.499-1.918-2.469-3.562-2.473v0m-34.06 2.053-9.799 2.516c0.8932 2.16 3.824 3.296 6.514 2.569 2.645-0.7149 4.101-2.978 3.285-5.085v0m23.37 0.948c-0.4138 4e-3 -0.8362 0.0612-1.257 0.1791-2.265 0.6351-3.577 2.749-2.902 4.695 0.6696 1.928 3.025 2.92 5.235 2.243 2.177-0.6676 3.422-2.717 2.808-4.603-0.5039-1.545-2.106-2.53-3.884-2.514v0m-37.01 2.552-5.258 1.351-5.429 1.393c1.011 2.237 4.238 3.38 7.171 2.588 2.881-0.7789 4.438-3.152 3.516-5.332v0m25.47 0.6888c-0.4491 9e-3 -0.9083 0.0742-1.364 0.2017-2.452 0.6873-3.846 2.894-3.086 4.902 0.7533 1.989 3.322 2.986 5.711 2.254 2.351-0.7211 3.675-2.861 2.985-4.805-0.5665-1.593-2.316-2.592-4.246-2.553v0m-40.35 3.132-11.7 3.005c1.148 2.319 4.717 3.464 7.927 2.597 3.151-0.8518 4.823-3.343 3.778-5.602v0m73.95-3.079c-1.892 0.5989-3.027 2.525-2.514 4.281 0.509 1.741 2.438 2.621 4.289 1.988l-0.8815-3.111-0.8938-3.158m-46.1 3.456c-0.4889 0.0154-0.9881 0.0904-1.482 0.2287-2.662 0.7462-4.151 3.056-3.294 5.131 0.8491 2.053 3.661 3.049 6.251 2.255 2.547-0.7812 3.956-3.016 3.179-5.023-0.6379-1.644-2.554-2.658-4.653-2.592v0m-44.16 3.809-6.323 1.622 2.245 4.279c3.461-0.9354 5.266-3.559 4.078-5.902v0m81.68-4.392c-0.3701 0.0126-0.7485 0.0756-1.126 0.1951-2.033 0.6434-3.234 2.647-2.659 4.453 0.5703 1.79 2.661 2.672 4.648 1.993 1.958-0.6703 3.103-2.618 2.579-4.373-0.4299-1.436-1.85-2.323-3.441-2.268v0m-51.11 4.397c-0.5341 0.0228-1.077 0.1061-1.615 0.2568-2.9 0.813-4.498 3.238-3.529 5.382 0.9592 2.121 4.05 3.113 6.868 2.25 2.769-0.8493 4.274-3.19 3.398-5.262-0.7197-1.699-2.828-2.725-5.121-2.627v0m40.77-1.121c-0.3998 0.018-0.8093 0.0897-1.216 0.2183-2.19 0.6931-3.462 2.781-2.817 4.64 0.6397 1.842 2.91 2.722 5.048 1.991 2.106-0.7208 3.318-2.748 2.73-4.552-0.4819-1.478-2.027-2.375-3.745-2.297v0m-55.59 5.282c-0.5856 0.0315-1.182 0.1263-1.77 0.2911-3.172 0.8893-4.888 3.438-3.791 5.656 1.086 2.194 4.492 3.179 7.569 2.236 3.021-0.9266 4.636-3.386 3.645-5.527-0.8138-1.756-3.14-2.792-5.653-2.657v0m44.44-1.748c-0.433 0.0243-0.876 0.103-1.315 0.242-2.366 0.7487-3.718 2.93-2.993 4.845 0.7184 1.897 3.191 2.772 5.498 1.983 2.271-0.7772 3.555-2.891 2.896-4.747-0.5409-1.521-2.224-2.428-4.085-2.323v0m-60.67 6.304c-0.6449 0.0418-1.3 0.1513-1.946 0.3322 0 0 2.165 4.125 2.165 4.125s2.123 4.042 2.123 4.042c3.31-1.015 5.045-3.601 3.922-5.815-0.9228-1.818-3.497-2.864-6.263-2.684v0m93.16-7.414c-1.836 0.6461-2.943 2.552-2.451 4.236l3.309-1.206-0.8577-3.03m-44.54 4.931c-0.4705 0.0316-0.9495 0.1196-1.426 0.2701-2.563 0.8113-4.006 3.092-3.191 5.066 0.8082 1.954 3.511 2.823 6.007 1.969 2.456-0.8405 3.821-3.049 3.08-4.962-0.6079-1.567-2.45-2.48-4.471-2.344v0m36.23-1.852c-0.3584 0.0249-0.7263 0.0991-1.093 0.2279-1.97 0.6931-3.137 2.676-2.587 4.406l3.548-1.293 3.458-1.259c-0.4122-1.377-1.785-2.188-3.327-2.081v0m-49.3 5.994c-0.5129 0.0401-1.036 0.1403-1.553 0.3038-2.787 0.8821-4.328 3.273-3.409 5.309 0.911 2.015 3.872 2.87 6.582 1.943 2.664-0.9119 4.122-3.223 3.288-5.193-0.6844-1.615-2.705-2.535-4.908-2.363v0m39.29-2.466c-0.3865 0.0311-0.7826 0.1132-1.176 0.2517-2.119 0.7454-3.355 2.81-2.738 4.587l7.527-2.743c-0.4614-1.415-1.951-2.23-3.613-2.096v0m-53.51 6.976c-0.5611 0.0499-1.133 0.1611-1.697 0.3396-3.041 0.9625-4.695 3.476-3.656 5.578 1.029 2.079 4.286 2.916 7.238 1.906 2.901-0.9927 4.459-3.416 3.518-5.449-0.7723-1.667-2.995-2.59-5.403-2.375v0m42.73-3.179c-0.418 0.0382-0.8442 0.1302-1.269 0.2795-2.285 0.8038-3.598 2.958-2.907 4.786l4.112-1.499 4-1.457c-0.517-1.454-2.14-2.274-3.936-2.11v0m-58.28 8.107c-0.6162 0.0615-1.241 0.1867-1.859 0.3821 0 0 2.047 3.902 2.047 3.902s2.009 3.825 2.009 3.825c3.17-1.085 4.842-3.634 3.779-5.731-0.8736-1.721-3.331-2.642-5.975-2.378v0m46.65-4.008c-0.4532 0.0462-0.9165 0.1474-1.375 0.3088-2.471 0.8694-3.867 3.123-3.091 5.003l4.446-1.62 4.32-1.573c-0.58-1.495-2.352-2.317-4.299-2.118v0m-12.6 4.437c-0.4931 0.0556-0.9963 0.1683-1.494 0.3433-2.681 0.9433-4.172 3.302-3.298 5.238l9.499-3.461c-0.6518-1.538-2.59-2.359-4.708-2.12v0m-13.68 4.818c-0.5383 0.0664-1.085 0.1934-1.627 0.3838-2.919 1.027-4.518 3.504-3.532 5.498l5.247-1.912 5.086-1.852c-0.7338-1.584-2.864-2.402-5.175-2.117v0m-14.91 5.253c-0.5897 0.079-1.19 0.22-1.782 0.4281 0 0 1.941 3.695 1.941 3.695l5.548-2.021c-0.8282-1.631-3.176-2.442-5.707-2.103v0" fill="#DC143C" stroke="#fff" stroke-linecap="round" stroke-width=".9291" style="paint-order:normal"/>
 </g>
 <g transform="translate(-15.73 -7.483)" fill="#DC143C" fill-opacity=".9909">
  <g transform="matrix(.1533 0 0 .1533 11.44 178.5)">
   <path transform="translate(0 217.6)" d="m61.83 100v10.24a10.24 10.24 0 0 0 10.24-10.24z" style="paint-order:normal"/>
   <path transform="translate(0 217.6)" d="m151.6 100a10.24 10.24 0 0 0 10.24 10.24v-10.24z" style="paint-order:normal"/>
   <path transform="translate(0 217.6)" d="m61.83 189.8v10.24h10.24a10.24 10.24 0 0 0-10.24-10.24z" style="paint-order:normal"/>
   <path transform="translate(0 217.6)" d="m161.8 189.8a10.24 10.24 0 0 0-10.24 10.24h10.24z" style="paint-order:normal"/>
  </g>
  <g transform="matrix(.1533 0 0 .1533 11.44 178.5)">
   <path transform="translate(0 217.6)" d="m61.83 100v10.24a10.24 10.24 0 0 0 10.24-10.24z" style="paint-order:normal"/>
   <path transform="translate(0 217.6)" d="m151.6 100a10.24 10.24 0 0 0 10.24 10.24v-10.24z" style="paint-order:normal"/>
   <path transform="translate(0 217.6)" d="m61.83 189.8v10.24h10.24a10.24 10.24 0 0 0-10.24-10.24z" style="paint-order:normal"/>
   <path transform="translate(0 217.6)" d="m161.8 189.8a10.24 10.24 0 0 0-10.24 10.24h10.24z" style="paint-order:normal"/>
  </g>
  <g transform="matrix(.1533 0 0 .1533 11.44 193.8)">
   <path transform="translate(0 217.6)" d="m61.83 100v10.24a10.24 10.24 0 0 0 10.24-10.24z" style="paint-order:normal"/>
   <path transform="translate(0 217.6)" d="m151.6 100a10.24 10.24 0 0 0 10.24 10.24v-10.24z" style="paint-order:normal"/>
   <path transform="translate(0 217.6)" d="m61.83 189.8v10.24h10.24a10.24 10.24 0 0 0-10.24-10.24z" style="paint-order:normal"/>
   <path transform="translate(0 217.6)" d="m161.8 189.8a10.24 10.24 0 0 0-10.24 10.24h10.24z" style="paint-order:normal"/>
  </g>
  <g transform="matrix(.1533 0 0 .1533 11.44 209.2)">
   <path transform="translate(0 217.6)" d="m61.83 100v10.24a10.24 10.24 0 0 0 10.24-10.24z" style="paint-order:normal"/>
   <path transform="translate(0 217.6)" d="m151.6 100a10.24 10.24 0 0 0 10.24 10.24v-10.24z" style="paint-order:normal"/>
   <path transform="translate(0 217.6)" d="m61.83 189.8v10.24h10.24a10.24 10.24 0 0 0-10.24-10.24z" style="paint-order:normal"/>
   <path transform="translate(0 217.6)" d="m161.8 189.8a10.24 10.24 0 0 0-10.24 10.24h10.24z" style="paint-order:normal"/>
  </g>
  <g transform="matrix(.1533 0 0 .1533 11.44 224.5)">
   <path transform="translate(0 217.6)" d="m61.83 100v10.24a10.24 10.24 0 0 0 10.24-10.24z" style="paint-order:normal"/>
   <path transform="translate(0 217.6)" d="m151.6 100a10.24 10.24 0 0 0 10.24 10.24v-10.24z" style="paint-order:normal"/>
   <path transform="translate(0 217.6)" d="m61.83 189.8v10.24h10.24a10.24 10.24 0 0 0-10.24-10.24z" style="paint-order:normal"/>
   <path transform="translate(0 217.6)" d="m161.8 189.8a10.24 10.24 0 0 0-10.24 10.24h10.24z" style="paint-order:normal"/>
  </g>
  <g transform="matrix(.1533 0 0 .1533 11.44 239.8)">
   <path transform="translate(0 217.6)" d="m61.83 100v10.24a10.24 10.24 0 0 0 10.24-10.24z" style="paint-order:normal"/>
   <path transform="translate(0 217.6)" d="m151.6 100a10.24 10.24 0 0 0 10.24 10.24v-10.24z" style="paint-order:normal"/>
   <path transform="translate(0 217.6)" d="m61.83 189.8v10.24h10.24a10.24 10.24 0 0 0-10.24-10.24z" style="paint-order:normal"/>
   <path transform="translate(0 217.6)" d="m161.8 189.8a10.24 10.24 0 0 0-10.24 10.24h10.24z" style="paint-order:normal"/>
  </g>
  <g transform="matrix(.1533 0 0 .1533 26.78 178.5)">
   <path transform="translate(0 217.6)" d="m61.83 100v10.24a10.24 10.24 0 0 0 10.24-10.24z" style="paint-order:normal"/>
   <path transform="translate(0 217.6)" d="m151.6 100a10.24 10.24 0 0 0 10.24 10.24v-10.24z" style="paint-order:normal"/>
   <path transform="translate(0 217.6)" d="m61.83 189.8v10.24h10.24a10.24 10.24 0 0 0-10.24-10.24z" style="paint-order:normal"/>
   <path transform="translate(0 217.6)" d="m161.8 189.8a10.24 10.24 0 0 0-10.24 10.24h10.24z" style="paint-order:normal"/>
  </g>
  <g transform="matrix(.1533 0 0 .1533 26.78 193.8)">
   <path transform="translate(0 217.6)" d="m61.83 100v10.24a10.24 10.24 0 0 0 10.24-10.24z" style="paint-order:normal"/>
   <path transform="translate(0 217.6)" d="m151.6 100a10.24 10.24 0 0 0 10.24 10.24v-10.24z" style="paint-order:normal"/>
   <path transform="translate(0 217.6)" d="m61.83 189.8v10.24h10.24a10.24 10.24 0 0 0-10.24-10.24z" style="paint-order:normal"/>
   <path transform="translate(0 217.6)" d="m161.8 189.8a10.24 10.24 0 0 0-10.24 10.24h10.24z" style="paint-order:normal"/>
  </g>
  <g transform="matrix(.1533 0 0 .1533 26.78 209.2)">
   <path transform="translate(0 217.6)" d="m61.83 100v10.24a10.24 10.24 0 0 0 10.24-10.24z" style="paint-order:normal"/>
   <path transform="translate(0 217.6)" d="m151.6 100a10.24 10.24 0 0 0 10.24 10.24v-10.24z" style="paint-order:normal"/>
   <path transform="translate(0 217.6)" d="m61.83 189.8v10.24h10.24a10.24 10.24 0 0 0-10.24-10.24z" style="paint-order:normal"/>
   <path transform="translate(0 217.6)" d="m161.8 189.8a10.24 10.24 0 0 0-10.24 10.24h10.24z" style="paint-order:normal"/>
  </g>
  <g transform="matrix(.1533 0 0 .1533 26.78 224.5)">
   <path transform="translate(0 217.6)" d="m61.83 100v10.24a10.24 10.24 0 0 0 10.24-10.24z" style="paint-order:normal"/>
   <path transform="translate(0 217.6)" d="m151.6 100a10.24 10.24 0 0 0 10.24 10.24v-10.24z" style="paint-order:normal"/>
   <path transform="translate(0 217.6)" d="m61.83 189.8v10.24h10.24a10.24 10.24 0 0 0-10.24-10.24z" style="paint-order:normal"/>
   <path transform="translate(0 217.6)" d="m161.8 189.8a10.24 10.24 0 0 0-10.24 10.24h10.24z" style="paint-order:normal"/>
  </g>
  <g transform="matrix(.1533 0 0 .1533 26.78 239.8)">
   <path transform="translate(0 217.6)" d="m61.83 100v10.24a10.24 10.24 0 0 0 10.24-10.24z" style="paint-order:normal"/>
   <path transform="translate(0 217.6)" d="m151.6 100a10.24 10.24 0 0 0 10.24 10.24v-10.24z" style="paint-order:normal"/>
   <path transform="translate(0 217.6)" d="m61.83 189.8v10.24h10.24a10.24 10.24 0 0 0-10.24-10.24z" style="paint-order:normal"/>
   <path transform="translate(0 217.6)" d="m161.8 189.8a10.24 10.24 0 0 0-10.24 10.24h10.24z" style="paint-order:normal"/>
  </g>
  <g transform="matrix(.1533 0 0 .1533 42.11 178.5)">
   <path transform="translate(0 217.6)" d="m61.83 100v10.24a10.24 10.24 0 0 0 10.24-10.24z" style="paint-order:normal"/>
   <path transform="translate(0 217.6)" d="m151.6 100a10.24 10.24 0 0 0 10.24 10.24v-10.24z" style="paint-order:normal"/>
   <path transform="translate(0 217.6)" d="m61.83 189.8v10.24h10.24a10.24 10.24 0 0 0-10.24-10.24z" style="paint-order:normal"/>
   <path transform="translate(0 217.6)" d="m161.8 189.8a10.24 10.24 0 0 0-10.24 10.24h10.24z" style="paint-order:normal"/>
  </g>
  <g transform="matrix(.1533 0 0 .1533 42.11 193.8)">
   <path transform="translate(0 217.6)" d="m61.83 100v10.24a10.24 10.24 0 0 0 10.24-10.24z" style="paint-order:normal"/>
   <path transform="translate(0 217.6)" d="m151.6 100a10.24 10.24 0 0 0 10.24 10.24v-10.24z" style="paint-order:normal"/>
   <path transform="translate(0 217.6)" d="m61.83 189.8v10.24h10.24a10.24 10.24 0 0 0-10.24-10.24z" style="paint-order:normal"/>
   <path transform="translate(0 217.6)" d="m161.8 189.8a10.24 10.24 0 0 0-10.24 10.24h10.24z" style="paint-order:normal"/>
  </g>
  <g transform="matrix(.1533 0 0 .1533 42.11 209.2)">
   <path transform="translate(0 217.6)" d="m61.83 100v10.24a10.24 10.24 0 0 0 10.24-10.24z" style="paint-order:normal"/>
   <path transform="translate(0 217.6)" d="m151.6 100a10.24 10.24 0 0 0 10.24 10.24v-10.24z" style="paint-order:normal"/>
   <path transform="translate(0 217.6)" d="m61.83 189.8v10.24h10.24a10.24 10.24 0 0 0-10.24-10.24z" style="paint-order:normal"/>
   <path transform="translate(0 217.6)" d="m161.8 189.8a10.24 10.24 0 0 0-10.24 10.24h10.24z" style="paint-order:normal"/>
  </g>
  <g transform="matrix(.1533 0 0 .1533 42.11 224.5)">
   <path transform="translate(0 217.6)" d="m61.83 100v10.24a10.24 10.24 0 0 0 10.24-10.24z" style="paint-order:normal"/>
   <path transform="translate(0 217.6)" d="m151.6 100a10.24 10.24 0 0 0 10.24 10.24v-10.24z" style="paint-order:normal"/>
   <path transform="translate(0 217.6)" d="m61.83 189.8v10.24h10.24a10.24 10.24 0 0 0-10.24-10.24z" style="paint-order:normal"/>
   <path transform="translate(0 217.6)" d="m161.8 189.8a10.24 10.24 0 0 0-10.24 10.24h10.24z" style="paint-order:normal"/>
  </g>
  <g transform="matrix(.1533 0 0 .1533 42.11 239.8)">
   <path transform="translate(0 217.6)" d="m61.83 100v10.24a10.24 10.24 0 0 0 10.24-10.24z" style="paint-order:normal"/>
   <path transform="translate(0 217.6)" d="m151.6 100a10.24 10.24 0 0 0 10.24 10.24v-10.24z" style="paint-order:normal"/>
   <path transform="translate(0 217.6)" d="m61.83 189.8v10.24h10.24a10.24 10.24 0 0 0-10.24-10.24z" style="paint-order:normal"/>
   <path transform="translate(0 217.6)" d="m161.8 189.8a10.24 10.24 0 0 0-10.24 10.24h10.24z" style="paint-order:normal"/>
  </g>
  <g transform="matrix(.1533 0 0 .1533 57.44 178.5)">
   <path transform="translate(0 217.6)" d="m61.83 100v10.24a10.24 10.24 0 0 0 10.24-10.24z" style="paint-order:normal"/>
   <path transform="translate(0 217.6)" d="m151.6 100a10.24 10.24 0 0 0 10.24 10.24v-10.24z" style="paint-order:normal"/>
   <path transform="translate(0 217.6)" d="m61.83 189.8v10.24h10.24a10.24 10.24 0 0 0-10.24-10.24z" style="paint-order:normal"/>
   <path transform="translate(0 217.6)" d="m161.8 189.8a10.24 10.24 0 0 0-10.24 10.24h10.24z" style="paint-order:normal"/>
  </g>
  <g transform="matrix(.1533 0 0 .1533 57.44 193.8)">
   <path transform="translate(0 217.6)" d="m61.83 100v10.24a10.24 10.24 0 0 0 10.24-10.24z" style="paint-order:normal"/>
   <path transform="translate(0 217.6)" d="m151.6 100a10.24 10.24 0 0 0 10.24 10.24v-10.24z" style="paint-order:normal"/>
   <path transform="translate(0 217.6)" d="m61.83 189.8v10.24h10.24a10.24 10.24 0 0 0-10.24-10.24z" style="paint-order:normal"/>
   <path transform="translate(0 217.6)" d="m161.8 189.8a10.24 10.24 0 0 0-10.24 10.24h10.24z" style="paint-order:normal"/>
  </g>
  <g transform="matrix(.1533 0 0 .1533 57.44 209.2)">
   <path transform="translate(0 217.6)" d="m61.83 100v10.24a10.24 10.24 0 0 0 10.24-10.24z" style="paint-order:normal"/>
   <path transform="translate(0 217.6)" d="m151.6 100a10.24 10.24 0 0 0 10.24 10.24v-10.24z" style="paint-order:normal"/>
   <path transform="translate(0 217.6)" d="m61.83 189.8v10.24h10.24a10.24 10.24 0 0 0-10.24-10.24z" style="paint-order:normal"/>
   <path transform="translate(0 217.6)" d="m161.8 189.8a10.24 10.24 0 0 0-10.24 10.24h10.24z" style="paint-order:normal"/>
  </g>
  <g transform="matrix(.1533 0 0 .1533 57.44 224.5)">
   <path transform="translate(0 217.6)" d="m61.83 100v10.24a10.24 10.24 0 0 0 10.24-10.24z" style="paint-order:normal"/>
   <path transform="translate(0 217.6)" d="m151.6 100a10.24 10.24 0 0 0 10.24 10.24v-10.24z" style="paint-order:normal"/>
   <path transform="translate(0 217.6)" d="m61.83 189.8v10.24h10.24a10.24 10.24 0 0 0-10.24-10.24z" style="paint-order:normal"/>
   <path transform="translate(0 217.6)" d="m161.8 189.8a10.24 10.24 0 0 0-10.24 10.24h10.24z" style="paint-order:normal"/>
  </g>
  <g transform="matrix(.1533 0 0 .1533 57.44 239.8)">
   <path transform="translate(0 217.6)" d="m61.83 100v10.24a10.24 10.24 0 0 0 10.24-10.24z" style="paint-order:normal"/>
   <path transform="translate(0 217.6)" d="m151.6 100a10.24 10.24 0 0 0 10.24 10.24v-10.24z" style="paint-order:normal"/>
   <path transform="translate(0 217.6)" d="m61.83 189.8v10.24h10.24a10.24 10.24 0 0 0-10.24-10.24z" style="paint-order:normal"/>
   <path transform="translate(0 217.6)" d="m161.8 189.8a10.24 10.24 0 0 0-10.24 10.24h10.24z" style="paint-order:normal"/>
  </g>
  <g transform="matrix(.1533 0 0 .1533 72.77 178.5)">
   <path transform="translate(0 217.6)" d="m61.83 100v10.24a10.24 10.24 0 0 0 10.24-10.24z" style="paint-order:normal"/>
   <path transform="translate(0 217.6)" d="m151.6 100a10.24 10.24 0 0 0 10.24 10.24v-10.24z" style="paint-order:normal"/>
   <path transform="translate(0 217.6)" d="m61.83 189.8v10.24h10.24a10.24 10.24 0 0 0-10.24-10.24z" style="paint-order:normal"/>
   <path transform="translate(0 217.6)" d="m161.8 189.8a10.24 10.24 0 0 0-10.24 10.24h10.24z" style="paint-order:normal"/>
  </g>
  <g transform="matrix(.1533 0 0 .1533 72.77 193.8)">
   <path transform="translate(0 217.6)" d="m61.83 100v10.24a10.24 10.24 0 0 0 10.24-10.24z" style="paint-order:normal"/>
   <path transform="translate(0 217.6)" d="m151.6 100a10.24 10.24 0 0 0 10.24 10.24v-10.24z" style="paint-order:normal"/>
   <path transform="translate(0 217.6)" d="m61.83 189.8v10.24h10.24a10.24 10.24 0 0 0-10.24-10.24z" style="paint-order:normal"/>
   <path transform="translate(0 217.6)" d="m161.8 189.8a10.24 10.24 0 0 0-10.24 10.24h10.24z" style="paint-order:normal"/>
  </g>
  <g transform="matrix(.1533 0 0 .1533 72.77 209.2)">
   <path transform="translate(0 217.6)" d="m61.83 100v10.24a10.24 10.24 0 0 0 10.24-10.24z" style="paint-order:normal"/>
   <path transform="translate(0 217.6)" d="m151.6 100a10.24 10.24 0 0 0 10.24 10.24v-10.24z" style="paint-order:normal"/>
   <path transform="translate(0 217.6)" d="m61.83 189.8v10.24h10.24a10.24 10.24 0 0 0-10.24-10.24z" style="paint-order:normal"/>
   <path transform="translate(0 217.6)" d="m161.8 189.8a10.24 10.24 0 0 0-10.24 10.24h10.24z" style="paint-order:normal"/>
  </g>
  <g transform="matrix(.1533 0 0 .1533 72.77 224.5)">
   <path transform="translate(0 217.6)" d="m61.83 100v10.24a10.24 10.24 0 0 0 10.24-10.24z" style="paint-order:normal"/>
   <path transform="translate(0 217.6)" d="m151.6 100a10.24 10.24 0 0 0 10.24 10.24v-10.24z" style="paint-order:normal"/>
   <path transform="translate(0 217.6)" d="m61.83 189.8v10.24h10.24a10.24 10.24 0 0 0-10.24-10.24z" style="paint-order:normal"/>
   <path transform="translate(0 217.6)" d="m161.8 189.8a10.24 10.24 0 0 0-10.24 10.24h10.24z" style="paint-order:normal"/>
  </g>
  <g transform="matrix(.1533 0 0 .1533 72.77 239.8)">
   <path transform="translate(0 217.6)" d="m61.83 100v10.24a10.24 10.24 0 0 0 10.24-10.24z" style="paint-order:normal"/>
   <path transform="translate(0 217.6)" d="m151.6 100a10.24 10.24 0 0 0 10.24 10.24v-10.24z" style="paint-order:normal"/>
   <path transform="translate(0 217.6)" d="m61.83 189.8v10.24h10.24a10.24 10.24 0 0 0-10.24-10.24z" style="paint-order:normal"/>
   <path transform="translate(0 217.6)" d="m161.8 189.8a10.24 10.24 0 0 0-10.24 10.24h10.24z" style="paint-order:normal"/>
  </g>
 </g>
</svg>
