<svg version="1.1" viewBox="0 0 250 250" xmlns="http://www.w3.org/2000/svg">
<symbol id="editor-gear">
 <path d="m250 171.4c-171.2 125-161 46.07-250 78.61h250z" fill="#fff"/>
 <path d="m0.3 0.3h249.4v249.4h-249.4z" display="none" fill="#007993" stroke="#71baba" stroke-linecap="round" stroke-linejoin="bevel" stroke-width=".5915" style="paint-order:markers stroke fill"/>
 <g transform="matrix(.3864 0 0 .3864 147.2 168.5)">
  <g fill="#8393FF">
   <path d="m110.9 171.4c2.329-1.529 4.363-4.968 4.93-8.068 0.4836-2.642 1.072-7.126-1.494-7.918-1.009-0.3116-1.795 1.283-2.241 2.241-1.942 4.169-3.8 15.46-1.195 13.75z"/>
   <path d="m168.5 177.5v6.761s19.44-6.107 28.31-10.99c12.73-7.004 21.26-13.59 35.07-25.88 2.74-2.44 13.7-8.885 18.07-5.599 6.504 4.899 4.121 12.19 8.451 14.16 2.17 0.9868 2.567-0.0271 3.169-0.9508 1.726-2.645 0.4386-6.68-1.162-9.402-2.785-4.736-7.211-9.009-13.31-9.719-8.95-1.043-28.39 12.38-42.05 19.65-12.55 6.681-36.55 21.97-36.55 21.97z"/>
   <path d="m64.48 117.4v6.761s19.44-6.107 28.31-10.99c12.73-7.004 21.26-13.59 35.07-25.88 2.74-2.44 13.91-8.251 18.28-4.965 6.504 4.899 1.797 12.4 6.127 14.37 2.17 0.9868 4.294-0.2203 5.282-1.796 1.678-2.676 0.4386-6.68-1.162-9.402-2.785-4.736-7.211-9.009-13.31-9.719-8.95-1.043-28.39 12.38-42.05 19.65-12.55 6.681-36.55 21.97-36.55 21.97z"/>
  </g>
  <path d="m66.11 118.7v6.761s19.44-6.107 28.31-10.99c12.73-7.004 21.26-13.59 35.07-25.88 2.74-2.44 11.38-7.828 15.74-4.543 6.504 4.899 2.642 11.76 6.972 13.73 2.17 0.9868 5.603 0.3659 6.972-1.585 1.815-2.584 0.4386-6.68-1.162-9.402-2.785-4.736-7.211-9.009-13.31-9.719-8.95-1.043-28.39 12.38-42.05 19.65-12.55 6.681-36.55 21.97-36.55 21.97z" fill="#161B3D"/>
  <path d="m66.28 116.2v7.322s2.193 1.832 3.018 3.795c1.702 4.049-1.619 15.39 3.047 25.89 2.71 6.097 7.369 12.43 12.53 15.61 6.638 4.093 16.76 10.36 22.11 7.712 5.351-2.653 5.321-7.734 6.578-11.37 0.8136-2.355-0.526-5.873 1.5-7.322 1.326-0.9487 3.591-0.4152 4.852 0.6191 2.253 1.849 2.495 5.239 2.773 8.291 0.6499 7.113 3.043 21.33 9.582 27.65 7.281 7.042 9.864 8.402 16.09 11.64 5.94 3.093 16.4 5.07 18.75-8.241 0.5551-3.141 0.4857-6.474 0.793-9.705 0.159-1.671 0.2907-4.567 3.998-3.85v-6.76s-15.36-12.5-23.85-17.53c-18.45-10.95-20.58-6.195-26.91-9.791-9.845-5.597-16.98-15.18-26.64-21.08-8.824-5.395-28.23-12.88-28.23-12.88zm11.04 8.514c5.108 0.2534 12.1 4.351 16.8 7.277 6.729 4.185 14.72 10.8 16.16 17.43 1.481 6.825 1.09 16.23-2.324 22.29-2.886 5.125-13.13 0.3788-18.8-3.17-4.985-3.116-9.484-7.167-11.94-11.3-3.361-5.662-4.87-11.16-5.492-17.12-0.4998-4.788-1.111-12.43 1.479-14.37 0.8675-0.6504 1.928-0.9717 3.119-1.041 0.3226-0.0188 0.6555-0.0189 0.9961-2e-3zm54.23 31.37c5.108 0.2534 12.1 4.351 16.8 7.277 6.729 4.185 14.73 10.8 16.16 17.43 1.481 6.825 1.09 16.23-2.324 22.29-2.886 5.125-13.13 0.3788-18.8-3.17-4.985-3.116-9.482-7.167-11.94-11.3-3.361-5.662-4.872-11.16-5.494-17.12-0.4998-4.788-1.111-12.43 1.479-14.37 0.8675-0.6504 1.928-0.9737 3.119-1.043 0.3226-0.0188 0.6555-0.0188 0.9961-2e-3z" fill="#8393FF"/>
  <path d="m170.1 178.7v6.761s19.44-6.107 28.31-10.99c12.73-7.004 21.26-13.59 35.07-25.88 2.74-2.44 11.38-7.828 15.74-4.543 6.504 4.899 2.642 11.76 6.972 13.73 2.17 0.9868 5.603 0.3659 6.972-1.585 1.815-2.584 0.4386-6.68-1.162-9.402-2.785-4.736-7.211-9.009-13.31-9.719-8.95-1.043-28.39 12.38-42.05 19.65-12.55 6.681-36.55 21.97-36.55 21.97z" fill="#161B3D"/>
  <path d="m64.49 117.4v7.322s2.193 1.834 3.018 3.797c1.702 4.049-0.2733 14.64 4.393 25.14 2.71 6.097 7.368 12.43 12.53 15.61 6.638 4.093 14.98 10.4 22.19 7.412 3.554-1.471 3.902-6.686 5.158-10.32 0.8136-2.355-0.526-5.873 1.5-7.322 1.326-0.9487 3.53-0.3373 4.852 0.6172 2.484 1.794 3.69 5.241 3.969 8.293 0.6499 7.113 3.342 20.58 9.881 26.9 7.281 7.042 9.483 8.018 15.71 11.26 5.94 3.093 15.29 6.199 17.64-7.111 0.5551-3.141 0.4857-6.472 0.793-9.703 0.159-1.671 0.2907-4.567 3.998-3.85v-6.762s-15.36-12.49-23.85-17.53c-18.45-10.95-20.58-6.196-26.91-9.793-9.845-5.597-16.98-15.17-26.64-21.08-8.824-5.395-28.23-12.88-28.23-12.88zm11.49 8.477c5.108 0.2531 12.09 4.349 16.8 7.275 6.729 4.185 14.73 10.8 16.16 17.43 1.481 6.825 1.09 16.23-2.324 22.29-2.886 5.125-13.13 0.3788-18.8-3.17-4.985-3.116-9.482-7.167-11.94-11.3-3.361-5.662-4.872-11.16-5.494-17.12-0.4998-4.788-1.109-12.43 1.48-14.37 0.8675-0.6504 1.928-0.9717 3.119-1.041 0.3226-0.0188 0.6556-0.0188 0.9961-2e-3zm54.23 31.37c5.108 0.2534 12.1 4.351 16.8 7.277 6.729 4.185 14.72 10.8 16.16 17.43 1.481 6.825 1.09 16.23-2.324 22.29-2.886 5.125-13.13 0.3788-18.8-3.17-4.985-3.116-9.482-7.167-11.94-11.3-3.361-5.662-4.87-11.16-5.492-17.12-0.4998-4.788-1.111-12.43 1.479-14.37 0.8675-0.6504 1.928-0.9737 3.119-1.043 0.3226-0.0188 0.6555-0.0189 0.9961-2e-3z" fill="#161B3D"/>
  <path d="m126.1 158.3c4.627-3.469 14.74 2.391 20.92 6.233 6.729 4.185 14.72 10.8 16.16 17.43 1.481 6.825 1.09 16.23-2.324 22.29-2.886 5.125-13.13 0.3794-18.8-3.169-4.985-3.116-9.483-7.168-11.94-11.3-3.361-5.662-4.871-11.16-5.493-17.11-0.4998-4.788-1.11-12.43 1.479-14.37z" fill="none" opacity=".1941"/>
  <path d="m71.86 127c4.627-3.469 14.74 2.391 20.92 6.233 6.729 4.185 14.72 10.8 16.16 17.43 1.481 6.825 1.09 16.23-2.324 22.29-2.886 5.125-13.13 0.3794-18.8-3.169-4.985-3.116-9.483-7.168-11.94-11.3-3.361-5.662-4.871-11.16-5.493-17.11-0.4998-4.788-1.11-12.43 1.479-14.37z" fill="none" opacity=".1941"/>
  <path d="m72.25 126.7c-0.1305 0.0792-0.2658 0.15-0.3887 0.2422-2.589 1.941-1.98 9.579-1.48 14.37 0.622 5.959 2.133 11.45 5.494 17.12 2.455 4.136 6.953 8.187 11.94 11.3 5.107 3.192 13.9 7.348 17.72 4.422-4.022 2.318-12.36-1.648-17.27-4.721-4.985-3.116-9.482-7.167-11.94-11.3-3.361-5.662-4.872-11.16-5.494-17.12-0.4957-4.749-1.094-12.29 1.422-14.31zm54.23 31.38c-0.1305 0.0792-0.2658 0.15-0.3887 0.2422-2.589 1.941-1.978 9.579-1.479 14.37 0.622 5.959 2.131 11.45 5.492 17.12 2.455 4.136 6.953 8.187 11.94 11.3 5.107 3.192 13.9 7.348 17.72 4.422-4.022 2.318-12.36-1.648-17.27-4.721-4.985-3.116-9.482-7.167-11.94-11.3-3.361-5.662-4.87-11.16-5.492-17.12-0.4957-4.749-1.096-12.29 1.42-14.31z" fill="#0018cc" opacity=".1941"/>
  <ellipse transform="rotate(30)" cx="120.5" cy="72.16" rx="1.628" ry=".5009" fill="#fff" style="paint-order:normal"/>
  <ellipse transform="rotate(30)" cx="233.9" cy="72.54" rx="1.628" ry=".5009" fill="#fff" style="paint-order:normal"/>
  <g stroke="#fff">
   <g transform="translate(-47.77,-256.2)" fill="none" stroke-width=".378">
    <path d="m123.7 385.6 9.078 15.72"/>
    <path d="m123.7 396.3 9.078 15.72"/>
   </g>
   <g transform="translate(4.824,-223.9)" fill="none" stroke-width=".378">
    <path d="m123.7 385.6 9.078 15.72"/>
    <path d="m123.7 396.3 9.078 15.72"/>
   </g>
   <path transform="matrix(2.588 0 0 2.588 -381 -436.1)" d="m242.5 221.4c-0.5746 0.0481-1.228 0.2063-1.934 0.4395 0.3402 0.1096 0.7144 0.1302 1.088 0.0332 0.3283-0.0855 0.6109-0.2554 0.8457-0.4727zm3.541 1.092c-0.4081 0.4536-0.6078 1.093-0.4746 1.721 0.2098 0.9854 1.156 1.544 2.104 1.26 0.2657-0.0799 0.4988-0.2233 0.6992-0.4024-0.59-0.9822-1.368-1.897-2.328-2.578zm-3.492 0.7168c-0.1872-6e-3 -0.3802 0.0138-0.5742 0.0664-0.3892 0.1056-0.723 0.3218-0.9785 0.6035 0.9252-0.2566 1.831-0.2794 2.488 0.2148 0.3141 0.2366 0.5646 0.4851 0.7676 0.7402-7e-3 -0.0795-0.01-0.159-0.0274-0.2383-0.1786-0.814-0.8715-1.358-1.676-1.387zm-5.32 1.445v2e-3c-0.2033-5e-3 -0.413 0.0193-0.623 0.0762-1.13 0.3067-1.832 1.424-1.553 2.484 0.0465 0.1761 0.1245 0.3332 0.2148 0.4805 0.6995-0.6036 1.359-1.16 2.133-1.85 0.2392-0.213 0.6066-0.4842 1.033-0.7617-0.3303-0.2642-0.7513-0.4214-1.205-0.4316zm-5.385 1.602c-0.9106 0.5306-1.813 1.056-2.68 1.553-0.1132 0.3528-0.1361 0.7302-0.0273 1.102 0.3184 1.085 1.558 1.662 2.754 1.303 1.176-0.3536 1.885-1.487 1.598-2.547-0.2041-0.7509-0.8569-1.276-1.645-1.41zm16.61 0.4375c-0.1677-1e-3 -0.3412 0.0238-0.5156 0.0781-0.9396 0.2926-1.546 1.311-1.344 2.262 0.0422 0.1981 0.1219 0.3716 0.2207 0.5274 0.7677 0.0807 1.651-0.1912 2.061-0.7734 0.3726-0.5308 0.392-1.225 0.2402-1.918-0.2031-0.1015-0.4218-0.1743-0.6621-0.1758zm-21.26 2.213c-0.0496 0.0266-0.1051 0.0597-0.1543 0.0859-1.157 0.6162-2.573 1.427-4.049 2.297 0.5657 0.753 1.67 1.094 2.74 0.7734 1.279-0.3844 2.033-1.57 1.703-2.666-0.0538-0.1782-0.1396-0.3393-0.2402-0.4902zm-6.436 3.727c-0.8828 0.5329-1.781 1.065-2.605 1.572 0.2858-7e-3 0.5768-0.0404 0.8652-0.127 0.8367-0.2515 1.455-0.8019 1.74-1.445zm6.148 0.7793c-0.2332 0.0102-0.472 0.0526-0.7109 0.127-1.011 0.3147-1.697 1.128-1.779 1.984 1.173-0.6598 2.268-1.32 3.318-2.006-0.2589-0.0771-0.537-0.1182-0.8281-0.1055zm-6.572 2.051c-0.2553 0.0143-0.5167 0.0614-0.7774 0.1426-1.405 0.4377-2.233 1.711-1.83 2.826 5e-4 1e-3 1e-3 3e-3 2e-3 4e-3 1.634-0.5958 3.381-1.269 4.826-1.943-0.4012-0.6886-1.264-1.083-2.221-1.029zm-6.742 2.238c-0.1454-8e-3 -0.2929-6e-3 -0.4434 4e-3 -0.0779 5e-3 -0.1576 0.0208-0.2363 0.0312v1.727l0.1836 0.4746 0.0332 0.084c0.2209-0.0699 1.247-0.4089 2.658-0.8945-7e-3 -0.0206-6e-3 -0.042-0.0137-0.0625-0.2976-0.799-1.164-1.305-2.182-1.363z" fill="#DC143C" stroke-linecap="round" stroke-width=".4512" style="paint-order:normal"/>
  </g>
 </g>
</symbol>
</svg>
