<svg id="em-logo" xmlns="http://www.w3.org/2000/svg" viewBox="0 0 100 50">
  <g clip-rule="evenodd">
    <path d="M15.86 10.156c-1.314.057-2.761.59-3.448 1.782-.432.726-.167 1.657.422 2.209.597.621 1.335 1.091 2.103 1.47-1.775.262-3.617.877-4.86 2.235-.807.853-1.122 2.075-.953 3.223.181 1.677 1.362 3.156 2.92 3.773 2.078.846 4.457.363 6.388-.644.533-.29 1.08-.584 1.548-.968-.078-.57-.759.237-1.076.311-1.902 1.081-4.24 1.746-6.381 1.007-1.654-.534-2.906-2.118-2.95-3.867-.101-1.253.51-2.481 1.506-3.228 1.204-.926 2.68-1.485 4.178-1.699.65.281 1.351.606 2.077.525.735-.373-.297-.859-.74-.758-.735.006-1.472.106-2.04-.476-.722-.52-1.502-1.102-1.83-1.962-.175-.831.554-1.566 1.209-1.968 1.334-.737 3.17-.904 4.427.083.217.502.794.057.285-.188-.77-.636-1.798-.899-2.785-.86zm.426 5.521c.3-.012 1.368-.007 1.066.445-.578.12-1.144-.2-1.66-.424.197-.022.395-.02.592-.02zm7.438 2.623c-.59.001-1.306.142-1.62.699-.265.54.107 1.12.489 1.494.585.56 1.252 1.06 1.688 1.755-.757.217-1.434.655-2.067 1.113-.408.333-.896.691-.998 1.24-.02.435.48.609.835.666.976.154 2.082-.143 2.721-.927.456-.566.432-1.36.207-2.014.139-.202.707-.245 1.016-.381 1.124-.34 2.315-.706 3.117-1.617.382-.42.713-.891.978-1.391-.236-.289-.403.415-.59.552-.59.859-1.421 1.561-2.413 1.908-.73.272-1.488.472-2.236.684-.635-.914-1.632-1.505-2.274-2.414-.3-.329-.12-.846.285-.979.459-.184 1.006-.264 1.475-.077.506.228.41.82.354 1.211.373.11.35-.513.263-.746-.147-.49-.647-.785-1.144-.772zm.67 4.133c.332.628.252 1.494-.331 1.95-.628.513-1.523.719-2.304.492-.474-.19-.106-.733.155-.942a7.621 7.621 0 0 1 2.324-1.46l.085-.025z"/>
    <path d="M39.286 18.847c-.068-.041-.137.02-.16.04-.411.73-.914 1.316-1.554 1.9-.502.458-1.553.855-2.443.814-.434 0-.844-.084-1.255-.188.16-.168.32-.356.41-.585.48-.958-.456-2.022-1.392-2.208-.502-.105-1.006-.042-1.44.061-.388.084-.73.207-1.097.331a.271.271 0 0 0 .046-.124c.137-.248.274-.477.456-.643a.233.233 0 0 0 0-.292c-.09-.084-.25-.084-.319-.022-.274.25-.41.502-.571.77-.137.25-.251.521-.365.792a13.763 13.763 0 0 0-.502 1.647 12.998 12.998 0 0 0-.32 3.383c.069 1.672.343 4.62 2.1 5.603.298.167.687.271 1.029.23.137-.022.228-.125.205-.23 0-.126-.114-.209-.25-.188-2.15.167-2.514-4.224-2.537-5.436a14.484 14.484 0 0 1 .296-3.278c.114-.54.274-1.062.458-1.585.068-.125.114-.25.16-.376.411-.146.846-.25 1.257-.333.434-.063.891-.063 1.257.083.731.23 1.278 1.003 1.052 1.65-.091.228-.251.435-.458.623l-.823-.25c-.433-.126-.845-.27-1.325-.331a1.733 1.733 0 0 0-.733.02c-.273.082-.479.227-.592.457-.136.23-.068.544.114.732.159.166.388.292.616.374.457.145.937.165 1.417.082a3.46 3.46 0 0 0 1.304-.521c.114-.083.205-.145.319-.228.479.103.98.187 1.483.207a4.04 4.04 0 0 0 2.58-.855c.685-.561 1.188-1.27 1.6-2.002.023-.04 0-.103-.023-.124zm-6.211 2.69c-.32.251-.709.46-1.12.564-.411.083-.87.083-1.257-.041-.39-.126-.753-.46-.572-.753.069-.146.251-.271.434-.314.182-.061.389-.061.595-.04.433.062.868.208 1.28.334.228.062.48.125.708.188z"/>
    <path d="M45.316 18.829c-.342.076-.464.556-.734.78-.74.852-1.483 1.781-2.548 2.235a2.407 2.407 0 0 1-1.87-.006 1.202 1.202 0 0 1-.856-.946c.435-.32.848-.673 1.175-1.11.377-.496.764-1.05.812-1.69.034-.304-.149-.657-.485-.669-.502-.06-.892.33-1.192.679-.616.741-1.005 1.714-.924 2.686.072.536.36 1.067.857 1.317.384.195.819.299 1.249.316.732.025 1.447-.25 2.022-.693 1.038-.733 1.765-1.792 2.517-2.796.023-.034.022-.089-.023-.105zm-5.984 1c.137-.638.407-1.262.84-1.753.165-.177.588-.508.743-.164.07.444-.192.857-.4 1.231a4.791 4.791 0 0 1-1.212 1.263c-.1-.03.012-.422.029-.577z"/>
    <path d="M53.105 18.847c-.365.217-.809.947-.633.718-.87 1.132-1.939 2.177-3.273 2.73-.923.375-2.044.42-2.897-.15a2.369 2.369 0 0 1-1.025-2.239c.069-.541.289-1.165.832-1.393.507-.19 1.054.065 1.437.395.386-.184-.667-.587-.488-.501-.833-.394-1.886.07-2.25.893-.477 1.063.035 2.393.992 3.006 1.005.687 2.35.716 3.452.253 1.116-.428 2.012-1.266 2.797-2.143.398-.469.788-.957 1.11-1.48a.1.1 0 0 0-.054-.09z"/>
    <path d="M53.403 16.344c.274.008.25-.707.29-.496-.077-.345-.665-.228-.586.127-.026.187.09.373.297.37zm4.841 2.503c-.24.026-.652.66-.482.507-.662.844-1.402 1.667-2.346 2.198-.412.206-.933.393-1.369.152-.465-.29-.574-.886-.584-1.394-.008-.48.072-.958.05-1.437-.128-.35-.58-.075-.463.234-.019.512-.066 1.026-.019 1.537.057.582.37 1.204.942 1.424.601.213 1.255 0 1.762-.344 1.073-.68 1.825-1.733 2.555-2.75a.095.095 0 0 0-.046-.126z"/>
    <path d="M67.153 18.868c-.045-.042-.113-.021-.135 0-.525.669-1.028 1.312-1.6 1.94-.57.627-1.164 1.25-1.896 1.668-1.805 1.04-1.279-2.274-1.85-2.835-.091-.041-.183 0-.251.02-.069.02-.114.063-.16.084a2.27 2.27 0 0 0-.275.206c-.685.522-1.257 1.19-1.988 1.588-.365.208-.822.311-1.097.083-.774-.71.526-2.315 1.075-2.775.296-.251.661-.46 1.05-.543a1.07 1.07 0 0 1 1.052.376c.045.063.136.063.205.021.046-.042.068-.125 0-.166v-.022a1.382 1.382 0 0 0-.57-.415c-.687-.313-1.532.02-2.08.374-.89.563-2.031 1.898-1.53 2.9.411.811 1.438.748 2.032.375.8-.439 1.326-1.148 1.988-1.649.114-.084.342-.23.456-.271.23.73-.228 3.46 1.441 3.168.25-.04.479-.145.684-.268.778-.481 1.35-1.126 1.921-1.753.57-.647 1.05-1.333 1.551-2.002.023-.04.023-.083-.023-.103z"/>
    <path d="M75.696 18.889c-.778 1.147-1.714 2.17-2.765 3.108-.524.459-1.073.897-1.69 1.272-.57.376-1.277.688-1.939.646-.595-.062-1.053-.541-1.303-1.125-.251-.584-.39-1.232-.458-1.898-.091-.667-.091-1.377-.068-2.065a24.743 24.743 0 0 0 2.012-3.398c.296-.606.57-1.253.822-1.9.228-.646.432-1.292.477-2.001a1.562 1.562 0 0 0-.023-.564.625.625 0 0 0-.136-.31.566.566 0 0 0-.432-.209c-.502.022-.846.291-1.12.562-.503.584-.8 1.23-1.052 1.876-.503 1.293-.775 2.628-.98 3.984-.183 1.334-.297 2.71-.115 4.088.092.687.229 1.375.547 2.042.137.335.342.647.638.918.298.29.755.457 1.213.415.823-.062 1.46-.477 2.077-.852.616-.396 1.165-.856 1.69-1.335 1.028-.98 1.668-1.606 2.787-3.17.045-.188-.115-.146-.183-.084zm-7.172-5.86c.228-.605.502-1.23.938-1.71.205-.25.479-.417.731-.438.023 0 .023 0 .046.02.022.022.045.085.068.147.046.146.046.292.046.46-.046.624-.228 1.292-.434 1.918-.228.625-.48 1.271-.755 1.876a27.322 27.322 0 0 1-1.668 3.087c.045-.48.068-.96.136-1.46.183-1.313.457-2.627.892-3.9z"/>
    <path d="M84.399 18.889c-.777 1.147-1.713 2.17-2.765 3.108-.525.459-1.072.897-1.69 1.272-.57.376-1.277.688-1.94.646-.594-.062-1.05-.541-1.303-1.125-.25-.584-.388-1.232-.456-1.898-.091-.667-.091-1.377-.07-2.065a24.743 24.743 0 0 0 2.012-3.398 25 25 0 0 0 .824-1.9c.228-.646.43-1.292.476-2.001a1.562 1.562 0 0 0-.022-.564.625.625 0 0 0-.137-.31.566.566 0 0 0-.431-.209c-.503.022-.847.291-1.122.562-.501.584-.8 1.23-1.051 1.876-.502 1.293-.776 2.628-.981 3.984-.183 1.334-.297 2.71-.114 4.088.091.687.228 1.375.546 2.042.137.335.342.647.64.918.297.29.755.457 1.212.415.823-.062 1.46-.477 2.076-.852.617-.396 1.166-.856 1.692-1.335 1.026-.98 1.667-1.606 2.786-3.17.046-.188-.114-.146-.182-.084zm-7.172-5.86c.228-.605.503-1.23.937-1.71.206-.25.48-.417.733-.438.022 0 .022 0 .045.02.023.022.046.085.069.147.045.146.045.292.045.46-.045.624-.228 1.292-.434 1.918a26.175 26.175 0 0 1-.755 1.876 27.306 27.306 0 0 1-1.669 3.087c.046-.48.068-.96.137-1.46.182-1.313.457-2.627.892-3.9z"/>
    <path d="M93.785 18.829s-.136 0-.16.061c-1.117 1.543-2.51 2.92-4.086 4.106-.045.041-.091.062-.137.103a39.985 39.985 0 0 0-1.052-4.876c-.023-.104-.159-.167-.272-.146-.023 0-.023.022-.046.022-.022 0-.022.02-.022.02h-.023l-.046.041v.022c-.388.688-.753 1.375-1.187 2.022-.457.625-.96 1.272-1.646 1.668-.342.208-.73.25-1.05.125-.297-.104-.32-.458-.251-.813.16-.708.547-1.397.958-2.065v-.02c.068-.083.023-.209-.091-.272-.115-.061-.251-.02-.297.085-.41.688-.822 1.396-.982 2.21a1.64 1.64 0 0 0 0 .666c.046.23.25.458.502.541.25.103.503.103.754.062.228-.062.434-.145.64-.27.755-.457 1.234-1.146 1.668-1.791.388-.564.707-1.148 1.005-1.732.432 1.586.73 3.212.958 4.857-1.391.98-2.876 1.876-4.34 2.774a28.089 28.089 0 0 0-2.49 1.667c-.776.605-1.531 1.273-2.033 2.127a4.688 4.688 0 0 0-.66 2.754 3.16 3.16 0 0 0 1.482 2.46c.89.583 2.057.685 3.107.478 1.052-.207 1.988-.708 2.789-1.333a9.836 9.836 0 0 0 1.096-1.021c.342-.354.684-.773.912-1.21.459-.877.685-1.814.821-2.773.251-1.878.137-3.776-.114-5.631-.022-.146-.044-.292-.067-.418a2.39 2.39 0 0 0 .251-.188c1.574-1.186 3.013-2.604 4.133-4.168.046-.061 0-.145-.022-.145zm-4.816 4.98c.205 1.836.296 3.691.045 5.506a8.066 8.066 0 0 1-.777 2.606 5.248 5.248 0 0 1-.799 1.106c-.32.333-.661.666-1.026.958-.755.605-1.6 1.085-2.538 1.314-.936.229-1.988.167-2.81-.312a2.842 2.842 0 0 1-1.394-2.231 4.642 4.642 0 0 1 .617-2.628c.479-.793 1.211-1.46 1.965-2.064.777-.605 1.622-1.127 2.445-1.648 1.44-.897 2.88-1.773 4.249-2.753a.325.325 0 0 1 .023.146zM43.905 38.714zm10.597 1.19c-.062-.106-.187-.128-.29-.064a6.88 6.88 0 0 1-1.247.64c-.437.148-.893.232-1.31.148a1.707 1.707 0 0 1-1.037-.68c-.272-.343-.459-.79-.582-1.233-.292-.916-.416-1.872-.5-2.851a35.162 35.162 0 0 1-.104-2.958c-.02-.978 0-1.977.021-2.976v-1.491c-.02-.51-.02-1-.124-1.51a1.289 1.289 0 0 0-.103-.404.445.445 0 0 0-.083-.128l-.062-.064c-.02-.042-.083-.106-.124-.17a1.204 1.204 0 0 0-.79-.317c-.27 0-.54.127-.749.254-.228.148-.415.34-.581.51-.665.786-1.123 1.68-1.498 2.595-.728 1.872-1.163 3.809-1.434 5.786-.061.384-.102.767-.145 1.128a83.752 83.752 0 0 0-.476-5.531 27.953 27.953 0 0 0-.52-2.936 19.629 19.629 0 0 0-.436-1.468c-.104-.232-.187-.464-.333-.7-.126-.233-.27-.467-.561-.637a.803.803 0 0 0-.54-.064 1.077 1.077 0 0 0-.458.256 2.517 2.517 0 0 0-.561.701c-.291.508-.5 1.061-.687 1.594-.352 1.042-.601 2.105-.828 3.17-.272-1.129-.585-2.256-1.163-3.278-.063-.106-.167-.127-.27-.084-.105.042-.147.17-.105.276l.021.022c.228.489.415 1.02.561 1.552.166.533.308 1.086.413 1.639.105.446.188.893.25 1.34-.333 1.83-.58 3.66-.622 5.532 0 .296.02.574.062.871.02.149.063.297.124.468a.43.43 0 0 0 .207.231.336.336 0 0 0 .188.064l.166-.042c.209-.064.313-.233.395-.38.083-.129.145-.277.187-.426.082-.298.124-.596.165-.893.125-1.17.062-2.319-.04-3.468a24.741 24.741 0 0 0-.457-3.02c.022-.065.022-.129.042-.193.248-1.126.56-2.212.954-3.275a9.08 9.08 0 0 1 .727-1.51c.146-.232.312-.444.52-.593.188-.149.375-.192.562-.107.146.085.27.276.374.468.104.212.187.423.25.657.166.446.27.935.374 1.403.207.958.353 1.937.498 2.915.27 1.957.457 3.935.646 5.914l.124 1.468.041.383.02.17v.128l.021-.022v.022h-.02v.042c.061.022-.103-.064.124.127.414-.255.123-.085.205-.149v-.042l.022-.723c.02-1 .063-1.979.187-2.978.25-1.957.644-3.914 1.414-5.722.395-.894.832-1.787 1.497-2.49.333-.32.748-.639 1.142-.616.21 0 .396.106.541.254.042.044.063.064.104.128l.042.064c.02 0 .02.022.02.042.043.086.063.192.084.32.103.935.02 1.936 0 2.935-.041.979-.083 1.98-.104 2.978-.02 1 .02 2.001.083 3 .082 1 .207 2.021.538 3 .166.487.374.977.707 1.403.332.425.83.764 1.391.848.54.086 1.081-.042 1.56-.232.456-.19.892-.445 1.308-.722v-.022c.104-.042.125-.171.062-.277zM38.36 33.992c.124 1.107.206 2.255.124 3.362a5.024 5.024 0 0 1-.104.807c-.062.256-.188.533-.312.575.02 0-.063.02-.042.02h-.02s-.043-.042-.064-.084a1.482 1.482 0 0 1-.104-.361 4.996 4.996 0 0 1-.104-.83c-.041-1.128.04-2.256.188-3.404a22.42 22.42 0 0 1 .228-1.638c.084.51.147 1.02.21 1.553zm5.215 4.744z"/>
    <path d="M61.068 33.927c-.04-.042-.102-.021-.122 0-.479.682-.935 1.34-1.455 1.98-.519.638-1.06 1.273-1.724 1.7-1.643 1.062-1.164-2.319-1.684-2.892-.083-.042-.166 0-.228.022-.063.02-.105.063-.146.083-.083.064-.167.127-.25.213-.624.532-1.143 1.213-1.809 1.62-.332.211-.748.316-.997.084-.704-.725.478-2.361.977-2.831.27-.256.603-.468.957-.553a.918.918 0 0 1 .955.383c.042.064.126.064.188.021.04-.043.062-.127 0-.17v-.021a1.28 1.28 0 0 0-.52-.425c-.623-.319-1.392.021-1.892.381-.81.576-1.847 1.936-1.391 2.959.373.828 1.308.764 1.848.383.728-.447 1.206-1.171 1.809-1.682.103-.086.312-.235.416-.277.207.746-.208 3.53 1.31 3.232.227-.042.436-.147.623-.274.707-.49 1.226-1.148 1.745-1.787.52-.66.957-1.36 1.411-2.041.02-.044.02-.086-.02-.108z"/>
    <path d="M71.022 33.886c-.042-.02-.083-.02-.125.022l-.041.042c-.48.68-.893 1.276-1.476 1.87-.582.597-1.205 1.15-1.912 1.51a2.545 2.545 0 0 1-1.1.28 1.674 1.674 0 0 1-.996-.407 3.856 3.856 0 0 1-.395-.424l-.083-.128-.083-.128c-.043-.084-.105-.17-.146-.254a3.282 3.282 0 0 1-.208-.49c.29-.36.561-.765.769-1.213.188-.404.27-.807.396-1.212.103-.382.207-.809.29-1.213.166-.808.268-1.66.331-2.488.041-.83.041-1.682-.145-2.533-.082-.425-.206-.85-.476-1.234-.126-.17-.291-.36-.52-.465a1.193 1.193 0 0 0-.708-.148l-.02.02a1.013 1.013 0 0 0-.625.445 2.896 2.896 0 0 0-.312.616 5.743 5.743 0 0 0-.31 1.277c-.123.873-.145 1.723-.145 2.575.022.872.104 1.722.228 2.574.125.85.29 1.681.56 2.51.062.212.145.426.229.638-.145.148-.312.277-.457.405-.332.234-.684.404-1.058.467a1.721 1.721 0 0 1-1.124-.127c-.353-.149-.5-.51-.541-.851a2.013 2.013 0 0 1 .125-1.043c.126-.34.354-.659.645-.829.312-.191.686-.234 1.082-.128.02.022.063 0 .083-.042.02-.042.02-.085-.02-.106h-.022a1.437 1.437 0 0 0-1.289-.085c-.438.17-.77.553-.956.978-.186.404-.29.893-.165 1.383.062.233.206.447.373.615.165.172.373.298.582.383.394.148.852.212 1.268.104.416-.062.81-.273 1.14-.528.147-.107.293-.235.438-.361.229.51.52.997.978 1.381.354.297.81.487 1.287.467.456 0 .872-.149 1.267-.34.768-.426 1.391-1.02 1.953-1.658.562-.615.997-1.298 1.455-2.02.02-.043 0-.085-.02-.107zm-6.794 1.255c-.48-1.595-.666-3.275-.707-4.934-.02-.832 0-1.683.103-2.491.063-.404.126-.808.25-1.19.126-.362.333-.724.582-.788.333-.042.625.106.833.404.228.298.353.68.436 1.064.187.787.229 1.616.187 2.425a16.584 16.584 0 0 1-.27 2.468c-.083.404-.166.787-.27 1.19-.104.406-.208.81-.374 1.171a4.249 4.249 0 0 1-.646 1.064z"/>
    <path d="M76.507 33.886c-.32.092-.418.567-.667.797-.641.824-1.27 1.722-2.21 2.228-.522.278-1.162.33-1.707.088-.383-.11-.716-.405-.829-.794-.168-.342.349-.46.502-.71.466-.513.877-1.094 1.121-1.748.123-.349.226-.775.011-1.11-.228-.299-.69-.206-.94.015-.5.427-.847 1.014-1.068 1.628-.228.652-.354 1.385-.135 2.057.122.39.379.738.743.933.561.283 1.23.372 1.835.18.68-.198 1.218-.698 1.705-1.19.645-.685 1.137-1.49 1.66-2.268.02-.034.022-.088-.02-.106zm-5.444 1.021c.123-.639.362-1.272.764-1.787.138-.18.546-.517.677-.168.065.468-.187.906-.391 1.308-.292.48-.669.917-1.113 1.264 0-.206.023-.414.063-.616z"/>
    <path fill="#d97b81" fill-rule="nonzero" stroke-linejoin="round" stroke-miterlimit="1.414" d="M62.908 13.102a.113.113 0 0 0-.162 0c-.643.613-1.3.73-2.012.487a3.243 3.243 0 0 1-.997-.534l-.022-.023c.231-.068.463-.16.695-.277.347-.162.695-.37.996-.65.138-.162.276-.301.368-.51.116-.185.184-.392.184-.645a1.22 1.22 0 0 0-.137-.372.544.544 0 0 0-.345-.209c-.232-.046-.44.023-.627.092-.323.14-.602.35-.88.582a5.395 5.395 0 0 0-.51-.952c-.116-.162-.231-.346-.532-.438a.593.593 0 0 0-.44.092.762.762 0 0 0-.23.322c-.185.441-.138.858-.046 1.275.092.393.252.764.483 1.112.093.14.209.278.325.393-.278.07-.578.094-.878.117-2.253.156-4.682-.146-6.62-.834-2.213-.94-4.129-1.926-6.182-2.757a9.354 9.354 0 0 0-2.222-.531 14.31 14.31 0 0 0-4.538.253c-3.083.805-5.722 2.578-7.269 5.117-.023.045 0 .115.046.138.045.046.092.022.139-.023 1.71-2.645 4.292-4.316 7.13-4.978a13.097 13.097 0 0 1 4.445-.231c.742.092 1.482.231 2.177.51 2.14.782 4.248 2.029 6.181 2.756 2.311.844 4.466.957 6.714.901a6.912 6.912 0 0 0 1.2-.16c.093.068.163.114.232.16.325.233.696.419 1.067.533.935.251 1.526.098 2.267-.555a.112.112 0 0 0 0-.161zm-4.33-1.83c-.143-.514-.027-1.018.183-1.18.21-.163.374.046.49.185.255.254.464.603.602.949 0 .022.022.022.022.022.024.046.094.046.14.023.255-.252.58-.485.904-.577.162-.07.348-.092.463-.023.116.069.14.162.14.279a1.44 1.44 0 0 1-.392.879c-.49.518-.902.748-1.763.926-.48-.385-.687-.955-.788-1.484z"/>
  </g>
</svg>
