<svg version="1.1" viewBox="0 0 300 300" xmlns="http://www.w3.org/2000/svg">
 <defs>
  <clipPath id="clipPath1456">
   <rect y="217.6" width="300" height="300" fill="#f08080" style="paint-order:normal"/>
  </clipPath>
  <clipPath id="clipPath1460">
   <rect y="217.6" width="300" height="300" fill="#f08080" style="paint-order:normal"/>
  </clipPath>
 </defs>
 <g transform="translate(0 -217.6)">
  <path d="m-23.14 254.6c-31.4 3.3e-4 -56.86 35.51-56.86 79.32 0.0096 23.66 7.59 46.08 20.67 61.14-6.869 7.448-10.57 16.37-10.58 25.52-8.1e-5 24.31 25.45 44.02 56.86 44.02 58.14-20.44 46.26-34.26 54.99-55.07 6.577-13.38 16.3-41.5 9.785-61.05-13.42-40.28-25.5-28.3-35.12-54.93-5.335-14.78-14.25-38.94-39.75-38.95z" clip-path="url(#clipPath1460)" fill="#7b68ee" style="paint-order:normal"/>
  <path d="m-40.09 494.6c-34.07-3.6e-4 -61.69-39.07-61.69-87.25 0.0108-26.03 8.236-50.69 22.43-67.25-7.453-8.193-11.47-18-11.48-28.07-8.7e-5 -26.74 27.62-48.42 61.69-48.42 63.08 22.49 50.19 37.69 59.67 60.58 7.137 14.72 17.69 45.65 10.62 67.16-14.56 44.31-35.67 27.13-46.1 56.42-5.789 16.26-7.462 46.84-35.13 46.84z" clip-path="url(#clipPath1456)" fill="#f08080" style="paint-order:normal"/>
 </g>
</svg>
