<svg version="1.1" viewBox="0 0 273 150" xmlns="http://www.w3.org/2000/svg" xmlns:xlink="http://www.w3.org/1999/xlink">

<defs>
		<style type="text/css"><![CDATA[
			
.upper-lines {
  opacity: .2;
}

.pitch-text-svg {
  fill: #333;
  font-weight: bold;
  text-shadow: 1px 2px #fff;
}

.enter-now-svg {
  fill: #333;
  font-family: sans-serif;
  font-weight: bold;
  text-shadow: 2px 2px #fff;
  transition: .2s ease-in-out;
}
.enter-now-svg:hover {
  fill: red;
}

.description-text-svg {
  fill: #333;
  font-family: sans-serif;
  font-weight: bold;
  text-shadow: 1px 2px #fff;
}

.learn-more-message-cta {
  opacity: 0;
  fill: #555;
  transition: .4s ease-in-out;
}

.learn-more-i-cta {
  opacity: .5;
  transition: .4s ease-in-out;
}
.learn-more-i-cta:hover {
  opacity: .7;
  fill: red;
}

.learn-more-i-cta:hover + .learn-more-message-cta {
  opacity: 1;
}

.omuk-logo-cta {
  opacity: .5;
  transition: .4s ease-in-out;
}
.omuk-logo-cta:hover {
  opacity: .7;
}

.upper-lines rect:nth-child(1) {
  animation: upper-1 6s ease-in-out infinite -0.2s;
}

.upper-lines rect:nth-child(2) {
  animation: upper-1 6s ease-in-out infinite -0.4s;
}

.upper-lines rect:nth-child(3) {
  animation: upper-1 6s ease-in-out infinite -0.6s;
}

.upper-lines rect:nth-child(4) {
  animation: upper-1 6s ease-in-out infinite -0.8s;
}

.upper-lines rect:nth-child(5) {
  animation: upper-1 6s ease-in-out infinite -1s;
}

.upper-lines rect:nth-child(6) {
  animation: upper-1 6s ease-in-out infinite -1.2s;
}

.upper-lines rect:nth-child(7) {
  animation: upper-1 6s ease-in-out infinite -1.4s;
}

.upper-lines rect:nth-child(8) {
  animation: upper-1 6s ease-in-out infinite -1.6s;
}

.upper-lines rect:nth-child(9) {
  animation: upper-1 6s ease-in-out infinite -1.8s;
}

.upper-lines rect:nth-child(10) {
  animation: upper-1 6s ease-in-out infinite -2s;
}

.upper-lines rect:nth-child(11) {
  animation: upper-1 6s ease-in-out infinite -2.2s;
}

.upper-lines rect:nth-child(12) {
  animation: upper-1 6s ease-in-out infinite -2.4s;
}

.upper-lines rect:nth-child(13) {
  animation: upper-1 6s ease-in-out infinite -2.6s;
}

.upper-lines rect:nth-child(14) {
  animation: upper-1 6s ease-in-out infinite -2.8s;
}

.upper-lines rect:nth-child(15) {
  animation: upper-1 6s ease-in-out infinite -3s;
}

.upper-lines rect:nth-child(16) {
  animation: upper-1 6s ease-in-out infinite -3.2s;
}

.upper-lines rect:nth-child(17) {
  animation: upper-1 6s ease-in-out infinite -3.4s;
}

.upper-lines rect:nth-child(18) {
  animation: upper-1 6s ease-in-out infinite -3.6s;
}

.upper-lines rect:nth-child(19) {
  animation: upper-1 6s ease-in-out infinite -3.8s;
}

.upper-lines rect:nth-child(20) {
  animation: upper-1 6s ease-in-out infinite -4s;
}

@keyframes upper-1 {
  0% {
    transform: translateY(165px);
    fill: purple;
  }
  50% {
    transform: translateY(30px);
    fill: dodgerBlue;
  }
  100% {
    transform: translateY(165px);
    fill: purple;
  }
}


		]]></style>
	</defs>

 <g class="upper-lines">
  <rect y="-176.5" width="7" height="150" rx="3" ry="3"/>
  <rect x="14" y="-176.5" width="7" height="150" rx="3" ry="3"/>
  <rect x="28" y="-176.5" width="7" height="150" rx="3" ry="3"/>
  <rect x="42" y="-176.5" width="7" height="150" rx="3" ry="3"/>
  <rect x="56" y="-176.5" width="7" height="150" rx="3" ry="3"/>
  <rect x="70" y="-176.5" width="7" height="150" rx="3" ry="3"/>
  <rect x="84" y="-176.5" width="7" height="150" rx="3" ry="3"/>
  <rect x="98" y="-176.5" width="7" height="150" rx="3" ry="3"/>
  <rect x="112" y="-176.5" width="7" height="150" rx="3" ry="3"/>
  <rect x="126" y="-176.5" width="7" height="150" rx="3" ry="3"/>
  <rect x="140" y="-176.5" width="7" height="150" rx="3" ry="3"/>
  <rect x="154" y="-176.5" width="7" height="150" rx="3" ry="3"/>
  <rect x="168" y="-176.5" width="7" height="150" rx="3" ry="3"/>
  <rect x="182" y="-176.5" width="7" height="150" rx="3" ry="3"/>
  <rect x="196" y="-176.5" width="7" height="150" rx="3" ry="3"/>
  <rect x="210" y="-176.5" width="7" height="150" rx="3" ry="3"/>
  <rect x="224" y="-176.5" width="7" height="150" rx="3" ry="3"/>
  <rect x="238" y="-176.5" width="7" height="150" rx="3" ry="3"/>
  <rect x="252" y="-176.5" width="7" height="150" rx="3" ry="3"/>
  <rect x="266" y="-176.5" width="7" height="150" rx="3" ry="3"/>
 </g>
 
  <text class="pitch-text-svg" x="50%" y="25%" font-size="12" font-family="sans-serif"  alignment-baseline="middle" text-anchor="middle">We are now accepting entries</text>
  <a xlink:href=""><text class="enter-now-svg" x="50%" y="50%" font-size="24" font-family="arial, sans-serif" alignment-baseline="middle" text-anchor="middle">Enter Now</text></a>
  <text class="description-text-svg" x="50%" y="65%" font-size="10" font-family="arial, sans-serif" alignment-baseline="middle" text-anchor="middle">to secure your 2019 audition</text>
  <g class="learn-more-i-cta">
 <a xlink:href=""> <rect x="253" y="130" rx="10" ry="10" opacity="0" height="15" width="15" />
  <path d="m260.8 131.1a6.664 6.664 0 0 0-6.663 6.663 6.664 6.664 0 0 0 6.663 6.663 6.664 6.664 0 0 0 6.663-6.663 6.664 6.664 0 0 0-6.663-6.663zm0 1.557a5.106 5.106 0 0 1 5.106 5.106 5.106 5.106 0 0 1-5.106 5.106 5.106 5.106 0 0 1-5.106-5.106 5.106 5.106 0 0 1 5.106-5.106z" style="paint-order:markers stroke fill"/>
    <path d="m260.8 133.7a1.038 1.038 0 0 0-1.039 1.039 1.038 1.038 0 0 0 1.039 1.039 1.038 1.038 0 0 0 1.039-1.039 1.038 1.038 0 0 0-1.039-1.039zm-0.6623 2.596v5.193h1.325v-5.193z"/></a>
 </g>

<text class="learn-more-message-cta" x="83%" y="93%" font-family="arial, sans-serif" font-size="8" alignment-baseline="middle" text-anchor="middle">Learn more ></text>
 <g class="omuk-logo-cta" stroke-width=".6255">
<rect x="0" y="126" opacity="0" height="20" width="40" />
  <path d="m33.17 135.9v2.122l0.4667-0.4496v-1.673zm-8.113 1e-3v3h1.649v-3zm4.75 0v0.4239l1.649 1.714v-2.138zm7.531 0-3.12 3.035h1.533l-0.04887-0.0672 2.929-2.967zm-7.531 2.052v0.9482h0.9113zm5.373 2.954 1.654 2.499h2.077l-1.781-2.499zm-10.12 0.0819c0.1387 1.559 1.065 2.398 2.589 2.562l1.692-1.637h-0.01222c-0.2437 0.1889-0.5978 0.281-1.093 0.281-1.101 0-1.436-0.5522-1.52-1.206zm4.708 0c-0.03784 0.3231-0.1264 0.5787-0.281 0.7694h0.01466l0.795-0.7694zm3.406 0.7343v1.683h0.4667v-1.198zm-1.945 0.1906-1.488 1.428c0.7043-0.2605 1.215-0.7356 1.488-1.428z" fill="#2b2171"/>
  <path d="m31.98 135.9v7.506h0.7744v-2.816h4.165l-0.9282-1.305h-3.236v-3.386zm4.529 1e-3 -2.812 3.035h0.02566l3.193-3.035zm-6.705 0.9257v0.8626l1.167 1.212h0.4826v-0.3604zm3.831 1.228-0.4667 0.4496v0.4312h0.4667zm-8.582 1.232v1.305h1.649v-1.305zm4.761 0v1.305h1.651v-1.305zm3.353 1.611v0.3238l0.4667 0.485v-0.7168l0.08676-0.0916zm-2.613 0.0916-2.671 2.583c0.1119 7e-3 0.2268 0.01 0.3445 0.01 0.2708 0 0.5274-0.0189 0.7687-0.055l2.409-2.311c0.01095-0.0736 0.02111-0.1489 0.0281-0.226h-0.1063z" fill="#ce0b10"/>
  <path d="m14.21 126.6c-1.424 0-2.706 0.4725-3.609 1.33-0.9395 0.8926-1.437 2.136-1.437 3.597 0 1.414 0.5098 2.69 1.436 3.593 0.9164 0.8945 2.199 1.387 3.61 1.387 1.429 0 2.723-0.4924 3.644-1.387 0.6493-0.6305 1.09-1.446 1.299-2.361v5.505h1.634v-3.604h0.02688c0.4222 0.6699 1.253 1.09 2.166 1.09 1.404 0 2.418-0.8156 2.898-1.979 0.5294 1.255 1.733 1.979 3.221 1.979 1.24 0 2.166-0.4467 2.806-1.34l-1.09-0.8945c-0.3678 0.5306-0.9126 0.8663-1.73 0.8663-0.9533 0-1.799-0.6987-1.866-1.648h4.757v2.821h1.634v-3.686c0-0.8938 0.4908-1.815 1.526-1.815 1.049 0 1.225 0.9914 1.225 1.787v3.714h1.634v-4.189c0-1.368-0.7074-2.708-2.411-2.708-0.967 0-1.743 0.6004-2.029 1.27h-0.0281v-1.075h-1.552v1.878c-0.4554-1.379-1.554-2.073-2.932-2.073-1.437 0-2.611 0.7562-3.146 2-0.4829-1.192-1.531-2-2.879-2-1.198 1e-5 -1.935 0.6007-2.261 1.132h-0.04031v-0.9358h-1.566v1.414c-0.2071-0.9182-0.643-1.714-1.3-2.334-0.9207-0.8701-2.18-1.33-3.643-1.33zm0.01344 1.592c0.9138 0 1.701 0.3321 2.277 0.9601 0.5551 0.6056 0.8601 1.449 0.8601 2.375 0 1.979-1.29 3.362-3.137 3.362-0.8907 0-1.693-0.3374-2.256-0.9495-0.5603-0.6078-0.8688-1.465-0.8688-2.413 0-0.9251 0.3047-1.769 0.8588-2.375 0.5741-0.628 1.358-0.9601 2.266-0.9601zm-7.85 0.6549c-0.2742-8e-3 -0.6103 0.0644-0.9883 0.2114-0.0042 2e-3 -0.00808 3e-3 -0.01222 5e-3 -0.0042 2e-3 -0.00801 3e-3 -0.01222 5e-3v1e-3c-0.7525 0.3026-1.182 0.7049-1.128 1.142l0.5595 2.557 3.538-1.4-1.34-2.247c-0.1299-0.1788-0.3428-0.2672-0.6169-0.2752zm22.66 1.066c1.063 0 1.539 0.7544 1.539 1.62h-3.351c0.06805-0.9351 0.8444-1.62 1.811-1.62zm-6.38 0.1112c1.267 1e-5 1.88 1.103 1.88 2.15 0 1.048-0.6133 2.178-1.88 2.178-1.198 0-1.92-1.103-1.92-2.15s0.7218-2.178 1.92-2.178zm-14.19 1.491-3.677 1.454 0.2224 0.3971 3.563-1.409zm0.1258 0.601-3.484 1.378 0.5229 0.6937 3.056-1.208zm0.2333 1.009-0.6411 0.2529 0.3482 1.862 0.4422-0.1747zm-0.7694 0.3042-2.429 0.9601 1.219 1.516 1.56-0.6169zm0.9833 1.9-0.419 0.1661 2.885 7.988h0.3995zm-0.54 0.2138-1.52 0.601 3.233 7.337h1.155zm3.704 1.377v6.561h1.195v-3.735c0-0.2291 1.22e-4 -0.5681-0.0098-0.8269h0.01955c0.1296 0.249 0.3089 0.4777 0.4484 0.6768l1.709 2.42 1.567-2.37c0.1195-0.1793 0.3587-0.5474 0.4484-0.7368h0.01955c-0.01991 0.259-0.01955 0.5972-0.01955 0.8663v3.705h1.205v-6.561h-1.096l-1.574 2.441c-0.2291 0.3486-0.3981 0.6368-0.5376 0.8857h-0.01955c-0.1493-0.259-0.3194-0.508-0.5486-0.8469l-1.723-2.48zm10.96 1.675c-1.395 0-2.542 0.9708-2.542 2.514 0 1.583 1.167 2.513 2.571 2.513 0.7024 0 1.356-0.2379 1.752-0.6636l-0.7418-0.7512c-0.2277 0.277-0.633 0.4252-0.9995 0.4252-0.9007 0-1.346-0.7812-1.346-1.524s0.4352-1.525 1.306-1.525c0.3859 0 0.7919 0.1983 0.9795 0.4654l0.8113-0.7124c-0.3759-0.4651-1.098-0.7431-1.791-0.7431zm-3.972 0.1392v4.75h1.187v-4.75z"/>
 </g>
</svg>
