<svg id="omuk-logo" xmlns="http://www.w3.org/2000/svg" viewBox="0 0 100 50">
  <path d="M49.996 40.562c-1.483-.69-2.271-1.706-2.578-3.326-.546-2.861 1.336-5.368 4.219-5.627 1.2-.11 2.145.13 3.209.814l.716.461-.805.693c-.804.688-.809.692-1.24.354a2.313 2.313 0 0 0-3.333.604c-.836 1.371-.703 2.803.355 3.864.614.614.808.696 1.575.696a2.9 2.9 0 0 0 1.47-.369l.596-.371.584.665c.32.365.553.75.515.866-.034.109-.392.369-.792.58-1.074.563-3.382.614-4.49.096z"/>
  <path fill="#25227e" d="M58.953 40.62c-1.672-.557-2.825-1.935-3.173-3.786l-.126-.678h2.967l.358.817c.533 1.194 1.986 1.76 3.595 1.396l.717-.165-1.358 1.366c-1.463 1.476-1.582 1.517-2.984 1.05z"/>
  <path fill="#ce000a" d="M63.604 38.536c2.384-2.286 2.51-2.381 3.264-2.381.43 0 .781.071.781.163 0 .092-1.043 1.167-2.32 2.391l-2.315 2.224-.948-.006-.945-.01z"/>
  <path d="M27.395 39.968a1912.544 1912.544 0 0 0-2.37-5.375l-2.682-6.072c-.354-.809-.59-1.524-.518-1.589.187-.174 2.626-1.126 2.694-1.048.035.035.45 1.14.922 2.456a818.946 818.946 0 0 0 1.602 4.41c.409 1.115.975 2.687 1.255 3.493a159.454 159.454 0 0 0 1.078 2.99l.565 1.518h-2.21zm2.5 0a3345.37 3345.37 0 0 0-2.695-7.472c-1.872-5.185-2.364-6.73-2.18-6.849.536-.34.256-1.016 4.124 10.02.951 2.715 1.725 4.97 1.725 5.014 0 .035-.156.067-.351.067-.245 0-.43-.228-.623-.78zm1.527-5.375V28.43h2.148l1 1.426a273.845 273.845 0 0 1 2.08 3.034c.6.887 1.14 1.604 1.194 1.604.058-.006.965-1.378 2.012-3.046l1.91-3.035 1.034.058 1.036.052.048 6.115.047 6.114h-2.393v-4.187l-.01-4.186-1.841 2.818-1.849 2.817-.596-.795a127.747 127.747 0 0 1-1.968-2.762l-1.368-1.972-.048 4.127-.05 4.133h-2.382zm13.24 1.643v-4.515l1.058.055 1.056.055.052 4.457.047 4.46h-2.217z"/>
  <path fill="#ce000a" d="M68.747 33.672v-7.081h1.283l.051 3.172.051 3.172 3.056.05 3.056.048.756 1.085c.42.593.761 1.132.761 1.193 0 .058-1.74.11-3.86.11h-3.864v5.33H68.75z"/>
  <path fill="#25227e" d="M70.958 39.28c0-.81.067-1.468.146-1.468.402 0 .59.536.59 1.685 0 1.129-.037 1.255-.369 1.255-.337 0-.368-.126-.368-1.473zm5.365-.82c-.826-1.26-1.505-2.34-1.505-2.394 0-.051.785-.096 1.74-.096h1.732l1.545 2.16c.846 1.19 1.603 2.264 1.678 2.393.103.174-.304.227-1.777.227h-1.91zm-11.617 1.856c0-.041.556-.56 1.227-1.153 1.122-.975 1.2-1.02.877-.453-.444.77-2.104 2.035-2.104 1.602zm-.287-3.52c.165-.682.17-.682.652-.61.378.057.368.088-.192.613l-.593.546z"/>
  <path fill="#ce000a" d="M71.26 36.92c-.443-.489-.384-.949.12-.949.375 0 .413.072.348.644a2.568 2.568 0 0 1-.119.645 2.08 2.08 0 0 1-.348-.34zm-15.565-2.696v-1.197h2.944v2.395h-2.944zm9.007 0v-1.197h2.948v2.395h-2.944zm6.256-2.363c0-.235.163-.58.367-.76.362-.331.37-.324.37.43 0 .637-.059.763-.37.763-.262 0-.367-.126-.367-.433z"/>
  <path fill="#25227e" d="M75.832 29.436l2.939-2.838 1.187-.003h1.186l-2.748 2.821-2.752 2.824-1.382.016-1.377.016zm-20.137-.085v-2.76h2.916l.127 1.007c.091.75.026 4.079-.086 4.464a11.45 11.45 0 0 1-1.487.048h-1.466zm9.007 1.988v-.77l.649.62c.351.342.64.69.64.771 0 .085-.289.15-.644.15-.631 0-.641-.012-.641-.77z"/>
  <path fill="#ce000a" d="M65.664 31.053c-.798-.897-.945-1.174-.948-1.795l-.007-.736 1.467 1.494c1.586 1.603 1.805 2.094.955 2.094-.4 0-.737-.246-1.466-1.057zm9.37-2.071c1.173-1.262 2.285-2.326 2.476-2.354.198-.034-.32.587-1.228 1.467-2.95 2.882-3.377 3.182-1.248.887z"/>
  <path d="M35.048 9.133a11.402 11.402 0 0 0-2.327.17c-3.673.802-6.252 3.616-6.817 7.425-.904 6.102 3.216 10.866 9.38 10.85 4.153-.01 7.495-2.115 8.85-5.566l.327-.843.01 4.796c.003 2.639.067 4.852.136 4.927.068.069.754.103 1.517.075l1.389-.054.089-3.393c.088-3.216.112-3.37.395-2.937.457.7 1.988 1.444 3.23 1.576 2.083.214 4.396-.866 5.43-2.545l.545-.893.58.809c1.16 1.623 2.714 2.455 4.918 2.64 2.108.177 3.967-.468 5.287-1.84l.61-.634-1.023-.832-1.024-.835-.648.6c-1.194 1.091-2.77 1.303-4.243.563-.934-.467-1.616-1.272-1.835-2.165l-.125-.51 4.48.052 4.479.048.051 2.619.051 2.622h2.907l.057-4c.055-3.633.096-4.07.444-4.734.532-1.023 1.39-1.569 2.448-1.559.965.006 1.286.198 1.835 1.099.365.607.389.887.389 4.918v4.276h3.124v-4.474c0-5.089-.136-5.921-1.214-7.112-1.74-1.927-5.273-1.76-6.689.314l-.463.676-.055-1.047-.054-1.047H68.75v3.403l-.487-.828c-.734-1.256-1.28-1.757-2.517-2.316-2.818-1.27-6.655-.168-8.05 2.312l-.405.723-.498-.774c-1.228-1.9-2.78-2.763-4.96-2.763-1.592 0-2.714.406-3.656 1.32-.32.318-.627.58-.675.58-.044 0-.081-.375-.081-.839v-.828l-1.426.05-1.427.055-.09 1.002-.093 1-.324-.911c-.71-1.988-2.712-3.867-5.013-4.706-.846-.31-2.505-.502-4.001-.511zm.624 2.953c1.586.027 2.53.474 3.696 1.665.88.9 1.12 1.286 1.45 2.377.99 3.254-.238 6.494-2.997 7.916-1.154.593-3.39.665-4.697.15-1.262-.502-2.496-1.705-3.124-3.049-.437-.939-.505-1.307-.505-2.827 0-1.501.068-1.89.485-2.777 1.047-2.243 2.612-3.329 4.968-3.444.256-.01.499-.016.724-.01zm27.39 3.142a2.534 2.534 0 0 1 .491.026c1.296.213 2.439 1.437 2.439 2.613v.454h-3.125c-3.488 0-3.43.027-2.775-1.248.531-1.044 1.81-1.807 2.97-1.842zm-11.954.256c1.248-.035 2.462.66 3.096 1.968.56 1.156.536 2.98-.054 4.14-.536 1.05-.969 1.466-1.893 1.793-.88.318-1.255.318-2.148 0-2.742-.982-3.415-5.05-1.16-7.035a3.394 3.394 0 0 1 2.16-.87z"/>
  <path fill="#25227e" d="M66.11 28.99c-.991-1.038-1.408-1.604-1.408-1.934 0-.458.023-.465 1.474-.465h1.473v1.93c0 1.065-.03 1.935-.068 1.935-.035 0-.695-.661-1.47-1.466zm4.848-.437c0-1.835.023-1.962.367-1.962.342 0 .37.127.37 1.627 0 1.395-.056 1.675-.37 1.961-.365.328-.367.322-.367-1.626z"/>
  <path d="M20.205 25.03l-1.127-1.379.518-.2a275.041 275.041 0 0 0 3.125-1.239l.952-.385.183.866c.103.478.24 1.28.307 1.785l.12.92-1.351.508a14.942 14.942 0 0 1-1.477.505c-.067 0-.631-.624-1.252-1.381zm4.32-.137a54.33 54.33 0 0 1-.354-1.767l-.252-1.35.58-.238.58-.25.119.955c.238 1.91.187 2.668-.205 2.878-.307.16-.382.127-.467-.224zm-5.89-2.251c-.275-.357-.47-.678-.433-.703.171-.115 6.341-2.52 6.464-2.52.075 0 .136.369.136.819v.808l-2.708 1.074a439.834 439.834 0 0 0-2.83 1.126c-.072.03-.356-.239-.629-.604zm-.896-1.317c-.065-.17-.089-.33-.055-.365.038-.036 1.542-.647 3.343-1.363 3.168-1.255 3.813-1.379 3.547-.683-.09.226-6.085 2.712-6.535 2.712-.103 0-.24-.136-.3-.3zm-.72-3.147c-.272-1.29-.494-2.476-.494-2.64.003-.966 2.11-2.207 3.817-2.25.828-.024 1.002.034 1.281.432.635.897 2.435 3.957 2.443 4.138 0 .153-6.102 2.673-6.446 2.669-.062 0-.33-1.056-.6-2.35z"/>
</svg>
