<?xml version="1.0" encoding="UTF-8"?>
<!-- Created with Inkscape (http://www.inkscape.org/) -->
<svg width="160" height="80" version="1.1" viewBox="0 0 160 80" xmlns="http://www.w3.org/2000/svg">
 <g transform="matrix(1.54 0 0 1.54 2.998 1.903)" stroke-width=".35652">
  <rect x="30.825" y="5.8247" width="38.351" height="38.351" fill="#404040" style="paint-order:stroke fill markers"/>
  <g fill="#fff">
   <path d="m32.946 7.8212v34.341h34.342v-34.341zm1.3275 1.3275h31.687v31.686h-31.687z" fill-opacity=".99216" stroke-linecap="round" stroke-linejoin="bevel" stroke-width="12.857" style="paint-order:stroke fill markers"/>
   <path d="m44.088 17.284a4.8404 4.6902 0 0 0-4.8401 4.6905 4.8404 4.6902 0 0 0 4.8401 4.69 4.8404 4.6902 0 0 0 4.8406-4.69 4.8404 4.6902 0 0 0-4.8406-4.6905zm0 1.2551a3.5452 3.4353 0 0 1 3.5454 3.4354 3.5452 3.4353 0 0 1-3.5454 3.4349 3.5452 3.4353 0 0 1-3.5454-3.4349 3.5452 3.4353 0 0 1 3.5454-3.4354z" stroke-linecap="round" stroke-linejoin="bevel" stroke-width="12.857" style="paint-order:stroke fill markers"/>
   <path d="m51.127 17.539v8.8711h1.3837v-6.2l3.1935 5.1432h0.51372l3.1935-5.1432v6.2h1.3837v-8.8711h-1.0749l-3.7592 6.1845-3.7592-6.1845z" stroke-width=".64934"/>
   <path d="m56.887 30.776c-0.32179 0.0037-0.65967 0.12617-0.85225 0.39459-0.19206 0.26444-0.21373 0.63271-0.08554 0.92901 0.1272 0.28949 0.42283 0.47684 0.72952 0.52172 0.22517 0.03445 0.59539 0.03822 0.81166-0.03718v-0.42441c-0.17984 0.1801-0.60576 0.19698-0.83562 0.10464-0.187-0.07475-0.31861-0.25891-0.33786-0.45815-0.02848-0.21185 0.03463-0.44888 0.21123-0.58186 0.33424-0.15695 0.69995-0.12418 0.96226 0.05772v-0.4205c-0.13981-0.0509-0.4237-0.08563-0.57207-0.08554-0.01032-1.13e-4 -0.02091-1.23e-4 -0.03132 0zm-13.579 0.04352c-0.33943 0.0028-0.6899 0.14548-0.86838 0.42001-0.17435 0.26353-0.19042 0.60343-0.07437 0.88941 0.11881 0.29036 0.42342 0.49556 0.75347 0.53833 0.35121 0.05242 0.74831-0.01448 1.0004-0.2611 0.28287-0.27228 0.33834-0.70262 0.18629-1.0449-0.10801-0.2456-0.34721-0.43141-0.62341-0.5002-0.11079-0.02915-0.22624-0.04163-0.3413-0.04153-0.01088-2.08e-4 -0.02177-8.5e-5 -0.03274 0zm1.7211 0.02498v1.8145h0.33249v-0.59603h0.47967c0.14524 0 0.27249-0.02583 0.38187-0.07825 0.11116-0.05232 0.1977-0.12537 0.25866-0.21856 0.06094-0.09483 0.09093-0.20352 0.09093-0.32613 0-0.11771-0.02885-0.22155-0.08799-0.31146-0.05923-0.08989-0.14324-0.15924-0.25083-0.20829-0.10758-0.05072-0.23076-0.07579-0.37063-0.07579zm2.2179 0v1.8145h1.4512v-0.32613h-1.064v-0.4293h0.95052v-0.32613h-0.95052v-0.40925h1.0444v-0.32369zm2.215 0v1.8145h0.39507l-0.0076-1.15 1.1055 1.15h0.24252v-1.8145h-0.39214l0.0097 1.15-1.108-1.15zm2.5509 0v1.8145h0.42343v-1.0645l0.48798 0.88305h0.2078l0.48895-0.90505 0.0047 1.0865h0.42294l-0.0047-1.8145h-0.38236l-0.6283 1.1671-0.63809-1.1671zm2.8574 0v1.8145h0.42881v-1.8145zm-11.553 0.26207c0.0076-6.7e-5 0.01571 2.84e-4 0.02346 4.92e-4 0.25532-0.0095 0.5025 0.14352 0.5892 0.36524 0.10784 0.26611 0.06189 0.60917-0.18727 0.7965-0.27494 0.2072-0.7433 0.15457-0.93342-0.12957-0.13617-0.20239-0.14316-0.46711-0.05138-0.686 0.08913-0.20865 0.3187-0.34447 0.55936-0.34667zm2.0443 0.06159h0.45326c0.09502 0 0.27689 0.02593 0.33249 0.07825 0.05734 0.05232 0.08554 0.1326 0.086 0.20829 4.83e-4 0.07541-0.02725 0.1569-0.08317 0.20878-0.05516 0.05118-0.23859 0.07579-0.33542 0.07579h-0.45325z" stroke-linecap="round" stroke-linejoin="bevel" stroke-width="12.857" style="paint-order:stroke fill markers"/>
  </g>
 </g>
</svg>
