<svg version="1.1" viewBox="0 0 300 300" xmlns="http://www.w3.org/2000/svg">
 <g fill="#DC143C" fill-opacity=".9909">
  <path d="m140.3 156.3-1.7-1.153a2.316 1.156 51.6 0 0 1.7 2.728z" style="paint-order:normal"/>
  <path d="m140.3 170.1a2.316 1.156 51.6 0 0-1.7 0.4218l1.7 1.153z" style="paint-order:normal"/>
  <path d="m125.4 146.2-1.7-1.153v1.575a2.316 1.156 51.6 0 0 1.7-0.4221z" style="paint-order:normal"/>
  <path d="m125.4 161.5a2.316 1.156 51.6 0 0-1.7-2.728v1.575z" style="paint-order:normal"/>
  <path d="m140.3 156.3-1.7-1.153a2.316 1.156 51.6 0 0 1.7 2.728z" style="paint-order:normal"/>
  <path d="m140.3 170.1a2.316 1.156 51.6 0 0-1.7 0.4218l1.7 1.153z" style="paint-order:normal"/>
  <path d="m125.4 146.2-1.7-1.153v1.575a2.316 1.156 51.6 0 0 1.7-0.4221z" style="paint-order:normal"/>
  <path d="m125.4 161.5a2.316 1.156 51.6 0 0-1.7-2.728v1.575z" style="paint-order:normal"/>
  <path d="m123.7 145-1.7-1.153a2.316 1.156 51.6 0 0 1.7 2.728z" style="paint-order:normal"/>
  <path d="m123.7 158.8a2.316 1.156 51.6 0 0-1.7 0.4218l1.7 1.153z" style="paint-order:normal"/>
  <path d="m108.8 134.9-1.7-1.153v1.575a2.316 1.156 51.6 0 0 1.7-0.4221z" style="paint-order:normal"/>
  <path d="m108.8 150.3a2.316 1.156 51.6 0 0-1.7-2.728v1.575z" style="paint-order:normal"/>
  <path d="m107.1 133.7-1.7-1.153a2.316 1.156 51.6 0 0 1.7 2.728z" style="paint-order:normal"/>
  <path d="m107.1 147.5a2.316 1.156 51.6 0 0-1.7 0.4218l1.7 1.153z" style="paint-order:normal"/>
  <path d="m92.19 123.6-1.7-1.153v1.575a2.316 1.156 51.6 0 0 1.7-0.4221z" style="paint-order:normal"/>
  <path d="m92.19 139a2.316 1.156 51.6 0 0-1.7-2.728v1.575z" style="paint-order:normal"/>
  <path d="m90.49 122.5-1.7-1.153a2.316 1.156 51.6 0 0 1.7 2.728z" style="paint-order:normal"/>
  <path d="m90.49 136.3a2.316 1.156 51.6 0 0-1.7 0.4218l1.7 1.153z" style="paint-order:normal"/>
  <path d="m75.58 112.4-1.7-1.153v1.575a2.316 1.156 51.6 0 0 1.7-0.4221z" style="paint-order:normal"/>
  <path d="m75.58 127.7a2.316 1.156 51.6 0 0-1.7-2.728v1.575z" style="paint-order:normal"/>
  <path d="m73.88 111.2-1.7-1.153a2.316 1.156 51.6 0 0 1.7 2.728z" style="paint-order:normal"/>
  <path d="m73.88 125a2.316 1.156 51.6 0 0-1.7 0.4218l1.7 1.153z" style="paint-order:normal"/>
  <path d="m58.97 101.1-1.7-1.153v1.575a2.316 1.156 51.6 0 0 1.7-0.4221z" style="paint-order:normal"/>
  <path d="m58.97 116.5a2.316 1.156 51.6 0 0-1.7-2.728v1.575z" style="paint-order:normal"/>
  <path d="m140.3 171.6-1.7-1.153a2.316 1.156 51.6 0 0 1.7 2.728z" style="paint-order:normal"/>
  <path d="m140.3 185.5a2.316 1.156 51.6 0 0-1.7 0.4218l1.7 1.153z" style="paint-order:normal"/>
  <path d="m125.4 161.5-1.7-1.153v1.575a2.316 1.156 51.6 0 0 1.7-0.4221z" style="paint-order:normal"/>
  <path d="m125.4 176.9a2.316 1.156 51.6 0 0-1.7-2.728v1.575z" style="paint-order:normal"/>
  <path d="m123.7 160.4-1.7-1.153a2.316 1.156 51.6 0 0 1.7 2.728z" style="paint-order:normal"/>
  <path d="m123.7 174.2a2.316 1.156 51.6 0 0-1.7 0.4218l1.7 1.153z" style="paint-order:normal"/>
  <path d="m108.8 150.3-1.7-1.153v1.575a2.316 1.156 51.6 0 0 1.7-0.4221z" style="paint-order:normal"/>
  <path d="m108.8 165.7a2.316 1.156 51.6 0 0-1.7-2.728v1.575z" style="paint-order:normal"/>
  <path d="m107.1 149.1-1.7-1.153a2.316 1.156 51.6 0 0 1.7 2.728z" style="paint-order:normal"/>
  <path d="m107.1 162.9a2.316 1.156 51.6 0 0-1.7 0.4218l1.7 1.153z" style="paint-order:normal"/>
  <path d="m92.19 139-1.7-1.153v1.575a2.316 1.156 51.6 0 0 1.7-0.4221z" style="paint-order:normal"/>
  <path d="m92.19 154.4a2.316 1.156 51.6 0 0-1.7-2.728v1.575z" style="paint-order:normal"/>
  <path d="m90.49 137.9-1.7-1.153a2.316 1.156 51.6 0 0 1.7 2.728z" style="paint-order:normal"/>
  <path d="m90.49 151.7a2.316 1.156 51.6 0 0-1.7 0.4218l1.7 1.153z" style="paint-order:normal"/>
  <path d="m75.58 127.7-1.7-1.153v1.575a2.316 1.156 51.6 0 0 1.7-0.4221z" style="paint-order:normal"/>
  <path d="m75.58 143.1a2.316 1.156 51.6 0 0-1.7-2.728v1.575z" style="paint-order:normal"/>
  <path d="m73.88 126.6-1.7-1.153a2.316 1.156 51.6 0 0 1.7 2.728z" style="paint-order:normal"/>
  <path d="m73.88 140.4a2.316 1.156 51.6 0 0-1.7 0.4218l1.7 1.153z" style="paint-order:normal"/>
  <path d="m58.97 116.5-1.7-1.153v1.575a2.316 1.156 51.6 0 0 1.7-0.4221z" style="paint-order:normal"/>
  <path d="m58.97 131.9a2.316 1.156 51.6 0 0-1.7-2.728v1.575z" style="paint-order:normal"/>
  <path d="m140.3 187-1.7-1.153a2.316 1.156 51.6 0 0 1.7 2.728z" style="paint-order:normal"/>
  <path d="m140.3 200.8a2.316 1.156 51.6 0 0-1.7 0.4218l1.7 1.153z" style="paint-order:normal"/>
  <path d="m125.4 176.9-1.7-1.153v1.575a2.316 1.156 51.6 0 0 1.7-0.4221z" style="paint-order:normal"/>
  <path d="m125.4 192.3a2.316 1.156 51.6 0 0-1.7-2.728v1.575z" style="paint-order:normal"/>
  <path d="m123.7 175.8-1.7-1.153a2.316 1.156 51.6 0 0 1.7 2.728z" style="paint-order:normal"/>
  <path d="m123.7 189.6a2.316 1.156 51.6 0 0-1.7 0.4218l1.7 1.153z" style="paint-order:normal"/>
  <path d="m108.8 165.7-1.7-1.153v1.575a2.316 1.156 51.6 0 0 1.7-0.4221z" style="paint-order:normal"/>
  <path d="m108.8 181a2.316 1.156 51.6 0 0-1.7-2.728v1.575z" style="paint-order:normal"/>
  <path d="m107.1 164.5-1.7-1.153a2.316 1.156 51.6 0 0 1.7 2.728z" style="paint-order:normal"/>
  <path d="m107.1 178.3a2.316 1.156 51.6 0 0-1.7 0.4218l1.7 1.153z" style="paint-order:normal"/>
  <path d="m92.19 154.4-1.7-1.153v1.575a2.316 1.156 51.6 0 0 1.7-0.4221z" style="paint-order:normal"/>
  <path d="m92.19 169.8a2.316 1.156 51.6 0 0-1.7-2.728v1.575z" style="paint-order:normal"/>
  <path d="m90.49 153.2-1.7-1.153a2.316 1.156 51.6 0 0 1.7 2.728z" style="paint-order:normal"/>
  <path d="m90.49 167.1a2.316 1.156 51.6 0 0-1.7 0.4218l1.7 1.153z" style="paint-order:normal"/>
  <path d="m75.58 143.1-1.7-1.153v1.575a2.316 1.156 51.6 0 0 1.7-0.4221z" style="paint-order:normal"/>
  <path d="m75.58 158.5a2.316 1.156 51.6 0 0-1.7-2.728v1.575z" style="paint-order:normal"/>
  <path d="m73.88 142-1.7-1.153a2.316 1.156 51.6 0 0 1.7 2.728z" style="paint-order:normal"/>
  <path d="m73.88 155.8a2.316 1.156 51.6 0 0-1.7 0.4218l1.7 1.153z" style="paint-order:normal"/>
  <path d="m58.97 131.9-1.7-1.153v1.575a2.316 1.156 51.6 0 0 1.7-0.4221z" style="paint-order:normal"/>
  <path d="m58.97 147.3a2.316 1.156 51.6 0 0-1.7-2.728v1.575z" style="paint-order:normal"/>
  <path d="m140.3 202.4-1.7-1.153a2.316 1.156 51.6 0 0 1.7 2.728z" style="paint-order:normal"/>
  <path d="m140.3 216.2a2.316 1.156 51.6 0 0-1.7 0.4218l1.7 1.153z" style="paint-order:normal"/>
  <path d="m125.4 192.3-1.7-1.153v1.575a2.316 1.156 51.6 0 0 1.7-0.4221z" style="paint-order:normal"/>
  <path d="m125.4 207.7a2.316 1.156 51.6 0 0-1.7-2.728v1.575z" style="paint-order:normal"/>
  <path d="m123.7 191.2-1.7-1.153a2.316 1.156 51.6 0 0 1.7 2.728z" style="paint-order:normal"/>
  <path d="m123.7 205a2.316 1.156 51.6 0 0-1.7 0.4218l1.7 1.153z" style="paint-order:normal"/>
  <path d="m108.8 181-1.7-1.153v1.575a2.316 1.156 51.6 0 0 1.7-0.4221z" style="paint-order:normal"/>
  <path d="m108.8 196.4a2.316 1.156 51.6 0 0-1.7-2.728v1.575z" style="paint-order:normal"/>
  <path d="m107.1 179.9-1.7-1.153a2.316 1.156 51.6 0 0 1.7 2.728z" style="paint-order:normal"/>
  <path d="m107.1 193.7a2.316 1.156 51.6 0 0-1.7 0.4218l1.7 1.153z" style="paint-order:normal"/>
  <path d="m92.19 169.8-1.7-1.153v1.575a2.316 1.156 51.6 0 0 1.7-0.4221z" style="paint-order:normal"/>
  <path d="m92.19 185.2a2.316 1.156 51.6 0 0-1.7-2.728v1.575z" style="paint-order:normal"/>
  <path d="m90.49 168.6-1.7-1.153a2.316 1.156 51.6 0 0 1.7 2.728z" style="paint-order:normal"/>
  <path d="m90.49 182.4a2.316 1.156 51.6 0 0-1.7 0.4218l1.7 1.153z" style="paint-order:normal"/>
  <path d="m75.58 158.5-1.7-1.153v1.575a2.316 1.156 51.6 0 0 1.7-0.4221z" style="paint-order:normal"/>
  <path d="m75.58 173.9a2.316 1.156 51.6 0 0-1.7-2.728v1.575z" style="paint-order:normal"/>
  <path d="m73.88 157.4-1.7-1.153a2.316 1.156 51.6 0 0 1.7 2.728z" style="paint-order:normal"/>
  <path d="m73.88 171.2a2.316 1.156 51.6 0 0-1.7 0.4218l1.7 1.153z" style="paint-order:normal"/>
  <path d="m58.97 147.3-1.7-1.153v1.575a2.316 1.156 51.6 0 0 1.7-0.4221z" style="paint-order:normal"/>
  <path d="m58.97 162.6a2.316 1.156 51.6 0 0-1.7-2.728v1.575z" style="paint-order:normal"/>
  <path d="m140.3 217.8-1.7-1.153a2.316 1.156 51.6 0 0 1.7 2.728z" style="paint-order:normal"/>
  <path d="m140.3 231.6a2.316 1.156 51.6 0 0-1.7 0.4218l1.7 1.153z" style="paint-order:normal"/>
  <path d="m125.4 207.7-1.7-1.153v1.575a2.316 1.156 51.6 0 0 1.7-0.4221z" style="paint-order:normal"/>
  <path d="m125.4 223.1a2.316 1.156 51.6 0 0-1.7-2.728v1.575z" style="paint-order:normal"/>
  <path d="m123.7 206.5-1.7-1.153a2.316 1.156 51.6 0 0 1.7 2.728z" style="paint-order:normal"/>
  <path d="m123.7 220.3a2.316 1.156 51.6 0 0-1.7 0.4218l1.7 1.153z" style="paint-order:normal"/>
  <path d="m108.8 196.4-1.7-1.153v1.575a2.316 1.156 51.6 0 0 1.7-0.4221z" style="paint-order:normal"/>
  <path d="m108.8 211.8a2.316 1.156 51.6 0 0-1.7-2.728v1.575z" style="paint-order:normal"/>
  <path d="m107.1 195.3-1.7-1.153a2.316 1.156 51.6 0 0 1.7 2.728z" style="paint-order:normal"/>
  <path d="m107.1 209.1a2.316 1.156 51.6 0 0-1.7 0.4218l1.7 1.153z" style="paint-order:normal"/>
  <path d="m92.19 185.2-1.7-1.153v1.575a2.316 1.156 51.6 0 0 1.7-0.4221z" style="paint-order:normal"/>
  <path d="m92.19 200.6a2.316 1.156 51.6 0 0-1.7-2.728v1.575z" style="paint-order:normal"/>
  <path d="m90.49 184-1.7-1.153a2.316 1.156 51.6 0 0 1.7 2.728z" style="paint-order:normal"/>
  <path d="m90.49 197.8a2.316 1.156 51.6 0 0-1.7 0.4218l1.7 1.153z" style="paint-order:normal"/>
  <path d="m75.58 173.9-1.7-1.153v1.575a2.316 1.156 51.6 0 0 1.7-0.4221z" style="paint-order:normal"/>
  <path d="m75.58 189.3a2.316 1.156 51.6 0 0-1.7-2.728v1.575z" style="paint-order:normal"/>
  <path d="m73.88 172.8-1.7-1.153a2.316 1.156 51.6 0 0 1.7 2.728z" style="paint-order:normal"/>
  <path d="m73.88 186.6a2.316 1.156 51.6 0 0-1.7 0.4218l1.7 1.153z" style="paint-order:normal"/>
  <path d="m58.97 162.6-1.7-1.153v1.575a2.316 1.156 51.6 0 0 1.7-0.4221z" style="paint-order:normal"/>
  <path d="m58.97 178a2.316 1.156 51.6 0 0-1.7-2.728v1.575z" style="paint-order:normal"/>
  <path d="m140.3 79.33-1.7-1.153a2.316 1.156 51.6 0 0 1.7 2.728z" style="paint-order:normal"/>
  <path d="m140.3 93.14a2.316 1.156 51.6 0 0-1.7 0.4218l1.7 1.153z" style="paint-order:normal"/>
  <path d="m125.4 69.22-1.7-1.153v1.575a2.316 1.156 51.6 0 0 1.7-0.4221z" style="paint-order:normal"/>
  <path d="m125.4 84.61a2.316 1.156 51.6 0 0-1.7-2.728v1.575z" style="paint-order:normal"/>
  <path d="m140.3 79.33-1.7-1.153a2.316 1.156 51.6 0 0 1.7 2.728z" style="paint-order:normal"/>
  <path d="m140.3 93.14a2.316 1.156 51.6 0 0-1.7 0.4218l1.7 1.153z" style="paint-order:normal"/>
  <path d="m125.4 69.22-1.7-1.153v1.575a2.316 1.156 51.6 0 0 1.7-0.4221z" style="paint-order:normal"/>
  <path d="m125.4 84.61a2.316 1.156 51.6 0 0-1.7-2.728v1.575z" style="paint-order:normal"/>
  <path d="m123.7 68.07-1.7-1.153a2.316 1.156 51.6 0 0 1.7 2.728z" style="paint-order:normal"/>
  <path d="m123.7 81.88a2.316 1.156 51.6 0 0-1.7 0.4218l1.7 1.153z" style="paint-order:normal"/>
  <path d="m108.8 57.96-1.7-1.153v1.575a2.316 1.156 51.6 0 0 1.7-0.4221z" style="paint-order:normal"/>
  <path d="m108.8 73.35a2.316 1.156 51.6 0 0-1.7-2.728v1.575z" style="paint-order:normal"/>
  <path d="m107.1 56.81-1.7-1.153a2.316 1.156 51.6 0 0 1.7 2.728z" style="paint-order:normal"/>
  <path d="m107.1 70.62a2.316 1.156 51.6 0 0-1.7 0.4218l1.7 1.153z" style="paint-order:normal"/>
  <path d="m92.19 46.7-1.7-1.153v1.575a2.316 1.156 51.6 0 0 1.7-0.4221z" style="paint-order:normal"/>
  <path d="m92.19 62.08a2.316 1.156 51.6 0 0-1.7-2.728v1.575z" style="paint-order:normal"/>
  <path d="m90.49 45.55-1.7-1.153a2.316 1.156 51.6 0 0 1.7 2.728z" style="paint-order:normal"/>
  <path d="m90.49 59.36a2.316 1.156 51.6 0 0-1.7 0.4218l1.7 1.153z" style="paint-order:normal"/>
  <path d="m75.58 35.44-1.7-1.153v1.575a2.316 1.156 51.6 0 0 1.7-0.4221z" style="paint-order:normal"/>
  <path d="m75.58 50.82a2.316 1.156 51.6 0 0-1.7-2.728v1.575z" style="paint-order:normal"/>
  <path d="m73.88 34.28-1.7-1.153a2.316 1.156 51.6 0 0 1.7 2.728z" style="paint-order:normal"/>
  <path d="m73.88 48.09a2.316 1.156 51.6 0 0-1.7 0.4218l1.7 1.153z" style="paint-order:normal"/>
  <path d="m58.97 24.17-1.7-1.153v1.575a2.316 1.156 51.6 0 0 1.7-0.4221z" style="paint-order:normal"/>
  <path d="m58.97 39.56a2.316 1.156 51.6 0 0-1.7-2.728v1.575z" style="paint-order:normal"/>
  <path d="m140.3 94.72-1.7-1.153a2.316 1.156 51.6 0 0 1.7 2.728z" style="paint-order:normal"/>
  <path d="m140.3 108.5a2.316 1.156 51.6 0 0-1.7 0.4218l1.7 1.153z" style="paint-order:normal"/>
  <path d="m125.4 84.61-1.7-1.153v1.575a2.316 1.156 51.6 0 0 1.7-0.4221z" style="paint-order:normal"/>
  <path d="m125.4 100a2.316 1.156 51.6 0 0-1.7-2.728v1.575z" style="paint-order:normal"/>
  <path d="m123.7 83.46-1.7-1.153a2.316 1.156 51.6 0 0 1.7 2.728z" style="paint-order:normal"/>
  <path d="m123.7 97.27a2.316 1.156 51.6 0 0-1.7 0.4218l1.7 1.153z" style="paint-order:normal"/>
  <path d="m108.8 73.35-1.7-1.153v1.575a2.316 1.156 51.6 0 0 1.7-0.4221z" style="paint-order:normal"/>
  <path d="m108.8 88.73a2.316 1.156 51.6 0 0-1.7-2.728v1.575z" style="paint-order:normal"/>
  <path d="m107.1 72.19-1.7-1.153a2.316 1.156 51.6 0 0 1.7 2.728z" style="paint-order:normal"/>
  <path d="m107.1 86a2.316 1.156 51.6 0 0-1.7 0.4218l1.7 1.153z" style="paint-order:normal"/>
  <path d="m92.19 62.08-1.7-1.153v1.575a2.316 1.156 51.6 0 0 1.7-0.4221z" style="paint-order:normal"/>
  <path d="m92.19 77.47a2.316 1.156 51.6 0 0-1.7-2.728v1.575z" style="paint-order:normal"/>
  <path d="m90.49 60.93-1.7-1.153a2.316 1.156 51.6 0 0 1.7 2.728z" style="paint-order:normal"/>
  <path d="m90.49 74.74a2.316 1.156 51.6 0 0-1.7 0.4218l1.7 1.153z" style="paint-order:normal"/>
  <path d="m75.58 50.82-1.7-1.153v1.575a2.316 1.156 51.6 0 0 1.7-0.4221z" style="paint-order:normal"/>
  <path d="m75.58 66.21a2.316 1.156 51.6 0 0-1.7-2.728v1.575z" style="paint-order:normal"/>
  <path d="m73.88 49.67-1.7-1.153a2.316 1.156 51.6 0 0 1.7 2.728z" style="paint-order:normal"/>
  <path d="m73.88 63.48a2.316 1.156 51.6 0 0-1.7 0.4218l1.7 1.153z" style="paint-order:normal"/>
  <path d="m58.97 39.56-1.7-1.153v1.575a2.316 1.156 51.6 0 0 1.7-0.4221z" style="paint-order:normal"/>
  <path d="m58.97 54.94a2.316 1.156 51.6 0 0-1.7-2.728v1.575z" style="paint-order:normal"/>
  <path d="m140.3 110.1-1.7-1.153a2.316 1.156 51.6 0 0 1.7 2.728z" style="paint-order:normal"/>
  <path d="m140.3 123.9a2.316 1.156 51.6 0 0-1.7 0.4218l1.7 1.153z" style="paint-order:normal"/>
  <path d="m125.4 100-1.7-1.153v1.575a2.316 1.156 51.6 0 0 1.7-0.4221z" style="paint-order:normal"/>
  <path d="m125.4 115.4a2.316 1.156 51.6 0 0-1.7-2.728v1.575z" style="paint-order:normal"/>
  <path d="m123.7 98.84-1.7-1.153a2.316 1.156 51.6 0 0 1.7 2.728z" style="paint-order:normal"/>
  <path d="m123.7 112.7a2.316 1.156 51.6 0 0-1.7 0.4218l1.7 1.153z" style="paint-order:normal"/>
  <path d="m108.8 88.73-1.7-1.153v1.575a2.316 1.156 51.6 0 0 1.7-0.4221z" style="paint-order:normal"/>
  <path d="m108.8 104.1a2.316 1.156 51.6 0 0-1.7-2.728v1.575z" style="paint-order:normal"/>
  <path d="m107.1 87.58-1.7-1.153a2.316 1.156 51.6 0 0 1.7 2.728z" style="paint-order:normal"/>
  <path d="m107.1 101.4a2.316 1.156 51.6 0 0-1.7 0.4218l1.7 1.153z" style="paint-order:normal"/>
  <path d="m92.19 77.47-1.7-1.153v1.575a2.316 1.156 51.6 0 0 1.7-0.4221z" style="paint-order:normal"/>
  <path d="m92.19 92.86a2.316 1.156 51.6 0 0-1.7-2.728v1.575z" style="paint-order:normal"/>
  <path d="m90.49 76.32-1.7-1.153a2.316 1.156 51.6 0 0 1.7 2.728z" style="paint-order:normal"/>
  <path d="m90.49 90.13a2.316 1.156 51.6 0 0-1.7 0.4218l1.7 1.153z" style="paint-order:normal"/>
  <path d="m75.58 66.21-1.7-1.153v1.575a2.316 1.156 51.6 0 0 1.7-0.4221z" style="paint-order:normal"/>
  <path d="m75.58 81.59a2.316 1.156 51.6 0 0-1.7-2.728v1.575z" style="paint-order:normal"/>
  <path d="m73.88 65.05-1.7-1.153a2.316 1.156 51.6 0 0 1.7 2.728z" style="paint-order:normal"/>
  <path d="m73.88 78.86a2.316 1.156 51.6 0 0-1.7 0.4218l1.7 1.153z" style="paint-order:normal"/>
  <path d="m58.97 54.94-1.7-1.153v1.575a2.316 1.156 51.6 0 0 1.7-0.4221z" style="paint-order:normal"/>
  <path d="m58.97 70.33a2.316 1.156 51.6 0 0-1.7-2.728v1.575z" style="paint-order:normal"/>
  <path d="m140.3 125.5-1.7-1.153a2.316 1.156 51.6 0 0 1.7 2.728z" style="paint-order:normal"/>
  <path d="m140.3 139.3a2.316 1.156 51.6 0 0-1.7 0.4218l1.7 1.153z" style="paint-order:normal"/>
  <path d="m125.4 115.4-1.7-1.153v1.575a2.316 1.156 51.6 0 0 1.7-0.4221z" style="paint-order:normal"/>
  <path d="m125.4 130.8a2.316 1.156 51.6 0 0-1.7-2.728v1.575z" style="paint-order:normal"/>
  <path d="m123.7 114.2-1.7-1.153a2.316 1.156 51.6 0 0 1.7 2.728z" style="paint-order:normal"/>
  <path d="m123.7 128a2.316 1.156 51.6 0 0-1.7 0.4218l1.7 1.153z" style="paint-order:normal"/>
  <path d="m108.8 104.1-1.7-1.153v1.575a2.316 1.156 51.6 0 0 1.7-0.4221z" style="paint-order:normal"/>
  <path d="m108.8 119.5a2.316 1.156 51.6 0 0-1.7-2.728v1.575z" style="paint-order:normal"/>
  <path d="m107.1 103-1.7-1.153a2.316 1.156 51.6 0 0 1.7 2.728z" style="paint-order:normal"/>
  <path d="m107.1 116.8a2.316 1.156 51.6 0 0-1.7 0.4218l1.7 1.153z" style="paint-order:normal"/>
  <path d="m92.19 92.86-1.7-1.153v1.575a2.316 1.156 51.6 0 0 1.7-0.4221z" style="paint-order:normal"/>
  <path d="m92.19 108.2a2.316 1.156 51.6 0 0-1.7-2.728v1.575z" style="paint-order:normal"/>
  <path d="m90.49 91.7-1.7-1.153a2.316 1.156 51.6 0 0 1.7 2.728z" style="paint-order:normal"/>
  <path d="m90.49 105.5a2.316 1.156 51.6 0 0-1.7 0.4218l1.7 1.153z" style="paint-order:normal"/>
  <path d="m75.58 81.59-1.7-1.153v1.575a2.316 1.156 51.6 0 0 1.7-0.4221z" style="paint-order:normal"/>
  <path d="m75.58 96.98a2.316 1.156 51.6 0 0-1.7-2.728v1.575z" style="paint-order:normal"/>
  <path d="m73.88 80.44-1.7-1.153a2.316 1.156 51.6 0 0 1.7 2.728z" style="paint-order:normal"/>
  <path d="m73.88 94.25a2.316 1.156 51.6 0 0-1.7 0.4218l1.7 1.153z" style="paint-order:normal"/>
  <path d="m58.97 70.33-1.7-1.153v1.575a2.316 1.156 51.6 0 0 1.7-0.4221z" style="paint-order:normal"/>
  <path d="m58.97 85.71a2.316 1.156 51.6 0 0-1.7-2.728v1.575z" style="paint-order:normal"/>
  <path d="m140.3 140.9-1.7-1.153a2.316 1.156 51.6 0 0 1.7 2.728z" style="paint-order:normal"/>
  <path d="m140.3 154.7a2.316 1.156 51.6 0 0-1.7 0.4218l1.7 1.153z" style="paint-order:normal"/>
  <path d="m125.4 130.8-1.7-1.153v1.575a2.316 1.156 51.6 0 0 1.7-0.4221z" style="paint-order:normal"/>
  <path d="m125.4 146.2a2.316 1.156 51.6 0 0-1.7-2.728v1.575z" style="paint-order:normal"/>
  <path d="m123.7 129.6-1.7-1.153a2.316 1.156 51.6 0 0 1.7 2.728z" style="paint-order:normal"/>
  <path d="m123.7 143.4a2.316 1.156 51.6 0 0-1.7 0.4218l1.7 1.153z" style="paint-order:normal"/>
  <path d="m108.8 119.5-1.7-1.153v1.575a2.316 1.156 51.6 0 0 1.7-0.4221z" style="paint-order:normal"/>
  <path d="m108.8 134.9a2.316 1.156 51.6 0 0-1.7-2.728v1.575z" style="paint-order:normal"/>
  <path d="m107.1 118.4-1.7-1.153a2.316 1.156 51.6 0 0 1.7 2.728z" style="paint-order:normal"/>
  <path d="m107.1 132.2a2.316 1.156 51.6 0 0-1.7 0.4218l1.7 1.153z" style="paint-order:normal"/>
  <path d="m92.19 108.2-1.7-1.153v1.575a2.316 1.156 51.6 0 0 1.7-0.4221z" style="paint-order:normal"/>
  <path d="m92.19 123.6a2.316 1.156 51.6 0 0-1.7-2.728v1.575z" style="paint-order:normal"/>
  <path d="m90.49 107.1-1.7-1.153a2.316 1.156 51.6 0 0 1.7 2.728z" style="paint-order:normal"/>
  <path d="m90.49 120.9a2.316 1.156 51.6 0 0-1.7 0.4218l1.7 1.153z" style="paint-order:normal"/>
  <path d="m75.58 96.98-1.7-1.153v1.575a2.316 1.156 51.6 0 0 1.7-0.4221z" style="paint-order:normal"/>
  <path d="m75.58 112.4a2.316 1.156 51.6 0 0-1.7-2.728v1.575z" style="paint-order:normal"/>
  <path d="m73.88 95.82-1.7-1.153a2.316 1.156 51.6 0 0 1.7 2.728z" style="paint-order:normal"/>
  <path d="m73.88 109.6a2.316 1.156 51.6 0 0-1.7 0.4218l1.7 1.153z" style="paint-order:normal"/>
  <path d="m58.97 85.71-1.7-1.153v1.575a2.316 1.156 51.6 0 0 1.7-0.4221z" style="paint-order:normal"/>
  <path d="m58.97 101.1a2.316 1.156 51.6 0 0-1.7-2.728v1.575z" style="paint-order:normal"/>
 </g>
 <g>
  <path d="m17.93 45.38v149.1l100.8 58.19v-149zm34.36 49.53c4.575-0.1532 9.891 1.518 15.94 5.014 4.49 2.592 8.749 5.827 12.78 9.704 4.059 3.895 7.794 8.336 11.21 13.32v13.89c-3.444-6.082-7.103-11.28-10.98-15.58-3.875-4.305-7.948-7.691-12.22-10.16-8.426-4.865-14.76-5.226-19-1.084-4.213 4.16-6.321 12.77-6.321 25.82 0 13.01 2.108 24.03 6.321 33.05 4.244 9.042 10.58 16 19 20.86 3.29 1.9 6.227 3.208 8.81 3.924 2.583 0.6727 4.904 0.7633 6.964 0.2724v-25.92l-15.22-8.789v-10.73l24.45 14.11v41.43c-3.598 1.499-7.565 1.923-11.9 1.272-4.336-0.6938-8.963-2.461-13.88-5.302-10.76-6.214-19.19-15.47-25.28-27.78-6.058-12.33-9.087-26.36-9.087-42.09 0-15.77 3.029-26.3 9.087-31.59 2.664-2.326 5.775-3.55 9.334-3.669z" fill="#161B3D" stroke="#fff" stroke-linecap="round" stroke-width=".4294" style="paint-order:normal"/>
  <rect transform="matrix(.866 .5 0 1 0 0)" x="173.3" y="43.85" width="152.6" height="69.25" rx="12.86" fill="#8393FF" stroke="#fff" stroke-linecap="round" stroke-width=".5479" style="paint-order:normal"/>
  <text transform="matrix(.7752 .4476 0 1.29 0 0)" x="268.54025" y="67.413315" fill="#ffffff" font-family="sans-serif" font-size="16.6px" font-weight="bold" letter-spacing="0px" stroke-width=".7779" word-spacing="0px" style="font-feature-settings:normal;font-variant-caps:normal;font-variant-ligatures:normal;font-variant-numeric:normal;line-height:1.25" xml:space="preserve"><tspan x="271.42511" y="67.413315" fill="#ffffff" font-family="sans-serif" font-size="16.6px" font-weight="bold" stroke-width=".7779" text-align="center" text-anchor="middle" style="font-feature-settings:normal;font-variant-caps:normal;font-variant-ligatures:normal;font-variant-numeric:normal">Find out more </tspan></text>
 </g>
 <text transform="matrix(.7975 .4604 0 1.254 0 0)" x="329.39252" y="70.57312" fill="#DC143C" fill-opacity=".9882" font-family="sans-serif" font-size="17.82px" letter-spacing="0px" stroke="#ffffff" stroke-linecap="round" stroke-width="2.507" word-spacing="0px" style="font-feature-settings:normal;font-variant-caps:normal;font-variant-ligatures:normal;font-variant-numeric:normal;line-height:1.25;paint-order:stroke fill markers" xml:space="preserve"><tspan x="329.39252" y="70.57312" stroke-linecap="round" stroke-width="2.507">&gt;</tspan></text>
</svg>
