<svg version="1.1" viewBox="0 0 100 100" xmlns="http://www.w3.org/2000/svg">
 <g class="bottom-left" fill="#f60">
  <rect width="100" height="100" style="paint-order:markers stroke fill"/>
  <g stroke="#fff">
   <path d="m6.755 9.045c-0.1667 0.2888-0.5385 0.3865-0.8304 0.2179-0.2917-0.1684-0.3933-0.5392-0.2265-0.8281 0.1667-0.2888 0.3976-0.5052 1.067-0.6275 0 0 0.1567 0.9489-0.01 1.238z" stroke-linecap="round" stroke-linejoin="bevel" stroke-width=".07928" style="paint-order:normal"/>
   <path d="m5.787 8.447c-0.06422 0.178-0.1459 0.3991 0.1041 0.71 0.1435 0.0763 0.2529 0.0614 0.3366-0.02238-0.282-0.2136-0.36-0.4509-0.4404-0.6876z" stroke-width=".01596"/>
   <path d="m7.452 34.57c-0.1667 0.2888-0.5385 0.3865-0.8304 0.218-0.2917-0.1684-0.3933-0.5392-0.2265-0.8281 0.1667-0.2888 0.3976-0.5052 1.067-0.6275 0 0 0.1567 0.9489-0.01 1.238z" stroke-linecap="round" stroke-linejoin="bevel" stroke-width=".07928" style="paint-order:normal"/>
   <path d="m6.484 33.97c-0.06422 0.178-0.1459 0.3991 0.1041 0.71 0.1435 0.0763 0.2529 0.0614 0.3366-0.02237-0.282-0.2136-0.36-0.4509-0.4404-0.6876z" stroke-width=".01596"/>
   <path d="m35.24 32.65c-0.1667 0.2888-0.5385 0.3865-0.8304 0.2179-0.2917-0.1684-0.3933-0.5392-0.2265-0.8281 0.1667-0.2888 0.3976-0.5052 1.067-0.6275 0 0 0.1567 0.9489-0.01 1.238z" stroke-linecap="round" stroke-linejoin="bevel" stroke-width=".07928" style="paint-order:normal"/>
   <path d="m34.27 32.05c-0.06421 0.178-0.1459 0.3991 0.1041 0.71 0.1435 0.0763 0.2529 0.06141 0.3366-0.02238-0.282-0.2136-0.36-0.4509-0.4404-0.6876z" stroke-width=".01596"/>
   <path d="m63.55 21.85c-0.1667 0.2888-0.5385 0.3865-0.8304 0.2179-0.2917-0.1684-0.3933-0.5392-0.2265-0.8281 0.1667-0.2888 0.3976-0.5052 1.067-0.6275 0 0 0.1567 0.9489-0.01 1.238z" stroke-linecap="round" stroke-linejoin="bevel" stroke-width=".07928" style="paint-order:normal"/>
   <path d="m62.59 21.25c-0.06421 0.178-0.1459 0.3991 0.1041 0.71 0.1435 0.0763 0.2529 0.0614 0.3366-0.02238-0.282-0.2136-0.36-0.4509-0.4404-0.6876z" stroke-width=".01596"/>
   <path d="m55.89 5.561c-0.1667 0.2888-0.5385 0.3865-0.8304 0.2179-0.2917-0.1684-0.3933-0.5392-0.2265-0.8281 0.1667-0.2888 0.3976-0.5052 1.067-0.6275 0 0 0.1567 0.9489-0.01 1.238z" stroke-linecap="round" stroke-linejoin="bevel" stroke-width=".07928" style="paint-order:normal"/>
   <path d="m54.92 4.964c-0.06421 0.178-0.1459 0.3991 0.1041 0.71 0.1435 0.0763 0.2529 0.0614 0.3366-0.02238-0.282-0.2136-0.36-0.4509-0.4404-0.6876z" stroke-width=".01596"/>
   <path d="m84.72 36.31c-0.1667 0.2888-0.5385 0.3865-0.8304 0.218-0.2917-0.1684-0.3933-0.5392-0.2265-0.8281 0.1667-0.2888 0.3976-0.5052 1.067-0.6275 0 0 0.1567 0.9489-0.01 1.238z" stroke-linecap="round" stroke-linejoin="bevel" stroke-width=".07928" style="paint-order:normal"/>
   <path d="m83.75 35.71c-0.06421 0.178-0.1459 0.3991 0.1041 0.71 0.1435 0.0763 0.2529 0.0614 0.3366-0.02237-0.282-0.2136-0.36-0.4509-0.4404-0.6876z" stroke-width=".01596"/>
   <path d="m30.01 61.41c-0.1667 0.2888-0.5385 0.3865-0.8304 0.2179-0.2917-0.1684-0.3933-0.5392-0.2265-0.8281 0.1667-0.2888 0.3976-0.5052 1.067-0.6275 0 0 0.1567 0.9489-0.01 1.238z" stroke-linecap="round" stroke-linejoin="bevel" stroke-width=".07928" style="paint-order:normal"/>
   <path d="m29.04 60.81c-0.06422 0.178-0.1459 0.3991 0.1041 0.71 0.1435 0.0763 0.2529 0.06141 0.3366-0.02237-0.282-0.2136-0.36-0.4509-0.4404-0.6876z" stroke-width=".01596"/>
   <path d="m61.89 64.78c-0.1667 0.2888-0.5385 0.3865-0.8304 0.2179-0.2917-0.1684-0.3933-0.5392-0.2265-0.8281 0.1667-0.2888 0.3976-0.5052 1.067-0.6275 0 0 0.1567 0.9489-0.01 1.238z" stroke-linecap="round" stroke-linejoin="bevel" stroke-width=".07928" style="paint-order:normal"/>
   <path d="m60.92 64.18c-0.06421 0.178-0.1459 0.3991 0.1041 0.71 0.1435 0.0763 0.2529 0.06141 0.3366-0.02237-0.282-0.2136-0.36-0.4509-0.4404-0.6876z" stroke-width=".01596"/>
   <path d="m26.7 89.54c-0.1667 0.2888-0.5385 0.3865-0.8304 0.2179-0.2917-0.1684-0.3933-0.5392-0.2265-0.8281 0.1667-0.2888 0.3976-0.5052 1.067-0.6275 0 0 0.1567 0.9489-0.01 1.238z" stroke-linecap="round" stroke-linejoin="bevel" stroke-width=".07928" style="paint-order:normal"/>
   <path d="m25.73 88.95c-0.06421 0.178-0.1459 0.3991 0.1041 0.71 0.1435 0.0763 0.2529 0.06141 0.3366-0.02237-0.282-0.2136-0.36-0.4509-0.4404-0.6876z" stroke-width=".01596"/>
   <path d="m96.39 65.04c-0.1667 0.2888-0.5385 0.3865-0.8304 0.2179-0.2917-0.1684-0.3933-0.5392-0.2265-0.8281 0.1667-0.2888 0.3976-0.5052 1.067-0.6275 0 0 0.1567 0.9489-0.01 1.238z" stroke-linecap="round" stroke-linejoin="bevel" stroke-width=".07928" style="paint-order:normal"/>
   <path d="m95.42 64.45c-0.06421 0.178-0.1459 0.3991 0.1041 0.71 0.1435 0.0763 0.2529 0.06141 0.3366-0.02237-0.282-0.2136-0.36-0.4509-0.4404-0.6876z" stroke-width=".01596"/>
   <path d="m95.79 96.14c-0.1667 0.2888-0.5385 0.3865-0.8304 0.2179-0.2917-0.1684-0.3933-0.5392-0.2265-0.8281 0.1667-0.2888 0.3976-0.5052 1.067-0.6275 0 0 0.1567 0.9489-0.01 1.238z" stroke-linecap="round" stroke-linejoin="bevel" stroke-width=".07928" style="paint-order:normal"/>
   <path d="m94.82 95.55c-0.06421 0.178-0.1459 0.3991 0.1041 0.71 0.1435 0.0763 0.2529 0.06141 0.3366-0.02237-0.282-0.2136-0.36-0.4509-0.4404-0.6876z" stroke-width=".01596"/>
   <path d="m5.448 71.08c-0.1667 0.2888-0.5385 0.3865-0.8304 0.2179-0.2917-0.1684-0.3933-0.5392-0.2265-0.8281 0.1667-0.2888 0.3976-0.5052 1.067-0.6275 0 0 0.1567 0.9489-0.01 1.238z" stroke-linecap="round" stroke-linejoin="bevel" stroke-width=".07928" style="paint-order:normal"/>
   <path d="m4.48 70.48c-0.06422 0.178-0.1459 0.3991 0.1041 0.71 0.1435 0.0763 0.2529 0.06141 0.3366-0.02237-0.282-0.2136-0.36-0.4509-0.4404-0.6876z" stroke-width=".01596"/>
   <path d="m52.75 46.24c-0.1667 0.2888-0.5385 0.3865-0.8304 0.218-0.2917-0.1684-0.3933-0.5392-0.2265-0.8281 0.1667-0.2888 0.3976-0.5052 1.067-0.6275 0 0 0.1567 0.9489-0.01 1.238z" stroke-linecap="round" stroke-linejoin="bevel" stroke-width=".07928" style="paint-order:normal"/>
   <path d="m51.79 45.65c-0.06421 0.178-0.1459 0.3991 0.1041 0.71 0.1435 0.0763 0.2529 0.0614 0.3366-0.02237-0.282-0.2136-0.36-0.4509-0.4404-0.6876z" stroke-width=".01596"/>
   <path d="m85.15 11.48c-0.1667 0.2888-0.5385 0.3865-0.8304 0.2179-0.2917-0.1684-0.3933-0.5392-0.2265-0.8281 0.1667-0.2888 0.3976-0.5052 1.067-0.6275 0 0 0.1567 0.9489-0.01 1.238z" stroke-linecap="round" stroke-linejoin="bevel" stroke-width=".07928" style="paint-order:normal"/>
   <path d="m84.19 10.89c-0.06421 0.178-0.1459 0.3991 0.1041 0.71 0.1435 0.0763 0.2529 0.0614 0.3366-0.02238-0.282-0.2136-0.36-0.4509-0.4404-0.6876z" stroke-width=".01596"/>
   <path d="m56.32 87.08c-0.1667 0.2888-0.5385 0.3865-0.8304 0.2179-0.2917-0.1684-0.3933-0.5392-0.2265-0.8281 0.1667-0.2888 0.3976-0.5052 1.067-0.6275 0 0 0.1567 0.9489-0.01 1.238z" stroke-linecap="round" stroke-linejoin="bevel" stroke-width=".07928" style="paint-order:normal"/>
   <path d="m55.35 86.48c-0.06421 0.178-0.1459 0.3991 0.1041 0.71 0.1435 0.0763 0.2529 0.06141 0.3366-0.02237-0.282-0.2136-0.36-0.4509-0.4404-0.6876z" stroke-width=".01596"/>
  </g>
 </g>
 <g class="top-right" fill="#c87137">
  <rect x="100" y="-100" width="100" height="100" style="paint-order:markers stroke fill"/>
  <g stroke="#fff">
   <path d="m106.8-90.96c-0.1667 0.2888-0.5385 0.3865-0.8304 0.2179-0.2918-0.1684-0.3933-0.5392-0.2265-0.8281 0.1667-0.2888 0.3976-0.5052 1.067-0.6275 0 0 0.1567 0.9489-0.01 1.238z" stroke-linecap="round" stroke-linejoin="bevel" stroke-width=".07928" style="paint-order:normal"/>
   <path d="m105.8-91.55c-0.0642 0.178-0.1459 0.3991 0.1041 0.71 0.1435 0.0763 0.2528 0.0614 0.3366-0.02238-0.282-0.2136-0.36-0.4509-0.4404-0.6876z" stroke-width=".01596"/>
   <path d="m107.5-65.43c-0.1667 0.2888-0.5385 0.3865-0.8304 0.218-0.2918-0.1684-0.3933-0.5392-0.2265-0.8281 0.1667-0.2888 0.3976-0.5052 1.067-0.6275 0 0 0.1567 0.9489-0.01 1.238z" stroke-linecap="round" stroke-linejoin="bevel" stroke-width=".07928" style="paint-order:normal"/>
   <path d="m106.5-66.03c-0.0642 0.178-0.1459 0.3991 0.1041 0.71 0.1435 0.0763 0.2528 0.0614 0.3366-0.02237-0.282-0.2136-0.36-0.4509-0.4404-0.6876z" stroke-width=".01596"/>
   <path d="m135.2-67.35c-0.1667 0.2888-0.5385 0.3865-0.8304 0.2179-0.2917-0.1684-0.3933-0.5392-0.2265-0.8281 0.1667-0.2888 0.3976-0.5052 1.067-0.6275 0 0 0.1568 0.9489-0.01 1.238z" stroke-linecap="round" stroke-linejoin="bevel" stroke-width=".07928" style="paint-order:normal"/>
   <path d="m134.3-67.95c-0.0642 0.178-0.1459 0.3991 0.1041 0.71 0.1435 0.0763 0.2528 0.0614 0.3366-0.02238-0.282-0.2136-0.36-0.4509-0.4404-0.6876z" stroke-width=".01596"/>
   <path d="m163.6-78.15c-0.1667 0.2888-0.5385 0.3865-0.8304 0.2179-0.2917-0.1684-0.3933-0.5392-0.2265-0.8281 0.1667-0.2888 0.3976-0.5052 1.067-0.6275 0 0 0.1567 0.9489-0.01 1.238z" stroke-linecap="round" stroke-linejoin="bevel" stroke-width=".07928" style="paint-order:normal"/>
   <path d="m162.6-78.75c-0.0642 0.178-0.1459 0.3991 0.1041 0.71 0.1435 0.0763 0.2529 0.0614 0.3366-0.02238-0.282-0.2136-0.36-0.4509-0.4404-0.6876z" stroke-width=".01596"/>
   <path d="m155.9-94.44c-0.1667 0.2888-0.5385 0.3865-0.8304 0.2179-0.2917-0.1684-0.3933-0.5392-0.2265-0.8281 0.1667-0.2888 0.3976-0.5052 1.067-0.6275 0 0 0.1568 0.9489-0.01 1.238z" stroke-linecap="round" stroke-linejoin="bevel" stroke-width=".07928" style="paint-order:normal"/>
   <path d="m154.9-95.04c-0.0642 0.178-0.1459 0.3991 0.1041 0.71 0.1435 0.0763 0.2528 0.0614 0.3366-0.02238-0.282-0.2136-0.36-0.4509-0.4404-0.6876z" stroke-width=".01596"/>
   <path d="m184.7-63.69c-0.1667 0.2888-0.5385 0.3865-0.8304 0.218-0.2917-0.1684-0.3933-0.5392-0.2265-0.8281 0.1667-0.2888 0.3976-0.5052 1.067-0.6275 0 0 0.1568 0.9489-0.01 1.238z" stroke-linecap="round" stroke-linejoin="bevel" stroke-width=".07928" style="paint-order:normal"/>
   <path d="m183.8-64.29c-0.0642 0.178-0.1459 0.3991 0.1041 0.71 0.1435 0.0763 0.2528 0.0614 0.3366-0.02237-0.282-0.2136-0.36-0.4509-0.4404-0.6876z" stroke-width=".01596"/>
   <path d="m130-38.59c-0.1667 0.2888-0.5385 0.3865-0.8304 0.2179-0.2918-0.1684-0.3933-0.5392-0.2265-0.8281 0.1667-0.2888 0.3976-0.5052 1.067-0.6275 0 0 0.1567 0.9489-0.01 1.238z" stroke-linecap="round" stroke-linejoin="bevel" stroke-width=".07928" style="paint-order:normal"/>
   <path d="m129-39.19c-0.0642 0.178-0.1459 0.3991 0.1041 0.71 0.1435 0.0763 0.2528 0.06141 0.3366-0.02237-0.282-0.2136-0.36-0.4509-0.4404-0.6876z" stroke-width=".01596"/>
   <path d="m161.9-35.22c-0.1667 0.2888-0.5385 0.3865-0.8304 0.2179-0.2917-0.1684-0.3933-0.5392-0.2265-0.8281 0.1667-0.2888 0.3976-0.5052 1.067-0.6275 0 0 0.1568 0.9489-0.01 1.238z" stroke-linecap="round" stroke-linejoin="bevel" stroke-width=".07928" style="paint-order:normal"/>
   <path d="m160.9-35.82c-0.0642 0.178-0.1459 0.3991 0.1041 0.71 0.1435 0.0763 0.2528 0.06141 0.3366-0.02237-0.282-0.2136-0.36-0.4509-0.4404-0.6876z" stroke-width=".01596"/>
   <path d="m126.7-10.46c-0.1667 0.2888-0.5385 0.3865-0.8304 0.2179-0.2918-0.1684-0.3933-0.5392-0.2265-0.8281 0.1667-0.2888 0.3976-0.5052 1.067-0.6275 0 0 0.1567 0.9489-0.01 1.238z" stroke-linecap="round" stroke-linejoin="bevel" stroke-width=".07928" style="paint-order:normal"/>
   <path d="m125.7-11.05c-0.0642 0.178-0.1459 0.3991 0.1041 0.71 0.1435 0.0763 0.2528 0.06141 0.3366-0.02237-0.282-0.2136-0.36-0.4509-0.4404-0.6876z" stroke-width=".01596"/>
   <path d="m196.4-34.96c-0.1667 0.2888-0.5385 0.3865-0.8304 0.2179-0.2917-0.1684-0.3933-0.5392-0.2265-0.8281 0.1667-0.2888 0.3976-0.5052 1.067-0.6275 0 0 0.1567 0.9489-0.01 1.238z" stroke-linecap="round" stroke-linejoin="bevel" stroke-width=".07928" style="paint-order:normal"/>
   <path d="m195.4-35.55c-0.0642 0.178-0.1459 0.3991 0.1041 0.71 0.1435 0.0763 0.2529 0.06141 0.3366-0.02237-0.282-0.2136-0.36-0.4509-0.4404-0.6876z" stroke-width=".01596"/>
   <path d="m195.8-3.855c-0.1667 0.2888-0.5385 0.3865-0.8304 0.2179-0.2917-0.1684-0.3933-0.5392-0.2265-0.8281 0.1667-0.2888 0.3976-0.5052 1.067-0.6275 0 0 0.1567 0.9489-0.01 1.238z" stroke-linecap="round" stroke-linejoin="bevel" stroke-width=".07928" style="paint-order:normal"/>
   <path d="m194.8-4.453c-0.0642 0.178-0.1459 0.3991 0.1041 0.71 0.1435 0.0763 0.2529 0.06141 0.3366-0.02237-0.282-0.2136-0.36-0.4509-0.4404-0.6876z" stroke-width=".01596"/>
   <path d="m105.4-28.92c-0.1667 0.2888-0.5385 0.3865-0.8304 0.2179-0.2917-0.1684-0.3933-0.5392-0.2265-0.8281 0.1667-0.2888 0.3976-0.5052 1.067-0.6275 0 0 0.1567 0.9489-0.01 1.238z" stroke-linecap="round" stroke-linejoin="bevel" stroke-width=".07928" style="paint-order:normal"/>
   <path d="m104.5-29.52c-0.0642 0.178-0.1459 0.3991 0.1041 0.71 0.1435 0.0763 0.2528 0.06141 0.3366-0.02237-0.282-0.2136-0.36-0.4509-0.4404-0.6876z" stroke-width=".01596"/>
   <path d="m152.8-53.76c-0.1667 0.2888-0.5385 0.3865-0.8304 0.218-0.2917-0.1684-0.3933-0.5392-0.2265-0.8281 0.1667-0.2888 0.3976-0.5052 1.067-0.6275 0 0 0.1567 0.9489-0.01 1.238z" stroke-linecap="round" stroke-linejoin="bevel" stroke-width=".07928" style="paint-order:normal"/>
   <path d="m151.8-54.35c-0.0642 0.178-0.1459 0.3991 0.1041 0.71 0.1435 0.0763 0.2529 0.0614 0.3366-0.02237-0.282-0.2136-0.36-0.4509-0.4404-0.6876z" stroke-width=".01596"/>
   <path d="m185.2-88.52c-0.1667 0.2888-0.5385 0.3865-0.8304 0.2179-0.2918-0.1684-0.3933-0.5392-0.2265-0.8281 0.1667-0.2888 0.3976-0.5052 1.067-0.6275 0 0 0.1567 0.9489-0.01 1.238z" stroke-linecap="round" stroke-linejoin="bevel" stroke-width=".07928" style="paint-order:normal"/>
   <path d="m184.2-89.11c-0.0642 0.178-0.1459 0.3991 0.1041 0.71 0.1435 0.0763 0.2528 0.0614 0.3366-0.02238-0.282-0.2136-0.36-0.4509-0.4404-0.6876z" stroke-width=".01596"/>
   <path d="m156.3-12.92c-0.1667 0.2888-0.5385 0.3865-0.8304 0.2179-0.2918-0.1684-0.3933-0.5392-0.2265-0.8281 0.1667-0.2888 0.3976-0.5052 1.067-0.6275 0 0 0.1567 0.9489-0.01 1.238z" stroke-linecap="round" stroke-linejoin="bevel" stroke-width=".07928" style="paint-order:normal"/>
   <path d="m155.4-13.52c-0.0642 0.178-0.1459 0.3991 0.1041 0.71 0.1435 0.0763 0.2528 0.06141 0.3366-0.02237-0.282-0.2136-0.36-0.4509-0.4404-0.6876z" stroke-width=".01596"/>
  </g>
 </g>
 <g class="bottom-right" fill="#ff2a2a">
  <rect x="100" width="100" height="100" style="paint-order:markers stroke fill"/>
  <g stroke="#fff">
   <path d="m106.8 9.045c-0.1667 0.2888-0.5385 0.3865-0.8304 0.2179-0.2918-0.1684-0.3933-0.5392-0.2265-0.8281 0.1667-0.2888 0.3976-0.5052 1.067-0.6275 0 0 0.1567 0.9489-0.01 1.238z" stroke-linecap="round" stroke-linejoin="bevel" stroke-width=".07928" style="paint-order:normal"/>
   <path d="m105.8 8.447c-0.0642 0.178-0.1459 0.3991 0.1041 0.71 0.1435 0.0763 0.2528 0.0614 0.3366-0.02238-0.282-0.2136-0.36-0.4509-0.4404-0.6876z" stroke-width=".01596"/>
   <path d="m107.5 34.57c-0.1667 0.2888-0.5385 0.3865-0.8304 0.218-0.2918-0.1684-0.3933-0.5392-0.2265-0.8281 0.1667-0.2888 0.3976-0.5052 1.067-0.6275 0 0 0.1567 0.9489-0.01 1.238z" stroke-linecap="round" stroke-linejoin="bevel" stroke-width=".07928" style="paint-order:normal"/>
   <path d="m106.5 33.97c-0.0642 0.178-0.1459 0.3991 0.1041 0.71 0.1435 0.0763 0.2528 0.0614 0.3366-0.02237-0.282-0.2136-0.36-0.4509-0.4404-0.6876z" stroke-width=".01596"/>
   <path d="m135.2 32.65c-0.1667 0.2888-0.5385 0.3865-0.8304 0.2179-0.2917-0.1684-0.3933-0.5392-0.2265-0.8281 0.1667-0.2888 0.3976-0.5052 1.067-0.6275 0 0 0.1568 0.9489-0.01 1.238z" stroke-linecap="round" stroke-linejoin="bevel" stroke-width=".07928" style="paint-order:normal"/>
   <path d="m134.3 32.05c-0.0642 0.178-0.1459 0.3991 0.1041 0.71 0.1435 0.0763 0.2528 0.06141 0.3366-0.02238-0.282-0.2136-0.36-0.4509-0.4404-0.6876z" stroke-width=".01596"/>
   <path d="m163.6 21.85c-0.1667 0.2888-0.5385 0.3865-0.8304 0.2179-0.2917-0.1684-0.3933-0.5392-0.2265-0.8281 0.1667-0.2888 0.3976-0.5052 1.067-0.6275 0 0 0.1567 0.9489-0.01 1.238z" stroke-linecap="round" stroke-linejoin="bevel" stroke-width=".07928" style="paint-order:normal"/>
   <path d="m162.6 21.25c-0.0642 0.178-0.1459 0.3991 0.1041 0.71 0.1435 0.0763 0.2529 0.0614 0.3366-0.02238-0.282-0.2136-0.36-0.4509-0.4404-0.6876z" stroke-width=".01596"/>
   <path d="m155.9 5.561c-0.1667 0.2888-0.5385 0.3865-0.8304 0.2179-0.2917-0.1684-0.3933-0.5392-0.2265-0.8281 0.1667-0.2888 0.3976-0.5052 1.067-0.6275 0 0 0.1568 0.9489-0.01 1.238z" stroke-linecap="round" stroke-linejoin="bevel" stroke-width=".07928" style="paint-order:normal"/>
   <path d="m154.9 4.964c-0.0642 0.178-0.1459 0.3991 0.1041 0.71 0.1435 0.0763 0.2528 0.0614 0.3366-0.02238-0.282-0.2136-0.36-0.4509-0.4404-0.6876z" stroke-width=".01596"/>
   <path d="m184.7 36.31c-0.1667 0.2888-0.5385 0.3865-0.8304 0.218-0.2917-0.1684-0.3933-0.5392-0.2265-0.8281 0.1667-0.2888 0.3976-0.5052 1.067-0.6275 0 0 0.1568 0.9489-0.01 1.238z" stroke-linecap="round" stroke-linejoin="bevel" stroke-width=".07928" style="paint-order:normal"/>
   <path d="m183.8 35.71c-0.0642 0.178-0.1459 0.3991 0.1041 0.71 0.1435 0.0763 0.2528 0.0614 0.3366-0.02237-0.282-0.2136-0.36-0.4509-0.4404-0.6876z" stroke-width=".01596"/>
   <path d="m130 61.41c-0.1667 0.2888-0.5385 0.3865-0.8304 0.2179-0.2918-0.1684-0.3933-0.5392-0.2265-0.8281 0.1667-0.2888 0.3976-0.5052 1.067-0.6275 0 0 0.1567 0.9489-0.01 1.238z" stroke-linecap="round" stroke-linejoin="bevel" stroke-width=".07928" style="paint-order:normal"/>
   <path d="m129 60.81c-0.0642 0.178-0.1459 0.3991 0.1041 0.71 0.1435 0.0763 0.2528 0.06141 0.3366-0.02237-0.282-0.2136-0.36-0.4509-0.4404-0.6876z" stroke-width=".01596"/>
   <path d="m161.9 64.78c-0.1667 0.2888-0.5385 0.3865-0.8304 0.2179-0.2917-0.1684-0.3933-0.5392-0.2265-0.8281 0.1667-0.2888 0.3976-0.5052 1.067-0.6275 0 0 0.1568 0.9489-0.01 1.238z" stroke-linecap="round" stroke-linejoin="bevel" stroke-width=".07928" style="paint-order:normal"/>
   <path d="m160.9 64.18c-0.0642 0.178-0.1459 0.3991 0.1041 0.71 0.1435 0.0763 0.2528 0.06141 0.3366-0.02237-0.282-0.2136-0.36-0.4509-0.4404-0.6876z" stroke-width=".01596"/>
   <path d="m126.7 89.54c-0.1667 0.2888-0.5385 0.3865-0.8304 0.2179-0.2918-0.1684-0.3933-0.5392-0.2265-0.8281 0.1667-0.2888 0.3976-0.5052 1.067-0.6275 0 0 0.1567 0.9489-0.01 1.238z" stroke-linecap="round" stroke-linejoin="bevel" stroke-width=".07928" style="paint-order:normal"/>
   <path d="m125.7 88.95c-0.0642 0.178-0.1459 0.3991 0.1041 0.71 0.1435 0.0763 0.2528 0.06141 0.3366-0.02237-0.282-0.2136-0.36-0.4509-0.4404-0.6876z" stroke-width=".01596"/>
   <path d="m196.4 65.04c-0.1667 0.2888-0.5385 0.3865-0.8304 0.2179-0.2917-0.1684-0.3933-0.5392-0.2265-0.8281 0.1667-0.2888 0.3976-0.5052 1.067-0.6275 0 0 0.1567 0.9489-0.01 1.238z" stroke-linecap="round" stroke-linejoin="bevel" stroke-width=".07928" style="paint-order:normal"/>
   <path d="m195.4 64.45c-0.0642 0.178-0.1459 0.3991 0.1041 0.71 0.1435 0.0763 0.2529 0.06141 0.3366-0.02237-0.282-0.2136-0.36-0.4509-0.4404-0.6876z" stroke-width=".01596"/>
   <path d="m195.8 96.14c-0.1667 0.2888-0.5385 0.3865-0.8304 0.2179-0.2917-0.1684-0.3933-0.5392-0.2265-0.8281 0.1667-0.2888 0.3976-0.5052 1.067-0.6275 0 0 0.1567 0.9489-0.01 1.238z" stroke-linecap="round" stroke-linejoin="bevel" stroke-width=".07928" style="paint-order:normal"/>
   <path d="m194.8 95.55c-0.0642 0.178-0.1459 0.3991 0.1041 0.71 0.1435 0.0763 0.2529 0.06141 0.3366-0.02237-0.282-0.2136-0.36-0.4509-0.4404-0.6876z" stroke-width=".01596"/>
   <path d="m105.4 71.08c-0.1667 0.2888-0.5385 0.3865-0.8304 0.2179-0.2917-0.1684-0.3933-0.5392-0.2265-0.8281 0.1667-0.2888 0.3976-0.5052 1.067-0.6275 0 0 0.1567 0.9489-0.01 1.238z" stroke-linecap="round" stroke-linejoin="bevel" stroke-width=".07928" style="paint-order:normal"/>
   <path d="m104.5 70.48c-0.0642 0.178-0.1459 0.3991 0.1041 0.71 0.1435 0.0763 0.2528 0.06141 0.3366-0.02237-0.282-0.2136-0.36-0.4509-0.4404-0.6876z" stroke-width=".01596"/>
   <path d="m152.8 46.24c-0.1667 0.2888-0.5385 0.3865-0.8304 0.218-0.2917-0.1684-0.3933-0.5392-0.2265-0.8281 0.1667-0.2888 0.3976-0.5052 1.067-0.6275 0 0 0.1567 0.9489-0.01 1.238z" stroke-linecap="round" stroke-linejoin="bevel" stroke-width=".07928" style="paint-order:normal"/>
   <path d="m151.8 45.65c-0.0642 0.178-0.1459 0.3991 0.1041 0.71 0.1435 0.0763 0.2529 0.0614 0.3366-0.02237-0.282-0.2136-0.36-0.4509-0.4404-0.6876z" stroke-width=".01596"/>
   <path d="m185.2 11.48c-0.1667 0.2888-0.5385 0.3865-0.8304 0.2179-0.2918-0.1684-0.3933-0.5392-0.2265-0.8281 0.1667-0.2888 0.3976-0.5052 1.067-0.6275 0 0 0.1567 0.9489-0.01 1.238z" stroke-linecap="round" stroke-linejoin="bevel" stroke-width=".07928" style="paint-order:normal"/>
   <path d="m184.2 10.89c-0.0642 0.178-0.1459 0.3991 0.1041 0.71 0.1435 0.0763 0.2528 0.0614 0.3366-0.02238-0.282-0.2136-0.36-0.4509-0.4404-0.6876z" stroke-width=".01596"/>
   <path d="m156.3 87.08c-0.1667 0.2888-0.5385 0.3865-0.8304 0.2179-0.2918-0.1684-0.3933-0.5392-0.2265-0.8281 0.1667-0.2888 0.3976-0.5052 1.067-0.6275 0 0 0.1567 0.9489-0.01 1.238z" stroke-linecap="round" stroke-linejoin="bevel" stroke-width=".07928" style="paint-order:normal"/>
   <path d="m155.4 86.48c-0.0642 0.178-0.1459 0.3991 0.1041 0.71 0.1435 0.0763 0.2528 0.06141 0.3366-0.02237-0.282-0.2136-0.36-0.4509-0.4404-0.6876z" stroke-width=".01596"/>
  </g>
 </g>
 <g class="top-left" fill="#ffd42a">
  <rect y="-100" width="100" height="100" style="paint-order:markers stroke fill"/>
  <g stroke="#fff">
   <path d="m6.755-90.96c-0.1667 0.2888-0.5385 0.3865-0.8304 0.2179-0.2917-0.1684-0.3933-0.5392-0.2265-0.8281 0.1667-0.2888 0.3976-0.5052 1.067-0.6275 0 0 0.1567 0.9489-0.01 1.238z" stroke-linecap="round" stroke-linejoin="bevel" stroke-width=".07928" style="paint-order:normal"/>
   <path d="m5.787-91.55c-0.06422 0.178-0.1459 0.3991 0.1041 0.71 0.1435 0.0763 0.2529 0.0614 0.3366-0.02238-0.282-0.2136-0.36-0.4509-0.4404-0.6876z" stroke-width=".01596"/>
   <path d="m7.452-65.43c-0.1667 0.2888-0.5385 0.3865-0.8304 0.218-0.2917-0.1684-0.3933-0.5392-0.2265-0.8281 0.1667-0.2888 0.3976-0.5052 1.067-0.6275 0 0 0.1567 0.9489-0.01 1.238z" stroke-linecap="round" stroke-linejoin="bevel" stroke-width=".07928" style="paint-order:normal"/>
   <path d="m6.484-66.03c-0.06422 0.178-0.1459 0.3991 0.1041 0.71 0.1435 0.0763 0.2529 0.0614 0.3366-0.02237-0.282-0.2136-0.36-0.4509-0.4404-0.6876z" stroke-width=".01596"/>
   <path d="m35.24-67.35c-0.1667 0.2888-0.5385 0.3865-0.8304 0.2179-0.2917-0.1684-0.3933-0.5392-0.2265-0.8281 0.1667-0.2888 0.3976-0.5052 1.067-0.6275 0 0 0.1567 0.9489-0.01 1.238z" stroke-linecap="round" stroke-linejoin="bevel" stroke-width=".07928" style="paint-order:normal"/>
   <path d="m34.27-67.95c-0.06421 0.178-0.1459 0.3991 0.1041 0.71 0.1435 0.0763 0.2529 0.0614 0.3366-0.02238-0.282-0.2136-0.36-0.4509-0.4404-0.6876z" stroke-width=".01596"/>
   <path d="m63.55-78.15c-0.1667 0.2888-0.5385 0.3865-0.8304 0.2179-0.2917-0.1684-0.3933-0.5392-0.2265-0.8281 0.1667-0.2888 0.3976-0.5052 1.067-0.6275 0 0 0.1567 0.9489-0.01 1.238z" stroke-linecap="round" stroke-linejoin="bevel" stroke-width=".07928" style="paint-order:normal"/>
   <path d="m62.59-78.75c-0.06421 0.178-0.1459 0.3991 0.1041 0.71 0.1435 0.0763 0.2529 0.0614 0.3366-0.02238-0.282-0.2136-0.36-0.4509-0.4404-0.6876z" stroke-width=".01596"/>
   <path d="m55.89-94.44c-0.1667 0.2888-0.5385 0.3865-0.8304 0.2179-0.2917-0.1684-0.3933-0.5392-0.2265-0.8281 0.1667-0.2888 0.3976-0.5052 1.067-0.6275 0 0 0.1567 0.9489-0.01 1.238z" stroke-linecap="round" stroke-linejoin="bevel" stroke-width=".07928" style="paint-order:normal"/>
   <path d="m54.92-95.04c-0.06421 0.178-0.1459 0.3991 0.1041 0.71 0.1435 0.0763 0.2529 0.0614 0.3366-0.02238-0.282-0.2136-0.36-0.4509-0.4404-0.6876z" stroke-width=".01596"/>
   <path d="m84.72-63.69c-0.1667 0.2888-0.5385 0.3865-0.8304 0.218-0.2917-0.1684-0.3933-0.5392-0.2265-0.8281 0.1667-0.2888 0.3976-0.5052 1.067-0.6275 0 0 0.1567 0.9489-0.01 1.238z" stroke-linecap="round" stroke-linejoin="bevel" stroke-width=".07928" style="paint-order:normal"/>
   <path d="m83.75-64.29c-0.06421 0.178-0.1459 0.3991 0.1041 0.71 0.1435 0.0763 0.2529 0.0614 0.3366-0.02237-0.282-0.2136-0.36-0.4509-0.4404-0.6876z" stroke-width=".01596"/>
   <path d="m30.01-38.59c-0.1667 0.2888-0.5385 0.3865-0.8304 0.2179-0.2917-0.1684-0.3933-0.5392-0.2265-0.8281 0.1667-0.2888 0.3976-0.5052 1.067-0.6275 0 0 0.1567 0.9489-0.01 1.238z" stroke-linecap="round" stroke-linejoin="bevel" stroke-width=".07928" style="paint-order:normal"/>
   <path d="m29.04-39.19c-0.06422 0.178-0.1459 0.3991 0.1041 0.71 0.1435 0.0763 0.2529 0.06141 0.3366-0.02237-0.282-0.2136-0.36-0.4509-0.4404-0.6876z" stroke-width=".01596"/>
   <path d="m61.89-35.22c-0.1667 0.2888-0.5385 0.3865-0.8304 0.2179-0.2917-0.1684-0.3933-0.5392-0.2265-0.8281 0.1667-0.2888 0.3976-0.5052 1.067-0.6275 0 0 0.1567 0.9489-0.01 1.238z" stroke-linecap="round" stroke-linejoin="bevel" stroke-width=".07928" style="paint-order:normal"/>
   <path d="m60.92-35.82c-0.06421 0.178-0.1459 0.3991 0.1041 0.71 0.1435 0.0763 0.2529 0.06141 0.3366-0.02237-0.282-0.2136-0.36-0.4509-0.4404-0.6876z" stroke-width=".01596"/>
   <path d="m26.7-10.46c-0.1667 0.2888-0.5385 0.3865-0.8304 0.2179-0.2917-0.1684-0.3933-0.5392-0.2265-0.8281 0.1667-0.2888 0.3976-0.5052 1.067-0.6275 0 0 0.1567 0.9489-0.01 1.238z" stroke-linecap="round" stroke-linejoin="bevel" stroke-width=".07928" style="paint-order:normal"/>
   <path d="m25.73-11.05c-0.06421 0.178-0.1459 0.3991 0.1041 0.71 0.1435 0.0763 0.2529 0.06141 0.3366-0.02237-0.282-0.2136-0.36-0.4509-0.4404-0.6876z" stroke-width=".01596"/>
   <path d="m96.39-34.96c-0.1667 0.2888-0.5385 0.3865-0.8304 0.2179-0.2917-0.1684-0.3933-0.5392-0.2265-0.8281 0.1667-0.2888 0.3976-0.5052 1.067-0.6275 0 0 0.1567 0.9489-0.01 1.238z" stroke-linecap="round" stroke-linejoin="bevel" stroke-width=".07928" style="paint-order:normal"/>
   <path d="m95.42-35.55c-0.06421 0.178-0.1459 0.3991 0.1041 0.71 0.1435 0.0763 0.2529 0.06141 0.3366-0.02237-0.282-0.2136-0.36-0.4509-0.4404-0.6876z" stroke-width=".01596"/>
   <path d="m95.79-3.855c-0.1667 0.2888-0.5385 0.3865-0.8304 0.2179-0.2917-0.1684-0.3933-0.5392-0.2265-0.8281 0.1667-0.2888 0.3976-0.5052 1.067-0.6275 0 0 0.1567 0.9489-0.01 1.238z" stroke-linecap="round" stroke-linejoin="bevel" stroke-width=".07928" style="paint-order:normal"/>
   <path d="m94.82-4.453c-0.06421 0.178-0.1459 0.3991 0.1041 0.71 0.1435 0.0763 0.2529 0.06141 0.3366-0.02237-0.282-0.2136-0.36-0.4509-0.4404-0.6876z" stroke-width=".01596"/>
   <path d="m5.448-28.92c-0.1667 0.2888-0.5385 0.3865-0.8304 0.2179-0.2917-0.1684-0.3933-0.5392-0.2265-0.8281 0.1667-0.2888 0.3976-0.5052 1.067-0.6275 0 0 0.1567 0.9489-0.01 1.238z" stroke-linecap="round" stroke-linejoin="bevel" stroke-width=".07928" style="paint-order:normal"/>
   <path d="m4.48-29.52c-0.06422 0.178-0.1459 0.3991 0.1041 0.71 0.1435 0.0763 0.2529 0.06141 0.3366-0.02237-0.282-0.2136-0.36-0.4509-0.4404-0.6876z" stroke-width=".01596"/>
   <path d="m52.75-53.76c-0.1667 0.2888-0.5385 0.3865-0.8304 0.218-0.2917-0.1684-0.3933-0.5392-0.2265-0.8281 0.1667-0.2888 0.3976-0.5052 1.067-0.6275 0 0 0.1567 0.9489-0.01 1.238z" stroke-linecap="round" stroke-linejoin="bevel" stroke-width=".07928" style="paint-order:normal"/>
   <path d="m51.79-54.35c-0.06421 0.178-0.1459 0.3991 0.1041 0.71 0.1435 0.0763 0.2529 0.0614 0.3366-0.02237-0.282-0.2136-0.36-0.4509-0.4404-0.6876z" stroke-width=".01596"/>
   <path d="m85.15-88.52c-0.1667 0.2888-0.5385 0.3865-0.8304 0.2179-0.2917-0.1684-0.3933-0.5392-0.2265-0.8281 0.1667-0.2888 0.3976-0.5052 1.067-0.6275 0 0 0.1567 0.9489-0.01 1.238z" stroke-linecap="round" stroke-linejoin="bevel" stroke-width=".07928" style="paint-order:normal"/>
   <path d="m84.19-89.11c-0.06421 0.178-0.1459 0.3991 0.1041 0.71 0.1435 0.0763 0.2529 0.0614 0.3366-0.02238-0.282-0.2136-0.36-0.4509-0.4404-0.6876z" stroke-width=".01596"/>
   <path d="m56.32-12.92c-0.1667 0.2888-0.5385 0.3865-0.8304 0.2179-0.2917-0.1684-0.3933-0.5392-0.2265-0.8281 0.1667-0.2888 0.3976-0.5052 1.067-0.6275 0 0 0.1567 0.9489-0.01 1.238z" stroke-linecap="round" stroke-linejoin="bevel" stroke-width=".07928" style="paint-order:normal"/>
   <path d="m55.35-13.52c-0.06421 0.178-0.1459 0.3991 0.1041 0.71 0.1435 0.0763 0.2529 0.06141 0.3366-0.02237-0.282-0.2136-0.36-0.4509-0.4404-0.6876z" stroke-width=".01596"/>
  </g>
 </g>
</svg>
