<svg id="smartsprout-logo" version="1.1" viewBox="0 0 200 35" xmlns="http://www.w3.org/2000/svg">
 <g>
  <g id="smart-logo" fill="#394079">
   <path d="m159.1 8.442c-0.5001-0.3507-1-0.7014-1.5-1.052-1.154 1.184-3.064 0.9155-4.479 0.4102-1.779-0.7098-2.813-2.497-3.703-4.091-0.7158-0.98-0.913-3.045 0.8769-2.605 2.153 0.1558 4.491 0.6369 5.998 2.315 0.8734 0.921 2.011 2.164 1.57 3.537 0.7681 0.5231 1.519 1.095 2.298 1.588 4.243 0.8201 7.642 4.677 7.919 8.992 0.4256 4.355-2.381 8.76-6.515 10.2-4.034 1.56-8.956 0.102-11.49-3.4-1.1-1.468-1.78-3.245-1.947-5.072-1.653-0.9611-1.561-3.378-0.6115-4.819 0.6472-1.208 2.514-1.87 3.459-0.6189 1.214 1.626 0.6362 4.232-1.049 5.307 0.288 3.797 3.55 7.057 7.335 7.376 3.677 0.4392 7.431-1.947 8.593-5.461 0.4957-1.372 0.4921-2.855 0.5095-4.293-0.2496-1.482-0.6919-2.957-1.643-4.147-0.6447-1.145-1.854-1.768-2.845-2.567-0.957-0.4368-1.832-1.124-2.907-1.2-0.7204-0.04608-2.029-0.3374-1.684 0.7682-0.4714 2.073-2.98 2.988-4.851 2.299-1.176-0.4153-2.58-0.9744-3.055-2.23 0.4305-0.6423 2.148-0.1629 3.079-0.3536 1.401 0.05848 2.797-0.1273 4.104-0.6496 0.8223-0.2436 1.687-0.3446 2.54-0.2366z"/>
   <path d="m-3.758e-8 21.9c1.613-0.2459 3.225-0.4918 4.838-0.7377 0.2317 1.372 1.313 2.584 2.727 2.764 1.382 0.1852 2.984 0.1983 4.13-0.7102 0.7677-0.6487 0.6331-2.156-0.4404-2.401-1.704-0.5381-3.485-0.8065-5.191-1.351-1.715-0.5182-3.614-1.094-4.633-2.693-1.333-2.046-0.8856-5.024 0.9929-6.591 1.82-1.602 4.396-1.764 6.709-1.7 2.108 0.07441 4.443 0.4848 5.88 2.179 0.6642 0.7495 1.114 1.669 1.388 2.628-1.516 0.2802-3.031 0.5605-4.547 0.8407-0.2765-1.25-1.468-2.111-2.72-2.161-1.195-0.05404-2.538-0.1102-3.568 0.5943-0.8123 0.5996-0.3302 1.853 0.5855 2.02 3.011 1.139 6.44 1.206 9.157 3.078 1.855 1.353 2.134 4.101 1.186 6.072-1 2.064-3.178 3.304-5.397 3.603-2.525 0.3439-5.232 0.2643-7.55-0.8989-1.764-0.9158-3.082-2.604-3.549-4.535z"/>
   <path d="m19.76 8.882h4.444v2.488c1.971-2.708 6.094-3.871 9.003-1.996 0.8565 0.2852 1.461 1.844 1.974 1.801 2.041-2.639 6.129-3.643 8.989-1.757 1.516 0.9574 2.352 2.725 2.313 4.496 0.1702 3.252 0.0416 6.511 0.07615 9.767v3.421h-4.821c-0.05116-4.275 0.1165-8.557-0.1132-12.83-0.1586-1.443-1.647-2.464-3.043-2.065-1.694 0.3214-2.84 1.994-2.836 3.669-0.3042 2.948-0.09329 5.915-0.1498 8.873v2.351h-4.821c-0.06801-4.375 0.1557-8.762-0.1544-13.13-0.2763-1.491-1.975-2.192-3.322-1.702-1.44 0.3868-2.528 1.763-2.545 3.258-0.3403 3.027-0.112 6.078-0.1722 9.117v2.454h-4.821c5e-6 -6.073-8e-6 -12.15 7e-6 -18.22z"/>
   <path d="m54.18 14.44c-1.458-0.2631-2.917-0.5261-4.375-0.7892 0.5174-2.042 1.904-3.99 3.984-4.635 2.21-0.7031 4.596-0.6465 6.87-0.3289 1.891 0.2934 3.947 1.413 4.399 3.415 0.4851 2.222 0.251 4.508 0.2772 6.763 0.01285 2.127-0.1755 4.295 0.3472 6.377 0.04217 0.5922 0.7895 1.549 0.5766 1.859h-4.616c-0.303-0.5438-0.3764-1.647-0.7122-1.916-1.706 1.704-4.179 2.597-6.581 2.274-2.141-0.1558-4.22-1.582-4.816-3.697-0.6608-2.163 0.08523-4.794 2.095-5.976 2.489-1.389 5.435-1.399 8.104-2.259 0.6843-0.08036 1.09-0.4232 0.8869-1.131 0.0023-0.9186-0.5493-1.877-1.509-2.049-1.26-0.248-2.747-0.4014-3.853 0.3899-0.5394 0.4255-0.851 1.069-1.078 1.702zm6.451 3.912c-1.761 0.6108-3.671 0.7177-5.383 1.475-1.078 0.5174-1.433 1.959-0.8249 2.96 0.6827 1.289 2.373 1.608 3.655 1.115 1.303-0.4218 2.467-1.557 2.492-2.993 0.07845-0.8501 0.05605-1.705 0.0597-2.557z"/>
   <path d="m92.48 8.882v3.843h-3.294v7.343q0 2.23 0.08581 2.608 0.1029 0.3603 0.4289 0.6005 0.3431 0.2402 0.8235 0.2402 0.6691 0 1.939-0.4632l0.4118 3.74q-1.681 0.7206-3.809 0.7206-1.304 0-2.35-0.4289-1.047-0.4461-1.544-1.132-0.4804-0.7034-0.6691-1.887-0.1543-0.8407-0.1543-3.397v-7.944h-2.213v-3.843h2.213v-3.62l4.838-2.814v6.434z"/>
   <path d="m73.98 27.1h-4.821v-18.22h4.478v2.591c0.793-1.243 1.742-2.652 3.311-2.92 1.381-0.2553 2.824 0.1122 4.015 0.8273-0.4975 1.401-0.9951 2.802-1.493 4.203-1.105-0.7814-2.724-1.152-3.891-0.2916-1.114 0.899-1.344 2.445-1.46 3.787-0.223 3.122-0.112 6.254-0.1391 9.381v0.6426z"/>
  </g>
  <g id="logo-sprout" fill="#161B3D">
   <path d="m94.13 21.9c1.613-0.2459 3.225-0.4918 4.838-0.7377 0.2317 1.372 1.313 2.584 2.727 2.764 1.382 0.1852 2.984 0.1983 4.13-0.7102 0.7677-0.6487 0.6331-2.156-0.4404-2.401-1.704-0.5381-3.485-0.8065-5.191-1.351-1.715-0.5182-3.614-1.094-4.633-2.693-1.333-2.046-0.8856-5.024 0.9929-6.591 1.82-1.602 4.396-1.764 6.709-1.7 2.108 0.07441 4.443 0.4848 5.88 2.179 0.6642 0.7495 1.114 1.669 1.388 2.628-1.516 0.2802-3.031 0.5605-4.547 0.8407-0.2765-1.25-1.468-2.111-2.72-2.161-1.195-0.05404-2.538-0.1102-3.568 0.5943-0.8123 0.5996-0.3302 1.853 0.5855 2.02 3.011 1.139 6.44 1.206 9.157 3.078 1.855 1.353 2.134 4.101 1.186 6.072-1 2.064-3.178 3.304-5.397 3.603-2.525 0.3439-5.232 0.2643-7.55-0.8989-1.764-0.9158-3.082-2.604-3.549-4.535z"/>
   <path d="m114 8.882h4.495v2.676c1.507-2.433 4.635-3.611 7.388-2.891 3.144 0.7499 5.324 3.762 5.716 6.877 0.4127 3.037 0.1887 6.392-1.657 8.954-1.497 2.104-4.142 3.347-6.72 2.957-1.769-0.1835-3.243-1.326-4.402-2.601v9.179h-4.821v-25.15zm4.77 8.801c-0.0153 1.984 0.3867 4.292 2.207 5.435 1.691 1.145 4.246 0.5071 5.155-1.337 0.8652-1.785 0.8484-3.875 0.5746-5.799-0.2516-1.832-1.667-3.641-3.626-3.698-2.034-0.1891-3.793 1.509-4.118 3.442-0.1416 0.6417-0.1921 1.3-0.1926 1.957z"/>
   <path d="m139.2 27.1h-4.821v-18.22h4.478v2.591c0.793-1.243 1.742-2.652 3.311-2.92 1.381-0.2553 2.824 0.1122 4.015 0.8273-0.4975 1.401-0.9951 2.802-1.493 4.203-1.105-0.7814-2.724-1.152-3.891-0.2916-1.114 0.8991-1.344 2.445-1.46 3.787-0.223 3.122-0.112 6.254-0.1392 9.381v0.6426z"/>
   <path d="m182.4 27.1v-2.728c-1.997 2.993-6.399 4.088-9.512 2.23-1.541-0.8577-2.318-2.592-2.476-4.286-0.1884-1.943-0.0775-3.898-0.1076-5.847v-7.589h4.821c0.0164 3.668-0.0393 7.338 0.0425 11.01 0.0555 1.157 0.0247 2.528 1.024 3.324 1.298 1.026 3.312 0.7477 4.512-0.3057 0.9168-0.7133 1.212-1.891 1.252-2.999 0.1748-2.904 0.0752-5.816 0.1016-8.724v-2.3h4.821v18.22h-4.478z"/>
   <path d="m199.6 8.882v3.843h-3.294v7.343q0 2.23 0.0858 2.608 0.1029 0.3603 0.4289 0.6005 0.3431 0.2402 0.8235 0.2402 0.6691 0 1.939-0.4632l0.4118 3.74q-1.681 0.7206-3.809 0.7206-1.304 0-2.35-0.4289-1.047-0.4461-1.544-1.132-0.4804-0.7034-0.6691-1.887-0.1543-0.8407-0.1543-3.397v-7.944h-2.213v-3.843h2.213v-3.62l4.838-2.814v6.434z"/>
  </g>
 </g>
</svg>
