<svg version="1.1" viewBox="0 0 200 40" xmlns="http://www.w3.org/2000/svg">
<symbol id="smartsprout-logo">
 <path class="ss-logo" d="m0.7736 0-0.7736 0.7571v38.49l0.7736 0.7571h198.5l0.7736-0.7571v-38.49l-0.7736-0.7571h-92.54zm106.4 1.514h91.32v36.97h-113.5l5.361-8.926c-2.165-0.0271-3.683-0.4307-4.524-1.233-0.8703-0.8412-1.305-2.367-1.305-4.575v-9.588h-2.176v-2.257h2.176v-5.016h2.983v5.016h6.107v2.257h-6.107v9.588c0 1.441 0.1978 2.367 0.5953 2.777 0.4083 0.4101 1.23 0.6152 2.466 0.6152h1.236l4.575-7.618c0.1057 0.134 0.2047 0.2729 0.3294 0.3934 0.8166 0.7781 2.143 1.357 3.98 1.736l1.03 0.2366c1.837 0.3891 3.026 0.7949 3.563 1.216 0.548 0.4206 0.822 1.024 0.822 1.813 0 0.8518-0.375 1.514-1.127 1.987-0.7521 0.4627-1.828 0.695-3.224 0.695-1.042 0-2.094-0.1376-3.158-0.4111-1.064-0.2839-2.144-0.7055-3.24-1.263v2.999c1.16 0.368 2.261 0.6404 3.303 0.8192 1.053 0.1893 2.064 0.2839 3.031 0.2839 2.321 0 4.142-0.4775 5.464-1.434 1.332-0.9569 1.997-2.258 1.997-3.898 0-1.441-0.4469-2.561-1.339-3.36-0.8811-0.8097-2.373-1.433-4.478-1.875l-1.015-0.2218c-1.59-0.347-2.65-0.7098-3.176-1.088-0.5265-0.3891-0.7887-0.9211-0.7887-1.594 0-0.1367 0.02475-0.2583 0.04224-0.3845l0.8824-1.47c0.05911-0.0427 0.1043-0.0939 0.1692-0.1331 0.7414-0.4416 1.849-0.6625 3.321-0.6625 0.967 0 1.902 0.1062 2.804 0.3164 0.9025 0.2103 1.773 0.5258 2.611 0.9464v-2.745c-0.8166-0.3154-1.707-0.552-2.674-0.7098s-1.998-0.2366-3.094-0.2366c-0.439 0-0.8427 0.0324-1.242 0.068zm35.57 4.433c-0.451 0.0121-0.7738 0.0886-0.8703 0.2396-0.6858 1.073 1.671 4.595 3.034 5.53 1.328 0.9106 4.097 1.277 5.125 0.0651l1.423 0.976v3e-3c-0.2082-0.0209-0.6738-0.0444-0.695-0.0444-0.04 0-0.2615 8e-3 -0.3324 0.0121-0.3251 0.0232-0.6462 0.0739-0.964 0.1449-0.2803 0.0622-0.5598 0.143-0.831 0.2366-0.095 0.0333-0.1871 0.0668-0.281 0.1036-0.6126 0.1499-1.302 0.3519-1.816 0.3519-1.252 0-4.333 0.081-4.333 0.0947 0 1.341 2.845 2.526 4.098 2.526 1.252 0 3.007-0.4972 3.478-2.526 0.0533-0.2305-0.1403-0.3808-0.0635-0.4732 0.0763-0.0934 0.6683-0.096 0.7404-0.1006 0.4328-0.0301 1.407 0.1146 1.463 0.1301 0.1004 0.0285 0.3179 0.1046 0.3505 0.1182 0.0364 0.0196 0.0732 0.0414 0.1119 0.0621l0.0545 0.0354 3e-3 -6e-3c0.4516 0.2394 1.005 0.505 1.13 0.5501 0.612 0.2168 1.606 1.114 2.143 1.473 0.7391 0.4935 0.9789 1.107 1.505 1.816 0.6193 0.8342 0.856 1.996 1.088 3.002 0.1295 0.5658-9e-3 1.144-0.0124 1.724-3e-3 0.5984-0.0777 1.196-0.2236 1.777-0.187 0.7483-0.4919 1.468-0.9005 2.126-0.4698 0.7577-1.075 1.438-1.78 1.993-0.787 0.6203-1.7 1.083-2.668 1.363-0.9728 0.2812-2 0.3775-3.01 0.278-0.948-0.0942-1.876-0.3613-2.726-0.7837-0.8094-0.4023-1.546-0.9436-2.167-1.591-0.491-0.5125-0.9079-1.09-1.236-1.715-0.3148-0.5996-0.5486-1.239-0.692-1.899-0.0612-0.282-0.1075-0.5674-0.136-0.8547 0.6762-0.391 1.249-1.161 1.49-2.126 0.3971-1.588-0.2435-3.108-1.429-3.392-1.185-0.2838-2.471 0.7753-2.868 2.363-0.3584 1.435 0.1301 2.815 1.103 3.277 0.0237 0.2524 0.0574 0.5041 0.1027 0.7541 0.178 0.993 0.522 1.956 1.015 2.842 0.4298 0.7726 0.9756 1.483 1.611 2.106 0.7809 0.7654 1.699 1.398 2.699 1.857 1.068 0.49 2.226 0.7801 3.403 0.8547 1.252 0.0793 2.521-0.0845 3.708-0.4821 1.096-0.3667 2.121-0.9317 3.01-1.659 0.8469-0.6938 1.569-1.532 2.124-2.467 0.4528-0.7625 0.792-1.589 1.006-2.446 0.2137-0.8537 0.3046-1.736 0.2659-2.614-0.0418-0.9479-0.2321-1.888-0.5621-2.78-0.3414-0.9224-0.8342-1.792-1.454-2.564-0.6683-0.833-1.482-1.551-2.396-2.118-0.6677-0.4135-1.388-0.7455-2.14-0.9848-0.1992-0.0628-0.4016-0.1211-0.6044-0.1715-0.0604-0.0152-0.1208-0.0277-0.1813-0.0415-0.0139-3e-3 -0.1069-0.0237-0.1208-0.0267-0.0256-6e-3 -0.0502-0.0106-0.0755-0.0152l-0.0333-3e-3 -2.146-1.47c0.5963-1.385-1.387-3.375-2.653-4.244-1.022-0.7016-3.531-1.225-4.883-1.189zm38.63 0.9434v5.016h-2.176v2.257h2.176v9.588c0 2.208 0.4352 3.734 1.305 4.575 0.8703 0.8308 2.45 1.245 4.738 1.245h3.046v-2.428h-3.046c-1.236 0-2.058-0.2051-2.466-0.6152-0.3976-0.4101-0.5983-1.336-0.5983-2.777v-9.588h6.11v-2.257h-6.11v-5.016zm-166.9 4.59c1.096 0 2.127 0.0789 3.094 0.2366 0.967 0.1577 1.858 0.3943 2.674 0.7098v2.745c-0.8381-0.4206-1.708-0.7361-2.611-0.9464-0.9026-0.2103-1.837-0.3164-2.804-0.3164-1.472 0-2.58 0.2208-3.321 0.6625-0.7306 0.4416-1.094 1.104-1.094 1.987 0 0.673 0.2622 1.205 0.7887 1.594 0.5265 0.3786 1.586 0.7413 3.176 1.088l1.015 0.2218c2.106 0.4416 3.597 1.065 4.478 1.875 0.8918 0.7992 1.339 1.919 1.339 3.36 0 1.64-0.6652 2.941-1.997 3.898-1.322 0.9569-3.143 1.434-5.464 1.434-0.967 0-1.978-0.0947-3.031-0.2839-1.042-0.1788-2.143-0.4512-3.303-0.8192v-2.999c1.096 0.5573 2.176 0.9789 3.24 1.263 1.064 0.2734 2.116 0.4111 3.158 0.4111 1.397 0 2.472-0.2323 3.224-0.695 0.7521-0.4732 1.127-1.136 1.127-1.987 0-0.7887-0.274-1.392-0.822-1.813-0.5372-0.4206-1.726-0.8265-3.563-1.216l-1.03-0.2366c-1.837-0.3786-3.163-0.9579-3.98-1.736-0.8166-0.7887-1.227-1.866-1.227-3.233 0-1.661 0.6037-2.943 1.807-3.848 1.203-0.9043 2.912-1.358 5.125-1.358zm18.33 0c1.311 0 2.423 0.327 3.336 0.9789 0.924 0.652 1.605 1.598 2.046 2.839 0.7414-1.304 1.628-2.266 2.659-2.886 1.031-0.6204 2.248-0.9316 3.644-0.9316 1.88 0 3.331 0.6467 4.352 1.94 1.021 1.283 1.529 3.113 1.529 5.489v10.66h-2.98v-10.57c0-1.693-0.3062-2.951-0.9187-3.771-0.6124-0.8202-1.547-1.23-2.804-1.23-1.536 0-2.753 0.5005-3.644 1.499-0.8918 0.999-1.336 2.36-1.336 4.084v9.984h-2.983v-10.57c0-1.704-0.3062-2.961-0.9187-3.771-0.6124-0.8202-1.559-1.23-2.838-1.23-1.515 0-2.716 0.5047-3.608 1.514-0.8918 0.999-1.339 2.355-1.339 4.07v9.984h-2.983v-17.67h2.983v2.745c0.6769-1.083 1.487-1.883 2.433-2.399 0.9455-0.5152 2.069-0.7719 3.369-0.7719zm26.84 0c2.611 0 4.561 0.6625 5.85 1.987 1.289 1.325 1.934 3.332 1.934 6.024v10.08h-2.965v-2.679c-0.6769 1.073-1.522 1.866-2.532 2.381-1.01 0.5047-2.244 0.7571-3.705 0.7571-1.848 0-3.322-0.5047-4.418-1.514-1.085-1.02-1.626-2.381-1.626-4.084 0-1.987 0.6769-3.486 2.031-4.495 1.365-1.009 3.395-1.514 6.092-1.514h4.158v-0.2839c0-1.335-0.4513-2.368-1.354-3.094-0.8918-0.7361-2.149-1.103-3.771-1.103-1.031 0-2.038 0.1219-3.016 0.3638-0.9778 0.2418-1.917 0.6046-2.819 1.088v-2.682c1.085-0.4101 2.137-0.7141 3.158-0.9138 1.021-0.2103 2.016-0.3165 2.983-0.3165zm19 0c0.2041 0 0.4298 0.0159 0.6769 0.0472 0.2471 0.021 0.5211 0.0568 0.822 0.1095l0.0181 2.981c-0.3331-0.1893-0.6994-0.324-1.097-0.4081-0.3868-0.0947-0.8176-0.1419-1.29-0.1419-1.676 0-2.966 0.5363-3.868 1.609-0.8918 1.062-1.336 2.592-1.336 4.59v9.304h-2.983v-17.67h2.983v2.745c0.6232-1.073 1.433-1.866 2.433-2.381 0.9993-0.5258 2.212-0.7897 3.641-0.7897zm40.83 0c-1.322 0-2.462 0.2567-3.418 0.7719-0.9455 0.5048-1.731 1.285-2.354 2.336v-2.682h-2.98v24.38h2.98v-9.369c0.6232 1.052 1.409 1.836 2.354 2.351 0.9562 0.5047 2.096 0.7571 3.418 0.7571 2.192 0 3.969-0.8518 5.334-2.555 1.375-1.704 2.064-3.943 2.064-6.719s-0.6887-5.016-2.064-6.719c-1.365-1.704-3.142-2.555-5.334-2.555zm18.26 0c-1.429 0-2.642 0.2639-3.641 0.7897-0.9992 0.5153-1.809 1.308-2.433 2.381v-2.745h-2.983v17.67h2.983v-9.304c0-1.998 0.4439-3.528 1.336-4.59 0.9025-1.073 2.192-1.609 3.868-1.609 0.4728 0 0.9036 0.0474 1.29 0.1419 0.3975 0.0842 0.7639 0.2188 1.097 0.4081l-0.0181-2.981c-0.3008-0.0525-0.5748-0.0884-0.822-0.1095-0.2471-0.0315-0.4728-0.0472-0.6769-0.0472zm24.25 0.4259v10.69c0 2.429 0.5362 4.275 1.611 5.536 1.074 1.262 2.65 1.893 4.723 1.893 1.257 0 2.357-0.2566 3.303-0.7719 0.9563-0.5258 1.794-1.326 2.514-2.399v2.712h2.965v-17.67h-2.965v10.02c0 1.725-0.4674 3.085-1.402 4.084-0.924 0.999-2.186 1.499-3.786 1.499-1.332 0-2.332-0.4173-2.998-1.248-0.6662-0.8412-1-2.096-1-3.768v-10.58zm-43.24 2.002c1.569 0 2.798 0.6109 3.69 1.831 0.9025 1.209 1.354 2.881 1.354 5.016 0 2.135-0.4513 3.811-1.354 5.031-0.8918 1.209-2.121 1.816-3.69 1.816-1.569 0-2.805-0.6066-3.708-1.816-0.8918-1.22-1.339-2.896-1.339-5.031 0-2.135 0.4469-3.807 1.339-5.016 0.9025-1.22 2.139-1.831 3.708-1.831zm-57.24 6.784c-2.396 0-4.056 0.2681-4.98 0.8044-0.924 0.5363-1.387 1.451-1.387 2.745 0 1.031 0.3428 1.851 1.03 2.461 0.6984 0.5994 1.645 0.8991 2.838 0.8991 1.644 0 2.961-0.5678 3.95-1.704 0.9993-1.146 1.499-2.668 1.499-4.56v-0.6447z"/>
</symbol>
</svg>
