<svg version="1.1" viewBox="0 0 200 40" xmlns="http://www.w3.org/2000/svg" id="smartsprout-logo">
 <g id="smart-logo" fill="#808080">
  <path d="m9.599 11.2q-1.502 0-2.503 0.8581-1.001 0.8223-1.001 2.181 0 1.001 1.037 1.966 1.073 0.9653 3.003 1.645 4.898 1.68 4.898 5.399 0 2.503-1.895 3.933-1.859 1.394-4.719 1.394-2.646 0-5.148-1.466l0.7866-1.716q2.574 1.394 4.541 1.394 4.29 0 4.29-3.396 0-1.251-1.037-2.252-1.001-1.037-3.003-1.645-4.898-1.502-4.898-4.97 0-2.324 1.716-3.718 1.752-1.394 4.326-1.394 2.824 0 4.505 1.251l-0.8581 1.823q-1.609-1.287-4.04-1.287z"/>
  <path d="m39.91 9.416q3.182 0 4.827 2.395 1.645 2.395 1.645 6.114v10.15h-2.145v-10.12q0-3.003-1.216-4.862-1.18-1.895-3.683-1.895-2.038 0-3.647 1.609-1.609 1.609-1.609 3.647v11.62h-2.145v-11.08q0-5.792-4.612-5.792-2.109 0-3.825 1.823-1.716 1.823-1.716 3.969v11.08h-2.145v-13.76q0-1.609-0.3575-4.505h1.966q0.3575 1.108 0.429 3.253 2.074-3.647 6.149-3.647 3.718 0 5.542 4.076 2.145-4.076 6.543-4.076z"/>
  <path d="m56.4 28.58q-2.431 0-4.147-1.394-1.68-1.43-1.68-3.682 0-6.829 12.16-6.829 0-2.61-1.251-4.04t-3.682-1.43q-1.966 0-5.828 1.216l-0.2503-2.038q3.003-0.9653 6.221-0.9653 6.936 0 6.936 7.651v6.543q0 2.252 0.6435 4.469l-1.859 0.3933-0.7508-2.967q-2.467 3.075-6.507 3.075zm-3.683-5.434q0 1.68 1.037 2.681 1.037 0.9653 2.717 0.9653 2.145 0 4.183-1.323 2.074-1.359 2.074-3.289v-3.718q-10.01 0-10.01 4.684z"/>
  <path d="m78.88 11.27q-0.2145-0.0716-0.6435-0.0716-2.36 0-4.004 1.931-1.609 1.895-1.609 5.113v9.832h-2.145v-12.3q0-4.04-0.5363-5.971h1.823q0.572 1.144 0.572 3.647 1.716-4.04 5.506-4.04 0.5005 0 1.037 0.1073z"/>
  <path d="m88 28.58q-2.217 0-3.468-1.645-1.216-1.68-1.216-4.219v-11.3h-3.647v-1.609h3.647v-5.434l2.145-0.9653v6.4h5.828v1.609h-5.828v11.3q0 4.076 2.717 4.076 1.68 0 2.467-0.3218l0.2145 1.609q-1.108 0.5005-2.86 0.5005z"/>
 </g>
 <g id="sprout-logo" fill="#003380">
  <path d="m100 11.2q-1.502 0-2.503 0.8581-1.001 0.8223-1.001 2.181 0 1.001 1.037 1.966 1.073 0.9653 3.003 1.645 4.898 1.68 4.898 5.399 0 2.503-1.895 3.933-1.859 1.394-4.719 1.394-2.646 0-5.148-1.466l0.7865-1.716q2.574 1.394 4.541 1.394 4.29 0 4.29-3.396 0-1.251-1.037-2.252-1.001-1.037-3.003-1.645-4.898-1.502-4.898-4.97 0-2.324 1.716-3.718 1.752-1.394 4.326-1.394 2.824 0 4.505 1.251l-0.8581 1.823q-1.609-1.287-4.04-1.287z"/>
  <path d="m118.8 9.416q3.969 0 6.257 2.789 2.288 2.753 2.288 7.043 0 4.04-2.252 6.686-2.217 2.646-5.971 2.646-4.541 0-6.9-3.897v12.37h-2.145v-22.7q0-3.361-0.143-4.541h1.966q0.1072 1.394 0.1072 3.325 2.538-3.718 6.793-3.718zm-0.286 1.788q-2.646 0-4.469 1.716-1.823 1.716-1.823 4.29v3.075q0 2.717 1.895 4.612 1.895 1.895 4.612 1.895 3.11 0 4.791-2.074 1.68-2.074 1.68-5.506 0-3.718-1.68-5.863-1.645-2.145-5.005-2.145z"/>
  <path d="m140 11.27q-0.2145-0.0716-0.6435-0.0716-2.36 0-4.004 1.931-1.609 1.895-1.609 5.113v9.832h-2.145v-12.3q0-4.04-0.5363-5.971h1.823q0.572 1.144 0.572 3.647 1.716-4.04 5.506-4.04 0.5005 0 1.037 0.1073z"/>
  <path d="m182.9 28.01-2.002 0.4648q-0.6435-1.823-0.8581-3.575-2.395 3.682-6.864 3.682-6.578 0-6.578-8.509v-10.26h2.145v9.868q0 7.115 4.898 7.115 2.538 0 4.362-1.716 1.823-1.752 1.823-4.219v-11.05h2.145v13.8q0 1.931 0.9296 4.398z"/>
  <path d="m193.4 28.58q-2.217 0-3.468-1.645-1.216-1.68-1.216-4.219v-11.3h-3.647v-1.609h3.647v-5.434l2.145-0.9653v6.4h5.828v1.609h-5.828v11.3q0 4.076 2.717 4.076 1.68 0 2.467-0.3218l0.2145 1.609q-1.108 0.5005-2.86 0.5005z"/>
  <path d="m154.7 9.861-1.456-1.021c-1.052 1.268-3.888 0.882-5.247-0.0707-1.396-0.9786-3.807-4.663-3.105-5.786 0.3954-0.6316 4.495 0.0174 5.89 0.996 1.297 0.9092 3.328 2.99 2.717 4.438l2.195 1.538 0.0359 3e-3c0.026 4e-3 0.0515 9e-3 0.0775 0.0136 0.0149 3e-3 0.1078 0.0242 0.1221 0.0273 0.062 0.0143 0.1246 0.0298 0.1866 0.0452 0.2076 0.0527 0.414 0.1122 0.6179 0.1779 0.7691 0.2504 1.506 0.5975 2.19 1.03 0.9359 0.5925 1.771 1.344 2.455 2.216 0.634 0.8082 1.137 1.717 1.487 2.682 0.3378 0.9334 0.5324 1.918 0.5752 2.909 0.0397 0.9185-0.0514 1.843-0.2702 2.736-0.2194 0.8962-0.5683 1.76-1.032 2.557-0.5683 0.9774-1.307 1.856-2.174 2.581-0.9098 0.7611-1.959 1.351-3.082 1.735-1.215 0.4159-2.513 0.5888-3.795 0.5057-1.205-0.0781-2.393-0.3824-3.486-0.895-1.024-0.481-1.963-1.142-2.763-1.942-0.6502-0.6514-1.207-1.396-1.647-2.204-0.5051-0.9266-0.8572-1.935-1.039-2.974-0.0465-0.2616-0.0818-0.525-0.106-0.789-0.996-0.4828-1.497-1.926-1.13-3.427 0.4066-1.661 1.722-2.769 2.935-2.472 1.214 0.2969 1.87 1.886 1.463 3.547-0.2467 1.01-0.8305 1.816-1.523 2.225 0.0291 0.3006 0.0756 0.5987 0.1382 0.8937 0.1469 0.6898 0.3849 1.36 0.7072 1.987 0.3359 0.6539 0.763 1.26 1.266 1.796 0.6353 0.6774 1.39 1.244 2.219 1.665 0.8702 0.4419 1.821 0.7202 2.791 0.8187 1.034 0.1041 2.087 5e-3 3.083-0.2894 0.9916-0.2932 1.924-0.7803 2.73-1.429 0.722-0.5814 1.341-1.29 1.822-2.083 0.4184-0.6892 0.7307-1.441 0.9222-2.224 0.1494-0.6086 0.2262-1.235 0.2287-1.861 3e-3 -0.6068 0.1469-1.214 0.0136-1.805-0.2374-1.052-0.4791-2.265-1.113-3.138-0.5386-0.7413-0.7859-1.386-1.543-1.902-0.5497-0.3756-1.567-1.312-2.193-1.539-0.1283-0.0471-0.6929-0.3254-1.155-0.5758l-4e-3 6e-3 -0.0539-0.0378c-0.0397-0.0217-0.0781-0.0428-0.1153-0.0632-0.0335-0.013-0.2572-0.0954-0.3601-0.1252-0.057-0.0161-1.054-0.168-1.497-0.1364-0.0738 5e-3 -0.6787 7e-3 -0.7568 0.1041-0.0787 0.0967 0.119 0.2566 0.0645 0.4977-0.4822 2.122-2.28 2.641-3.562 2.641-1.283 0-4.196-1.238-4.196-2.641 0-0.0136 3.155-0.0992 4.437-0.0992 0.5268 0 1.233-0.2126 1.86-0.3694 0.0961-0.0384 0.1921-0.0744 0.2894-0.1091 0.2777-0.0979 0.5615-0.181 0.8485-0.2461 0.3254-0.0744 0.6564-0.1264 0.9892-0.1506 0.0725-5e-3 0.2994-0.013 0.3403-0.0136 0.0217 0 0.4958 0.0236 0.709 0.0453z" stroke-width=".6198"/>
 </g>
</svg>
