<svg version="1.1" viewBox="0 0 210 60" xmlns="http://www.w3.org/2000/svg">
 
<symbol id="smartsprout-logo">
<g transform="translate(-1.429e-8 2.143)" fill="#808080">
  <path d="m9.599 11.2q-1.502 0-2.503 0.8581-1.001 0.8223-1.001 2.181 0 1.001 1.037 1.966 1.073 0.9653 3.003 1.645 4.898 1.68 4.898 5.399 0 2.503-1.895 3.933-1.859 1.394-4.719 1.394-2.646 0-5.148-1.466l0.7866-1.716q2.574 1.394 4.541 1.394 4.29 0 4.29-3.396 0-1.251-1.037-2.252-1.001-1.037-3.003-1.645-4.898-1.502-4.898-4.97 0-2.324 1.716-3.718 1.752-1.394 4.326-1.394 2.824 0 4.505 1.251l-0.8581 1.823q-1.609-1.287-4.04-1.287z"/>
  <path d="m39.91 9.416q3.182 0 4.827 2.395t1.645 6.114v10.15h-2.145v-10.12q0-3.003-1.216-4.862-1.18-1.895-3.683-1.895-2.038 0-3.647 1.609t-1.609 3.647v11.62h-2.145v-11.08q0-5.792-4.612-5.792-2.109 0-3.825 1.823t-1.716 3.969v11.08h-2.145v-13.76q0-1.609-0.3575-4.505h1.966q0.3575 1.108 0.429 3.253 2.074-3.647 6.149-3.647 3.718 0 5.542 4.076 2.145-4.076 6.543-4.076z"/>
  <path d="m56.4 28.58q-2.431 0-4.147-1.394-1.68-1.43-1.68-3.682 0-6.829 12.16-6.829 0-2.61-1.251-4.04t-3.682-1.43q-1.966 0-5.828 1.216l-0.2503-2.038q3.003-0.9653 6.221-0.9653 6.936 0 6.936 7.651v6.543q0 2.252 0.6435 4.469l-1.859 0.3933-0.7508-2.967q-2.467 3.075-6.507 3.075zm-3.683-5.434q0 1.68 1.037 2.681 1.037 0.9653 2.717 0.9653 2.145 0 4.183-1.323 2.074-1.359 2.074-3.289v-3.718q-10.01 0-10.01 4.684z"/>
  <path d="m78.88 11.27q-0.2145-0.0716-0.6435-0.0716-2.36 0-4.004 1.931-1.609 1.895-1.609 5.113v9.832h-2.145v-12.3q0-4.04-0.5363-5.971h1.823q0.572 1.144 0.572 3.647 1.716-4.04 5.506-4.04 0.5005 0 1.037 0.1073z"/>
  <path d="m88 28.58q-2.217 0-3.468-1.645-1.216-1.68-1.216-4.219v-11.3h-3.647v-1.609h3.647v-5.434l2.145-0.9653v6.4h5.828v1.609h-5.828v11.3q0 4.076 2.717 4.076 1.68 0 2.467-0.3218l0.2145 1.609q-1.108 0.5005-2.86 0.5005z"/>
 </g>
 <g transform="translate(-1.429e-8 2.143)" fill="#003380">
  <path d="m100 11.2q-1.502 0-2.503 0.8581-1.001 0.8223-1.001 2.181 0 1.001 1.037 1.966 1.073 0.9653 3.003 1.645 4.898 1.68 4.898 5.399 0 2.503-1.895 3.933-1.859 1.394-4.719 1.394-2.646 0-5.148-1.466l0.7865-1.716q2.574 1.394 4.541 1.394 4.29 0 4.29-3.396 0-1.251-1.037-2.252-1.001-1.037-3.003-1.645-4.898-1.502-4.898-4.97 0-2.324 1.716-3.718 1.752-1.394 4.326-1.394 2.824 0 4.505 1.251l-0.8581 1.823q-1.609-1.287-4.04-1.287z"/>
  <path d="m118.8 9.416q3.969 0 6.257 2.789 2.288 2.753 2.288 7.043 0 4.04-2.252 6.686-2.217 2.646-5.971 2.646-4.541 0-6.9-3.897v12.37h-2.145v-22.7q0-3.361-0.143-4.541h1.966q0.1072 1.394 0.1072 3.325 2.538-3.718 6.793-3.718zm-0.286 1.788q-2.646 0-4.469 1.716t-1.823 4.29v3.075q0 2.717 1.895 4.612t4.612 1.895q3.11 0 4.791-2.074 1.68-2.074 1.68-5.506 0-3.718-1.68-5.863-1.645-2.145-5.005-2.145z"/>
  <path d="m140 11.27q-0.2145-0.0716-0.6435-0.0716-2.36 0-4.004 1.931-1.609 1.895-1.609 5.113v9.832h-2.145v-12.3q0-4.04-0.5363-5.971h1.823q0.572 1.144 0.572 3.647 1.716-4.04 5.506-4.04 0.5005 0 1.037 0.1073z"/>
  <path d="m182.9 28.01-2.002 0.4648q-0.6435-1.823-0.8581-3.575-2.395 3.682-6.864 3.682-6.578 0-6.578-8.509v-10.26h2.145v9.868q0 7.115 4.898 7.115 2.538 0 4.362-1.716 1.823-1.752 1.823-4.219v-11.05h2.145v13.8q0 1.931 0.9296 4.398z"/>
  <path d="m193.4 28.58q-2.217 0-3.468-1.645-1.216-1.68-1.216-4.219v-11.3h-3.647v-1.609h3.647v-5.434l2.145-0.9653v6.4h5.828v1.609h-5.828v11.3q0 4.076 2.717 4.076 1.68 0 2.467-0.3218l0.2145 1.609q-1.108 0.5005-2.86 0.5005z"/>
  <path d="m154.7 9.861-1.456-1.021c-1.052 1.268-3.888 0.882-5.247-0.0707-1.396-0.9786-3.807-4.663-3.105-5.786 0.3954-0.6316 4.495 0.0174 5.89 0.996 1.297 0.9092 3.328 2.99 2.717 4.438l2.195 1.538 0.0359 3e-3c0.026 4e-3 0.0515 9e-3 0.0775 0.0136 0.0149 3e-3 0.1078 0.0242 0.1221 0.0273 0.062 0.0143 0.1246 0.0298 0.1866 0.0452 0.2076 0.0527 0.414 0.1122 0.6179 0.1779 0.7691 0.2504 1.506 0.5975 2.19 1.03 0.9359 0.5925 1.771 1.344 2.455 2.216 0.634 0.8082 1.137 1.717 1.487 2.682 0.3378 0.9334 0.5324 1.918 0.5752 2.909 0.0397 0.9185-0.0514 1.843-0.2702 2.736-0.2194 0.8962-0.5683 1.76-1.032 2.557-0.5683 0.9774-1.307 1.856-2.174 2.581-0.9098 0.7611-1.959 1.351-3.082 1.735-1.215 0.4159-2.513 0.5888-3.795 0.5057-1.205-0.0781-2.393-0.3824-3.486-0.895-1.024-0.481-1.963-1.142-2.763-1.942-0.6502-0.6514-1.207-1.396-1.647-2.204-0.5051-0.9266-0.8572-1.935-1.039-2.974-0.0465-0.2616-0.0818-0.525-0.106-0.789-0.996-0.4828-1.497-1.926-1.13-3.427 0.4066-1.661 1.722-2.769 2.935-2.472 1.214 0.2969 1.87 1.886 1.463 3.547-0.2467 1.01-0.8305 1.816-1.523 2.225 0.0291 0.3006 0.0756 0.5987 0.1382 0.8937 0.1469 0.6898 0.3849 1.36 0.7072 1.987 0.3359 0.6539 0.763 1.26 1.266 1.796 0.6353 0.6774 1.39 1.244 2.219 1.665 0.8702 0.4419 1.821 0.7202 2.791 0.8187 1.034 0.1041 2.087 5e-3 3.083-0.2894 0.9916-0.2932 1.924-0.7803 2.73-1.429 0.722-0.5814 1.341-1.29 1.822-2.083 0.4184-0.6892 0.7307-1.441 0.9222-2.224 0.1494-0.6086 0.2262-1.235 0.2287-1.861 3e-3 -0.6068 0.1469-1.214 0.0136-1.805-0.2374-1.052-0.4791-2.265-1.113-3.138-0.5386-0.7413-0.7859-1.386-1.543-1.902-0.5497-0.3756-1.567-1.312-2.193-1.539-0.1283-0.0471-0.6929-0.3254-1.155-0.5758l-4e-3 6e-3 -0.0539-0.0378c-0.0397-0.0217-0.0781-0.0428-0.1153-0.0632-0.0335-0.013-0.2572-0.0954-0.3601-0.1252-0.057-0.0161-1.054-0.168-1.497-0.1364-0.0738 5e-3 -0.6787 7e-3 -0.7568 0.1041-0.0787 0.0967 0.119 0.2566 0.0645 0.4977-0.4822 2.122-2.28 2.641-3.562 2.641-1.283 0-4.196-1.238-4.196-2.641 0-0.0136 3.155-0.0992 4.437-0.0992 0.5268 0 1.233-0.2126 1.86-0.3694 0.0961-0.0384 0.1921-0.0744 0.2894-0.1091 0.2777-0.0979 0.5615-0.181 0.8485-0.2461 0.3254-0.0744 0.6564-0.1264 0.9892-0.1506 0.0725-5e-3 0.2994-0.013 0.3403-0.0136 0.0217 0 0.4958 0.0236 0.709 0.0453z" stroke-width=".6198"/>
 </g>
 <g transform="matrix(1.01 0 0 1.01 9.356 32.66)" fill="#999" stroke-width=".6042" style="font-feature-settings:normal;font-variant-caps:normal;font-variant-ligatures:normal;font-variant-numeric:normal" aria-label="get ahead with better content">
  <path d="m8.891 12.94q0-1.259-0.5223-1.951-0.516-0.6923-1.454-0.6923-0.9314 0-1.454 0.6923-0.516 0.6923-0.516 1.951 0 1.252 0.516 1.945 0.5223 0.6923 1.454 0.6923 0.9377 0 1.454-0.6923 0.5223-0.6923 0.5223-1.945zm1.158 2.731q0 1.8-0.7992 2.675-0.7992 0.8811-2.448 0.8811-0.6104 0-1.152-0.0944-0.5412-0.0881-1.051-0.2769v-1.126q0.5098 0.2769 1.007 0.4091 0.4972 0.1322 1.013 0.1322 1.139 0 1.705-0.5979 0.5664-0.5916 0.5664-1.794v-0.5727q-0.3587 0.623-0.9188 0.9314-0.5601 0.3084-1.34 0.3084-1.296 0-2.089-0.988-0.793-0.988-0.793-2.618 0-1.636 0.793-2.624 0.793-0.988 2.089-0.988 0.7804 0 1.34 0.3084t0.9188 0.9314v-1.07h1.158z"/>
  <path d="m18.46 12.73v0.5664h-5.324q0.07552 1.196 0.7174 1.825 0.6482 0.623 1.8 0.623 0.6671 0 1.29-0.1636 0.6293-0.1636 1.246-0.4909v1.095q-0.623 0.2643-1.278 0.4028-0.6545 0.1385-1.328 0.1385-1.687 0-2.675-0.9818-0.9818-0.9818-0.9818-2.656 0-1.731 0.9314-2.744 0.9377-1.02 2.524-1.02 1.422 0 2.247 0.9188 0.8307 0.9125 0.8307 2.486zm-1.158-0.3398q-0.01259-0.9503-0.5349-1.517-0.516-0.5664-1.372-0.5664-0.9692 0-1.554 0.5475-0.579 0.5475-0.6671 1.542z"/>
  <path d="m21.51 7.492v2.001h2.385v0.8999h-2.385v3.826q0 0.8622 0.2329 1.108 0.2391 0.2454 0.9629 0.2454h1.189v0.9692h-1.189q-1.34 0-1.85-0.4972-0.5098-0.5035-0.5098-1.825v-3.826h-0.8496v-0.8999h0.8496v-2.001z"/>
  <path d="m32.73 13q-1.403 0-1.945 0.321t-0.5412 1.095q0 0.6167 0.4028 0.9818 0.4091 0.3587 1.108 0.3587 0.9629 0 1.542-0.6797 0.5853-0.686 0.5853-1.819v-0.258zm2.31-0.4783v4.021h-1.158v-1.07q-0.3965 0.6419-0.988 0.9503-0.5916 0.3021-1.447 0.3021-1.082 0-1.724-0.6042-0.6356-0.6104-0.6356-1.63 0-1.189 0.793-1.794 0.7992-0.6042 2.379-0.6042h1.624v-0.1133q0-0.7992-0.5286-1.233-0.5223-0.4405-1.473-0.4405-0.6042 0-1.177 0.1447-0.5727 0.1447-1.101 0.4342v-1.07q0.6356-0.2454 1.233-0.365 0.5979-0.1259 1.164-0.1259 1.529 0 2.284 0.793 0.7552 0.793 0.7552 2.404z"/>
  <path d="m43.29 12.29v4.254h-1.158v-4.216q0-1.001-0.3902-1.498-0.3902-0.4972-1.171-0.4972-0.9377 0-1.479 0.5979-0.5412 0.5979-0.5412 1.63v3.984h-1.164v-9.792h1.164v3.839q0.4154-0.6356 0.9755-0.9503 0.5664-0.3147 1.303-0.3147 1.215 0 1.838 0.7552 0.623 0.7489 0.623 2.209z"/>
  <path d="m51.64 12.73v0.5664h-5.324q0.07552 1.196 0.7174 1.825 0.6482 0.623 1.8 0.623 0.6671 0 1.29-0.1636 0.6293-0.1636 1.246-0.4909v1.095q-0.623 0.2643-1.278 0.4028t-1.328 0.1385q-1.687 0-2.675-0.9818-0.9818-0.9818-0.9818-2.656 0-1.731 0.9314-2.744 0.9377-1.02 2.524-1.02 1.422 0 2.247 0.9188 0.8307 0.9125 0.8307 2.486zm-1.158-0.3398q-0.01259-0.9503-0.5349-1.517-0.516-0.5664-1.372-0.5664-0.9692 0-1.554 0.5475-0.579 0.5475-0.6671 1.542z"/>
  <path d="m56.74 13q-1.403 0-1.945 0.321-0.5412 0.321-0.5412 1.095 0 0.6167 0.4028 0.9818 0.4091 0.3587 1.108 0.3587 0.9629 0 1.542-0.6797 0.5853-0.686 0.5853-1.819v-0.258zm2.31-0.4783v4.021h-1.158v-1.07q-0.3965 0.6419-0.988 0.9503-0.5916 0.3021-1.447 0.3021-1.082 0-1.724-0.6042-0.6356-0.6104-0.6356-1.63 0-1.189 0.793-1.794 0.7992-0.6042 2.379-0.6042h1.624v-0.1133q0-0.7992-0.5286-1.233-0.5223-0.4405-1.473-0.4405-0.6042 0-1.177 0.1447-0.5727 0.1447-1.101 0.4342v-1.07q0.6356-0.2454 1.233-0.365 0.5979-0.1259 1.164-0.1259 1.529 0 2.284 0.793 0.7552 0.793 0.7552 2.404z"/>
  <path d="m66.08 10.56v-3.814h1.158v9.792h-1.158v-1.057q-0.365 0.6293-0.9251 0.9377-0.5538 0.3021-1.334 0.3021-1.278 0-2.083-1.02-0.7992-1.02-0.7992-2.681 0-1.661 0.7992-2.681 0.8055-1.02 2.083-1.02 0.7804 0 1.334 0.3084 0.5601 0.3021 0.9251 0.9314zm-3.946 2.461q0 1.278 0.5223 2.008 0.5286 0.7237 1.447 0.7237 0.9188 0 1.447-0.7237 0.5286-0.73 0.5286-2.008t-0.5286-2.001q-0.5286-0.73-1.447-0.73-0.9188 0-1.447 0.73-0.5223 0.7237-0.5223 2.001z"/>
  <path d="m73.06 9.494h1.158l1.447 5.5 1.441-5.5h1.366l1.447 5.5 1.441-5.5h1.158l-1.844 7.048h-1.366l-1.517-5.777-1.523 5.777h-1.366z"/>
  <path d="m84.28 9.494h1.158v7.048h-1.158zm0-2.744h1.158v1.466h-1.158z"/>
  <path d="m89 7.492v2.001h2.385v0.8999h-2.385v3.826q0 0.8622 0.2329 1.108 0.2391 0.2454 0.9629 0.2454h1.189v0.9692h-1.189q-1.34 0-1.85-0.4972-0.5098-0.5035-0.5098-1.825v-3.826h-0.8496v-0.8999h0.8496v-2.001z"/>
  <path d="m98.77 12.29v4.254h-1.158v-4.216q0-1.001-0.3902-1.498-0.3902-0.4972-1.171-0.4972-0.9377 0-1.479 0.5979-0.5412 0.5979-0.5412 1.63v3.984h-1.164v-9.792h1.164v3.839q0.4154-0.6356 0.9755-0.9503 0.5664-0.3147 1.303-0.3147 1.215 0 1.838 0.7552 0.623 0.7489 0.623 2.209z"/>
  <path d="m110.3 13.02q0-1.278-0.5286-2.001-0.5223-0.73-1.441-0.73t-1.447 0.73q-0.5224 0.7237-0.5224 2.001t0.5224 2.008q0.5286 0.7237 1.447 0.7237t1.441-0.7237q0.5286-0.73 0.5286-2.008zm-3.94-2.461q0.365-0.6293 0.9188-0.9314 0.5601-0.3084 1.334-0.3084 1.284 0 2.083 1.02 0.8055 1.02 0.8055 2.681 0 1.661-0.8055 2.681-0.7992 1.02-2.083 1.02-0.7741 0-1.334-0.3021-0.5538-0.3084-0.9188-0.9377v1.057h-1.164v-9.792h1.164z"/>
  <path d="m119.4 12.73v0.5664h-5.324q0.0755 1.196 0.7174 1.825 0.6482 0.623 1.8 0.623 0.6671 0 1.29-0.1636 0.6293-0.1636 1.246-0.4909v1.095q-0.623 0.2643-1.278 0.4028t-1.328 0.1385q-1.687 0-2.675-0.9818-0.9818-0.9818-0.9818-2.656 0-1.731 0.9314-2.744 0.9377-1.02 2.524-1.02 1.422 0 2.247 0.9188 0.8307 0.9125 0.8307 2.486zm-1.158-0.3398q-0.0126-0.9503-0.5349-1.517-0.516-0.5664-1.372-0.5664-0.9692 0-1.554 0.5475-0.579 0.5475-0.6671 1.542z"/>
  <path d="m122.5 7.492v2.001h2.385v0.8999h-2.385v3.826q0 0.8622 0.2328 1.108 0.2391 0.2454 0.9629 0.2454h1.189v0.9692h-1.189q-1.34 0-1.85-0.4972-0.5098-0.5035-0.5098-1.825v-3.826h-0.8496v-0.8999h0.8496v-2.001z"/>
  <path d="m127.5 7.492v2.001h2.385v0.8999h-2.385v3.826q0 0.8622 0.2328 1.108 0.2392 0.2454 0.9629 0.2454h1.189v0.9692h-1.189q-1.34 0-1.85-0.4972-0.5098-0.5035-0.5098-1.825v-3.826h-0.8496v-0.8999h0.8496v-2.001z"/>
  <path d="m137.5 12.73v0.5664h-5.324q0.0755 1.196 0.7174 1.825 0.6482 0.623 1.8 0.623 0.6671 0 1.29-0.1636 0.6293-0.1636 1.246-0.4909v1.095q-0.623 0.2643-1.278 0.4028t-1.328 0.1385q-1.687 0-2.675-0.9818-0.9818-0.9818-0.9818-2.656 0-1.731 0.9314-2.744 0.9377-1.02 2.524-1.02 1.422 0 2.247 0.9188 0.8307 0.9125 0.8307 2.486zm-1.158-0.3398q-0.0126-0.9503-0.5349-1.517-0.516-0.5664-1.372-0.5664-0.9692 0-1.554 0.5475-0.579 0.5475-0.6671 1.542z"/>
  <path d="m143.4 10.58q-0.1951-0.1133-0.4279-0.1636-0.2266-0.05664-0.5035-0.05664-0.9818 0-1.51 0.6419-0.5223 0.6356-0.5223 1.831v3.713h-1.164v-7.048h1.164v1.095q0.365-0.6419 0.9503-0.9503 0.5853-0.3147 1.422-0.3147 0.1196 0 0.2643 0.01888 0.1447 0.01259 0.321 0.04405z"/>
  <path d="m153.8 9.764v1.082q-0.4909-0.2706-0.988-0.4028-0.4909-0.1385-0.9943-0.1385-1.126 0-1.75 0.7174-0.623 0.7111-0.623 2.001 0 1.29 0.623 2.008 0.623 0.7111 1.75 0.7111 0.5035 0 0.9943-0.1322 0.4972-0.1385 0.988-0.4091v1.07q-0.4846 0.2266-1.007 0.3398-0.516 0.1133-1.101 0.1133-1.592 0-2.53-1.001-0.9377-1.001-0.9377-2.7 0-1.724 0.944-2.712 0.9503-0.988 2.599-0.988 0.5349 0 1.045 0.1133 0.5098 0.107 0.988 0.3273z"/>
  <path d="m158.6 10.31q-0.9314 0-1.473 0.73-0.5412 0.7237-0.5412 1.989 0 1.265 0.5349 1.995 0.5412 0.7237 1.479 0.7237 0.9251 0 1.466-0.73t0.5412-1.989q0-1.252-0.5412-1.982-0.5412-0.7363-1.466-0.7363zm0-0.9818q1.51 0 2.373 0.9818 0.8622 0.9818 0.8622 2.719 0 1.731-0.8622 2.719-0.8622 0.9818-2.373 0.9818-1.517 0-2.379-0.9818-0.8559-0.988-0.8559-2.719 0-1.737 0.8559-2.719 0.8622-0.9818 2.379-0.9818z"/>
  <path d="m169.6 12.29v4.254h-1.158v-4.216q0-1.001-0.3902-1.498-0.3902-0.4972-1.171-0.4972-0.9377 0-1.479 0.5979-0.5412 0.5979-0.5412 1.63v3.984h-1.164v-7.048h1.164v1.095q0.4154-0.6356 0.9755-0.9503 0.5664-0.3147 1.303-0.3147 1.215 0 1.838 0.7552 0.623 0.7489 0.623 2.209z"/>
  <path d="m173.1 7.492v2.001h2.385v0.8999h-2.385v3.826q0 0.8622 0.2328 1.108 0.2391 0.2454 0.9629 0.2454h1.189v0.9692h-1.189q-1.34 0-1.85-0.4972-0.5098-0.5035-0.5098-1.825v-3.826h-0.8496v-0.8999h0.8496v-2.001z"/>
  <path d="m183 12.73v0.5664h-5.324q0.0755 1.196 0.7174 1.825 0.6482 0.623 1.8 0.623 0.6671 0 1.29-0.1636 0.6293-0.1636 1.246-0.4909v1.095q-0.623 0.2643-1.278 0.4028t-1.328 0.1385q-1.687 0-2.675-0.9818-0.9818-0.9818-0.9818-2.656 0-1.731 0.9314-2.744 0.9377-1.02 2.524-1.02 1.422 0 2.247 0.9188 0.8307 0.9125 0.8307 2.486zm-1.158-0.3398q-0.0126-0.9503-0.5349-1.517-0.516-0.5664-1.372-0.5664-0.9692 0-1.554 0.5475-0.579 0.5475-0.6671 1.542z"/>
  <path d="m190.8 12.29v4.254h-1.158v-4.216q0-1.001-0.3902-1.498-0.3902-0.4972-1.171-0.4972-0.9377 0-1.479 0.5979t-0.5412 1.63v3.984h-1.164v-7.048h1.164v1.095q0.4154-0.6356 0.9755-0.9503 0.5664-0.3147 1.303-0.3147 1.215 0 1.838 0.7552 0.623 0.7489 0.623 2.209z"/>
  <path d="m194.2 7.492v2.001h2.385v0.8999h-2.385v3.826q0 0.8622 0.2328 1.108 0.2391 0.2454 0.9629 0.2454h1.189v0.9692h-1.189q-1.34 0-1.85-0.4972-0.5098-0.5035-0.5098-1.825v-3.826h-0.8496v-0.8999h0.8496v-2.001z"/>
 </g>
</symbol>
</svg>
