<svg id="smart-sprout-logo" viewBox="0 0 375 60" version="1.1" xmlns="http://www.w3.org/2000/svg">
    
    <g id="smart">
        
        <path d="M3.259,32.198c-1.882,0 -3.259,1.595 -3.259,3.624c0,4.132 5.067,7.022 11.879,7.022c8.05,0 13.621,-4.122 13.621,-10.139c0,-5.147 -3.473,-6.814 -6.949,-8.119c-8.92,-3.407 -11.458,-3.842 -11.458,-7.612c0,-2.899 2.973,-4.856 5.874,-4.856c4.351,0 6.744,1.377 6.889,5.944l0.652,0c1.881,-0.073 3.328,-1.45 3.328,-2.9c0,-3.478 -4.415,-5.354 -9.999,-5.354c-7.251,0 -12.025,3.977 -12.025,9.341c0,4.205 2.459,6.38 6.441,7.829c8.485,3.045 11.821,3.77 11.821,8.192c0,3.335 -3.626,5.364 -7.035,5.364c-5.946,0 -8.189,-2.972 -9.636,-8.336l-0.144,0Z"/>
        
        <path d="M30.147,11.547l0,1.368c2.826,0 5.073,1.957 5.363,3.987c0.289,2.827 0.507,6.524 0.434,10.439c-0.072,4.059 -0.217,7.394 -0.507,10.149c-0.362,2.754 -2.319,2.972 -4.203,2.972l-1.449,0l0,1.44l18.039,0l0,-1.44l-1.45,0c-1.886,0 -4.134,-0.218 -4.351,-2.972c-0.29,-3.48 -0.363,-6.307 -0.363,-13.122c0,-7.031 3.191,-12.25 8.484,-12.25c4.351,0 6.309,3.624 6.309,10.366c0,4.277 -0.073,12.251 -0.363,15.006c-0.362,2.754 -2.465,2.972 -4.35,2.972l-1.451,0l0,1.44l17.899,0l0,-1.44l-1.451,0c-1.885,0 -4.133,-0.218 -4.35,-2.972c-0.291,-3.48 -0.363,-6.597 -0.363,-13.411c0,-6.815 3.191,-11.961 8.484,-11.961c4.351,0 6.381,2.682 6.309,8.699c-0.073,8.699 -0.581,14.57 -1.451,21.085l12.674,0l0,-1.44l-1.594,0c-1.884,0 -3.986,-0.218 -4.348,-2.972c-0.361,-2.755 0.362,-10.584 0.362,-16.963c0,-7.54 -4.558,-10.719 -10.067,-10.719c-4.786,0 -8.629,2.021 -10.658,6.659c-1.52,-4.71 -5.717,-6.659 -10.213,-6.659c-4.858,0 -8.194,2.962 -9.862,6.732l-0.723,-6.008l-10.79,1.015Z"/>
        
        <path d="M95.506,19.077c0.507,-3.625 2.608,-7.032 8.047,-7.032c3.263,0 7.178,1.74 7.178,6.089l0,1.233c0,4.712 -5.8,6.887 -9.934,8.554c-5.074,2.03 -10.501,3.19 -10.501,8.554c0,4.852 4.487,6.369 8.471,6.369c4.423,0 8.992,-2.528 11.312,-6.659c0.29,4.059 2.1,6.659 6.151,6.659c2.899,0 4.928,-1.733 6.233,-3.832l-0.725,-0.87c-0.725,0.943 -1.957,1.885 -3.261,1.885c-1.884,0 -3.043,-1.74 -2.898,-4.639l0.579,-15.151c0.29,-7.612 -6.296,-10.429 -12.605,-10.429c-6.889,0 -12.027,3.252 -12.027,5.934c0,2.392 1.375,2.972 3.329,3.335l0.651,0Zm15.008,8.046c0,7.467 -5.003,12.976 -9.572,12.976c-2.828,0 -4.061,-1.449 -4.061,-3.697c0,-2.972 2.103,-4.712 4.206,-5.799c2.683,-1.377 6.309,-3.335 9.427,-5.654l0,2.174Z"/>
        
        <path d="M135.436,10.532l-10.79,1.011l0,1.444c2.826,0 5.29,0.29 5.58,3.77c0.217,2.827 0.29,6.669 0.217,10.584c-0.072,4.059 -0.217,7.394 -0.507,10.149c-0.362,2.754 -2.319,2.972 -4.203,2.972l-1.45,0l0,1.44l19.051,0l0,-1.44l-1.45,0c-2.174,0 -5.145,-0.218 -5.362,-2.972c-0.29,-3.48 -0.363,-7.032 -0.363,-13.847c0,-5.799 3.334,-10.656 6.377,-10.656c2.464,0 3.696,1.305 4.276,4.132l0.58,0c2.319,0 3.841,-1.595 3.696,-3.552c-0.218,-2.531 -2.682,-3.759 -5.798,-3.759c-3.696,0 -7.247,3.469 -9.131,6.731l-0.723,-6.007Z"/>
        
        <path d="M162.481,3.72c-2.184,3.769 -4.717,6.305 -9.065,7.537l0,1.513l4.638,0c0,6.959 -0.435,14.208 -0.073,21.748c0.29,5.87 3.256,8.326 8.543,8.326c5.145,0 7.101,-2.817 8.623,-4.992l-1.159,-0.87c-1.377,1.74 -3.334,3.117 -5.58,3.117c-2.392,0 -4.276,-1.159 -4.638,-6.161c-0.362,-5.147 -0.29,-14.934 -0.29,-21.096l11.667,0l0,-2.092l-11.522,0l0.217,-7.03l-1.361,0Z"/>
    
    </g>
    
    <g id="sprout">
        
        <path d="M181.531,32.198c-1.882,0 -3.259,1.595 -3.259,3.624c0,4.132 5.068,7.022 11.88,7.022c8.049,0 13.62,-4.122 13.62,-10.139c0,-5.147 -3.472,-6.814 -6.949,-8.119c-8.919,-3.407 -11.458,-3.842 -11.458,-7.612c0,-2.899 2.974,-4.856 5.874,-4.856c4.352,0 6.745,1.377 6.89,5.944l0.651,0c1.881,-0.073 3.328,-1.45 3.328,-2.9c0,-3.478 -4.414,-5.354 -9.998,-5.354c-7.251,0 -12.026,3.977 -12.026,9.341c0,4.205 2.46,6.38 6.442,7.829c8.484,3.045 11.82,3.77 11.82,8.192c0,3.335 -3.626,5.364 -7.034,5.364c-5.947,0 -8.189,-2.972 -9.636,-8.336l-0.145,0Z"/>
        
        <path d="M220.295,10.532l-11.876,0.942l0,1.441c2.827,0 5.073,0.507 5.363,3.987c0.29,2.827 0.507,7.321 0.435,16.166c-0.073,8.982 -0.145,18.623 -0.507,21.378c-0.363,2.828 -2.319,3.408 -4.204,3.408l-1.449,0l0,1.441l18.039,0l0,-1.441l-1.451,0c-1.885,0 -4.132,-0.58 -4.35,-3.408c-0.072,-1.378 -0.289,-8.774 -0.362,-15.144c1.812,2.459 5.51,3.542 8.41,3.542c8.628,0 16.446,-6.442 16.446,-17.171c0,-10.801 -7.02,-15.865 -14.561,-15.865c-4.64,0 -8.048,2.166 -9.933,5.137l0,-4.413Zm0,12.459c0,-8.264 4.713,-10.656 8.556,-10.656c5.148,0 9.498,4.277 9.498,13.774c0,9.496 -4.423,14.208 -9.571,14.208c-5.22,0 -8.483,-2.32 -8.483,-8.409l0,-8.917Z"/>
        
        <path d="M260.299,10.532l-10.79,1.011l0,1.444c2.826,0 5.29,0.29 5.58,3.77c0.217,2.827 0.29,6.669 0.217,10.584c-0.072,4.059 -0.217,7.394 -0.507,10.149c-0.362,2.754 -2.319,2.972 -4.203,2.972l-1.449,0l0,1.44l19.05,0l0,-1.44l-1.45,0c-2.174,0 -5.145,-0.218 -5.362,-2.972c-0.29,-3.48 -0.363,-7.032 -0.363,-13.847c0,-5.799 3.334,-10.656 6.378,-10.656c2.464,0 3.696,1.305 4.275,4.132l0.58,0c2.319,0 3.841,-1.595 3.696,-3.552c-0.217,-2.531 -2.681,-3.759 -5.798,-3.759c-3.695,0 -7.246,3.469 -9.131,6.731l-0.723,-6.007Z"/>
        
        <path d="M311.092,11.471l0,1.444l0.942,0c1.884,0 3.623,-0.217 3.986,2.537c0.29,2.827 0.29,10.221 0.29,16.601c0,7.539 3.979,10.791 10.574,10.791c5.438,0 8.991,-2.6 10.949,-6.732l0.868,6.515l10.428,-1.884l-0.218,-1.377c-3.623,0.579 -4.638,-0.942 -4.928,-3.696c-0.289,-2.464 -0.289,-6.74 -0.289,-8.624c0,-8.551 0.145,-14.925 0.145,-16.514l-11.227,0.939l0,1.444l0.87,0c1.885,0 3.771,-0.145 4.206,2.681c0.217,1.305 0.217,4.131 0.217,10.725c0,8.051 -3.625,13.996 -9.644,13.996c-4.858,0 -6.235,-3.625 -6.235,-10.367c0,-5.727 -0.073,-12.541 -0.073,-19.418l-10.861,0.939Z"/>
        
        <path d="M362.334,3.72c-2.185,3.769 -4.717,6.305 -9.065,7.537l0,1.513l4.637,0c0,6.959 -0.434,14.208 -0.072,21.748c0.29,5.87 3.256,8.326 8.542,8.326c5.146,0 7.102,-2.817 8.624,-4.992l-1.159,-0.87c-1.377,1.74 -3.334,3.117 -5.581,3.117c-2.391,0 -4.275,-1.159 -4.638,-6.161c-0.362,-5.147 -0.289,-14.934 -0.289,-21.096l11.667,0l0,-2.092l-11.522,0l0.217,-7.03l-1.361,0Z"/>
    
    </g>
    
    <g id="sprout-icon">
        
        <path d="M296.764,11.501l-2.35,-1.648c-1.698,2.046 -6.273,1.423 -8.466,-0.114c-2.252,-1.579 -6.143,-7.524 -5.01,-9.335c0.638,-1.019 7.252,0.028 9.504,1.607c2.092,1.467 5.369,4.824 4.384,7.161l3.541,2.482l0.058,0.005c0.042,0.007 0.083,0.014 0.125,0.022c0.024,0.005 0.174,0.039 0.197,0.044c0.1,0.023 0.201,0.048 0.301,0.073c0.335,0.085 0.668,0.181 0.997,0.287c1.241,0.404 2.43,0.964 3.533,1.662c1.51,0.956 2.857,2.169 3.961,3.575c1.023,1.304 1.835,2.77 2.399,4.327c0.545,1.506 0.859,3.094 0.928,4.694c0.064,1.482 -0.083,2.973 -0.436,4.414c-0.354,1.446 -0.917,2.839 -1.665,4.126c-0.917,1.577 -2.109,2.994 -3.508,4.165c-1.468,1.228 -3.161,2.18 -4.972,2.799c-1.961,0.671 -4.054,0.95 -6.123,0.816c-1.944,-0.126 -3.861,-0.617 -5.625,-1.444c-1.652,-0.776 -3.168,-1.842 -4.458,-3.134c-1.049,-1.051 -1.947,-2.252 -2.657,-3.556c-0.815,-1.495 -1.383,-3.122 -1.677,-4.798c-0.075,-0.422 -0.132,-0.847 -0.171,-1.273c-1.607,-0.779 -2.415,-3.107 -1.823,-5.529c0.656,-2.68 2.778,-4.467 4.736,-3.988c1.959,0.479 3.017,3.043 2.361,5.723c-0.398,1.63 -1.34,2.93 -2.457,3.59c0.047,0.485 0.122,0.966 0.223,1.442c0.237,1.113 0.621,2.194 1.141,3.206c0.542,1.055 1.231,2.033 2.042,2.898c1.025,1.093 2.243,2.007 3.58,2.686c1.404,0.713 2.938,1.162 4.504,1.321c1.668,0.168 3.367,0.008 4.974,-0.467c1.6,-0.473 3.105,-1.259 4.405,-2.306c1.165,-0.938 2.163,-2.082 2.939,-3.361c0.675,-1.112 1.179,-2.325 1.488,-3.588c0.241,-0.982 0.365,-1.992 0.369,-3.002c0.005,-0.979 0.237,-1.958 0.022,-2.913c-0.383,-1.698 -0.773,-3.655 -1.796,-5.063c-0.869,-1.196 -1.268,-2.236 -2.489,-3.069c-0.887,-0.606 -2.528,-2.117 -3.539,-2.483c-0.207,-0.076 -1.118,-0.525 -1.864,-0.929l-0.007,0.01l-0.087,-0.061c-0.064,-0.035 -0.126,-0.069 -0.186,-0.102c-0.054,-0.021 -0.415,-0.154 -0.581,-0.202c-0.092,-0.026 -1.701,-0.271 -2.416,-0.22c-0.119,0.008 -1.095,0.011 -1.221,0.168c-0.127,0.156 0.192,0.414 0.104,0.803c-0.778,3.424 -3.678,4.262 -5.747,4.262c-2.07,0 -6.77,-1.998 -6.77,-4.262c0,-0.022 5.09,-0.16 7.159,-0.16c0.85,0 1.989,-0.343 3.001,-0.596c0.155,-0.062 0.31,-0.12 0.467,-0.176c0.448,-0.158 0.906,-0.292 1.369,-0.397c0.525,-0.12 1.059,-0.204 1.596,-0.243c0.117,-0.008 0.483,-0.021 0.549,-0.022c0.035,0 0.8,0.038 1.144,0.073Z"/>
    </g>

</svg>
