<svg version="1.1" viewBox="0 0 100 23.1" xmlns="http://www.w3.org/2000/svg">
 <g transform="translate(-173.6 -329.9)">
  <g id="smart-sprout-logo" fill="#4C60FD">
   <g id="logo-text">
    <path d="m185.3 336.5v2.571q-1.152-0.591-2.393-0.8864-1.241-0.2955-2.571-0.2955-2.024 0-3.043 0.6205-1.005 0.6205-1.005 1.861 0 0.9455 0.7239 1.492 0.7239 0.5318 2.91 1.019l0.9307 0.2068q2.896 0.6205 4.107 1.758 1.226 1.123 1.226 3.147 0 2.305-1.832 3.649-1.817 1.344-5.008 1.344-1.33 0-2.777-0.2659-1.433-0.2512-3.029-0.7682v-2.807q1.507 0.783 2.969 1.182 1.463 0.3841 2.896 0.3841 1.921 0 2.955-0.65 1.034-0.6648 1.034-1.861 0-1.108-0.7535-1.699-0.7387-0.5909-3.265-1.138l-0.9455-0.2216q-2.526-0.5318-3.649-1.625-1.123-1.108-1.123-3.029 0-2.334 1.655-3.605 1.655-1.271 4.698-1.271 1.507 0 2.837 0.2216 1.33 0.2216 2.452 0.6648z"/>
    <path d="m201.1 339.2q1.019-1.832 2.438-2.704 1.418-0.8716 3.339-0.8716 2.585 0 3.989 1.817 1.403 1.802 1.403 5.141v9.987h-2.733v-9.898q0-2.379-0.8421-3.531t-2.571-1.152q-2.113 0-3.339 1.404-1.226 1.403-1.226 3.826v9.352h-2.733v-9.898q0-2.393-0.8421-3.531-0.8421-1.152-2.6-1.152-2.083 0-3.309 1.418-1.226 1.403-1.226 3.812v9.352h-2.733v-16.55h2.733v2.571q0.9307-1.522 2.231-2.246 1.3-0.7239 3.088-0.7239 1.802 0 3.058 0.916 1.271 0.916 1.876 2.659z"/>
    <path d="m222.7 344.3q-3.295 0-4.565 0.7534-1.271 0.7534-1.271 2.571 0 1.448 0.9455 2.305 0.9603 0.8421 2.6 0.8421 2.26 0 3.62-1.596 1.374-1.61 1.374-4.27v-0.6057zm5.422-1.123v9.44h-2.718v-2.512q-0.9307 1.507-2.319 2.231-1.389 0.7091-3.398 0.7091-2.541 0-4.048-1.418-1.492-1.433-1.492-3.826 0-2.792 1.861-4.21 1.876-1.418 5.584-1.418h3.812v-0.2659q0-1.876-1.241-2.896-1.226-1.034-3.457-1.034-1.418 0-2.763 0.3398-1.344 0.3398-2.585 1.019v-2.512q1.492-0.5762 2.896-0.8569 1.403-0.2955 2.733-0.2955 3.59 0 5.363 1.861 1.773 1.861 1.773 5.643z"/>
    <path d="m239.8 338.6q-0.458-0.2659-1.005-0.3841-0.5318-0.1329-1.182-0.1329-2.305 0-3.546 1.507-1.226 1.492-1.226 4.299v8.716h-2.733v-16.55h2.733v2.571q0.8569-1.507 2.231-2.231 1.374-0.7387 3.339-0.7387 0.2807 0 0.6205 0.0442 0.3398 0.0296 0.7535 0.1034z"/>
    <path d="m245.8 331.3v4.698h5.599v2.113h-5.599v8.982q0 2.024 0.5466 2.6 0.5614 0.5762 2.26 0.5762h2.792v2.275h-2.792q-3.147 0-4.343-1.167-1.197-1.182-1.197-4.284v-8.982h-1.994v-2.113h1.994v-4.698z"/>
   </g>
   <g id="logo-tile">
    <path d="m253.9 333.4v19.63h19.63v-19.63h-9.716c0.1989 0.4485 0.2783 0.893 0.1143 1.282l1.834 1.285 0.0299 3e-3c0.0218 3e-3 0.0431 7e-3 0.0648 0.0119 0.0119 3e-3 0.0901 0.0205 0.1021 0.0231 0.0517 0.0119 0.1037 0.0247 0.1555 0.0376 0.1734 0.0439 0.3459 0.0937 0.5163 0.1486 0.6425 0.2092 1.258 0.4991 1.829 0.8605 0.7818 0.495 1.479 1.123 2.051 1.851 0.5296 0.6752 0.9499 1.434 1.242 2.24 0.2822 0.7797 0.445 1.602 0.4807 2.43 0.0332 0.7673-0.0432 1.539-0.226 2.285-0.1833 0.7486-0.4744 1.47-0.8617 2.136-0.4748 0.8165-1.092 1.55-1.817 2.156-0.76 0.6358-1.636 1.129-2.574 1.449-1.015 0.3474-2.099 0.4917-3.17 0.4223-1.006-0.0652-1.999-0.3193-2.912-0.7475-0.8553-0.4018-1.64-0.9536-2.308-1.623-0.5431-0.5442-1.008-1.166-1.376-1.841-0.422-0.774-0.7164-1.617-0.8686-2.484-0.0387-0.2185-0.0681-0.4382-0.0883-0.6588-0.832-0.4033-1.25-1.609-0.9439-2.863 0.3396-1.388 1.438-2.313 2.452-2.065 1.014 0.248 1.562 1.575 1.222 2.963-0.2061 0.8439-0.6936 1.517-1.272 1.859 0.0243 0.2511 0.0632 0.4999 0.1154 0.7463 0.1227 0.5763 0.3216 1.136 0.5908 1.66 0.2806 0.5462 0.6374 1.052 1.057 1.5 0.5307 0.5659 1.161 1.039 1.853 1.391 0.7269 0.3692 1.521 0.6016 2.332 0.6839 0.8636 0.0871 1.743 4e-3 2.575-0.2418 0.8284-0.2449 1.608-0.6516 2.281-1.194 0.6032-0.4857 1.12-1.078 1.522-1.74 0.3495-0.5757 0.6102-1.203 0.7702-1.857 0.1248-0.5084 0.189-1.032 0.1911-1.555 3e-3 -0.5069 0.1227-1.014 0.0119-1.508-0.1983-0.8791-0.4001-1.893-0.9297-2.622-0.4499-0.6192-0.6567-1.158-1.289-1.589-0.4592-0.3138-1.309-1.096-1.832-1.286-0.1073-0.0394-0.5787-0.2715-0.965-0.4807l-3e-3 4e-3 -0.045-0.0317c-0.0331-0.0182-0.0654-0.0356-0.0964-0.0526-0.028-0.0106-0.2149-0.0796-0.3009-0.1045-0.0476-0.0132-0.8807-0.1406-1.251-0.1143-0.0615 4e-3 -0.5669 5e-3 -0.6321 0.0872-0.0658 0.0808 0.0992 0.2144 0.054 0.4159-0.4028 1.773-1.904 2.206-2.975 2.206-1.072 0-3.505-1.034-3.505-2.206 0-0.0119 2.635-0.083 3.706-0.083 0.4401 0 1.03-0.1776 1.554-0.3086 0.0802-0.0321 0.1604-0.0621 0.2417-0.0912 0.232-0.0818 0.4693-0.1509 0.709-0.2053 0.2718-0.0621 0.548-0.1058 0.826-0.126 0.0606-4e-3 0.2501-0.0105 0.2843-0.0119 0.0182 0 0.4143 0.0194 0.5924 0.0376l-1.217-0.8532c-0.8791 1.059-3.248 0.7366-4.383-0.0591-0.4178-0.2929-0.9249-0.9052-1.402-1.576z" style="paint-order:normal"/>
    <path d="m257.5 329.9c-0.3857 0.0106-0.6617 0.0757-0.7442 0.2077-0.3764 0.6017 0.3379 2.055 1.192 3.257h5.884c-0.4192-0.9453-1.421-1.91-2.155-2.425-0.8745-0.6131-3.019-1.071-4.176-1.039z" stroke-width=".5177"/>
   </g>
  </g>
 </g>
</svg>
