<svg version="1.1" viewBox="0 0 512 512" xmlns="http://www.w3.org/2000/svg">

<symbol id="facebook-icon" viewBox="0 0 512 512">
  <path d="m480 62.32v398.5c0 13.7-11.1 24.7-24.7 24.7h-114.2v-173.4h58.2l8.7-67.6h-67v-43.2c0-19.6 5.4-32.9 33.5-32.9h35.8v-60.5c-6.2-0.8-27.4-2.7-52.2-2.7-51.6 0-87 31.5-87 89.4v49.9h-58.4v67.6h58.4v173.5h-214.4c-13.6 0-24.7-11.1-24.7-24.7v-398.6c0-13.6 11.1-24.7 24.7-24.7h398.5c13.7 0 24.8 11.1 24.8 24.7z"/>
</symbol>

<symbol id="instagram-icon" viewBox="0 0 512 512">
  <path d="m256 146.7c-63.6 0-114.9 51.3-114.9 114.9s51.3 114.9 114.9 114.9 114.9-51.3 114.9-114.9-51.3-114.9-114.9-114.9zm0 189.6c-41.1 0-74.7-33.5-74.7-74.7s33.5-74.7 74.7-74.7 74.7 33.5 74.7 74.7-33.6 74.7-74.7 74.7zm146.4-194.3c0 14.9-12 26.8-26.8 26.8-14.9 0-26.8-12-26.8-26.8s12-26.8 26.8-26.8 26.8 12 26.8 26.8zm76.1 27.2c-1.7-35.9-9.9-67.7-36.2-93.9-26.2-26.2-58-34.4-93.9-36.2-37-2.1-147.9-2.1-184.9 0-35.8 1.7-67.6 9.9-93.9 36.1s-34.4 58-36.2 93.9c-2.1 37-2.1 147.9 0 184.9 1.7 35.9 9.9 67.7 36.2 93.9s58 34.4 93.9 36.2c37 2.1 147.9 2.1 184.9 0 35.9-1.7 67.7-9.9 93.9-36.2 26.2-26.2 34.4-58 36.2-93.9 2.1-37 2.1-147.8 0-184.8zm-47.8 224.5c-7.8 19.6-22.9 34.7-42.6 42.6-29.5 11.7-99.5 9-132.1 9s-102.7 2.6-132.1-9c-19.6-7.8-34.7-22.9-42.6-42.6-11.7-29.5-9-99.5-9-132.1s-2.6-102.7 9-132.1c7.8-19.6 22.9-34.7 42.6-42.6 29.5-11.7 99.5-9 132.1-9s102.7-2.6 132.1 9c19.6 7.8 34.7 22.9 42.6 42.6 11.7 29.5 9 99.5 9 132.1s2.7 102.7-9 132.1z"/>
</symbol>

<symbol id="pinterest-icon" viewBox="0 0 512 512">
  <path d="m504 261.6c0 137-111 248-248 248-25.6 0-50.2-3.9-73.4-11.1 10.1-16.5 25.2-43.5 30.8-65 3-11.6 15.4-59 15.4-59 8.1 15.4 31.7 28.5 56.8 28.5 74.8 0 128.7-68.8 128.7-154.3 0-81.9-66.9-143.2-152.9-143.2-107 0-163.9 71.8-163.9 150.1 0 36.4 19.4 81.7 50.3 96.1 4.7 2.2 7.2 1.2 8.3-3.3 0.8-3.4 5-20.3 6.9-28.1 0.6-2.5 0.3-4.7-1.7-7.1-10.1-12.5-18.3-35.3-18.3-56.6 0-54.7 41.4-107.6 112-107.6 60.9 0 103.6 41.5 103.6 100.9 0 67.1-33.9 113.6-78 113.6-24.3 0-42.6-20.1-36.7-44.8 7-29.5 20.5-61.3 20.5-82.6 0-19-10.2-34.9-31.4-34.9-24.9 0-44.9 25.7-44.9 60.2 0 22 7.4 36.8 7.4 36.8s-24.5 103.8-29 123.2c-5 21.4-3 51.6-0.9 71.2-92.2-36.1-157.6-125.9-157.6-231 0-137 111-248 248-248s248 111 248 248z"/>
</symbol>

<symbol id="search-icon" viewBox="0 0 512 512">
  <path d="m505 448.3-99.7-99.7c-4.5-4.5-10.6-7-17-7h-16.3c27.6-35.3 44-79.7 44-128 0-114.9-93.1-208-208-208-114.9 0-208 93.1-208 208s93.1 208 208 208c48.3 0 92.7-16.4 128-44v16.3c0 6.4 2.5 12.5 7 17l99.7 99.7c9.4 9.4 24.6 9.4 33.9 0l28.3-28.3c9.4-9.4 9.4-24.6 0.1-34zm-297-106.7c-70.7 0-128-57.2-128-128 0-70.7 57.2-128 128-128 70.7 0 128 57.2 128 128 0 70.7-57.2 128-128 128z"/>
</symbol>

<symbol id="twitter-icon" viewBox="0 0 512 512">
  <path d="m459.4 157.3c0.325 4.548 0.325 9.097 0.325 13.64 0 138.7-105.6 298.6-298.6 298.6-59.45 0-114.7-17.22-161.1-47.11 8.447 0.974 16.57 1.299 25.34 1.299 49.06 0 94.21-16.57 130.3-44.83-46.13-0.975-84.79-31.19-98.11-72.77 6.498 0.974 13 1.624 19.82 1.624 9.421 0 18.84-1.3 27.61-3.573-48.08-9.747-84.14-51.98-84.14-103v-1.299c13.97 7.797 30.21 12.67 47.43 13.32-28.26-18.84-46.78-51-46.78-87.39 0-19.49 5.197-37.36 14.29-52.95 51.66 63.68 129.3 105.3 216.4 109.8-1.624-7.797-2.599-15.92-2.599-24.04 0-57.83 46.78-104.9 104.9-104.9 30.21 0 57.5 12.67 76.67 33.14 23.72-4.548 46.46-13.32 66.6-25.34-7.798 24.37-24.37 44.83-46.13 57.83 21.12-2.273 41.58-8.122 60.43-16.24-14.29 20.79-32.16 39.31-52.63 54.25z"/>
</symbol>

<symbol id="youtube-icon" viewBox="0 0 512 512">
  <path d="m501.3 132.3c-5.888-22.17-23.24-39.63-45.27-45.56-39.93-10.77-200-10.77-200-10.77s-160.1 0-200 10.77c-22.03 5.927-39.38 23.39-45.27 45.56-10.7 40.19-10.7 124-10.7 124s0 83.85 10.7 124c5.888 22.17 23.24 38.91 45.27 44.83 39.93 10.77 200 10.77 200 10.77s160.1 0 200-10.77c22.03-5.926 39.38-22.66 45.27-44.83 10.7-40.19 10.7-124 10.7-124s0-83.85-10.7-124zm-297.7 200.2v-152.3l133.8 76.13z"/>
</symbol>

</svg>
