<svg version="1.1" viewBox="0 0 600 310" xmlns="http://www.w3.org/2000/svg" xmlns:xlink="http://www.w3.org/1999/xlink">
 <text id="heading-line-two" x="300.10001" y="114.93787" fill="#3a426e" font-family="sans-serif" font-size="17.5px" font-weight="700" letter-spacing="0" stroke-width=".8" word-spacing="0" style="font-feature-settings:normal;font-variant-caps:normal;font-variant-ligatures:normal;font-variant-numeric:normal;line-height:1.25">
  <tspan x="300.10001" y="114.93787" text-align="center" text-anchor="middle">to Power Your Business</tspan>
 </text>
 <text id="heading-line-one" x="299.79999" y="92.837875" fill="#3a426e" font-family="sans-serif" font-size="17.5px" font-weight="700" letter-spacing="0" stroke-width=".8" word-spacing="0" style="font-feature-settings:normal;font-variant-caps:normal;font-variant-ligatures:normal;font-variant-numeric:normal;line-height:1.25">
  <tspan x="299.79999" y="92.837875" text-align="center" text-anchor="middle">Content Marketing Solutions</tspan>
 </text>
 <g fill="#3a426e" stroke-width=".6">
  <path d="m242.3 131.6c0.2589-0.6961 0.0565-1.699-0.7385-1.931-0.795-0.2591-1.636 0.2903-1.995 0.9879-0.3204 0.1353 0.1211-0.7907 0.0779-1.054 0.1765-0.9085 0.4396-1.823 0.374-2.757-0.0941-0.6338-0.7735-0.5806-1.17-0.3113-1.433 0.2007-2.867-0.3226-4.299-0.0529-1.095 0.1622-2.329 0.7326-2.67 1.874-0.205 0.6115-0.0529 1.509 0.6696 1.682 0.6352 0.2963 0.9575-0.2742 0.7536-0.8183-7e-3 -0.9046 0.702-1.766 1.602-1.89 0.6693 0.01 0.1514 0.734 0.1432 1.105-0.5826 2.622-1.165 5.243-1.748 7.865 0.5714 0.1462 1.372 0.1912 1.698-0.4104 0.3343-1.198 0.5411-2.432 0.8129-3.646 0.3329-1.547 0.6588-3.096 0.9887-4.643 0.4523 0.3169 1.142 0.1911 1.488 0.6684 0.1053 0.4122-0.1328 0.8339-0.181 1.25-0.5024 2.261-1.005 4.521-1.507 6.782 0.5834 0.2072 1.467 0.1127 1.671-0.5744 0.3052-1.276 0.6208-2.55 0.929-3.826 0.2372-0.4913 1.186-1.074 1.494-0.3799 0.1073 0.6027-0.2682 1.161-0.2922 1.76-0.1681 0.8358-0.5321 1.712-0.2781 2.564 0.356 0.6809 1.266 0.6611 1.88 0.3825 0.7052-0.2681 1.289-0.7992 1.696-1.427-0.5983-0.602-1.069 0.8204-1.765 0.3451-0.5009-0.4301-0.0318-1.141 5e-3 -1.684 0.1202-0.6202 0.2382-1.242 0.3601-1.861z"/>
  <path d="m245.4 136.4c0.9471-5e-3 1.93-0.5125 2.337-1.394 0.0628-0.2775-0.278-0.4429-0.506-0.3451-0.2544 0.067-0.222 0.3932-0.4656 0.4824-0.568 0.3632-1.476 0.1415-1.706-0.5233-0.0653-0.3641 0.2815-0.6043 0.5688-0.7365 0.8527-0.4238 1.668-1.014 2.161-1.846 0.3151-0.5184 0.4551-1.195 0.1595-1.754-0.2795-0.5639-0.9769-0.744-1.56-0.6868-0.9286 0.097-1.718 0.7339-2.197 1.509-0.5931 0.9281-0.8996 2.04-0.8802 3.14 0.023 0.6449 0.1584 1.376 0.7099 1.784 0.3895 0.2948 0.8948 0.4299 1.379 0.3705zm1.3-5.7c0.375 0.0882 0.4814 0.5447 0.3663 0.8686-0.1036 0.2778-0.279 0.5242-0.4476 0.7669-0.3869 0.5108-0.897 0.9105-1.42 1.273-0.3531 0.0506-0.372-0.3827-0.2655-0.6155 0.174-0.5236 0.2861-1.081 0.612-1.54 0.2647-0.3756 0.6616-0.7678 1.155-0.7537z"/>
  <path d="m251.9 133.9c-0.1656 0.827-0.2276 2.035 0.7073 2.421 0.8996 0.3163 1.769-0.3299 2.262-1.038 0.4064-0.5065 0.102 0.8075 0.6317 0.9138 0.814 0.4875 1.81 9e-3 2.451-0.5571 0.3114-0.2205 1.065-0.9483 0.4138-1.051-0.4302 0.3577-1.364 1.022-1.727 0.2827-0.0413-0.7141 0.2684-1.402 0.3626-2.106 0.2001-0.9546 0.398-1.91 0.599-2.864-0.5868-0.4781-1.662-0.1063-1.729 0.686-0.2331 1.209-0.5194 2.408-0.7708 3.614-0.3045 0.5352-1.463 1.113-1.713 0.2871 3e-3 -0.5684 0.2257-1.112 0.3036-1.674 0.1866-0.88 0.3794-1.759 0.546-2.643-0.1121-0.6853-1.029-0.5093-1.465-0.2555-0.476 0.0179-1.278 0.9513-0.5239 1.001 0.3719 0.452-0.1642 1.307-0.149 1.91-0.0664 0.3583-0.1332 0.7165-0.1992 1.075z"/>
  <path d="m263.1 134.3c0.1241-0.4028-0.5182-0.7002-0.5519-0.1836-0.4395 0.6182-1.168 1.063-1.933 1.086-0.4822-0.0146-0.7123-0.5126-0.6235-0.938-0.0705-0.464 0.1388-0.8296 0.421-1.183 0.8956-1.389 1.733-2.86 2.116-4.482 0.1057-0.467 0.1545-1.074-0.2625-1.407-0.5477-0.375-1.321-0.1754-1.786 0.2436-0.7694 0.6992-1.088 1.736-1.378 2.702-0.4095 1.467-0.6312 2.979-0.8103 4.488-0.0439 0.6746 0.1868 1.492 0.8788 1.754 0.8358 0.3118 1.746-0.0458 2.464-0.4885 0.5964-0.3798 1.127-0.9139 1.366-1.592h0.1zm-1.5-6.5c0.539 0.0336 0.2102 0.7318 0.1515 1.056-0.3597 1.306-0.9093 2.554-1.551 3.744 0.2855-1.469 0.5098-2.967 1.051-4.369 0.0705-0.1701 0.1538-0.375 0.3487-0.4308z"/>
  <path d="m266.8 130.6c0.4704 0.0259-1e-3 0.7276 0.0319 1.045-0.2314 1.208-0.5098 2.409-0.7014 3.624-0.0584 0.6029 0.4487 1.12 1.044 1.122 0.9774 0.0774 1.858-0.5409 2.478-1.242 0.2676-0.202 0.2715-0.5184-0.0714-0.6124-0.3765 0.3992-0.9142 0.7343-1.484 0.64-0.4747-0.2127-0.2155-0.8122-0.1503-1.194 0.2495-1.189 0.5285-2.374 0.7595-3.566 0.0285-0.4621-0.4322-0.823-0.8741-0.7162h-2.633c0.1-0.5667 0.2-1.133 0.3-1.7-0.3626-0.1281-0.7647-0.3115-1.134-0.0827-0.4835 0.2235-0.5886 0.7732-0.6589 1.246-0.0546 0.3032-0.0447 0.6531-0.4484 0.5446-0.3589 8e-3 -0.6819 0.5009-0.4747 0.7953 0.3032 4e-3 0.7832-0.1039 0.543 0.364-0.2704 1.406-0.5876 2.804-0.8217 4.216-0.0487 0.5868 0.2927 1.24 0.9054 1.362 0.9649 0.2509 2.011-0.4712 2.215-1.423 0.0688-0.385-0.4785-0.7563-0.5674-0.2151-0.1934 0.491-0.9974 0.5044-0.8903-0.128-1e-3 -0.657 0.2407-1.282 0.3449-1.925 0.1625-0.7513 0.3249-1.503 0.4874-2.254 0.6 0.0333 1.2 0.0666 1.8 0.1zm0.6-2.6c-0.0724 0.5838 0.5924 1.104 1.136 0.843 0.6441-0.188 0.9251-1.169 0.3463-1.588-0.5611-0.4226-1.455 0.0678-1.482 0.7452z"/>
  <path d="m271.9 130.4c0.2382-0.62-0.5988-0.8668-1.045-0.6394-0.4279 0.1983-1.133 0.3557-1.205 0.8989-0.051 0.4078 0.3198 0.2597 0.5302 0.29 0.0764 0.4733-0.1753 0.9697-0.2213 1.456-0.253 1.265-0.506 2.53-0.759 3.795 0.3626 0.3931 1.028 0.1917 1.403-0.0861 0.2475-0.3124 0.2135-0.7436 0.3413-1.107 0.2519-1.036 0.5038-2.071 0.7556-3.107 0.2641-0.491 0.8773-0.8334 1.43-0.6469 0.2856 0.316 7.5e-4 0.7436-0.0329 1.101-0.2989 1.315-0.5979 2.631-0.8968 3.946 0.533 0.0897 1.204 0.2279 1.602-0.2494 0.2826-0.4149 0.2674-0.9447 0.4016-1.415 0.199-0.945 0.3979-1.89 0.5969-2.835 0.3512-0.3832 0.893-0.7349 1.43-0.5469 0.2943 0.3351-0.0191 0.7839-0.0424 1.161-0.1846 0.9023-0.4448 1.793-0.5584 2.708-0.0466 0.4979 0.1549 1.134 0.7152 1.23 1.036 0.2224 2.037-0.4202 2.687-1.176 0.2745-0.206 0.3128-0.5397-0.0493-0.64-0.3777 0.3984-0.9301 0.7571-1.501 0.6251-0.3668-0.1906-0.1131-0.6454-0.0833-0.9519 0.1993-1.051 0.4489-2.095 0.605-3.154 0.0442-0.5673-0.2697-1.239-0.8855-1.326-0.8908-0.1535-1.712 0.4734-2.164 1.191-0.1261-0.1256-0.0932-0.6845-0.3945-0.8672-0.4717-0.5091-1.28-0.4107-1.81-0.0513-0.3909 0.2505-0.7025 0.6085-0.9481 0.9991 0.0333-0.2 0.0667-0.4 0.1-0.6z"/>
  <path d="m282.2 129.6c-1.053 0.0191-1.945 0.7722-2.458 1.644-0.771 1.265-1.11 2.878-0.5881 4.3 0.3105 0.7071 1.21 1.065 1.922 0.7624 0.5651-0.1818 1.038-0.5943 1.347-1.096 0.1927 0.3472 0.1934 0.8727 0.626 1.03 0.7512 0.3732 1.63 0.0261 2.244-0.4574 0.3249-0.2373 0.6876-0.4742 0.8541-0.857-0.0114-0.4458-0.6144-0.3367-0.7136-0.0106-0.3351 0.203-0.7855 0.4132-1.157 0.1778-0.3182-0.3843-0.0558-0.888 0.01-1.314 0.2796-1.292 0.5401-2.587 0.8149-3.88-0.3527-0.3055-0.8693-0.2264-1.269-0.0661-0.2633 0.3773-0.7145 0.0318-1.008-0.1192-0.1966-0.0829-0.4118-0.1098-0.6236-0.1143zm0.4 4.7c-0.4249 0.3973-0.9347 0.8294-1.555 0.7864-0.4578-0.1418-0.5992-0.6941-0.537-1.12 0.0281-1.092 0.3252-2.27 1.174-3.018 0.4192-0.3185 1.011-0.462 1.506-0.2395 0.1909 0.454-0.1645 0.8909-0.152 1.347-0.1455 0.7481-0.291 1.496-0.4364 2.244z"/>
  <path d="m288.8 130.6c0.3646 3e-3 0.6501-0.4259 0.5723-0.7646-0.1892-0.3756-0.826 0.106-0.9592-0.2656 0.0873-0.3542 0.2043-0.7017 0.2812-1.06 0.1091-0.3161 0.0493-0.6882-0.355-0.6766-0.5025-0.0937-1.082 0.2002-1.197 0.7221-0.1269 0.3778-0.2172 0.7668-0.3426 1.145-0.4076-0.1506-0.9869 0.2991-0.7798 0.73 0.1759 0.1968 0.8452-0.1139 0.6199 0.3449-0.3102 1.452-0.7005 2.89-0.9351 4.357-0.0389 0.5264 0.1827 1.176 0.744 1.326 0.9383 0.1638 1.854-0.3184 2.531-0.9324 0.3029-0.1858 0.6751-0.7294 0.2329-0.9642-0.3149 0.1385-0.4969 0.5197-0.8835 0.574-0.3101 0.1367-0.8115 0.0981-0.891-0.2979-0.0409-0.4262 0.1175-0.8415 0.1815-1.26 0.1944-1.026 0.3828-2.052 0.5805-3.078 0.2 0.0332 0.4 0.067 0.6 0.0999z"/>
  <path d="m291.1 136.4c0.9398-0.0198 1.976-0.4323 2.397-1.327 0.1301-0.7429-0.6938-0.4557-0.8276 5e-3 -0.5995 0.6037-2.273-0.0623-1.64-0.9161 0.57-0.3568 1.175-0.6553 1.681-1.112 0.7913-0.6149 1.453-1.664 1.099-2.689-0.4774-0.9782-1.834-0.9204-2.646-0.4244-1.253 0.76-1.852 2.256-2.035 3.653-0.1111 0.9635 0.0507 2.168 1.032 2.631 0.2898 0.1454 0.6203 0.1721 0.9392 0.1787zm1.4-5.7c0.7743 0.2718 0.2428 1.279-0.1224 1.691-0.4084 0.4474-1.243 1.362-1.653 1.211 0.0215-0.8785 0.2934-1.797 0.8672-2.476 0.2317-0.2531 0.5594-0.429 0.9083-0.4258z"/>
  <path d="m302.3 134.3c0.258-0.5552-0.6232-0.4994-0.5878-8e-3 -0.4876 0.5611-1.226 0.9908-1.991 0.8785-0.6063-0.2841-0.5266-1.206-0.2659-1.697 1.069-1.635 2.135-3.365 2.452-5.326 0.12-0.6578-0.4889-1.291-1.152-1.145-0.8568 0.08-1.436 0.8341-1.746 1.573-0.7167 1.552-0.926 3.271-1.203 4.941 0.0179 0.5987-0.2021 1.131-0.8374 1.275-0.5602 0.3983 0.2993 0.7458 0.6784 0.7081 0.319 0.2761 0.473 0.8087 1.007 0.8494 0.9948 0.1879 2.017-0.2516 2.784-0.8641 0.3768-0.3173 0.6891-0.7204 0.8604-1.185zm-1.3-6.5c0.4008 0.3956 0.0753 0.9582-0.0683 1.395-0.3162 1.192-0.8556 2.317-1.432 3.405 0.3096-1.531 0.5005-3.118 1.18-4.541 0.0707-0.1199 0.1753-0.2369 0.3204-0.2589z"/>
  <path d="m306.7 130.9c0.0292-0.7404-0.7048-1.295-1.398-1.317-0.9674-0.0447-1.87 0.5262-2.42 1.294-0.565 0.7882-0.9202 1.726-1.054 2.685-0.0871 0.7414 0.0111 1.565 0.5042 2.155 0.6235 0.6727 1.635 0.7965 2.494 0.6175 1.216-0.2358 2.34-0.9641 3.009-2.012 0.0821-0.4433-0.5357-0.4552-0.7375-0.1766-0.191 0.2515-0.387 0.4966-0.6801 0.6345-0.6384 0.3991-1.442 0.6725-2.186 0.4178-0.4246-0.0657-0.7478-0.5448-0.5585-0.9527 0.1906-0.3387 0.6228-0.358 0.9108-0.5778 0.8644-0.5042 1.731-1.182 2.039-2.176 0.0577-0.191 0.0883-0.3916 0.0762-0.5913zm-1.6-0.3c0.4068 0.0949 0.4808 0.6126 0.339 0.9462-0.2583 0.6754-0.7774 1.22-1.335 1.664-0.2106 0.1402-0.5389 0.4445-0.7016 0.4459 0.0429-0.9485 0.197-1.984 0.8904-2.692 0.2081-0.2189 0.498-0.3803 0.8075-0.3642z"/>
  <path d="m310.6 129.6c-0.9887 8.6e-4 -1.826 0.6933-2.353 1.478-0.7164 1.077-1.068 2.417-0.904 3.706 0.0859 0.6359 0.4053 1.341 1.066 1.544 0.8127 0.2532 1.681-0.173 2.189-0.8106 0.1459-0.1219 0.3467-0.6308 0.3141-0.1953 0.0304 0.5374 0.47 0.9931 1.002 1.055 0.7448 0.1228 1.427-0.3193 1.993-0.7492 0.1991-0.1797 0.4633-0.3422 0.5926-0.5669 0.0127-0.1681-5e-3 -0.3313-0.0752-0.4859-0.0959-0.1328-0.3506 0.2877-0.5381 0.3228-0.3525 0.1977-0.7967 0.4156-1.197 0.2319-0.2856-0.2386-0.1402-0.6592-0.0816-0.968 0.2973-1.42 0.5946-2.841 0.8919-4.261-0.2958-0.2926-0.7756-0.221-1.138-0.1125-0.2455 0.0105-0.4186 0.4821-0.6188 0.1879-0.3308-0.2385-0.7359-0.3715-1.144-0.3754zm0.4 4.7c-0.3736 0.3524-0.8041 0.7021-1.323 0.7954-0.4143 0.0716-0.7272-0.3158-0.756-0.6962-0.0717-0.8774 0.1025-1.779 0.4788-2.574 0.3078-0.6632 0.9457-1.261 1.72-1.222 0.1935 0.0322 0.387 0.0645 0.5805 0.0967-0.2333 1.2-0.4667 2.4-0.7 3.6z"/>
  <path d="m319.1 136.4c0.7502-0.0358 1.563-0.4971 1.772-1.255 0.2187-0.3422-0.3849-0.9554-0.4946-0.3947-0.1394 0.3327-0.7598 0.6901-0.9401 0.2122-0.1755-0.5667 0.0682-1.136 0.1603-1.695 0.4046-1.919 0.8191-3.837 1.217-5.758 0.1461-0.5314-0.4912-0.712-0.8892-0.5791-0.5243 0.1341-1.049 0.4028-1.382 0.8402-0.1084 0.168 0.0834 0.323 0.1324 0.4826 0.0607-0.0116 0.4815-0.2907 0.443 0.1107-0.0929 0.5472-0.215 1.09-0.3197 1.636-0.8746-0.6701-2.156-0.4539-2.933 0.2616-1.103 0.9804-1.654 2.483-1.667 3.938 6e-3 0.7458 0.1818 1.628 0.8831 2.031 0.7826 0.4044 1.756 0.0402 2.306-0.5905 0.1934-0.1239 0.4655-0.8212 0.4264-0.2775 0.0266 0.5194 0.4458 0.9672 0.9657 1.013 0.1054 0.0166 0.2122 0.0235 0.3189 0.0235zm-1.2-2.1c-0.3919 0.3662-0.847 0.7444-1.4 0.8-0.4913 0.021-0.7136-0.5181-0.6991-0.9355 8e-3 -1.049 0.2322-2.17 0.933-2.985 0.3848-0.4442 1.012-0.6824 1.587-0.5259 0.121 0.0355 0.359-0.0101 0.2523 0.1834-0.2244 1.154-0.4489 2.309-0.6734 3.463z"/>
  <path d="m327 130.4c0.1894-0.5286-0.4833-0.8491-0.9127-0.6697-0.4917 0.1038-0.9297 0.3824-1.317 0.6906-0.1925 0.2605 0.0647 0.7263 0.3792 0.4834 0.3006 0.1458 0.0691 0.5344 0.0413 0.7931-0.3302 1.501-0.6604 3.002-0.9906 4.503 0.4659 0.3765 1.262 0.2267 1.58-0.2701 0.192-0.4246 0.2235-0.9 0.3402-1.349 0.1932-0.8936 0.3864-1.787 0.5797-2.681 0.3342-0.444 0.9113-0.8442 1.488-0.6469 0.3391 0.2528 0.0592 0.7028 0.0246 1.033-0.3041 1.338-0.6081 2.676-0.9122 4.014 0.495 0.081 1.088 0.2128 1.493-0.1777 0.2708-0.3452 0.2358-0.8173 0.3723-1.219 0.245-1.034 0.49-2.069 0.735-3.103 0.3103-0.43 0.9096-0.756 1.431-0.5182 0.2516 0.3417-0.1607 0.7264-0.1198 1.102-0.1596 0.9507-0.3955 1.893-0.4871 2.853-0.0249 0.4917 0.2431 1.079 0.7879 1.131 0.9951 0.1588 1.924-0.4543 2.58-1.145 0.3022-0.1709 0.2242-0.9352-0.1641-0.5558-0.347 0.3487-0.9195 0.6322-1.413 0.4754-0.2795-0.2568-0.0357-0.6519-0.0121-0.966 0.1864-0.9956 0.4352-1.982 0.5615-2.987 0.0447-0.5651-0.1722-1.263-0.7793-1.428-0.8222-0.2438-1.644 0.2908-2.131 0.9192-0.0829 0.1909-0.3478 0.3966-0.2709 0.0284-0.0373-0.5595-0.5427-1.112-1.135-1.003-0.7942 0.0625-1.449 0.6379-1.848 1.294 0.0333-0.2 0.0668-0.4001 0.1-0.6z"/>
  <path d="m337.3 129.6c-1.262 3e-3 -2.251 1.023-2.74 2.106-0.5419 1.152-0.741 2.511-0.374 3.744 0.2238 0.6632 0.9374 1.057 1.619 0.9395 0.7174-0.0902 1.343-0.5699 1.716-1.175 0.168 0.2632 0.2205 0.9834 0.7638 1.099 0.814 0.2721 1.655-0.1979 2.275-0.6993 0.2966-0.1967 0.9274-0.778 0.4398-1.041-0.3484 0.2688-0.7524 0.5608-1.22 0.6366-0.7035 0.0729-0.6895-0.787-0.5254-1.25 0.3196-1.352 0.6296-2.707 0.9458-4.06-0.3946-0.3239-1.046-0.2609-1.417 0.0645-0.4428 0.1844-0.789-0.4146-1.283-0.3523-0.0664-7e-3 -0.1333-0.0116-0.1999-0.0122zm0.3 4.7c-0.3783 0.4451-0.9969 0.9704-1.614 0.7223-0.5259-0.3568-0.3755-1.074-0.341-1.612 0.1208-0.9402 0.4475-1.962 1.247-2.54 0.3692-0.2442 1.333-0.5023 1.479 0.0272-0.2702 1.035-0.4664 2.093-0.7119 3.136-0.0197 0.0887-0.0394 0.1774-0.0592 0.266z"/>
  <path d="m346.8 134.3c0.3116-0.5044-0.6784-0.5396-0.646-0.0462-0.8041 0.6876-1.905 1.282-2.984 0.9364-0.6994-0.311-0.7274-1.182-0.6462-1.837 0.0801-0.9731 0.3368-2.092 1.2-2.665 0.5802-0.3646 1.15 0.2687 0.7844 0.8205-0.1044 0.9084 1.431 0.3825 1.385-0.3451 0.1449-0.7285-0.4063-1.495-1.163-1.527-1.115-0.226-2.242 0.4041-2.838 1.335-0.7611 1.098-1.146 2.509-0.9205 3.836 0.1736 0.838 0.9049 1.514 1.77 1.566 1.541 0.1609 3.112-0.6565 3.998-1.902l0.0612-0.0975-3e-5 -0.0728z"/>
  <path d="m350.5 136.4c0.9312-0.0772 2.396-0.8292 2.343-1.777-0.5655 0.0926-1.639 1.217-1.877 0.0416 0.306-1.197 0.5481-2.429 0.737-3.656 0.103-0.8825-0.8718-1.554-1.681-1.26-0.5393 0.0569-1.105 0.9746-1.291 0.9722 0.1965-1.13 0.4344-2.253 0.597-3.389-0.327-0.8315-1.391-0.2894-1.913 0.0617-0.5363 0.2598-0.4477 1.009 0.1541 0.8582 0.0615 0.7089-0.3002 1.411-0.3785 2.125-0.4224 1.947-0.8499 3.894-1.275 5.84 0.6829 0.487 1.743-1e-3 1.745-0.8649 0.2194-1.155 0.5018-2.299 0.7381-3.452 0.2651-0.627 1.823-1.132 1.601-0.056-0.1894 1.196-0.6294 2.358-0.6786 3.572 0.0446 0.6138 0.5501 1.079 1.177 0.9838z"/>
  <path d="m353.8 128c-0.1533 0.6042 0.6052 1.1 1.132 0.8448 0.6248-0.1791 0.9223-1.124 0.3884-1.559-0.5374-0.4617-1.434-0.0179-1.514 0.6509zm-1.2 6.9c-0.1798 0.504-0.0259 1.216 0.5335 1.399 0.8768 0.2959 1.82-0.1092 2.477-0.696 0.2271-0.2458 0.6055-0.4321 0.5616-0.8218-0.0913-0.4754-0.4786 0.0515-0.6849 0.1601-0.3114 0.1855-0.7017 0.3117-1.06 0.2154-0.3756-0.2331-0.2467-0.735-0.1978-1.097 0.2664-1.3 0.5621-2.593 0.8078-3.897-0.0133-0.3649-0.4249-0.5099-0.7356-0.4655-0.4661 0.0629-0.9177 0.2644-1.291 0.5484-0.3315 0.1456-0.2826 0.8206 0.1242 0.6914 0.3748 0.0858 0.0774 0.581 0.0469 0.8356-0.1757 1.044-0.3902 2.085-0.5814 3.128z"/>
  <path d="m356.2 131c0.6713-0.3349 0.3013 0.5867 0.258 0.9099l-0.858 4.29c0.322 0.3716 1.028 0.2069 1.36-0.1089 0.3017-0.3245 0.2723-0.7975 0.3934-1.201 0.2155-0.9967 0.431-1.993 0.6465-2.99 0.3353-0.3882 0.852-0.77 1.389-0.671 0.4649 0.3029 0.118 0.9 0.068 1.321-0.1752 0.8786-0.4439 1.744-0.5282 2.638-0.0936 0.6458 0.414 1.287 1.092 1.216 1.057-0.0255 2.01-0.7173 2.561-1.586-0.2823-0.6723-0.6546 0.2352-1.095 0.2688-0.4109 0.2549-1.143 0.081-0.8602-0.5184 0.212-1.168 0.5116-2.322 0.6572-3.5 0.1079-0.6377-0.2717-1.443-1.016-1.368-0.8492 0.0498-1.617 0.5977-2.068 1.301 0.0195-0.376 0.2607-0.8203 2e-3 -1.154-0.4097-0.2898-0.9758-0.1104-1.387 0.0902-0.3698 0.2083-1.196 0.5705-0.6146 1.064z"/>
  <path d="m367 130.9c0.0462-0.6098-0.4381-1.205-1.052-1.261-0.9896-0.1965-2.023 0.3061-2.599 1.111-0.7778 1.002-1.165 2.288-1.146 3.55 0.0288 0.7485 0.3917 1.54 1.103 1.862 0.863 0.4107 1.88 0.2413 2.734-0.1073 0.8682-0.3621 1.644-0.9769 2.133-1.787 0.133-0.4798-0.6791-0.4888-0.6773-0.0483-0.7031 0.5942-1.568 1.133-2.525 1.07-0.407-0.0261-0.8248-0.2456-0.9797-0.6403-0.2183-0.2969 0.0867-0.5143 0.3432-0.6007 0.9019-0.5381 1.845-1.125 2.398-2.047 0.1804-0.3362 0.278-0.7183 0.2695-1.1zm-1.4-0.2c0.4535 0.0565 0.4764 0.652 0.3001 0.9753-0.3473 0.8766-1.139 1.456-1.874 1.994-0.3932 0.2076-0.1529-0.3699-0.1626-0.5674 0.1173-0.7612 0.3787-1.546 0.9452-2.093 0.2186-0.1873 0.4994-0.3159 0.7913-0.3087z"/>
 </g>
 <path id="consultation-button" d="m313.7 157.3h59.7c5.318 0 9.6 4.014 9.6 9s-4.282 9-9.6 9h-59.7c-5.318 0-9.6-4.014-9.6-9s4.282-9 9.6-9z" stroke-linecap="round" stroke-width=".3"/>
 <path id="consultation-button-hov" d="m314.1 156.1h59.7c5.318 0 9.6 4.014 9.6 9s-4.282 9-9.6 9h-59.7c-5.318 0-9.6-4.014-9.6-9s4.282-9 9.6-9z" stroke-linecap="round" stroke-width=".3"/>
 <text id="consultation-button-text" x="343.45001" y="166.93787" fill="#ffffff" font-family="sans-serif" font-size="4.3px" font-weight="700" letter-spacing="0" stroke-width=".2" word-spacing="0" style="font-feature-settings:normal;font-variant-caps:normal;font-variant-ligatures:normal;font-variant-numeric:normal;line-height:1.25">
  <tspan x="343.45001" y="166.93787" text-align="center" text-anchor="middle">FREE CONSULTATION</tspan>
 </text>
 <g stroke-linecap="round" stroke-width=".3">
  <path id="learn-more-button-shadow" d="m226.2 157.3h59.7c5.318 0 9.6 4.014 9.6 9s-4.282 9-9.6 9h-59.7c-5.318 0-9.6-4.014-9.6-9s4.282-9 9.6-9z"/>
  <path id="learn-more-button" d="m226.6 156.1h59.7c5.318 0 9.6 4.014 9.6 9s-4.282 9-9.6 9h-59.7c-5.318 0-9.6-4.014-9.6-9s4.282-9 9.6-9z"/>
  <path id="learn-more-button-hov" d="m226.6 156.1h59.7c5.318 0 9.6 4.126 9.6 9.25s-4.282 9.25-9.6 9.25h-59.7c-5.318 0-9.6-4.126-9.6-9.25s4.282-9.25 9.6-9.25z"/>
 </g>
 <text id="learn-more-button-text" x="238.35001" y="166.93787" fill="#ffffff" font-family="sans-serif" font-size="4.5px" font-weight="400" letter-spacing="0" stroke-width=".2" word-spacing="0" style="font-feature-settings:normal;font-variant-caps:normal;font-variant-ligatures:normal;font-variant-numeric:normal;line-height:1.25">
  <tspan x="238.35001" y="166.93787" font-weight="700">LEARN MORE</tspan>
 </text>
</svg>
