<svg version="1.1" viewBox="0 0 600 310" xmlns="http://www.w3.org/2000/svg">
 <g id="banner-bg" fill="none" stroke="#4c60fd" stroke-opacity=".2" stroke-width=".4">
  <path d="m0.1636 59.33s115 103.1 300 103.1 300-103.1 300-103.1" stroke-dasharray="4.5, 4.5"/>
  <path d="m23.36 0.1314s105.4 158.4 276.8 158.4 276.8-158.4 276.8-158.4"/>
  <path d="m0.1636 28.53s107.7 132.6 300 132.6 300-132.6 300-132.6"/>
  <path d="m0.1636 88.63s116.6 75.3 300 75.3 300-75.3 300-75.3"/>
  <path d="m85.86 0.1314s77.7 109.1 214.3 109.1 214.3-109.1 214.3-109.1" stroke-dasharray="4.5, 4.5"/>
  <path d="m118 0.1314s74.2 85.1 182.2 85.1 182.2-85.1 182.2-85.1" stroke-dasharray="9.1, 9.1"/>
  <path stroke-opacity="1" d="m0.1636 119.7s122.5 45.4 300 45.4 300-45.4 300-45.4"/>
  <path d="m0.1636 208.9s154.4-45.3 300-40.1c145.6-5.2 300 40.1 300 40.1"/>
  <path d="m0.1636 268.3s104.5-97.2 300-97.2 300 97.2 300 97.2"/>
  <path d="m0.1636 304.6s99.9-132.2 300-132.2 300 132.2 300 132.2"/>
  <path d="m600.2 0.1314s-112.2 159.7-300 159.7-300-159.7-300-159.7"/>
  <path d="m600.2 149.3s-138 17.2-300 17.2-300-17.2-300-17.2"/>
  <path d="m600.2 178.8s-62.4-11.3-300-11.3c-237.6 0-300 11.3-300 11.3"/>
  <path d="m600.2 238.4s-100.3-68.5-300-68.5-300 68.5-300 68.5"/>
 </g>
</svg>
