<?xml version="1.0" encoding="UTF-8" standalone="no"?>
<!-- Created with Inkscape (http://www.inkscape.org/) -->

<svg
   xmlns:dc="http://purl.org/dc/elements/1.1/"
   xmlns:cc="http://creativecommons.org/ns#"
   xmlns:rdf="http://www.w3.org/1999/02/22-rdf-syntax-ns#"
   xmlns:svg="http://www.w3.org/2000/svg"
   xmlns="http://www.w3.org/2000/svg"
   xmlns:sodipodi="http://sodipodi.sourceforge.net/DTD/sodipodi-0.dtd"
   xmlns:inkscape="http://www.inkscape.org/namespaces/inkscape"
   width="600"
   height="300"
   viewBox="0 0 600 300"
   version="1.1"
   id="svg4553"
   inkscape:version="0.92.3 (2405546, 2018-03-11)"
   sodipodi:docname="ss-logo.svg">
  <defs
     id="defs4547" />
  <sodipodi:namedview
     id="base"
     pagecolor="#ffffff"
     bordercolor="#666666"
     borderopacity="1.0"
     inkscape:pageopacity="0"
     inkscape:pageshadow="2"
     inkscape:zoom="1.8083334"
     inkscape:cx="94.248528"
     inkscape:cy="243.59447"
     inkscape:document-units="px"
     inkscape:current-layer="layer1"
     showgrid="false"
     units="px"
     inkscape:pagecheckerboard="true"
     inkscape:showpageshadow="false"
     inkscape:snap-global="false" />
  <metadata
     id="metadata4550">
    <rdf:RDF>
      <cc:Work
         rdf:about="">
        <dc:format>image/svg+xml</dc:format>
        <dc:type
           rdf:resource="http://purl.org/dc/dcmitype/StillImage" />
        <dc:title />
      </cc:Work>
    </rdf:RDF>
  </metadata>
  <g
     inkscape:label="Layer 1"
     inkscape:groupmode="layer"
     id="layer1"
     transform="translate(0,-217.625)">
    <path
       style="color:#000000;font-style:normal;font-variant:normal;font-weight:normal;font-stretch:normal;font-size:medium;line-height:normal;font-family:sans-serif;font-variant-ligatures:normal;font-variant-position:normal;font-variant-caps:normal;font-variant-numeric:normal;font-variant-alternates:normal;font-feature-settings:normal;text-indent:0;text-align:start;text-decoration:none;text-decoration-line:none;text-decoration-style:solid;text-decoration-color:#000000;letter-spacing:normal;word-spacing:normal;text-transform:none;writing-mode:lr-tb;direction:ltr;text-orientation:mixed;dominant-baseline:auto;baseline-shift:baseline;text-anchor:start;white-space:normal;shape-padding:0;clip-rule:nonzero;display:inline;overflow:visible;visibility:visible;opacity:1;isolation:auto;mix-blend-mode:normal;color-interpolation:sRGB;color-interpolation-filters:linearRGB;solid-color:#000000;solid-opacity:1;vector-effect:none;fill:#161B3D;fill-opacity:1;fill-rule:nonzero;stroke:none;stroke-width:1;stroke-linecap:round;stroke-linejoin:bevel;stroke-miterlimit:4;stroke-dasharray:none;stroke-dashoffset:0;stroke-opacity:1;paint-order:markers stroke fill;color-rendering:auto;image-rendering:auto;shape-rendering:auto;text-rendering:auto;enable-background:accumulate"
       d="m 8.6035156,10.140625 -0.5,0.5 v 25.416016 l 0.5,0.5 H 62.117188 136.86719 l 0.5,-0.5 V 10.640625 l -0.5,-0.5 H 77.058594 Z m 68.7421874,1 H 136.36719 V 35.556641 H 62.992188 l 3.464843,-5.894532 c -1.399036,-0.01792 -2.380388,-0.284429 -2.923828,-0.814453 -0.5625,-0.555553 -0.84375,-1.563151 -0.84375,-3.021484 v -6.332031 h -1.40625 v -1.490235 h 1.40625 v -3.3125 h 1.927735 v 3.3125 h 3.947265 v 1.490235 h -3.947265 v 6.332031 c -10e-7,0.951387 0.127821,1.563151 0.384765,1.833984 0.263889,0.270834 0.795139,0.40625 1.59375,0.40625 h 0.798828 z m -59.894531,6.582031 c 0.708333,0 1.375,0.05208 2,0.15625 0.625,0.104167 1.200737,0.260417 1.728516,0.46875 v 1.8125 c -0.541668,-0.27778 -1.104168,-0.486113 -1.6875,-0.625 -0.583335,-0.138884 -1.1875,-0.208984 -1.8125,-0.208984 -0.95139,0 -1.667318,0.145833 -2.146485,0.4375 -0.472222,0.291667 -0.707031,0.729167 -0.707031,1.3125 0,0.444447 0.169488,0.795794 0.509766,1.052734 0.340277,0.25 1.024956,0.489584 2.052734,0.71875 l 0.65625,0.146485 c 1.361111,0.291666 2.325087,0.703561 2.894531,1.238281 0.576389,0.52778 0.865235,1.267363 0.865235,2.21875 0,1.083333 -0.429905,1.942272 -1.291016,2.574219 -0.854167,0.63194 -2.03125,0.947265 -3.53125,0.947265 -0.625,0 -1.278429,-0.0625 -1.958984,-0.1875 -0.673611,-0.118053 -1.384765,-0.297962 -2.134766,-0.541015 v -1.980469 c 0.708334,0.368053 1.40625,0.646484 2.09375,0.833984 0.6875,0.180565 1.367404,0.271485 2.041016,0.271485 0.902778,0 1.597873,-0.153425 2.083984,-0.458985 0.486111,-0.3125 0.728516,-0.75 0.728516,-1.3125 0,-0.520833 -0.177085,-0.919492 -0.53125,-1.197265 -0.347223,-0.27778 -1.115235,-0.545788 -2.302735,-0.802735 l -0.666015,-0.15625 c -1.1875,-0.25 -2.044489,-0.632597 -2.572266,-1.146484 -0.527778,-0.520833 -0.792969,-1.231986 -0.792969,-2.134766 0,-1.09722 0.390191,-1.943789 1.167969,-2.541015 0.777777,-0.59722 1.881944,-0.896485 3.3125,-0.896485 z m 11.849609,0 c 0.847223,0 1.565973,0.215931 2.15625,0.646485 0.597223,0.43056 1.037544,1.05556 1.322266,1.875 0.479167,-0.861107 1.052083,-1.496524 1.71875,-1.90625 0.666667,-0.40972 1.452691,-0.615235 2.355469,-0.615235 1.215278,0 2.152778,0.427084 2.8125,1.28125 0.659722,0.84722 0.988281,2.055554 0.988281,3.625 v 7.041016 h -1.925781 v -6.978516 c 0,-1.118053 -0.197917,-1.948567 -0.59375,-2.490234 -0.395834,-0.541667 -1,-0.8125 -1.8125,-0.8125 -0.993056,0 -1.77908,0.330514 -2.355469,0.990234 -0.576389,0.659727 -0.863281,1.558379 -0.863281,2.697266 v 6.59375 h -1.927735 v -6.978516 c 0,-1.125 -0.197916,-1.955514 -0.59375,-2.490234 -0.395833,-0.541667 -1.007595,-0.8125 -1.833984,-0.8125 -0.979167,0 -1.755642,0.333333 -2.332031,1 -0.576389,0.65972 -0.865235,1.555553 -0.865235,2.6875 v 6.59375 H 23.623047 V 18.003906 h 1.927734 v 1.8125 c 0.4375,-0.71528 0.961155,-1.243711 1.572266,-1.583984 0.611111,-0.34028 1.337457,-0.509766 2.177734,-0.509766 z m 17.345703,0 c 1.687501,0 2.947917,0.4375 3.78125,1.3125 0.833334,0.875 1.25,2.200736 1.25,3.978516 v 6.65625 h -1.916015 v -1.769531 c -0.4375,0.708333 -0.983941,1.231992 -1.636719,1.572265 -0.652778,0.333334 -1.450087,0.5 -2.394531,0.5 -1.194445,0 -2.147136,-0.333333 -2.855469,-1 -0.701389,-0.673606 -1.050781,-1.572265 -1.050781,-2.697265 0,-1.3125 0.4375,-2.302084 1.3125,-2.96875 0.881944,-0.666667 2.194444,-1 3.9375,-1 h 2.6875 v -0.1875 c 0,-0.881947 -0.291667,-1.563802 -0.875,-2.042969 -0.57639,-0.486113 -1.38889,-0.728516 -2.4375,-0.728516 -0.666667,0 -1.317274,0.08051 -1.949219,0.240235 -0.631945,0.159726 -1.238932,0.39931 -1.822266,0.71875 v -1.771485 c 0.70139,-0.270833 1.381294,-0.471569 2.041016,-0.603515 0.659722,-0.138885 1.302734,-0.208985 1.927734,-0.208985 z m 12.28125,0 c 0.131944,0 0.277778,0.01045 0.4375,0.03125 0.159722,0.01387 0.336806,0.03754 0.53125,0.07227 l 0.01172,1.96875 c -0.215277,-0.125 -0.45204,-0.213971 -0.708984,-0.269531 -0.25,-0.06247 -0.528429,-0.09375 -0.833985,-0.09375 -1.083333,0 -1.916666,0.354166 -2.5,1.0625 -0.576388,0.701393 -0.863281,1.711803 -0.863281,3.03125 v 6.144531 h -1.927735 v -11.66602 h 1.927734 v 1.8125 c 0.402778,-0.708333 0.926432,-1.231985 1.572266,-1.572265 0.645833,-0.34722 1.429904,-0.521485 2.353515,-0.521485 z m -11.072265,6.083985 c -1.548612,0 -2.621528,0.177083 -3.21875,0.53125 -0.597223,0.354166 -0.896485,0.958333 -0.896485,1.8125 0,0.680553 0.221571,1.22222 0.666016,1.625 0.451389,0.395833 1.063151,0.59375 1.833984,0.59375 1.0625,0 1.913845,-0.375 2.552735,-1.125 0.645833,-0.756947 0.96875,-1.761719 0.96875,-3.011719 v -0.425781 z"
       transform="translate(0,217.625)"
       id="path4799"
       inkscape:connector-curvature="0" />
    <path
       style="font-style:normal;font-variant:normal;font-weight:normal;font-stretch:normal;font-size:21.33333397px;line-height:1.25;font-family:sans-serif;-inkscape-font-specification:'sans-serif, Normal';font-variant-ligatures:normal;font-variant-caps:normal;font-variant-numeric:normal;font-feature-settings:normal;text-align:center;letter-spacing:0px;word-spacing:0px;writing-mode:lr-tb;text-anchor:middle;fill:#161B3D;fill-opacity:1;stroke:none"
       d="m 77.980657,235.9724 c 0,0.60417 0,1.20833 0,1.8125 -1.524749,-0.77626 -3.333633,-1.05062 -5.007162,-0.66243 -0.696591,0.15014 -1.349008,0.71505 -1.344238,1.47143 -0.0744,0.61843 0.349979,1.19685 0.927368,1.39107 1.611491,0.67156 3.501936,0.61463 4.952352,1.67803 1.068704,0.76049 1.302279,2.25917 0.944051,3.45075 -0.435941,1.3879 -1.877042,2.16506 -3.237884,2.37164 -1.857327,0.30418 -3.754333,-0.0479 -5.526154,-0.61715 0,-0.65972 0,-1.31945 0,-1.97917 1.655157,0.87136 3.601742,1.37031 5.4611,0.95915 0.733309,-0.1538 1.473281,-0.71344 1.483969,-1.52182 0.07422,-0.67075 -0.333427,-1.34056 -0.977011,-1.55928 -1.53645,-0.67235 -3.346873,-0.60183 -4.761393,-1.57165 -0.966479,-0.64314 -1.251906,-1.91224 -1.082316,-3.00139 0.126648,-1.17431 1.040334,-2.1353 2.138346,-2.49675 1.41785,-0.48283 2.95755,-0.40106 4.416423,-0.17354 0.549953,0.0984 1.092545,0.24335 1.612549,0.44861 z"
       id="path4766"
       inkscape:connector-curvature="0" />
    <path
       style="font-style:normal;font-variant:normal;font-weight:normal;font-stretch:normal;font-size:21.33333397px;line-height:1.25;font-family:sans-serif;-inkscape-font-specification:'sans-serif, Normal';font-variant-ligatures:normal;font-variant-caps:normal;font-variant-numeric:normal;font-feature-settings:normal;text-align:center;letter-spacing:0px;word-spacing:0px;writing-mode:lr-tb;text-anchor:middle;fill:#161B3D;fill-opacity:1;stroke:none"
       d="m 81.586843,245.54532 c 0,2.0625 0,4.125 0,6.1875 -0.642361,0 -1.284723,0 -1.927084,0 0,-5.36806 0,-10.73611 0,-16.10417 0.642361,0 1.284723,0 1.927084,0 0,0.59028 0,1.18055 0,1.77083 0.67027,-1.2722 2.06762,-2.04662 3.492045,-2.04759 1.509083,-0.1157 3.013764,0.63842 3.846496,1.8981 1.204826,1.72497 1.35639,3.96682 1.014324,5.98749 -0.332055,1.9044 -1.623205,3.83625 -3.611328,4.25445 -1.583157,0.33048 -3.451748,-0.0681 -4.419922,-1.45898 -0.116977,-0.15582 -0.223875,-0.31911 -0.321615,-0.48763 z m 6.520833,-4.07292 c 0.01283,-1.49471 -0.358864,-3.21583 -1.685781,-4.09485 -1.261724,-0.78344 -3.131893,-0.48624 -3.970469,0.78235 -0.928726,1.34583 -0.970756,3.09313 -0.76242,4.65919 0.184286,1.29669 0.921724,2.69232 2.270802,3.05717 1.17544,0.33982 2.578583,-0.0295 3.272868,-1.08094 0.687925,-0.95459 0.872765,-2.17309 0.875,-3.32292 z"
       id="path4768"
       inkscape:connector-curvature="0" />
    <path
       style="font-style:normal;font-variant:normal;font-weight:normal;font-stretch:normal;font-size:21.33333397px;line-height:1.25;font-family:sans-serif;-inkscape-font-specification:'sans-serif, Normal';font-variant-ligatures:normal;font-variant-caps:normal;font-variant-numeric:normal;font-feature-settings:normal;text-align:center;letter-spacing:0px;word-spacing:0px;writing-mode:lr-tb;text-anchor:middle;fill:#161B3D;fill-opacity:1;stroke:none"
       d="m 98.099272,237.42032 c -0.930874,-0.49378 -2.098012,-0.47076 -3.056559,-0.0647 -1.130018,0.49936 -1.694572,1.7453 -1.802197,2.91708 -0.08726,0.996 -0.03177,1.99775 -0.04749,2.99646 0,1.34206 0,2.68412 0,4.02618 -0.642361,0 -1.284722,0 -1.927083,0 0,-3.88889 0,-7.77778 0,-11.66667 0.642361,0 1.284722,0 1.927083,0 0,0.60417 0,1.20833 0,1.8125 0.573356,-1.07554 1.667358,-1.82949 2.870197,-2.00779 0.66963,-0.11952 1.358023,-0.1087 2.025632,0.0181 0.0035,0.65626 0.0069,1.31251 0.01042,1.96877 z"
       id="path4770"
       inkscape:connector-curvature="0" />
    <path
       style="font-style:normal;font-variant:normal;font-weight:normal;font-stretch:normal;font-size:21.33333397px;line-height:1.25;font-family:sans-serif;-inkscape-font-specification:'sans-serif, Normal';font-variant-ligatures:normal;font-variant-caps:normal;font-variant-numeric:normal;font-feature-settings:normal;text-align:center;letter-spacing:0px;word-spacing:0px;writing-mode:lr-tb;text-anchor:middle;fill:#161B3D;fill-opacity:1;stroke:none"
       d="m 112.79244,242.69115 c 0,-2.35417 0,-4.70833 0,-7.0625 0.63889,0 1.27777,0 1.91666,0 0.006,2.46355 -0.0129,4.92753 0.0101,7.39079 0.0405,1.00087 0.34718,2.17517 1.32447,2.65092 0.92138,0.41549 2.04092,0.32472 2.93253,-0.12618 1.14566,-0.60704 1.68413,-1.94787 1.66952,-3.19487 0.002,-2.24021 3e-4,-4.48044 8.9e-4,-6.72066 0.63889,0 1.27778,0 1.91667,0 0,3.88889 0,7.77778 0,11.66667 -0.63889,0 -1.27778,0 -1.91667,0 0,-0.59722 0,-1.19445 0,-1.79167 -0.67763,1.08388 -1.80248,1.92734 -3.09876,2.05338 -1.35782,0.17193 -2.91203,-0.14303 -3.77783,-1.28888 -0.78287,-1.00821 -0.97349,-2.33508 -0.97757,-3.577 z"
       id="path4775"
       inkscape:connector-curvature="0" />
    <path
       style="font-style:normal;font-variant:normal;font-weight:normal;font-stretch:normal;font-size:21.33333397px;line-height:1.25;font-family:sans-serif;-inkscape-font-specification:'sans-serif, Normal';font-variant-ligatures:normal;font-variant-caps:normal;font-variant-numeric:normal;font-feature-settings:normal;text-align:center;letter-spacing:0px;word-spacing:0px;writing-mode:lr-tb;text-anchor:middle;fill:#161B3D;fill-opacity:1;stroke:none"
       d="m 127.22698,232.31615 c 0,1.10417 0,2.20833 0,3.3125 1.31597,0 2.63195,0 3.94792,0 0,0.49653 0,0.99305 0,1.48958 -1.31597,0 -2.63195,0 -3.94792,0 0.006,2.25142 -0.012,4.5032 0.009,6.75438 0.045,0.58393 0.0649,1.37298 0.70173,1.62652 0.8448,0.30055 1.75509,0.15844 2.63375,0.19202 0.20101,0 0.40202,0 0.60303,0 0,0.53472 0,1.06945 0,1.60417 -1.31397,-0.0328 -2.65388,0.11579 -3.93811,-0.23225 -0.7559,-0.18283 -1.41246,-0.73573 -1.63944,-1.49124 -0.4328,-1.28447 -0.26172,-2.65491 -0.29745,-3.98563 0,-1.48932 0,-2.97865 0,-4.46797 -0.46875,0 -0.9375,0 -1.40625,0 0,-0.49653 0,-0.99305 0,-1.48958 0.46875,0 0.9375,0 1.40625,0 0,-1.10417 0,-2.20833 0,-3.3125 0.64236,0 1.28472,0 1.92708,0 z"
       id="path4777"
       inkscape:connector-curvature="0" />
    <text
       xml:space="preserve"
       style="font-style:normal;font-variant:normal;font-weight:normal;font-stretch:normal;font-size:21.33333397px;line-height:1.25;font-family:sans-serif;-inkscape-font-specification:'sans-serif, Normal';font-variant-ligatures:normal;font-variant-caps:normal;font-variant-numeric:normal;font-feature-settings:normal;text-align:center;letter-spacing:0px;word-spacing:0px;writing-mode:lr-tb;text-anchor:middle;fill:#000000;fill-opacity:1;stroke:none"
       x="169.23076"
       y="318.17447"
       id="text4750"><tspan
         sodipodi:role="line"
         id="tspan4748"
         x="169.23076"
         y="337.04947" /></text>
    <path
       style="fill:#161B3D;fill-opacity:1;stroke-width:0.39125225"
       d="m 105.96412,236.19236 c -0.30648,-0.21493 -0.61296,-0.42986 -0.91944,-0.64479 -0.70733,0.72533 -1.87789,0.56108 -2.74498,0.25142 -1.09016,-0.43497 -1.72414,-1.53031 -2.26935,-2.50696 -0.438671,-0.60061 -0.559545,-1.86605 0.53739,-1.59666 1.31956,0.0955 2.75228,0.39028 3.67611,1.41844 0.53527,0.5644 1.23227,1.32618 0.96203,2.16732 0.47074,0.32063 0.93065,0.67094 1.40812,0.97309 2.59981,0.5036 4.68303,2.8666 4.85288,5.51109 0.26083,2.66915 -1.45944,5.36838 -3.99294,6.25352 -2.47226,0.95594 -5.48852,0.0625 -7.04245,-2.08348 -0.674259,-0.89964 -1.090538,-1.98876 -1.193062,-3.10806 -1.012895,-0.58898 -0.956814,-2.07014 -0.374778,-2.95309 0.396636,-0.74046 1.54078,-1.1462 2.12006,-0.37928 0.7442,0.99649 0.38992,2.59363 -0.64313,3.25255 0.1764,2.3268 2.17535,4.3248 4.49544,4.52014 2.25341,0.26908 4.55374,-1.19291 5.26622,-3.34683 0.30385,-0.84066 0.30133,-1.74987 0.3125,-2.63064 -0.15267,-0.90808 -0.424,-1.81201 -1.00672,-2.54166 -0.39509,-0.70143 -1.1363,-1.0834 -1.74375,-1.57316 -0.58653,-0.2678 -1.12282,-0.68853 -1.78211,-0.73549 -0.4415,-0.0283 -1.24329,-0.20692 -1.03203,0.47078 -0.28889,1.27037 -1.82608,1.83124 -2.97314,1.40889 -0.72046,-0.25454 -1.58107,-0.59715 -1.87238,-1.36684 0.26383,-0.39392 1.31649,-0.0999 1.88722,-0.21677 0.85842,0.0359 1.71433,-0.0779 2.51538,-0.39809 0.50381,-0.14889 1.03411,-0.21166 1.55691,-0.14544 z"
       id="path4774"
       inkscape:connector-curvature="0" />
    <path
       inkscape:connector-curvature="0"
       id="path4828"
       d="M 77.058594,271.39927 62.117188,296.81528 H 136.86719 V 271.39927 Z"
       style="opacity:1;vector-effect:none;fill:none;fill-opacity:1;stroke:#161B3D;stroke-width:1;stroke-linecap:round;stroke-linejoin:bevel;stroke-miterlimit:4;stroke-dasharray:none;stroke-dashoffset:0;stroke-opacity:1;paint-order:markers stroke fill" />
    <path
       inkscape:connector-curvature="0"
       id="path4830"
       d="M 62.117188,296.81528 77.058594,271.39927 H 8.6035156 v 25.41601 z"
       style="opacity:1;vector-effect:none;fill:#161B3D;fill-opacity:1;stroke:#161B3D;stroke-width:1;stroke-linecap:round;stroke-linejoin:bevel;stroke-miterlimit:4;stroke-dasharray:none;stroke-dashoffset:0;stroke-opacity:1;paint-order:markers stroke fill" />
    <path
       d="m 21.1794,279.10604 v 1.8125 q -0.8125,-0.41667 -1.6875,-0.625 -0.875,-0.20833 -1.8125,-0.20833 -1.427084,0 -2.145834,0.4375 -0.708333,0.4375 -0.708333,1.3125 0,0.66667 0.510416,1.05208 0.510417,0.375 2.052084,0.71875 l 0.65625,0.14584 q 2.041667,0.4375 2.895833,1.23958 0.864584,0.79167 0.864584,2.21875 0,1.625 -1.291667,2.57292 -1.28125,0.94791 -3.53125,0.94791 -0.9375,0 -1.958334,-0.1875 -1.010416,-0.17708 -2.135417,-0.54166 v -1.97917 q 1.062501,0.55208 2.093751,0.83333 1.03125,0.27084 2.041666,0.27084 1.354167,0 2.083334,-0.45834 0.729167,-0.46875 0.729167,-1.3125 0,-0.78125 -0.53125,-1.19791 -0.520834,-0.41667 -2.302084,-0.80209 l -0.666667,-0.15625 q -1.78125,-0.375 -2.572916,-1.14583 -0.791667,-0.78125 -0.791667,-2.13542 0,-1.64583 1.166667,-2.54167 1.166666,-0.89583 3.3125,-0.89583 1.0625,0 2,0.15625 0.9375,0.15625 1.729167,0.46875 z"
       style="font-style:normal;font-variant:normal;font-weight:normal;font-stretch:normal;font-size:21.33333397px;line-height:1.25;font-family:sans-serif;-inkscape-font-specification:'sans-serif, Normal';font-variant-ligatures:normal;font-variant-caps:normal;font-variant-numeric:normal;font-feature-settings:normal;text-align:center;letter-spacing:0px;word-spacing:0px;writing-mode:lr-tb;text-anchor:middle;fill:#ffffff;fill-opacity:1;stroke:none"
       id="path4832"
       inkscape:connector-curvature="0" />
    <path
       d="m 32.779726,281.00187 q 0.71875,-1.29166 1.71875,-1.90625 1,-0.61458 2.354167,-0.61458 1.822917,0 2.8125,1.28125 0.989583,1.27083 0.989583,3.625 v 7.04167 h -1.927083 v -6.97917 q 0,-1.67708 -0.59375,-2.48958 -0.59375,-0.8125 -1.8125,-0.8125 -1.489584,0 -2.354167,0.98958 -0.864583,0.98959 -0.864583,2.69792 v 6.59375 h -1.927084 v -6.97917 q 0,-1.6875 -0.59375,-2.48958 -0.59375,-0.8125 -1.833333,-0.8125 -1.46875,0 -2.333334,1 -0.864583,0.98958 -0.864583,2.6875 v 6.59375 h -1.927083 v -11.66667 h 1.927083 v 1.8125 q 0.65625,-1.07292 1.572917,-1.58333 0.916667,-0.51042 2.177083,-0.51042 1.270834,0 2.15625,0.64583 0.895834,0.64584 1.322917,1.875 z"
       style="font-style:normal;font-variant:normal;font-weight:normal;font-stretch:normal;font-size:21.33333397px;line-height:1.25;font-family:sans-serif;-inkscape-font-specification:'sans-serif, Normal';font-variant-ligatures:normal;font-variant-caps:normal;font-variant-numeric:normal;font-feature-settings:normal;text-align:center;letter-spacing:0px;word-spacing:0px;writing-mode:lr-tb;text-anchor:middle;fill:#ffffff;fill-opacity:1;stroke:none"
       id="path4834"
       inkscape:connector-curvature="0" />
    <path
       d="m 47.85466,284.56438 q -2.322917,0 -3.21875,0.53125 -0.895834,0.53125 -0.895834,1.8125 0,1.02083 0.666667,1.625 0.677083,0.59375 1.833333,0.59375 1.59375,0 2.552084,-1.125 0.96875,-1.13542 0.96875,-3.01042 v -0.42708 z m 3.822917,-0.79167 v 6.65625 H 49.76091 v -1.77083 q -0.65625,1.0625 -1.635417,1.57291 -0.979167,0.5 -2.395833,0.5 -1.791667,0 -2.854167,-1 -1.052083,-1.01041 -1.052083,-2.69791 0,-1.96875 1.3125,-2.96875 1.322916,-1 3.9375,-1 h 2.6875 v -0.1875 q 0,-1.32292 -0.875,-2.04167 -0.864584,-0.72917 -2.4375,-0.72917 -1,0 -1.947917,0.23958 -0.947917,0.23959 -1.822917,0.71875 v -1.77083 q 1.052084,-0.40625 2.041667,-0.60417 0.989583,-0.20833 1.927083,-0.20833 2.531251,0 3.781251,1.3125 1.25,1.3125 1.25,3.97917 z"
       style="font-style:normal;font-variant:normal;font-weight:normal;font-stretch:normal;font-size:21.33333397px;line-height:1.25;font-family:sans-serif;-inkscape-font-specification:'sans-serif, Normal';font-variant-ligatures:normal;font-variant-caps:normal;font-variant-numeric:normal;font-feature-settings:normal;text-align:center;letter-spacing:0px;word-spacing:0px;writing-mode:lr-tb;text-anchor:middle;fill:#ffffff;fill-opacity:1;stroke:none"
       id="path4836"
       inkscape:connector-curvature="0" />
    <path
       d="m 59.907846,280.55396 q -0.322916,-0.1875 -0.708333,-0.27084 -0.375,-0.0937 -0.833333,-0.0937 -1.625,0 -2.500001,1.0625 -0.864583,1.05209 -0.864583,3.03126 v 6.14583 h -1.927083 v -11.66667 h 1.927083 v 1.8125 q 0.604167,-1.0625 1.572917,-1.57292 0.96875,-0.52083 2.354167,-0.52083 0.197916,0 0.4375,0.0312 0.239583,0.0208 0.53125,0.0729 z"
       style="font-style:normal;font-variant:normal;font-weight:normal;font-stretch:normal;font-size:21.33333397px;line-height:1.25;font-family:sans-serif;-inkscape-font-specification:'sans-serif, Normal';font-variant-ligatures:normal;font-variant-caps:normal;font-variant-numeric:normal;font-feature-settings:normal;text-align:center;letter-spacing:0px;word-spacing:0px;writing-mode:lr-tb;text-anchor:middle;fill:#ffffff;fill-opacity:1;stroke:none"
       id="path4838"
       inkscape:connector-curvature="0" />
    <path
       d="m 64.616985,275.44979 v 3.3125 h 3.947917 v 1.48958 h -3.947917 v 6.33334 q 0,1.42708 0.385416,1.83333 0.395834,0.40625 1.59375,0.40625 h 1.968751 v 1.60417 h -1.968751 q -2.21875,0 -3.0625,-0.82292 -0.84375,-0.83333 -0.84375,-3.02083 v -6.33334 h -1.40625 v -1.48958 h 1.40625 v -3.3125 z"
       style="font-style:normal;font-variant:normal;font-weight:normal;font-stretch:normal;font-size:21.33333397px;line-height:1.25;font-family:sans-serif;-inkscape-font-specification:'sans-serif, Normal';font-variant-ligatures:normal;font-variant-caps:normal;font-variant-numeric:normal;font-feature-settings:normal;text-align:center;letter-spacing:0px;word-spacing:0px;writing-mode:lr-tb;text-anchor:middle;fill:#ffffff;fill-opacity:1;stroke:none"
       id="path4840"
       inkscape:connector-curvature="0" />
    <path
       d="m 77.980657,279.10604 v 1.8125 q -0.8125,-0.41667 -1.6875,-0.625 -0.875001,-0.20833 -1.812501,-0.20833 -1.427083,0 -2.145833,0.4375 -0.708333,0.4375 -0.708333,1.3125 0,0.66667 0.510416,1.05208 0.510417,0.375 2.052084,0.71875 l 0.65625,0.14584 q 2.041667,0.4375 2.895833,1.23958 0.864584,0.79167 0.864584,2.21875 0,1.625 -1.291667,2.57292 -1.28125,0.94791 -3.53125,0.94791 -0.9375,0 -1.958334,-0.1875 -1.010416,-0.17708 -2.135416,-0.54166 v -1.97917 q 1.0625,0.55208 2.09375,0.83333 1.03125,0.27084 2.041666,0.27084 1.354167,0 2.083334,-0.45834 0.729167,-0.46875 0.729167,-1.3125 0,-0.78125 -0.531251,-1.19791 -0.520833,-0.41667 -2.302083,-0.80209 l -0.666667,-0.15625 q -1.78125,-0.375 -2.572916,-1.14583 -0.791667,-0.78125 -0.791667,-2.13542 0,-1.64583 1.166667,-2.54167 1.166666,-0.89583 3.3125,-0.89583 1.0625,0 2,0.15625 0.9375,0.15625 1.729167,0.46875 z"
       style="font-style:normal;font-variant:normal;font-weight:normal;font-stretch:normal;font-size:21.33333397px;line-height:1.25;font-family:sans-serif;-inkscape-font-specification:'sans-serif, Normal';font-variant-ligatures:normal;font-variant-caps:normal;font-variant-numeric:normal;font-feature-settings:normal;text-align:center;letter-spacing:0px;word-spacing:0px;writing-mode:lr-tb;text-anchor:middle;fill:#161B3D;fill-opacity:1;stroke:none"
       id="path4842"
       inkscape:connector-curvature="0" />
    <path
       d="m 81.586843,288.67896 v 6.1875 h -1.927084 v -16.10417 h 1.927084 v 1.77083 q 0.604167,-1.04166 1.520833,-1.54166 0.927084,-0.51042 2.208334,-0.51042 2.125,0 3.447916,1.6875 1.333334,1.6875 1.333334,4.4375 0,2.75 -1.333334,4.4375 -1.322916,1.6875 -3.447916,1.6875 -1.28125,0 -2.208334,-0.5 -0.916666,-0.51041 -1.520833,-1.55208 z m 6.520833,-4.07292 q 0,-2.11458 -0.875,-3.3125 -0.864583,-1.20833 -2.385416,-1.20833 -1.520834,0 -2.395834,1.20833 -0.864583,1.19792 -0.864583,3.3125 0,2.11459 0.864583,3.32292 0.875,1.19792 2.395834,1.19792 1.520833,0 2.385416,-1.19792 0.875,-1.20833 0.875,-3.32292 z"
       style="font-style:normal;font-variant:normal;font-weight:normal;font-stretch:normal;font-size:21.33333397px;line-height:1.25;font-family:sans-serif;-inkscape-font-specification:'sans-serif, Normal';font-variant-ligatures:normal;font-variant-caps:normal;font-variant-numeric:normal;font-feature-settings:normal;text-align:center;letter-spacing:0px;word-spacing:0px;writing-mode:lr-tb;text-anchor:middle;fill:#161B3D;fill-opacity:1;stroke:none"
       id="path4844"
       inkscape:connector-curvature="0" />
    <path
       d="m 98.099272,280.55396 q -0.32292,-0.1875 -0.70833,-0.27084 -0.375,-0.0937 -0.83334,-0.0937 -1.624996,0 -2.499996,1.0625 -0.864583,1.05209 -0.864583,3.03126 v 6.14583 H 91.26594 v -11.66667 h 1.927083 v 1.8125 q 0.604167,-1.0625 1.572917,-1.57292 0.96875,-0.52083 2.354162,-0.52083 0.19792,0 0.4375,0.0312 0.23959,0.0208 0.53125,0.0729 z"
       style="font-style:normal;font-variant:normal;font-weight:normal;font-stretch:normal;font-size:21.33333397px;line-height:1.25;font-family:sans-serif;-inkscape-font-specification:'sans-serif, Normal';font-variant-ligatures:normal;font-variant-caps:normal;font-variant-numeric:normal;font-feature-settings:normal;text-align:center;letter-spacing:0px;word-spacing:0px;writing-mode:lr-tb;text-anchor:middle;fill:#161B3D;fill-opacity:1;stroke:none"
       id="path4846"
       inkscape:connector-curvature="0" />
    <path
       d="m 112.79244,285.82479 v -7.0625 h 1.91666 v 6.98959 q 0,1.65625 0.64584,2.48958 0.64583,0.82292 1.9375,0.82292 1.55208,0 2.44791,-0.98959 0.90625,-0.98958 0.90625,-2.69791 v -6.61459 h 1.91667 v 11.66667 h -1.91667 v -1.79167 q -0.69791,1.0625 -1.625,1.58334 -0.91666,0.51041 -2.13541,0.51041 -2.01042,0 -3.05209,-1.25 -1.04166,-1.25 -1.04166,-3.65625 z m 4.82291,-7.34375 z"
       style="font-style:normal;font-variant:normal;font-weight:normal;font-stretch:normal;font-size:21.33333397px;line-height:1.25;font-family:sans-serif;-inkscape-font-specification:'sans-serif, Normal';font-variant-ligatures:normal;font-variant-caps:normal;font-variant-numeric:normal;font-feature-settings:normal;text-align:center;letter-spacing:0px;word-spacing:0px;writing-mode:lr-tb;text-anchor:middle;fill:#161B3D;fill-opacity:1;stroke:none"
       id="path4848"
       inkscape:connector-curvature="0" />
    <path
       d="m 127.22698,275.44979 v 3.3125 h 3.94792 v 1.48958 h -3.94792 v 6.33334 q 0,1.42708 0.38542,1.83333 0.39583,0.40625 1.59375,0.40625 h 1.96875 v 1.60417 h -1.96875 q -2.21875,0 -3.0625,-0.82292 -0.84375,-0.83333 -0.84375,-3.02083 v -6.33334 h -1.40625 v -1.48958 h 1.40625 v -3.3125 z"
       style="font-style:normal;font-variant:normal;font-weight:normal;font-stretch:normal;font-size:21.33333397px;line-height:1.25;font-family:sans-serif;-inkscape-font-specification:'sans-serif, Normal';font-variant-ligatures:normal;font-variant-caps:normal;font-variant-numeric:normal;font-feature-settings:normal;text-align:center;letter-spacing:0px;word-spacing:0px;writing-mode:lr-tb;text-anchor:middle;fill:#161B3D;fill-opacity:1;stroke:none"
       id="path4850"
       inkscape:connector-curvature="0" />
    <path
       style="fill:#161B3D;fill-opacity:1;stroke-width:0.39125225"
       d="m 105.96412,279.326 c -0.30648,-0.21493 -0.61296,-0.42986 -0.91944,-0.64479 -0.70733,0.72533 -1.87789,0.56108 -2.74498,0.25142 -1.09016,-0.43497 -1.72414,-1.53031 -2.26935,-2.50696 -0.438671,-0.60061 -0.559545,-1.86605 0.53739,-1.59666 1.31956,0.0955 2.75228,0.39028 3.67611,1.41844 0.53527,0.5644 1.23227,1.32618 0.96203,2.16732 0.47074,0.32063 0.93065,0.67094 1.40812,0.97309 2.59981,0.5036 4.68303,2.8666 4.85288,5.51109 0.26083,2.66915 -1.45944,5.36838 -3.99294,6.25352 -2.47226,0.95594 -5.48852,0.0625 -7.04245,-2.08348 -0.674259,-0.89964 -1.090538,-1.98876 -1.193062,-3.10806 -1.012895,-0.58898 -0.956814,-2.07014 -0.374778,-2.95309 0.396636,-0.74046 1.54078,-1.1462 2.12006,-0.37928 0.7442,0.99649 0.38992,2.59363 -0.64313,3.25255 0.1764,2.3268 2.17535,4.3248 4.49544,4.52014 2.25341,0.26908 4.55374,-1.19291 5.26622,-3.34683 0.30385,-0.84066 0.30133,-1.74987 0.3125,-2.63064 -0.15267,-0.90808 -0.424,-1.81201 -1.00672,-2.54166 -0.39509,-0.70143 -1.1363,-1.0834 -1.74375,-1.57316 -0.58653,-0.2678 -1.12282,-0.68853 -1.78211,-0.73549 -0.4415,-0.0283 -1.24329,-0.20692 -1.03203,0.47078 -0.28889,1.27037 -1.82608,1.83124 -2.97314,1.40889 -0.72046,-0.25454 -1.58107,-0.59715 -1.87238,-1.36684 0.26383,-0.39392 1.31649,-0.0999 1.88722,-0.21677 0.85842,0.0359 1.71433,-0.0779 2.51538,-0.39809 0.50381,-0.14889 1.03411,-0.21166 1.55691,-0.14544 z"
       id="path4852"
       inkscape:connector-curvature="0" />
    <path
       inkscape:connector-curvature="0"
       id="path13996"
       style="font-style:normal;font-variant:normal;font-weight:normal;font-stretch:normal;font-size:21.33333397px;line-height:1.25;font-family:sans-serif;-inkscape-font-specification:'sans-serif, Normal';font-variant-ligatures:normal;font-variant-caps:normal;font-variant-numeric:normal;font-feature-settings:normal;text-align:center;letter-spacing:0px;word-spacing:0px;writing-mode:lr-tb;text-anchor:middle;fill:#000000;fill-opacity:1;stroke:none"
       d="m 21.1794,313.94475 v 1.8125 q -0.8125,-0.41667 -1.6875,-0.625 -0.875,-0.20833 -1.8125,-0.20833 -1.427084,0 -2.145834,0.4375 -0.708333,0.4375 -0.708333,1.3125 0,0.66667 0.510416,1.05208 0.510417,0.375 2.052084,0.71875 l 0.65625,0.14584 q 2.041667,0.4375 2.895833,1.23958 0.864584,0.79167 0.864584,2.21875 0,1.625 -1.291667,2.57292 -1.28125,0.94791 -3.53125,0.94791 -0.9375,0 -1.958334,-0.1875 -1.010416,-0.17708 -2.135417,-0.54166 v -1.97917 q 1.062501,0.55208 2.093751,0.83333 1.03125,0.27084 2.041666,0.27084 1.354167,0 2.083334,-0.45834 0.729167,-0.46875 0.729167,-1.3125 0,-0.78125 -0.53125,-1.19791 -0.520834,-0.41667 -2.302084,-0.80209 l -0.666667,-0.15625 q -1.78125,-0.375 -2.572916,-1.14583 -0.791667,-0.78125 -0.791667,-2.13542 0,-1.64583 1.166667,-2.54167 1.166666,-0.89583 3.3125,-0.89583 1.0625,0 2,0.15625 0.9375,0.15625 1.729167,0.46875 z" />
    <path
       inkscape:connector-curvature="0"
       id="path13998"
       style="font-style:normal;font-variant:normal;font-weight:normal;font-stretch:normal;font-size:21.33333397px;line-height:1.25;font-family:sans-serif;-inkscape-font-specification:'sans-serif, Normal';font-variant-ligatures:normal;font-variant-caps:normal;font-variant-numeric:normal;font-feature-settings:normal;text-align:center;letter-spacing:0px;word-spacing:0px;writing-mode:lr-tb;text-anchor:middle;fill:#000000;fill-opacity:1;stroke:none"
       d="m 32.779726,315.84058 q 0.71875,-1.29166 1.71875,-1.90625 1,-0.61458 2.354167,-0.61458 1.822917,0 2.8125,1.28125 0.989583,1.27083 0.989583,3.625 v 7.04167 h -1.927083 v -6.97917 q 0,-1.67708 -0.59375,-2.48958 -0.59375,-0.8125 -1.8125,-0.8125 -1.489584,0 -2.354167,0.98958 -0.864583,0.98959 -0.864583,2.69792 v 6.59375 h -1.927084 v -6.97917 q 0,-1.6875 -0.59375,-2.48958 -0.59375,-0.8125 -1.833333,-0.8125 -1.46875,0 -2.333334,1 -0.864583,0.98958 -0.864583,2.6875 v 6.59375 H 23.623476 V 313.601 h 1.927083 v 1.8125 q 0.65625,-1.07292 1.572917,-1.58333 0.916667,-0.51042 2.177083,-0.51042 1.270834,0 2.15625,0.64583 0.895834,0.64584 1.322917,1.875 z" />
    <path
       inkscape:connector-curvature="0"
       id="path14000"
       style="font-style:normal;font-variant:normal;font-weight:normal;font-stretch:normal;font-size:21.33333397px;line-height:1.25;font-family:sans-serif;-inkscape-font-specification:'sans-serif, Normal';font-variant-ligatures:normal;font-variant-caps:normal;font-variant-numeric:normal;font-feature-settings:normal;text-align:center;letter-spacing:0px;word-spacing:0px;writing-mode:lr-tb;text-anchor:middle;fill:#000000;fill-opacity:1;stroke:none"
       d="m 47.85466,319.40309 q -2.322917,0 -3.21875,0.53125 -0.895834,0.53125 -0.895834,1.8125 0,1.02083 0.666667,1.625 0.677083,0.59375 1.833333,0.59375 1.59375,0 2.552084,-1.125 0.96875,-1.13542 0.96875,-3.01042 v -0.42708 z m 3.822917,-0.79167 v 6.65625 H 49.76091 v -1.77083 q -0.65625,1.0625 -1.635417,1.57291 -0.979167,0.5 -2.395833,0.5 -1.791667,0 -2.854167,-1 -1.052083,-1.01041 -1.052083,-2.69791 0,-1.96875 1.3125,-2.96875 1.322916,-1 3.9375,-1 h 2.6875 v -0.1875 q 0,-1.32292 -0.875,-2.04167 -0.864584,-0.72917 -2.4375,-0.72917 -1,0 -1.947917,0.23958 -0.947917,0.23959 -1.822917,0.71875 v -1.77083 q 1.052084,-0.40625 2.041667,-0.60417 0.989583,-0.20833 1.927083,-0.20833 2.531251,0 3.781251,1.3125 1.25,1.3125 1.25,3.97917 z" />
    <path
       inkscape:connector-curvature="0"
       id="path14002"
       style="font-style:normal;font-variant:normal;font-weight:normal;font-stretch:normal;font-size:21.33333397px;line-height:1.25;font-family:sans-serif;-inkscape-font-specification:'sans-serif, Normal';font-variant-ligatures:normal;font-variant-caps:normal;font-variant-numeric:normal;font-feature-settings:normal;text-align:center;letter-spacing:0px;word-spacing:0px;writing-mode:lr-tb;text-anchor:middle;fill:#000000;fill-opacity:1;stroke:none"
       d="m 59.907846,315.39267 q -0.322916,-0.1875 -0.708333,-0.27084 -0.375,-0.0937 -0.833333,-0.0937 -1.625,0 -2.500001,1.0625 -0.864583,1.05209 -0.864583,3.03126 v 6.14583 h -1.927083 v -11.66667 h 1.927083 v 1.8125 q 0.604167,-1.0625 1.572917,-1.57292 0.96875,-0.52083 2.354167,-0.52083 0.197916,0 0.4375,0.0312 0.239583,0.0208 0.53125,0.0729 z" />
    <path
       inkscape:connector-curvature="0"
       id="path14004"
       style="font-style:normal;font-variant:normal;font-weight:normal;font-stretch:normal;font-size:21.33333397px;line-height:1.25;font-family:sans-serif;-inkscape-font-specification:'sans-serif, Normal';font-variant-ligatures:normal;font-variant-caps:normal;font-variant-numeric:normal;font-feature-settings:normal;text-align:center;letter-spacing:0px;word-spacing:0px;writing-mode:lr-tb;text-anchor:middle;fill:#000000;fill-opacity:1;stroke:none"
       d="m 64.616985,310.2885 v 3.3125 h 3.947917 v 1.48958 h -3.947917 v 6.33334 q 0,1.42708 0.385416,1.83333 0.395834,0.40625 1.59375,0.40625 h 1.968751 v 1.60417 h -1.968751 q -2.21875,0 -3.0625,-0.82292 -0.84375,-0.83333 -0.84375,-3.02083 v -6.33334 h -1.40625 V 313.601 h 1.40625 v -3.3125 z" />
    <path
       inkscape:connector-curvature="0"
       id="path14006"
       style="font-style:normal;font-variant:normal;font-weight:normal;font-stretch:normal;font-size:21.33333397px;line-height:1.25;font-family:sans-serif;-inkscape-font-specification:'sans-serif, Normal';font-variant-ligatures:normal;font-variant-caps:normal;font-variant-numeric:normal;font-feature-settings:normal;text-align:center;letter-spacing:0px;word-spacing:0px;writing-mode:lr-tb;text-anchor:middle;fill:#000000;fill-opacity:1;stroke:none"
       d="m 77.980657,313.94475 v 1.8125 q -0.8125,-0.41667 -1.6875,-0.625 -0.875001,-0.20833 -1.812501,-0.20833 -1.427083,0 -2.145833,0.4375 -0.708333,0.4375 -0.708333,1.3125 0,0.66667 0.510416,1.05208 0.510417,0.375 2.052084,0.71875 l 0.65625,0.14584 q 2.041667,0.4375 2.895833,1.23958 0.864584,0.79167 0.864584,2.21875 0,1.625 -1.291667,2.57292 -1.28125,0.94791 -3.53125,0.94791 -0.9375,0 -1.958334,-0.1875 -1.010416,-0.17708 -2.135416,-0.54166 v -1.97917 q 1.0625,0.55208 2.09375,0.83333 1.03125,0.27084 2.041666,0.27084 1.354167,0 2.083334,-0.45834 0.729167,-0.46875 0.729167,-1.3125 0,-0.78125 -0.531251,-1.19791 -0.520833,-0.41667 -2.302083,-0.80209 l -0.666667,-0.15625 q -1.78125,-0.375 -2.572916,-1.14583 -0.791667,-0.78125 -0.791667,-2.13542 0,-1.64583 1.166667,-2.54167 1.166666,-0.89583 3.3125,-0.89583 1.0625,0 2,0.15625 0.9375,0.15625 1.729167,0.46875 z" />
    <path
       inkscape:connector-curvature="0"
       id="path14008"
       style="font-style:normal;font-variant:normal;font-weight:normal;font-stretch:normal;font-size:21.33333397px;line-height:1.25;font-family:sans-serif;-inkscape-font-specification:'sans-serif, Normal';font-variant-ligatures:normal;font-variant-caps:normal;font-variant-numeric:normal;font-feature-settings:normal;text-align:center;letter-spacing:0px;word-spacing:0px;writing-mode:lr-tb;text-anchor:middle;fill:#000000;fill-opacity:1;stroke:none"
       d="m 81.586843,323.51767 v 6.1875 H 79.659759 V 313.601 h 1.927084 v 1.77083 q 0.604167,-1.04166 1.520833,-1.54166 0.927084,-0.51042 2.208334,-0.51042 2.125,0 3.447916,1.6875 1.333334,1.6875 1.333334,4.4375 0,2.75 -1.333334,4.4375 -1.322916,1.6875 -3.447916,1.6875 -1.28125,0 -2.208334,-0.5 -0.916666,-0.51041 -1.520833,-1.55208 z m 6.520833,-4.07292 q 0,-2.11458 -0.875,-3.3125 -0.864583,-1.20833 -2.385416,-1.20833 -1.520834,0 -2.395834,1.20833 -0.864583,1.19792 -0.864583,3.3125 0,2.11459 0.864583,3.32292 0.875,1.19792 2.395834,1.19792 1.520833,0 2.385416,-1.19792 0.875,-1.20833 0.875,-3.32292 z" />
    <path
       inkscape:connector-curvature="0"
       id="path14010"
       style="font-style:normal;font-variant:normal;font-weight:normal;font-stretch:normal;font-size:21.33333397px;line-height:1.25;font-family:sans-serif;-inkscape-font-specification:'sans-serif, Normal';font-variant-ligatures:normal;font-variant-caps:normal;font-variant-numeric:normal;font-feature-settings:normal;text-align:center;letter-spacing:0px;word-spacing:0px;writing-mode:lr-tb;text-anchor:middle;fill:#000000;fill-opacity:1;stroke:none"
       d="m 98.099272,315.39267 q -0.32292,-0.1875 -0.70833,-0.27084 -0.375,-0.0937 -0.83334,-0.0937 -1.624996,0 -2.499996,1.0625 -0.864583,1.05209 -0.864583,3.03126 v 6.14583 H 91.26594 v -11.66667 h 1.927083 v 1.8125 q 0.604167,-1.0625 1.572917,-1.57292 0.96875,-0.52083 2.354162,-0.52083 0.19792,0 0.4375,0.0312 0.23959,0.0208 0.53125,0.0729 z" />
    <path
       inkscape:connector-curvature="0"
       id="path14012"
       style="font-style:normal;font-variant:normal;font-weight:normal;font-stretch:normal;font-size:21.33333397px;line-height:1.25;font-family:sans-serif;-inkscape-font-specification:'sans-serif, Normal';font-variant-ligatures:normal;font-variant-caps:normal;font-variant-numeric:normal;font-feature-settings:normal;text-align:center;letter-spacing:0px;word-spacing:0px;writing-mode:lr-tb;text-anchor:middle;fill:#000000;fill-opacity:1;stroke:none"
       d="m 112.79244,320.6635 v -7.0625 h 1.91666 v 6.98959 q 0,1.65625 0.64584,2.48958 0.64583,0.82292 1.9375,0.82292 1.55208,0 2.44791,-0.98959 0.90625,-0.98958 0.90625,-2.69791 V 313.601 h 1.91667 v 11.66667 H 120.6466 V 323.476 q -0.69791,1.0625 -1.625,1.58334 -0.91666,0.51041 -2.13541,0.51041 -2.01042,0 -3.05209,-1.25 -1.04166,-1.25 -1.04166,-3.65625 z m 4.82291,-7.34375 z" />
    <path
       inkscape:connector-curvature="0"
       id="path14014"
       style="font-style:normal;font-variant:normal;font-weight:normal;font-stretch:normal;font-size:21.33333397px;line-height:1.25;font-family:sans-serif;-inkscape-font-specification:'sans-serif, Normal';font-variant-ligatures:normal;font-variant-caps:normal;font-variant-numeric:normal;font-feature-settings:normal;text-align:center;letter-spacing:0px;word-spacing:0px;writing-mode:lr-tb;text-anchor:middle;fill:#000000;fill-opacity:1;stroke:none"
       d="m 127.22698,310.2885 v 3.3125 h 3.94792 v 1.48958 h -3.94792 v 6.33334 q 0,1.42708 0.38542,1.83333 0.39583,0.40625 1.59375,0.40625 h 1.96875 v 1.60417 h -1.96875 q -2.21875,0 -3.0625,-0.82292 -0.84375,-0.83333 -0.84375,-3.02083 v -6.33334 h -1.40625 V 313.601 h 1.40625 v -3.3125 z" />
    <path
       id="path14016"
       d="m 105.96412,314.16471 -0.91944,-0.64479 c -0.66435,0.8005 -2.45432,0.55675 -3.31234,-0.0446 -0.8811,-0.61778 -2.403462,-2.94378 -1.960182,-3.65234 0.249622,-0.39868 2.837362,0.011 3.718472,0.62874 0.8185,0.57397 2.10063,1.8874 1.71525,2.80176 l 1.38542,0.97109 0.0227,0.002 c 0.0164,0.003 0.0324,0.005 0.0489,0.009 0.009,0.002 0.068,0.0153 0.077,0.0172 0.0391,0.009 0.0787,0.0188 0.11776,0.0286 0.13108,0.0333 0.26136,0.0708 0.39009,0.1123 0.48554,0.15806 0.95074,0.37717 1.38229,0.65025 0.59079,0.37404 1.11781,0.84863 1.54975,1.39873 0.40025,0.51019 0.71795,1.08377 0.93861,1.69295 0.21324,0.58923 0.33609,1.21054 0.36309,1.83654 0.025,0.57983 -0.0325,1.16319 -0.17059,1.72698 -0.1385,0.56576 -0.35878,1.11077 -0.65143,1.61431 -0.35879,0.61701 -0.82516,1.17141 -1.37252,1.62957 -0.57436,0.48045 -1.23675,0.85293 -1.94531,1.09511 -0.76724,0.26254 -1.58613,0.37169 -2.39563,0.31927 -0.7606,-0.0493 -1.51063,-0.24141 -2.20079,-0.56498 -0.64636,-0.3036 -1.23949,-0.72068 -1.74421,-1.22618 -0.41042,-0.4112 -0.76177,-0.88109 -1.039562,-1.39129 -0.31887,-0.58493 -0.5411,-1.22149 -0.65612,-1.87723 -0.0293,-0.16511 -0.0516,-0.33139 -0.0669,-0.49806 -0.62875,-0.30479 -0.94489,-1.21563 -0.71326,-2.16324 0.25666,-1.04855 1.0869,-1.74772 1.852972,-1.56031 0.76646,0.18741 1.18041,1.19058 0.92375,2.23913 -0.15572,0.63774 -0.52428,1.14637 -0.96131,1.4046 0.0184,0.18976 0.0477,0.37795 0.0872,0.56419 0.0927,0.43546 0.24297,0.8584 0.44642,1.25435 0.21206,0.41277 0.48163,0.79542 0.79894,1.13385 0.40103,0.42764 0.87758,0.78525 1.40068,1.05091 0.54932,0.27896 1.14949,0.45463 1.7622,0.51684 0.65261,0.0657 1.31735,0.003 1.94609,-0.18272 0.626,-0.18506 1.21483,-0.49259 1.72346,-0.90222 0.45581,-0.367 0.84627,-0.81459 1.14989,-1.315 0.2641,-0.43507 0.46129,-0.90966 0.58218,-1.40382 0.0943,-0.38421 0.14281,-0.77937 0.14437,-1.17453 0.002,-0.38304 0.0927,-0.76608 0.009,-1.13972 -0.14986,-0.66435 -0.30244,-1.43003 -0.70269,-1.98092 -0.34,-0.46793 -0.49611,-0.87483 -0.97382,-1.20075 -0.34705,-0.23709 -0.98909,-0.82828 -1.38465,-0.97147 -0.081,-0.0298 -0.43742,-0.20541 -0.72929,-0.36348 l -0.003,0.004 -0.0341,-0.0239 c -0.025,-0.0137 -0.0493,-0.027 -0.0728,-0.0399 -0.0211,-0.009 -0.16236,-0.0602 -0.22731,-0.079 -0.0359,-0.0102 -0.66552,-0.10603 -0.94527,-0.0861 -0.0466,0.003 -0.42842,0.004 -0.47772,0.0657 -0.0497,0.061 0.0751,0.16198 0.0407,0.31418 -0.30439,1.33965 -1.43903,1.66752 -2.24852,1.66752 -0.8099,0 -2.648782,-0.78172 -2.648782,-1.66752 0,-0.009 1.991472,-0.0626 2.800972,-0.0626 0.33257,0 0.7782,-0.1342 1.17415,-0.23319 0.0607,-0.0243 0.12129,-0.0469 0.18272,-0.0689 0.17528,-0.0619 0.35447,-0.11425 0.53562,-0.15533 0.2054,-0.0469 0.41434,-0.0798 0.62444,-0.0951 0.0458,-0.003 0.18897,-0.009 0.2148,-0.009 0.0137,0 0.313,0.0148 0.44759,0.0286 z"
       inkscape:connector-curvature="0"
       style="fill:#161B3D;fill-opacity:1;stroke-width:0.39125225" />
    <g
       aria-label="smartsprout"
       style="font-style:normal;font-variant:normal;font-weight:normal;font-stretch:normal;font-size:41.79866791px;line-height:1.25;font-family:'Nautilus Pompilius';-inkscape-font-specification:'Nautilus Pompilius, Normal';font-variant-ligatures:normal;font-variant-caps:normal;font-variant-numeric:normal;font-feature-settings:normal;text-align:center;letter-spacing:0px;word-spacing:0px;writing-mode:lr-tb;text-anchor:middle;fill:#000000;fill-opacity:1;stroke:none;stroke-width:1.95931315"
       id="text4868">
      <path
         d="m 22.332516,372.63319 c 6.144405,0 8.568727,-3.00951 8.568727,-7.06398 0,-5.30843 -6.854981,-4.34706 -6.854981,-8.77772 0,-2.25713 1.295759,-3.38569 2.424323,-3.38569 1.003168,0 1.88094,0.71058 1.88094,2.25713 0,0.83597 -0.292591,1.75554 -0.710578,2.25713 0.543383,0.37618 1.128564,0.54338 1.671947,0.58518 1.546551,0.0836 2.925907,-1.08677 2.925907,-3.42749 0,-2.71692 -1.713746,-4.05447 -5.266632,-4.05447 -4.848646,0 -7.147573,3.0931 -7.147573,6.43699 0,6.2698 6.896781,5.89361 6.896781,9.07031 0,2.04814 -1.713746,3.34389 -3.302095,3.34389 -1.337558,0 -2.633316,-0.83597 -2.633316,-2.75871 0,-1.00317 0.334389,-2.00633 0.877772,-2.63331 -0.459786,-0.41799 -1.003168,-0.58518 -1.671947,-0.58518 -2.048135,0 -3.260296,1.50475 -3.552887,3.21849 -0.459785,2.80051 1.421155,5.51743 5.893612,5.51743 z"
         style="font-style:normal;font-variant:normal;font-weight:normal;font-stretch:normal;font-size:41.79866791px;font-family:'Nautilus Pompilius';-inkscape-font-specification:'Nautilus Pompilius, Normal';font-variant-ligatures:normal;font-variant-caps:normal;font-variant-numeric:normal;font-feature-settings:normal;text-align:center;writing-mode:lr-tb;text-anchor:middle;stroke-width:1.95931315"
         id="path4940"
         inkscape:connector-curvature="0" />
      <path
         d="m 41.759101,353.4894 c 0.376188,-1.58835 -0.501584,-2.29893 -2.006336,-2.29893 -1.755544,0 -3.260296,0.87777 -4.681451,2.00634 -0.835973,0.66878 -0.543382,1.96453 0,2.29892 0.376188,-0.33439 0.62698,-0.50158 0.835974,-0.50158 0.376188,0 0.585181,0.37619 0.417986,1.04497 l -3.427491,16.05068 c 0.501585,0.33439 1.212162,0.54339 1.964538,0.54339 1.504752,0 3.093101,-0.71058 3.511088,-2.63332 l 2.549719,-11.91262 c 1.128564,-1.33756 2.340725,-2.17353 3.845477,-2.17353 1.379356,0 1.295759,1.12856 1.003168,2.46612 l -2.925907,13.70996 c 0.501584,0.33439 1.212162,0.54339 1.964538,0.54339 1.504752,0 3.093101,-0.71058 3.511088,-2.63332 l 2.591517,-12.16341 c 1.086766,-1.17036 2.21533,-1.92274 3.636484,-1.92274 1.379357,0 1.337558,1.12856 1.003168,2.46612 l -1.755544,8.31794 c -1.044966,4.89044 1.170363,5.93541 3.260297,5.93541 2.80051,0 5.601021,-1.92274 7.565558,-4.13807 0.250792,-0.29259 0.376188,-0.62698 0.376188,-0.91957 0,-0.41799 -0.250792,-0.79418 -0.710577,-1.00317 -1.044967,1.04497 -2.842309,2.08993 -4.38886,2.08993 -0.835973,0 -1.379356,-0.50158 -1.128564,-1.71374 l 2.048135,-9.6137 c 1.086765,-4.89044 -1.630148,-6.1444 -3.511088,-6.1444 -2.424323,0 -4.514257,1.79734 -6.269801,4.30526 0.125396,-2.9677 -1.797342,-4.30526 -3.511088,-4.30526 -2.382524,0 -4.472457,1.71375 -6.186203,4.17987 z"
         style="font-style:normal;font-variant:normal;font-weight:normal;font-stretch:normal;font-size:41.79866791px;font-family:'Nautilus Pompilius';-inkscape-font-specification:'Nautilus Pompilius, Normal';font-variant-ligatures:normal;font-variant-caps:normal;font-variant-numeric:normal;font-feature-settings:normal;text-align:center;writing-mode:lr-tb;text-anchor:middle;stroke-width:1.95931315"
         id="path4942"
         inkscape:connector-curvature="0" />
      <path
         d="m 74.35749,351.02328 c -5.810015,0 -10.533264,7.27296 -10.533264,14.58773 0,2.67512 0.877772,7.02218 5.224833,7.02218 2.382524,0 4.597854,-1.75555 6.353398,-4.22167 -0.0418,3.3021 1.922739,4.22167 3.887276,4.22167 2.257128,0 5.266632,-1.92274 7.231169,-4.13807 0.250792,-0.29259 0.376188,-0.62698 0.376188,-0.91957 0,-0.41799 -0.250792,-0.79418 -0.710577,-1.00317 -1.044967,1.04497 -2.842309,2.08993 -4.38886,2.08993 -1.086765,0 -1.755544,-0.75237 -1.25396,-3.0931 L 83.4696,351.73385 c -0.501584,-0.33439 -1.212162,-0.54338 -1.964538,-0.54338 -1.044966,0 -2.131732,0.37619 -2.842309,1.21216 -1.044967,-0.91957 -2.424323,-1.37935 -4.305263,-1.37935 z m 1.128564,14.67133 c -1.128564,1.54655 -2.884108,2.63331 -4.221665,2.63331 -1.295759,0 -2.257128,-0.91957 -2.257128,-3.0095 0,-4.55605 1.797342,-11.16024 6.854981,-11.16024 0.62698,0 1.25396,0.0836 1.964538,0.33439 z"
         style="font-style:normal;font-variant:normal;font-weight:normal;font-stretch:normal;font-size:41.79866791px;font-family:'Nautilus Pompilius';-inkscape-font-specification:'Nautilus Pompilius, Normal';font-variant-ligatures:normal;font-variant-caps:normal;font-variant-numeric:normal;font-feature-settings:normal;text-align:center;writing-mode:lr-tb;text-anchor:middle;stroke-width:1.95931315"
         id="path4944"
         inkscape:connector-curvature="0" />
      <path
         d="m 93.43597,353.4894 c 0.334389,-1.58835 -0.501584,-2.29893 -2.006337,-2.29893 -1.755544,0 -3.260296,0.87777 -4.68145,2.00634 -0.835974,0.66878 -0.543383,1.96453 0,2.29892 0.376188,-0.33439 0.62698,-0.50158 0.835973,-0.50158 0.376188,0 0.543383,0.37619 0.417987,1.04497 l -3.427491,16.05068 c 0.501584,0.33439 1.212161,0.54339 1.964537,0.54339 1.504752,0 3.093102,-0.71058 3.511088,-2.63332 l 0.501584,-2.54972 c 2.131732,-9.65549 4.09627,-11.53643 5.475626,-11.53643 0.877772,0 1.295759,0.45979 1.295759,1.04497 0,0.50158 -0.167195,1.04496 -0.459786,1.29576 0.376188,0.12539 0.835974,0.16719 1.212162,0.16719 2.173528,0 3.343898,-2.04813 3.343898,-3.92907 0,-1.71375 -1.04497,-3.3021 -3.051308,-3.3021 -1.922738,0 -3.720081,1.17036 -5.392028,4.55606 z"
         style="font-style:normal;font-variant:normal;font-weight:normal;font-stretch:normal;font-size:41.79866791px;font-family:'Nautilus Pompilius';-inkscape-font-specification:'Nautilus Pompilius, Normal';font-variant-ligatures:normal;font-variant-caps:normal;font-variant-numeric:normal;font-feature-settings:normal;text-align:center;writing-mode:lr-tb;text-anchor:middle;stroke-width:1.95931315"
         id="path4946"
         inkscape:connector-curvature="0" />
      <path
         d="m 110.82813,353.82379 c 1.29576,0 1.96454,-1.08677 1.75555,-2.42433 h -3.05131 l 1.17037,-5.51742 c -0.50159,-0.33439 -1.21216,-0.54338 -1.96454,-0.54338 -1.50475,0 -3.0931,0.71057 -3.51109,2.63331 l -0.75238,3.42749 h -0.83597 c -1.29576,0 -1.96454,1.08677 -1.75554,2.42433 h 2.08993 l -2.67511,12.62319 c -0.96137,4.59786 0.71057,6.18621 3.26029,6.18621 2.80051,0 5.97721,-1.92274 7.94175,-4.13807 0.25079,-0.29259 0.37619,-0.62698 0.37619,-0.91957 0,-0.41799 -0.25079,-0.79418 -0.71058,-1.00317 -1.04497,1.04497 -2.84231,2.08993 -4.38886,2.08993 -1.08677,0 -1.75554,-0.75237 -1.25396,-3.0931 l 2.46612,-11.74542 z"
         style="font-style:normal;font-variant:normal;font-weight:normal;font-stretch:normal;font-size:41.79866791px;font-family:'Nautilus Pompilius';-inkscape-font-specification:'Nautilus Pompilius, Normal';font-variant-ligatures:normal;font-variant-caps:normal;font-variant-numeric:normal;font-feature-settings:normal;text-align:center;writing-mode:lr-tb;text-anchor:middle;stroke-width:1.95931315"
         id="path4948"
         inkscape:connector-curvature="0" />
      <path
         d="m 116.13461,372.63319 c 6.1444,0 8.56873,-3.00951 8.56873,-7.06398 0,-5.30843 -6.85498,-4.34706 -6.85498,-8.77772 0,-2.25713 1.29575,-3.38569 2.42432,-3.38569 1.00317,0 1.88094,0.71058 1.88094,2.25713 0,0.83597 -0.29259,1.75554 -0.71058,2.25713 0.54338,0.37618 1.12856,0.54338 1.67195,0.58518 1.54655,0.0836 2.9259,-1.08677 2.9259,-3.42749 0,-2.71692 -1.71374,-4.05447 -5.26663,-4.05447 -4.84864,0 -7.14757,3.0931 -7.14757,6.43699 0,6.2698 6.89678,5.89361 6.89678,9.07031 0,2.04814 -1.71375,3.34389 -3.30209,3.34389 -1.33756,0 -2.63332,-0.83597 -2.63332,-2.75871 0,-1.00317 0.33439,-2.00633 0.87777,-2.63331 -0.45978,-0.41799 -1.00317,-0.58518 -1.67195,-0.58518 -2.04813,0 -3.26029,1.50475 -3.55288,3.21849 -0.45979,2.80051 1.42115,5.51743 5.89361,5.51743 z"
         style="font-style:normal;font-variant:normal;font-weight:normal;font-stretch:normal;font-size:41.79866791px;font-family:'Nautilus Pompilius';-inkscape-font-specification:'Nautilus Pompilius, Normal';font-variant-ligatures:normal;font-variant-caps:normal;font-variant-numeric:normal;font-feature-settings:normal;text-align:center;writing-mode:lr-tb;text-anchor:middle;stroke-width:1.95931315"
         id="path4950"
         inkscape:connector-curvature="0" />
      <path
         d="m 123.52317,387.51351 c 0.50159,0.33439 1.21217,0.54339 1.96454,0.54339 1.50475,0 2.96771,-0.71058 3.38569,-2.63332 l 2.88411,-13.87716 c 0.83598,0.71058 1.88094,1.08677 2.88411,1.08677 7.14757,0 11.70363,-8.27614 11.70363,-14.54594 0,-3.80368 -1.63015,-6.89678 -5.30843,-6.89678 -2.08994,0 -4.05447,1.29576 -5.68462,3.3021 l 0.20899,-1.00317 c 0.37619,-1.58835 -0.50158,-2.29893 -2.00634,-2.29893 -1.75554,0 -3.26029,0.87777 -4.68145,2.00634 -0.83597,0.66878 -0.54338,1.96453 0,2.29892 0.37619,-0.33439 0.62698,-0.50158 0.83598,-0.50158 0.37619,0 0.58518,0.37619 0.41798,1.04497 z m 15.21472,-32.14317 c 1.42115,0 2.46612,1.29576 2.46612,4.22166 0,4.13807 -2.54972,9.82269 -6.81318,9.82269 -0.66878,0 -1.33756,-0.0418 -2.08994,-0.45979 l 2.29893,-10.90945 c 1.37936,-1.71374 2.88411,-2.67511 4.13807,-2.67511 z"
         style="font-style:normal;font-variant:normal;font-weight:normal;font-stretch:normal;font-size:41.79866791px;font-family:'Nautilus Pompilius';-inkscape-font-specification:'Nautilus Pompilius, Normal';font-variant-ligatures:normal;font-variant-caps:normal;font-variant-numeric:normal;font-feature-settings:normal;text-align:center;writing-mode:lr-tb;text-anchor:middle;stroke-width:1.95931315"
         id="path4952"
         inkscape:connector-curvature="0" />
      <path
         d="m 155.48087,353.4894 c 0.33439,-1.58835 -0.50159,-2.29893 -2.00634,-2.29893 -1.75554,0 -3.26029,0.87777 -4.68145,2.00634 -0.83597,0.66878 -0.54338,1.96453 0,2.29892 0.37619,-0.33439 0.62698,-0.50158 0.83598,-0.50158 0.37618,0 0.54338,0.37619 0.41798,1.04497 l -3.42749,16.05068 c 0.50158,0.33439 1.21216,0.54339 1.96454,0.54339 1.50475,0 3.0931,-0.71058 3.51109,-2.63332 l 0.50158,-2.54972 c 2.13173,-9.65549 4.09627,-11.53643 5.47563,-11.53643 0.87777,0 1.29575,0.45979 1.29575,1.04497 0,0.50158 -0.16719,1.04496 -0.45978,1.29576 0.37619,0.12539 0.83597,0.16719 1.21216,0.16719 2.17353,0 3.34389,-2.04813 3.34389,-3.92907 0,-1.71375 -1.04496,-3.3021 -3.0513,-3.3021 -1.92274,0 -3.72008,1.17036 -5.39203,4.55606 z"
         style="font-style:normal;font-variant:normal;font-weight:normal;font-stretch:normal;font-size:41.79866791px;font-family:'Nautilus Pompilius';-inkscape-font-specification:'Nautilus Pompilius, Normal';font-variant-ligatures:normal;font-variant-caps:normal;font-variant-numeric:normal;font-feature-settings:normal;text-align:center;writing-mode:lr-tb;text-anchor:middle;stroke-width:1.95931315"
         id="path4954"
         inkscape:connector-curvature="0" />
      <path
         d="m 183.51732,353.19681 c -1.75555,1.42115 -3.3021,3.21849 -4.97404,4.26346 -0.66878,-1.21216 -1.88094,-1.92274 -3.3021,-1.92274 -2.38252,0 -3.30209,2.08994 -2.42432,4.38886 0.45979,0.29259 1.17036,0.45979 1.92274,0.50159 0.12539,0.58518 0.20899,1.17036 0.20899,1.71374 0,3.76188 -2.67511,6.85498 -4.80684,6.85498 -1.46296,0 -2.71692,-1.42115 -2.71692,-5.09943 0,-4.09627 2.46612,-9.6973 6.2698,-9.6973 1.00317,0 1.88094,0.1672 2.67512,0.45979 0.62698,0.25079 1.33755,-0.20899 1.42115,-1.17036 -1.25396,-1.88094 -2.92591,-2.46612 -5.01584,-2.46612 -6.3116,0 -10.70046,7.89994 -10.70046,14.21154 0,3.92908 1.83914,7.39837 6.14441,7.39837 5.01584,0 10.90945,-6.3116 10.90945,-12.7068 0,-0.12539 0,-0.29259 -0.0418,-0.45978 1.71375,-1.08677 3.34389,-3.05131 4.43066,-3.97088 0.58518,-0.50158 0.79417,-1.63014 0,-2.29892 z"
         style="font-style:normal;font-variant:normal;font-weight:normal;font-stretch:normal;font-size:41.79866791px;font-family:'Nautilus Pompilius';-inkscape-font-specification:'Nautilus Pompilius, Normal';font-variant-ligatures:normal;font-variant-caps:normal;font-variant-numeric:normal;font-feature-settings:normal;text-align:center;writing-mode:lr-tb;text-anchor:middle;stroke-width:1.95931315"
         id="path4956"
         inkscape:connector-curvature="0" />
      <path
         d="m 182.77866,364.60784 c -0.71058,3.1349 -0.71058,8.02535 3.92907,8.02535 2.38252,0 4.43066,-2.00634 6.10261,-4.72325 -0.209,3.67828 1.83914,4.72325 3.88727,4.72325 2.25713,0 5.26663,-1.92274 7.23117,-4.13807 0.25079,-0.29259 0.37619,-0.62698 0.37619,-0.91957 0,-0.41799 -0.25079,-0.79418 -0.71058,-1.00317 -1.04496,1.04497 -2.84231,2.08993 -4.38886,2.08993 -1.08676,0 -1.75554,-0.75237 -1.25396,-3.0931 l 2.92591,-13.83536 c -0.50158,-0.33439 -1.21216,-0.54338 -1.96454,-0.54338 -1.50475,0 -3.0931,0.71058 -3.51109,2.63332 l -2.50792,11.82902 c -1.12856,1.33756 -2.38252,2.17353 -3.84547,2.17353 -1.25396,0 -1.79735,-0.75238 -1.42116,-2.46612 l 2.54972,-11.87082 c 0.37619,-1.58835 -0.50158,-2.29893 -2.00634,-2.29893 -1.75554,0 -3.26029,0.87777 -4.68145,2.00634 -0.83597,0.66878 -0.54338,1.96453 0,2.29892 0.37619,-0.33439 0.62698,-0.50158 0.83598,-0.50158 0.37618,0 0.58518,0.37619 0.41798,1.04497 z"
         style="font-style:normal;font-variant:normal;font-weight:normal;font-stretch:normal;font-size:41.79866791px;font-family:'Nautilus Pompilius';-inkscape-font-specification:'Nautilus Pompilius, Normal';font-variant-ligatures:normal;font-variant-caps:normal;font-variant-numeric:normal;font-feature-settings:normal;text-align:center;writing-mode:lr-tb;text-anchor:middle;stroke-width:1.95931315"
         id="path4958"
         inkscape:connector-curvature="0" />
      <path
         d="m 212.71238,353.82379 c 1.29576,0 1.96454,-1.08677 1.75554,-2.42433 h -3.0513 l 1.17036,-5.51742 c -0.50158,-0.33439 -1.21216,-0.54338 -1.96453,-0.54338 -1.50476,0 -3.09311,0.71057 -3.51109,2.63331 l -0.75238,3.42749 h -0.83597 c -1.29576,0 -1.96454,1.08677 -1.75555,2.42433 h 2.08994 l -2.67512,12.62319 c -0.96137,4.59786 0.71058,6.18621 3.2603,6.18621 2.80051,0 5.97721,-1.92274 7.94175,-4.13807 0.25079,-0.29259 0.37618,-0.62698 0.37618,-0.91957 0,-0.41799 -0.25079,-0.79418 -0.71057,-1.00317 -1.04497,1.04497 -2.84231,2.08993 -4.38886,2.08993 -1.08677,0 -1.75555,-0.75237 -1.25396,-3.0931 l 2.46612,-11.74542 z"
         style="font-style:normal;font-variant:normal;font-weight:normal;font-stretch:normal;font-size:41.79866791px;font-family:'Nautilus Pompilius';-inkscape-font-specification:'Nautilus Pompilius, Normal';font-variant-ligatures:normal;font-variant-caps:normal;font-variant-numeric:normal;font-feature-settings:normal;text-align:center;writing-mode:lr-tb;text-anchor:middle;stroke-width:1.95931315"
         id="path4960"
         inkscape:connector-curvature="0" />
    </g>
    <path
       style="fill:#000000;fill-opacity:1;stroke:#000000;stroke-width:0.66263729"
       d="m 262.58624,324.49062 c -0.51907,-0.36402 -1.03812,-0.72803 -1.55719,-1.09204 -1.19796,1.22844 -3.18045,0.95026 -4.64898,0.42581 -1.84634,-0.73667 -2.92006,-2.59179 -3.84345,-4.24587 -0.74294,-1.01721 -0.94767,-3.1604 0.91014,-2.70416 2.23485,0.16175 4.66136,0.661 6.22597,2.40232 0.90655,0.95588 2.08702,2.24607 1.62934,3.67064 0.79726,0.54304 1.57617,1.13634 2.38483,1.64807 4.40312,0.8529 7.93133,4.85495 8.21899,9.33375 0.44176,4.52055 -2.47175,9.09207 -6.76256,10.59116 -4.1871,1.619 -9.29554,0.10588 -11.92733,-3.52865 -1.14195,-1.52365 -1.84696,-3.36823 -2.0206,-5.26391 -1.71547,-0.99751 -1.62049,-3.50605 -0.63474,-5.00145 0.67175,-1.25407 2.60952,-1.94123 3.5906,-0.64236 1.2604,1.68769 0.66038,4.39266 -1.08922,5.50863 0.29875,3.94074 3.68423,7.32462 7.61362,7.65546 3.81644,0.45572 7.71235,-2.02036 8.91903,-5.66831 0.51462,-1.42376 0.51035,-2.96363 0.52926,-4.45533 -0.25856,-1.53796 -0.71809,-3.06888 -1.70501,-4.30464 -0.66914,-1.18797 -1.92448,-1.83489 -2.95326,-2.66436 -0.99337,-0.45355 -1.90166,-1.16611 -3.01824,-1.24565 -0.74775,-0.0479 -2.10569,-0.35044 -1.74789,0.79733 -0.48926,2.15155 -3.09271,3.10146 -5.0354,2.38614 -1.2202,-0.43109 -2.67775,-1.01134 -3.17113,-2.31492 0.44684,-0.66715 2.22966,-0.1692 3.19627,-0.36713 1.45384,0.0608 2.90344,-0.13192 4.26013,-0.67422 0.85325,-0.25216 1.7514,-0.35847 2.63682,-0.24631 z"
       id="path4852-1"
       inkscape:connector-curvature="0" />
    <text
       id="text4938"
       y="259.48773"
       x="274.40329"
       style="font-style:normal;font-variant:normal;font-weight:normal;font-stretch:normal;font-size:41.79866791px;line-height:1.25;font-family:'Nautilus Pompilius';-inkscape-font-specification:'Nautilus Pompilius, Normal';font-variant-ligatures:normal;font-variant-caps:normal;font-variant-numeric:normal;font-feature-settings:normal;text-align:center;letter-spacing:0px;word-spacing:0px;writing-mode:lr-tb;text-anchor:middle;fill:#000000;fill-opacity:1;stroke:none;stroke-width:1.95931315"
       xml:space="preserve"><tspan
         style="font-style:normal;font-variant:normal;font-weight:normal;font-stretch:normal;font-size:41.79866791px;font-family:'Nautilus Pompilius';-inkscape-font-specification:'Nautilus Pompilius, Normal';font-variant-ligatures:normal;font-variant-caps:normal;font-variant-numeric:normal;font-feature-settings:normal;text-align:center;writing-mode:lr-tb;text-anchor:middle;stroke-width:1.95931315"
         y="259.48773"
         x="274.40329"
         id="tspan4936"
         sodipodi:role="line">smartsprout</tspan></text>
  </g>
</svg>
