<svg id="teenstar-logo" xmlns="http://www.w3.org/2000/svg" viewBox="0 0 100 50">
  <path fill="#35a8e0" d="M53.853 39.513l6.574 4.69-2.566-7.816 3.305-2.335 3.429-2.423-8.258-.124-2.49-7.427-2.441 7.427-6.634.023 6.434-.241 2.647-7.86 2.648 7.886 8.57.166-3.383 2.526-3.485 2.508 2.575 8.198-6.918-4.861-7.22 5.177z"/>
  <path fill="#35a8e0" d="M67.356 37.775l-1.007.062.065 3.161h-3.959V34.3l1.785-1.342c.991-.743 1.836-1.347 1.893-1.347.057 0 .104.54.104 1.2v1.203h1.32c1.707 0 2.36-.254 2.807-1.102.456-.87.118-1.82-.809-2.296-.71-.355-2.726-.142-2.95-.128-.226.019-.183.306-.45.306-.264 0-2.377-.057-3.703-.057v-4.145h3.617c2.513-.114 4.928.023 6.548 1.637 2.168 2.175 2.416 4.819.69 7.277l-.668.96 2.53 2.697-2.462 2.484c-1.667-1.208-3.647-3.948-5.351-3.87z"/>
  <path fill="#e5007e" d="M49.422 41.099c.355-.882 1.457-4.588 1.465-4.925 0-.189-.964-1.02-2.168-1.855l-2.167-1.506 2.778-.107 2.782-.114.878-2.509.875-2.509.816 2.51.813 2.508 2.82.114 2.82.107-2.18 1.549c-2.492 1.775-2.408 1.492-1.383 4.65a26.77 26.77 0 0 1 .66 2.239c0 .106-.938-.494-2.08-1.335-1.143-.843-2.176-1.536-2.301-1.536-.129 0-.867.47-1.653 1.041-2.814 2.06-2.97 2.156-2.771 1.678z"/>
  <path fill="#35a8e0" d="M27.585 40.804c-1.72-.682-2.157-1.174-3.386-2.278l1.278-.902a46.124 46.124 0 0 1 1.529-1.06c1.25.747 2.455.95 3.46.886 1.504-.104 2.175-.396 2.175-.943 0-.462-.675-.71-2.605-.944-2.377-.292-3.46-.753-4.491-1.902-1.705-1.898-1.538-4.39.392-6.014 1.171-.985 2.195-1.444 4.465-1.444 1.325 0 2.08.207 3.423.902 1.222.676 2.621 1.83 2.621 1.83l-1.467 1.148c-1.307 1.02-1.51 1.006-1.51 1.006s-.931-1.005-3.188-1.005c-1.321 0-2.089.276-2.089.746 0 .525.53.746 2.449 1.002 1.037.134 2.366.45 2.949.699 3.066 1.29 3.759 4.84 1.386 7.086-1.635 1.538-4.8 2.05-7.391 1.187zm35.319-23.207v6.588H59.12l-.058-15.282 8.07 7.526V9.778h3.783l-.073 15.281zM27.8 13.487l-3.613-.019V9.774h11.345v3.698l-3.67.014-.007 10.698H27.86zm8.4 3.5V9.773h10.9v3.713h-7.116v1.653l3.116.049v3.755h-3.116v1.433s4.64-.065 6.965-.033c0 0 .092 2.418.045 3.731l-5.396.058-5.398.06zm4.445 13.32l-3.617-.023V26.59h11.345v3.698l-3.67.014-.007 10.698h-3.99zm7.05-20.537v14.425l5.13-.057.89-2.298.993 2.277 3.778-.037c.045-1.313-.047-3.73-.047-3.73-2.324-.038-6.963.032-6.963.032V18.95h3.115v-3.759l-3.115-.049V13.49h7.116V9.777z"/>
</svg>
