<svg id="tt-logo" xmlns="http://www.w3.org/2000/svg" viewBox="0 0 100 50">
  <path fill="#ffde2d" d="M22.244 12.108h7.602v7.603zm-7.6 0h7.6v7.603zm7.6 7.603h7.602v7.603z"/>
  <path fill="#faa61a" d="M29.846 19.71h-7.602v-7.602z"/>
  <path fill="#ffde2d" d="M22.244 27.314h7.602v7.599z"/>
  <path fill="#f36522" d="M22.244 27.314h-7.6v-7.603z"/>
  <path fill="#faa61a" d="M29.846 27.314h-7.602v-7.603zm-7.602-7.603h-7.6v-7.603z"/>
  <path fill="#f48220" d="M14.645 19.71h7.599v7.604z"/>
  <path fill="#f36522" d="M29.846 34.913h-7.602v-7.599z"/>
  <path fill="#f48220" d="M7.041 12.108h7.604v7.603z"/>
  <path fill="#faa61a" d="M14.645 19.71H7.04v-7.602z"/>
  <path fill="#636466" d="M40.291 22.268h1.819v-8.434h2.862v-1.525h-7.516v1.524h2.835zm5.032 0h1.815v-3.722c0-.207.03-.402.062-.563.161-.812.752-1.376 1.621-1.376.225 0 .387.034.534.062v-1.715a1.832 1.832 0 0 0-.43-.045c-.766 0-1.609.516-1.963 1.537h-.057l-.062-1.375H45.26c.046.653.062 1.347.062 2.32zm10.792 0a11.535 11.535 0 0 1-.103-1.729v-2.602c0-1.564-.663-3.024-2.97-3.024-1.133 0-2.065.308-2.598.633l.355 1.181c.487-.31 1.226-.532 1.934-.532 1.272 0 1.465.783 1.465 1.253v.122c-2.66-.013-4.272.9-4.272 2.714 0 1.097.814 2.145 2.261 2.145.928 0 1.684-.399 2.127-.962h.046l.116.801zm-1.876-2.526a1.306 1.306 0 0 1-.058.398 1.471 1.471 0 0 1-1.417.99c-.577 0-1.034-.326-1.034-1.034 0-1.092 1.224-1.375 2.51-1.344zm5.523 2.526v-7.194H57.93v7.194zm-.914-10.194c-.61 0-1.02.43-1.02.988 0 .548.398.978 1.003.978.635 0 1.034-.43 1.034-.978a.97.97 0 0 0-1.017-.988zm2.862 10.194h1.833V18.04a1.526 1.526 0 0 1 1.492-1.653c.989 0 1.374.784 1.374 1.819v4.062h1.816v-4.27c0-2.274-1.3-3.09-2.554-3.09a2.595 2.595 0 0 0-2.294 1.242h-.043l-.087-1.076h-1.594c.04.619.057 1.313.057 2.142zM40.291 34.621h1.819v-8.436h2.862v-1.523h-7.516v1.523h2.835zm7.92-7.355c-2.17 0-3.723 1.442-3.723 3.807 0 2.303 1.567 3.709 3.609 3.709 1.828 0 3.691-1.182 3.691-3.825 0-2.186-1.433-3.695-3.575-3.695zm-.044 1.326c1.237 0 1.743 1.286 1.743 2.406 0 1.45-.722 2.468-1.76 2.468-1.107 0-1.788-1.049-1.788-2.438 0-1.195.517-2.437 1.805-2.437zm10.112-1.165l-.076.958h-.03c-.34-.59-.99-1.123-2.083-1.123-1.73 0-3.265 1.433-3.265 3.797 0 2.039 1.271 3.517 3.058 3.517.946 0 1.685-.43 2.098-1.066h.03v.619c0 1.554-.885 2.176-2.07 2.176a4.317 4.317 0 0 1-2.095-.55l-.399 1.374c.619.385 1.595.579 2.51.579.989 0 2.028-.207 2.78-.874.753-.677 1.062-1.757 1.062-3.265v-4.076c0-.99.03-1.581.058-2.066zm-.299 4.046a3.127 3.127 0 0 1-.072.652 1.55 1.55 0 0 1-1.479 1.09c-1.133 0-1.756-.99-1.756-2.213 0-1.465.753-2.351 1.77-2.351.77 0 1.285.501 1.478 1.168a1.767 1.767 0 0 1 .058.489zm9.857.058a4.468 4.468 0 0 0 .059-.767c0-1.58-.767-3.502-3.1-3.502-2.304 0-3.516 1.876-3.516 3.87 0 2.2 1.375 3.636 3.708 3.636 1.031 0 1.89-.192 2.509-.446l-.265-1.255c-.549.206-1.151.326-1.993.326-1.155 0-2.173-.56-2.216-1.863zm-4.815-1.272c.075-.736.546-1.753 1.67-1.753 1.21 0 1.507 1.09 1.492 1.753zm6.64-4.458v1.626h-1.03v1.357h1.03v3.382c0 .945.179 1.595.564 2.012.34.367.9.59 1.563.59.578 0 1.049-.075 1.318-.178l-.03-1.389a2.68 2.68 0 0 1-.709.09c-.694 0-.929-.458-.929-1.33v-3.178h1.726v-1.356h-1.73V25.37zm4.884 8.82h1.832v-4.3a1.482 1.482 0 0 1 1.478-1.568c1.003 0 1.388.784 1.388 1.833v4.035h1.816v-4.242c0-2.303-1.282-3.117-2.51-3.117a2.468 2.468 0 0 0-1.24.327 2.44 2.44 0 0 0-.9.824h-.031v-4.282h-1.83zm14.556-3.09a4.468 4.468 0 0 0 .058-.767c0-1.58-.77-3.502-3.103-3.502-2.303 0-3.517 1.876-3.517 3.87 0 2.2 1.375 3.636 3.713 3.636 1.03 0 1.89-.192 2.509-.446l-.268-1.255c-.548.206-1.152.326-1.994.326-1.152 0-2.172-.56-2.214-1.863zm-4.815-1.272c.072-.736.547-1.753 1.666-1.753 1.214 0 1.51 1.09 1.493 1.753zm6.33 4.362h1.816v-3.723c0-.206.03-.402.062-.563.16-.812.753-1.375 1.622-1.375.223 0 .385.035.532.06v-1.713a1.832 1.832 0 0 0-.429-.046c-.767 0-1.61.517-1.962 1.537h-.059l-.062-1.375h-1.58c.043.653.06 1.347.06 2.32z"/>
</svg>
