<svg version="1.1" viewBox="0 0 100 100" xmlns="http://www.w3.org/2000/svg">
 <g transform="translate(0 -417.6)">
  <g transform="matrix(.424 0 0 .424 27.21 280.6)">
   <path d="m38.42 491.1s-2.741 14.46 8.123 20.26c9.274 4.949 7.699-8.62 7.699-18.96v-109.2" fill="none" stroke="#161B3D" stroke-linecap="round" stroke-width="2.987"/>
   <g>
    <path d="m-53.37 423.8s26.84-46.65 107.3-46.65c80.51 0 107.3 46.65 107.3 46.65-0.7149-1.399-14.92-4.752-27.52 9.216-17.03-3.369-36.76-1.923-54.2 10.05-20.23-11.13-36.66-6.727-53.68 0.4512-14.56-10.1-31.98-13.92-52.35-9.87-5.579-5.494-10.79-11.92-26.95-9.852z" fill="#161B3D" stroke="#fff" stroke-width=".5377"/>
    <path d="m52.16 378.9s0.5543-12.46 1.785-12.48c1.231-0.0195 2.197 12.48 2.197 12.48-1.327 0.8089-2.655 1.251-3.982 0z" fill="#161B3D"/>
    <path d="m78.35 384.6s-15.92 1.261-16.56 7.564c-0.6368 6.304 8.279-1.891 17.19 4.412 8.916 6.304 22.93-3.152 16.56-6.934-6.368-3.782-17.19-5.043-17.19-5.043z" fill="#8393FF"/>
    <path d="m14.21 417.2s-9.997 3.425-10.38 5.709c-0.3845 2.283 3.845-0.3806 5.767 1.142 1.922 1.522 12.69 10.28 10.38 4.567-2.307-5.709-1.538-13.32-5.767-11.42z" fill="#8393FF"/>
   </g>
   <g fill="none" stroke="#fff" stroke-width=".6164">
    <path d="m-26.43 433.7c13.54-22.42 27.35-45.41 80.39-54.94"/>
    <path d="m25.93 443.6c4.463-21.18 9.997-42.46 28.04-64.81"/>
    <path d="m79.61 443.1c-3.84-22.15-9.912-43.97-25.65-64.35"/>
    <path d="m133.8 433.1c-15.47-21.68-24.8-44.91-79.85-54.3"/>
   </g>
   <g transform="matrix(.1273 0 0 .126 -37.46 399.2)" stroke="#fff">
    <path d="m101 299.3c0 7.939-6.436 14.38-14.38 14.38-7.939 0-14.38-6.436-14.38-14.38-1e-6 -7.939 2.162-15.15 14.38-25.64 0 0 14.38 17.7 14.38 25.64z" fill="#8393FF" stroke-linecap="round" stroke-linejoin="bevel" stroke-width="1.878" style="paint-order:normal"/>
    <path d="m74.21 298.5c0.7864 4.434 1.725 9.967 10.49 13.4 3.827-0.1346 5.884-1.744 6.605-4.468-8.272-1.048-12.66-5.013-17.09-8.936z" fill="#fff" stroke-width=".378"/>
   </g>
   <path d="m-5.914 393.9c-5.404 2.229-4.953 9.806-4.953 9.806s-2.978 3.117-8.556 8.023c-5.578 4.907-7.002 21.95-7.002 21.95s3.061-17.66 6.889-21.06c3.828-3.399 10.13-7.466 10.13-9.416 0-1.95 0.788-4.123 4.278-4.847 3.49-0.7243 11.03-2.117 8.612-3.9-2.42-1.783-7.261 1.95-7.824 0.6129-0.5629-1.337-0.2814-1.56-1.576-1.17z" fill="#8393FF"/>
  </g>
 </g>
</svg>
