<svg id="omuk-logo" version="1.1" viewBox="0 0 100 50" xmlns="http://www.w3.org/2000/svg">
 <g transform="matrix(.8588 0 0 .8588 7.121 3.569)">
  <path d="m30.93 4.197v30.64h10.21c-0.08622-2.955 0.9057-4.391-0.01953-7.074-1.037-3.005 0.218-7.498 0-7.418-0.8523 0.3122-1.805 0.5232-2.744 0.502-1.347-0.03024-4.473-0.6059-5.051-1.309-0.7264-0.8837 0.3656-3.718 1.117-4.293-0.09207-3.055 0.0022-2.078 1.58-4.131 1.112-1.446 3.797-2.982 5.098-3.258 0.6028 0.7319 4.742 3.484 7.014 3.801 3.895 0.543 5.931 5.61 11.48 6.26 7.112 0.8318 7.012 7.865 7.012 7.865 0.06584 0.5992 0.09961 1.234 0.09961 1.904 0 2.21-0.8368 2.7-1.842 4.84-0.1499 0.6273-0.3231 1.433-0.4727 2.311h5.492v-30.64zm16.62 20.19c-0.2723 0.203-1.351 1.403-1.84 4.457-0.2621 1.636 0.5394 3.39 0.4883 5.129-0.0088 0.2961-0.0498 0.5775-0.07813 0.8652h13.35c-0.4632-2.453-0.8976-5.186-0.8633-6.842-8.826-0.06161-10.1-2.511-11.06-3.609z" fill="#3fab36"/>
  <rect x="25.03" y="34.84" width="50.79" height="7.33" fill-opacity="0"/>
  <g fill="#3baa36">
   <path d="m38.47 35.69-2.496 10.48h-2.334l-2.496-10.48h2.481l1.175 7.032 1.189-7.032z"/>
   <path d="m41.46 39.8h1.806v2.041h-1.806v2.29h2.54v2.041h-4.874v-10.48h4.874v2.041h-2.54z"/>
   <path d="m47.97 35.51c-3.039 0-3.538 1.468-3.538 5.431 0 4.096 0.4403 5.403 3.538 5.403 0.9689 0 1.747-0.3228 2.275-0.8663l0.1912 0.6904h0.7483v-5.697h-3.391v1.894h0.8368v0.4555c0 0.9102-0.1765 1.482-0.793 1.482-0.734 0-0.8368-0.4555-0.8368-3.362 0-2.848 0.118-3.391 0.852-3.391 0.6457 0 0.7778 0.6607 0.7778 1.6h1.012c0.08802-1.213 0.3046-2.082 0.7605-2.667-0.5184-0.6168-1.311-0.9741-2.433-0.9741z"/>
  </g>
  <g fill="#7a7b7c">
   <path d="m53.12 35.51c-2.909 0-3.485 1.37-3.529 4.962h1.594v5.569c0.4883 0.2098 1.117 0.3039 1.935 0.3039 0.9689 0 1.747-0.3228 2.275-0.8663l0.1912 0.6904h0.7483v-5.697h-3.392v1.894h0.8378v0.4554c0 0.9102-0.1765 1.482-0.793 1.482-0.7343 0-0.8368-0.4555-0.8368-3.362 0-2.848 0.117-3.391 0.851-3.391 0.6457 0 0.7788 0.6607 0.7788 1.6h2.554c0-2.158-0.9247-3.641-3.215-3.641z"/>
   <path d="m59.55 46.17h-2.334v-10.48h2.334z"/>
   <path d="m62.76 39.8h1.806v2.041h-1.806v2.29h2.54v2.041h-4.874v-10.48h4.874v2.041h-2.54z"/>
  </g>
  <g fill="#3baa36">
   <path d="m66.57 37.75 0.2363-0.06539c-0.1859-0.1814-0.2966-0.4476-0.2966-0.7795 0-1.061 0.4474-1.211 1.85-1.211 1.358 0 1.86 0.1708 1.86 1.211 0 0.7842-0.5077 1.101-1.247 1.101v-0.875c0.3219 0 0.5482-0.04498 0.5482-0.2665 0-0.2513-0.1861-0.2914-1.162-0.2914-0.9954 0-1.151 0.03402-1.151 0.2865 0 0.2109 0.196 0.2714 0.5077 0.2714h0.1558v-0.2865h0.6487v1.162h-1.951z"/>
   <path d="m68.16 39.81h1.996v0.8145h-1.996c-1.403 0-1.654-0.2309-1.654-1.161 0-0.9303 0.2514-1.162 1.654-1.162h1.996v0.8147h-1.996c-0.7943 0-0.9956 0.04498-0.9956 0.347 0 0.3012 0.2013 0.3466 0.9956 0.3466"/>
   <path d="m70.16 41.73h-3.59v-0.7995h3.59z"/>
   <path d="m68.3 43.4c1.167 0 1.207-0.0805 1.207-0.5683h-2.293c0 0.4879 0.04044 0.5683 1.207 0.5683zm0.1206 0.7993c-1.443 0-1.855-0.1958-1.855-1.217v-0.9504h3.59v0.9504c0 1.021-0.4122 1.217-1.855 1.217z"/>
   <path d="m68.75 45.3v0.6184h-0.6988v-0.6184h-0.7844v0.87h-0.699v-1.669h3.59v1.669h-0.6988v-0.87z"/>
  </g>
 </g>
</svg>
