<svg width="100" height="50" version="1.1" viewBox="0 0 100 50" xmlns="http://www.w3.org/2000/svg">
 <g stroke-width="1.8364">
  <path d="m72.848 43.928a8.3925 8.3925 0 0 0-0.20567 1.2451h0.01117s0.0073 0.31954 0.11019 0.59317c0.10282 0.27547-0.19654 0.43707-0.50318 0.38932a4.6058 4.6058 0 0 0-0.89437-0.05509c-0.12302 0.0055-0.63724 0.0753-0.63724 0 0-0.13406 0.15976-0.19466 0.25344-0.22588 0.23872-0.07713 0.25524-0.18364 0.36913-0.20752 0.06977-0.01288 0.20568 0.07346 0.27914 0.0039-0.13226-0.58766-0.47748-2.2037-0.4628-2.9567-2.3635-0.01837-2.7051-0.67398-2.9622-0.9678-0.07342 0.05509-0.36174 0.37647-0.49215 1.1937-0.07162 0.43891 0.14324 0.90904 0.12856 1.3755-0.01457 0.56929-0.18915 1.089-0.20203 1.46 0.13405 0.0039 0.08818-0.38749 0.21306-0.38565 0.18362 0 0.0808 0.30301 0.04421 0.4536-0.03693 0.15059-0.25159 0.3122-0.42054 0.29016-0.08634-0.01288-0.16529-0.101-0.16529-0.101s-0.01846 0.10467-0.14878 0.101c-0.13036-0.0055-0.18361-0.09549-0.18361-0.09549s-0.04762 0.09366-0.15612 0.09549c-0.18362 0-0.17443-0.3122-0.15976-0.53808-0.46096-1.6142 0.15792-1.965-0.17997-2.9438-0.27729-0.80436 0.05879-2.0091 0-1.987a2.044 2.044 0 0 1-0.73456 0.13406c-0.36179-0.0074-1.1992-0.16162-1.3535-0.34894-0.19464-0.23874 0.09732-0.99719 0.29935-1.1514-0.02575-0.81905 0-0.55644 0.42238-1.1074 0.29936-0.38565 1.0174-0.79885 1.3663-0.87231 0.16161 0.1965 1.2708 0.93291 1.8787 1.0174 1.0431 0.14691 1.5885 1.504 3.076 1.6785 1.9044 0.22221 1.8768 2.1064 1.8768 2.1064 0.01846 0.15977 0.0277 0.33056 0.0277 0.51054 0 0.59133-0.22404 0.72356-0.494 1.2965m-9.094 2.5251h10.44v-10.113h-10.44z" fill="#3fab36"/>
  <path d="m58.687 38.428 0.2204-0.0606a0.988 0.988 0 0 1-0.2755-0.72906c0-0.98984 0.41689-1.1294 1.7263-1.1294 1.2671 0 1.7373 0.15793 1.7373 1.1294 0 0.73274-0.47379 1.0284-1.1643 1.0284v-0.81722c0.29935 0 0.51242-0.04222 0.51242-0.24792 0-0.23507-0.17448-0.27179-1.0835-0.27179-0.93105 0-1.0761 0.03304-1.0761 0.26628 0 0.19833 0.18362 0.25343 0.47379 0.25343h0.14693v-0.26628h0.60415v1.0835h-1.8217zm1.4875 1.9283h1.864v0.75845h-1.864c-1.3094 0-1.5426-0.2167-1.5426-1.0835 0-0.86863 0.23322-1.0835 1.5426-1.0835h1.864v0.75844h-1.864c-0.7401 0-0.92926 0.04222-0.92926 0.32505 0 0.28097 0.18916 0.32321 0.92926 0.32321m1.864 1.7887h-3.3515v-0.7456h3.3515zm-1.7317 1.5591c1.089 0 1.1257-0.07346 1.1257-0.53073h-2.1394c0 0.45543 0.03693 0.53073 1.1257 0.53073zm0.112 0.7456c-1.3461 0-1.7317-0.18364-1.7317-1.1349v-0.887h3.3515v0.887c0 0.95311-0.38565 1.1349-1.7317 1.1349zm0.30489 1.0284v0.57664h-0.65196v-0.57664h-0.73092v0.8117h-0.65376v-1.5573h3.3515v1.5573h-0.65191v-0.8117z" fill="#3baa36"/>
  <path d="m52.135 46.288h-2.1762v-9.7845h2.178zm3.0026-5.9482h1.684v1.9062h-1.6859v2.1376h2.3708v1.9044h-4.5489v-9.7845h4.5489v1.9044h-2.369z" fill="#7a7b7c"/>
  <path d="m32.464 36.505-2.3304 9.7809h-2.1762l-2.3323-9.7827h2.3158l1.0964 6.5634 1.111-6.5634zm2.7895 3.8345h1.6859v1.9062h-1.6859v2.1376h2.369v1.9044h-4.547v-9.7845h4.5507v1.9044h-2.3727zm8.376 5.9482-0.17812-0.64275c-0.49405 0.50502-1.2194 0.80803-2.1248 0.80803-2.8906 0-3.3019-1.2212-3.3019-5.0429 0-3.7004 0.4646-5.0704 3.3019-5.0704 2.1376 0 3.0007 1.3828 3.0007 3.3974h-2.3837c0-0.87598-0.12303-1.493-0.72722-1.493-0.685 0-0.79335 0.50686-0.79335 3.166 0 2.7124 0.09553 3.1366 0.78052 3.1366 0.5748 0 0.74005-0.53256 0.74005-1.3828v-0.42605h-0.78232v-1.7667h3.166v5.3165z" fill="#3baa36"/>
  <path d="m48.434 46.288-0.17628-0.64275c-0.494 0.50502-1.2194 0.80803-2.1248 0.80803-2.8905 0-3.3019-1.2212-3.3019-5.0429 0-3.7004 0.46645-5.0704 3.3019-5.0704 2.1376 0 3.0008 1.3828 3.0008 3.3974h-2.3837c0-0.87598-0.12307-1.493-0.72542-1.493-0.68495 0-0.79515 0.50686-0.79515 3.166 0 2.7124 0.09548 3.1366 0.78048 3.1366 0.57665 0 0.7401-0.53256 0.7401-1.3828v-0.42605h-0.78052v-1.7667h3.1642v5.3165z" fill="#7a7b7c"/>
  <path d="m41.162 42.738h0.78232v0.42605c0 0.84844-0.16525 1.3828-0.74005 1.3828-0.685 0-0.78052-0.42422-0.78052-3.1366 0-1.9374 0.05695-2.7308 0.35445-3.0209a2.8428 2.8428 0 0 1-0.07896-0.65194c0-0.49951 0.13221-0.97515 0.36359-1.3957-2.6004 0.08631-3.0375 1.4875-3.0375 5.0686 0 3.8216 0.40955 5.0429 3.3019 5.0429 0.9035 0 1.6307-0.30301 2.1248-0.80803l0.17812 0.64275h0.69783v-5.3165h-3.166z" fill="#3baa36"/>
 </g>
</svg>
