<svg id="wcf-logo" xmlns="http://www.w3.org/2000/svg" viewBox="0 0 100 50">
  <path fill="#363636" d="M24.573 22.704h.812l1.25 5.021 1.245-5.021h.903l1.25 5.021 1.245-5.021h.816l-1.493 5.94h-1.01l-1.254-5.156-1.265 5.157h-1.01zM36.459 26.233v.358h-3.367q.048.756.454 1.154.41.394 1.138.394.422 0 .816-.103.398-.104.788-.31v.692q-.394.167-.808.255-.414.087-.84.087-1.066 0-1.69-.62-.622-.621-.622-1.68 0-1.094.59-1.735.592-.645 1.595-.645.9 0 1.42.581.526.577.526 1.572zm-.732-.215q-.008-.6-.339-.959-.326-.358-.867-.358-.613 0-.983.346-.366.347-.422.975zM40.502 24.32v.692q-.31-.16-.645-.24-.334-.079-.692-.079-.545 0-.82.167-.27.168-.27.502 0 .254.194.402.195.143.784.274l.251.056q.78.167 1.106.473.33.303.33.848 0 .62-.493.983-.49.362-1.349.362-.358 0-.748-.072-.386-.067-.816-.206v-.757q.406.211.8.319.394.103.78.103.517 0 .796-.175.278-.179.278-.501 0-.299-.202-.458-.2-.159-.88-.306l-.255-.06q-.68-.143-.982-.438-.303-.298-.303-.815 0-.63.446-.971.445-.343 1.265-.343.406 0 .764.06t.66.18zM42.635 22.923v1.265h1.508v.569h-1.508v2.42q0 .544.147.7.151.155.609.155h.752v.613h-.752q-.848 0-1.17-.315-.323-.318-.323-1.154v-2.419h-.537v-.57h.537v-1.264zM49.59 23.161v.848q-.406-.378-.867-.565-.458-.187-.975-.187-1.019 0-1.56.625-.541.62-.541 1.798 0 1.174.541 1.799.541.62 1.56.62.517 0 .975-.187.461-.187.867-.565v.84q-.421.287-.895.43-.47.143-.995.143-1.349 0-2.125-.824-.776-.827-.776-2.256 0-1.432.776-2.256.776-.828 2.125-.828.533 0 1.003.143.473.14.887.422zM52.535 24.701q-.589 0-.931.462-.342.457-.342 1.257 0 .8.338 1.262.342.457.935.457.585 0 .927-.461.342-.462.342-1.258 0-.792-.342-1.253-.342-.466-.927-.466zm0-.62q.955 0 1.5.62.545.621.545 1.72 0 1.094-.545 1.718-.545.621-1.5.621-.959 0-1.504-.62-.541-.625-.541-1.72 0-1.098.54-1.719.546-.62 1.505-.62zM55.714 26.886v-2.698h.733v2.67q0 .633.246.951.247.314.74.314.593 0 .935-.378.347-.378.347-1.03v-2.527h.732v4.457h-.732v-.685q-.267.406-.621.605-.35.195-.816.195-.768 0-1.166-.477-.398-.478-.398-1.397zm1.843-2.805zM64.668 25.955v2.69h-.733v-2.666q0-.633-.246-.947-.247-.315-.74-.315-.593 0-.936.378-.342.378-.342 1.03v2.52h-.736v-4.457h.736v.692q.263-.402.617-.6.358-.2.824-.2.768 0 1.162.478.394.474.394 1.397zM66.86 22.923v1.265h1.508v.569H66.86v2.42q0 .544.147.7.152.155.61.155h.751v.613h-.752q-.847 0-1.17-.315-.322-.318-.322-1.154v-2.419h-.537v-.57h.537v-1.264zM71.918 24.872q-.124-.071-.27-.103-.144-.036-.32-.036-.62 0-.954.406-.33.402-.33 1.158v2.348h-.737v-4.457h.737v.692q.23-.406.6-.6.37-.2.9-.2.075 0 .167.012.091.008.203.028zM74.548 29.059q-.31.795-.605 1.038-.294.243-.788.243h-.585v-.613H73q.303 0 .47-.143.167-.143.37-.677l.131-.334-1.803-4.385h.776l1.393 3.486 1.393-3.486h.776zM77.548 22.704h3.415v.676h-2.61v1.751h2.355v.676h-2.356v2.838h-.804zM81.623 24.188h.732v4.457h-.732zm0-1.735h.732v.927h-.732zM86.466 24.872q-.124-.071-.27-.103-.144-.036-.32-.036-.62 0-.954.406-.33.402-.33 1.158v2.348h-.737v-4.457h.737v.692q.23-.406.6-.6.37-.2.9-.2.075 0 .167.012.091.008.203.028zM90.879 26.233v.358h-3.367q.048.756.454 1.154.41.394 1.138.394.422 0 .816-.103.398-.104.788-.31v.692q-.394.167-.808.255-.414.087-.84.087-1.066 0-1.69-.62-.622-.621-.622-1.68 0-1.094.59-1.735.592-.645 1.595-.645.9 0 1.42.581.526.577.526 1.572zm-.732-.215q-.008-.6-.339-.959-.326-.358-.867-.358-.613 0-.983.346-.366.347-.422.975zM94.922 24.32v.692q-.31-.16-.645-.24-.334-.079-.692-.079-.546 0-.82.167-.27.168-.27.502 0 .254.194.402.195.143.784.274l.25.056q.78.167 1.107.473.33.303.33.848 0 .62-.493.983-.49.362-1.349.362-.358 0-.748-.072-.386-.067-.816-.206v-.757q.406.211.8.319.394.103.78.103.517 0 .796-.175.278-.179.278-.501 0-.299-.203-.458-.199-.159-.879-.306l-.255-.06q-.68-.143-.983-.438-.302-.298-.302-.815 0-.63.446-.971.445-.343 1.265-.343.406 0 .764.06t.66.18z" />
  <path fill="#363636" d="M25.22 31.707h.396l-.343 1.768q-.021.119-.031.197-.008.076-.008.134 0 .27.15.41.15.138.44.138.377 0 .586-.206.21-.207.3-.673l.343-1.768h.396l-.351 1.817q-.115.589-.437.87-.322.28-.881.28-.437 0-.692-.218-.254-.22-.254-.597 0-.068.01-.152.01-.086.03-.183zM28.258 31.584h.359l-.591 3.033h-.359zM30.323 32.434l-.055.279h-.716l-.232 1.185-.017.111q-.006.045-.006.07 0 .125.074.182.076.056.242.056h.363l-.06.3h-.344q-.32 0-.478-.124-.156-.125-.156-.379 0-.044.006-.097.006-.055.018-.119l.232-1.185h-.304l.056-.28h.298l.121-.62h.36l-.12.62zM30.933 31.584h.359l-.088.454h-.359zm-.164.85h.359l-.427 2.183h-.359zM34.895 33.3l-.256 1.317h-.359l.252-1.306q.016-.084.023-.144.008-.06.008-.103 0-.176-.097-.273-.098-.098-.273-.098-.262 0-.466.197-.205.195-.265.509l-.24 1.218h-.359l.255-1.306q.016-.072.024-.132.008-.063.008-.112 0-.177-.098-.274-.097-.1-.269-.1-.265 0-.47.197-.204.195-.265.509l-.24 1.218h-.358l.427-2.183h.358l-.068.34q.146-.192.341-.291.197-.102.421-.102.238 0 .39.125.154.125.185.347.164-.23.379-.35.216-.122.456-.122.28 0 .433.162.154.162.154.458 0 .065-.008.143-.008.076-.023.156zM37.345 33.372l-.243 1.245h-.36l.067-.331q-.158.195-.36.292-.201.096-.449.096-.279 0-.458-.17-.178-.171-.178-.438 0-.382.305-.605.306-.222.842-.222h.499l.02-.095.005-.034q.002-.02.002-.058 0-.174-.142-.27-.14-.097-.396-.097-.175 0-.36.045-.184.045-.379.135l.063-.332q.202-.076.395-.113.195-.039.377-.039.386 0 .586.168.203.168.203.487 0 .065-.01.152-.01.086-.029.184zm-.388.148H36.6q-.441 0-.654.119-.21.117-.21.364 0 .172.107.27.11.097.3.097.293 0 .511-.209.219-.21.289-.561zM39.338 32.434l-.055.279h-.715l-.232 1.185q-.012.066-.018.111-.006.045-.006.07 0 .125.074.182.077.056.242.056h.363l-.06.3h-.344q-.32 0-.477-.124-.156-.125-.156-.379 0-.044.005-.097.006-.055.018-.119l.232-1.185h-.304l.056-.28h.299l.12-.62h.36l-.12.62zM41.137 33.33q.006-.03.008-.064.004-.033.004-.066 0-.238-.14-.376-.139-.139-.379-.139-.267 0-.471.17-.205.168-.31.478zm.312.281H39.78q-.011.075-.015.117-.004.043-.004.075 0 .27.166.419.167.148.471.148.234 0 .443-.053.209-.052.388-.154l-.068.355q-.193.078-.4.117-.205.04-.417.04-.454 0-.7-.217-.244-.219-.244-.618 0-.342.121-.634.123-.294.359-.524.152-.145.36-.223.211-.078.447-.078.37 0 .589.223.22.222.22.596 0 .09-.012.193-.011.102-.035.218zM45.144 31.584h.36l-.087.454h-.36zm-.29 0l-.057.298h-.343q-.195 0-.285.078-.088.076-.13.28l-.04.194h1.342l-.427 2.184h-.36l.38-1.907h-.987l-.37 1.907h-.361l.372-1.905h-.343l.05-.28h.344l.03-.151q.073-.386.258-.542.188-.156.587-.156zM47.306 32.765q-.054-.029-.125-.045-.07-.015-.15-.015-.286 0-.5.218-.215.217-.285.581l-.22 1.114h-.36l.427-2.184h.36l-.07.34q.143-.19.34-.291.2-.102.423-.102.059 0 .115.008.057.006.113.022zM49.092 33.33q.006-.03.008-.064.004-.033.004-.066 0-.238-.14-.376-.14-.139-.379-.139-.267 0-.472.17-.204.168-.31.478zm.312.281h-1.669q-.012.075-.016.117-.003.043-.003.075 0 .27.165.419.168.148.472.148.234 0 .443-.053.208-.052.388-.154l-.069.355q-.193.078-.4.117-.204.04-.416.04-.455 0-.7-.217-.244-.219-.244-.618 0-.342.12-.634.124-.294.36-.524.152-.145.36-.223.21-.078.447-.078.37 0 .588.223.22.222.22.596 0 .09-.01.193-.013.102-.036.218zM51.625 32.498l-.069.34q-.142-.079-.3-.118-.158-.039-.325-.039-.283 0-.447.098-.162.095-.162.261 0 .193.379.297l.042.011.115.035q.36.1.478.209.121.11.121.298 0 .347-.277.566-.275.218-.721.218-.174 0-.365-.033-.19-.033-.421-.103l.07-.37q.197.1.388.153.191.053.367.053.263 0 .427-.113.165-.113.165-.287 0-.187-.432-.302l-.037-.01-.123-.031q-.273-.072-.4-.19-.127-.118-.127-.302 0-.349.262-.553.263-.205.713-.205.178 0 .345.03.17.028.334.087zM55.18 31.584h.362l-.088.454h-.36zm-.29 0l-.056.298h-.343q-.195 0-.285.078-.088.076-.13.28l-.04.194h1.342l-.427 2.184h-.36l.38-1.907h-.987l-.37 1.907h-.361l.372-1.905h-.343l.05-.28h.344l.029-.151q.074-.386.26-.542.186-.156.586-.156zM57.343 32.765q-.055-.029-.125-.045-.07-.015-.15-.015-.286 0-.501.218-.214.217-.285.581l-.22 1.114h-.359l.427-2.184h.36l-.07.34q.143-.19.34-.291.199-.102.423-.102.059 0 .115.008.057.006.113.022zM59.129 33.33q.006-.03.008-.064.004-.033.004-.066 0-.238-.14-.376-.14-.139-.379-.139-.267 0-.472.17-.205.168-.31.478zm.312.281h-1.67l-.015.117q-.004.043-.004.075 0 .27.166.419.168.148.472.148.234 0 .443-.053.208-.052.388-.154l-.069.355q-.193.078-.4.117-.204.04-.417.04-.454 0-.7-.217-.243-.219-.243-.618 0-.342.12-.634.123-.294.36-.524.151-.145.36-.223.21-.078.447-.078.37 0 .588.223.22.222.22.596 0 .09-.011.193-.012.102-.035.218zM61.646 33.272q0-.286-.125-.438-.125-.153-.359-.153-.16 0-.306.082-.144.082-.257.238-.111.154-.177.373-.067.218-.067.432 0 .273.125.422.125.146.355.146.17 0 .314-.08.146-.08.25-.232.11-.16.179-.376.068-.217.068-.414zm-1.111-.507q.144-.189.339-.286.197-.098.437-.098.335 0 .52.22.185.219.185.615 0 .323-.115.618-.115.292-.331.524-.144.154-.326.236-.181.08-.382.08-.232 0-.39-.096-.158-.097-.236-.288l-.224 1.158h-.359l.587-3.014h.359zM62.93 31.584h.36l-.591 3.033h-.359zM65.452 33.372l-.244 1.245h-.359l.067-.331q-.158.195-.361.292-.201.096-.449.096-.278 0-.458-.17-.177-.171-.177-.438 0-.382.304-.605.306-.222.842-.222h.5l.019-.095q.004-.016.006-.034.002-.02.002-.058 0-.174-.143-.27-.14-.097-.396-.097-.175 0-.36.045-.184.045-.379.135l.063-.332q.203-.076.396-.113.195-.039.376-.039.386 0 .587.168.203.168.203.487 0 .065-.01.152-.01.086-.03.184zm-.388.148h-.36q-.44 0-.652.119-.21.117-.21.364 0 .172.106.27.11.097.3.097.293 0 .512-.209.218-.21.288-.561zM67.897 32.518l-.073.355q-.128-.094-.275-.14-.144-.048-.3-.048-.171 0-.327.06-.154.061-.26.172-.167.17-.259.398t-.092.472q0 .294.147.439.148.144.448.144.148 0 .314-.045.168-.045.349-.135l-.068.355q-.156.065-.322.096-.164.033-.337.033-.435 0-.669-.216-.234-.219-.234-.622 0-.34.121-.624.123-.287.363-.515.163-.156.384-.236.22-.08.481-.08.152 0 .302.035.15.033.307.102zM69.875 33.33q.006-.03.008-.064.004-.033.004-.066 0-.238-.14-.376-.139-.139-.378-.139-.268 0-.472.17-.205.168-.31.478zm.312.281h-1.669q-.011.075-.015.117-.004.043-.004.075 0 .27.166.419.167.148.472.148.233 0 .442-.053.209-.052.388-.154l-.068.355q-.193.078-.4.117-.205.04-.417.04-.454 0-.7-.217-.244-.219-.244-.618 0-.342.121-.634.123-.294.359-.524.152-.145.36-.223.211-.078.447-.078.37 0 .589.223.22.222.22.596 0 .09-.012.193-.011.102-.035.218zM72.408 32.498l-.068.34q-.143-.079-.3-.118-.158-.039-.326-.039-.283 0-.446.098-.162.095-.162.261 0 .193.378.297l.043.011.115.035q.359.1.478.209.12.11.12.298 0 .347-.276.566-.275.218-.722.218-.173 0-.364-.033t-.422-.103l.07-.37q.198.1.389.153.19.053.366.053.263 0 .427-.113.166-.113.166-.287 0-.187-.433-.302l-.037-.01-.123-.031q-.273-.072-.4-.19-.126-.118-.126-.302 0-.349.261-.553.263-.205.714-.205.177 0 .345.03.17.028.333.087zM75.65 34.11l-.83-1.058q-.236.171-.359.364-.12.194-.12.394 0 .248.165.398.168.15.444.15.184 0 .361-.062.18-.065.34-.185zm1.053-1.054q-.088.31-.232.567-.142.258-.343.468l.408.526h-.492l-.206-.27q-.207.161-.445.245-.238.082-.497.082-.431 0-.688-.212-.256-.213-.256-.564 0-.3.18-.567.18-.267.536-.494-.06-.09-.09-.18-.027-.094-.027-.2 0-.132.045-.251.044-.12.128-.217.135-.16.338-.247.202-.088.436-.088.152 0 .306.035t.312.105l-.068.355q-.146-.091-.292-.138-.145-.049-.281-.049-.242 0-.394.127-.15.125-.15.32 0 .085.037.17.037.083.172.255l.793 1.013q.146-.154.25-.352.103-.201.158-.44zM80.144 32.498l-.068.34q-.142-.079-.3-.118-.158-.039-.326-.039-.282 0-.446.098-.162.095-.162.261 0 .193.378.297l.043.011.115.035q.359.1.478.209.12.11.12.298 0 .347-.276.566-.275.218-.722.218-.173 0-.364-.033t-.421-.103l.07-.37q.197.1.388.153.191.053.366.053.264 0 .427-.113.166-.113.166-.287 0-.187-.433-.302l-.037-.01-.123-.031q-.273-.072-.4-.19-.126-.118-.126-.302 0-.349.261-.553.263-.205.714-.205.177 0 .345.03.17.028.333.087zM81.919 32.434l-.055.279h-.716l-.232 1.185-.017.111q-.006.045-.006.07 0 .125.074.182.076.056.242.056h.363l-.06.3h-.344q-.32 0-.478-.124-.156-.125-.156-.379 0-.044.006-.097.006-.055.018-.119l.232-1.185h-.304l.056-.28h.298l.121-.62h.359l-.119.62zM82.811 34.674q-.384 0-.608-.236-.222-.238-.222-.647 0-.238.076-.484.078-.247.2-.415.194-.261.432-.386t.538-.125q.372 0 .6.232.23.232.23.607 0 .259-.076.516-.076.258-.199.427-.19.261-.429.386-.237.125-.542.125zm-.458-.895q0 .296.123.445.125.146.376.146.361 0 .597-.314.238-.316.238-.8 0-.282-.127-.426-.127-.145-.372-.145-.203 0-.36.096-.159.093-.284.286-.091.145-.142.33-.049.185-.049.382zM84.525 32.434h.38l.32 1.856 1.045-1.856h.38l-1.242 2.183h-.483zM88.522 33.33q.006-.03.008-.064.004-.033.004-.066 0-.238-.14-.376-.14-.139-.379-.139-.267 0-.472.17-.204.168-.31.478zm.312.281h-1.669q-.012.075-.016.117-.003.043-.003.075 0 .27.165.419.168.148.472.148.234 0 .443-.053.208-.052.388-.154l-.069.355q-.193.078-.4.117-.204.04-.416.04-.455 0-.7-.217-.244-.219-.244-.618 0-.342.12-.634.124-.294.36-.524.152-.145.36-.223.21-.078.447-.078.37 0 .588.223.22.222.22.596 0 .09-.01.193-.013.102-.036.218zM91.055 32.498l-.069.34q-.142-.079-.3-.118-.158-.039-.325-.039-.283 0-.447.098-.162.095-.162.261 0 .193.379.297l.042.011.115.035q.36.1.478.209.121.11.121.298 0 .347-.277.566-.275.218-.721.218-.174 0-.365-.033-.19-.033-.421-.103l.07-.37q.197.1.388.153.191.053.367.053.263 0 .427-.113.165-.113.165-.287 0-.187-.432-.302l-.037-.01-.123-.031q-.273-.072-.4-.19-.127-.118-.127-.302 0-.349.262-.553.263-.205.713-.205.178 0 .345.03.17.028.334.087z" />
  <g fill-rule="evenodd" clip-rule="evenodd">
    <path fill="#273995" d="M15 11.59c-.856.201-6.659 3.048-6.99 7.874-.419 6.124 4.567 7.726 4.982 12.694.11 1.323-1.295 2.707-2.973 2.651-2.887-.095-2.76-2.1-2.731-3.374.03-1.332 1.179-3.83 1.179-3.83s-1.872.818-2.725 1.773c-.884.99-1.752 2.212-1.675 4.572.107 3.312 3.188 5.841 6.756 5.857 4.274.02 7.652-2.673 7.632-6.685-.015-3.047-.321-4.887-1.848-7.766-1.232-2.324-3.29-3.997-3.454-7.097-.254-4.802 2.704-6.87 1.847-6.668z"/>
    <path fill="#1e80c4" d="M8.737 23.779c.39.88.891 1.66 1.414 2.412a11.907 11.907 0 0 0-1.72 1.494l.036-.08s-1.872.818-2.725 1.773c-.884.99-1.752 2.212-1.675 4.572.001.05.004.1.007.15-.162-.92-.298-2.11-.237-3.319.115-2.288 3.451-5.873 4.614-6.783zM13.956 21.181c.96-.563 2.458-1.75 1.909-3.453 0 0 1.98 2.476-.892 5.117a14.573 14.573 0 0 1-1.017-1.664zM18.408 22.778c.064-.265.148-.419.208-.422 0 0-.082.157-.208.422-.195.816-.19 2.691 1.333 4.48 1.725 2.024 3.053 4.257 2.812 6.828-.241 2.571-2.17 4.58-4.901 4.58-.69 0-1.301-.168-1.796-.379a6.475 6.475 0 0 0 1.477-1.494c1.776.163 2.176-1.24 2.408-3.27.2-1.751-.692-2.724-1.509-3.655-.19-1.147-.526-2.228-1.108-3.477.265-1.364.94-2.892 1.284-3.613z"/>
  </g>
</svg>
