<svg version="1.1" viewBox="0 0 250 250" xmlns="http://www.w3.org/2000/svg">
<symbol id="web-gear">
 <path d="m0-3h253v253h-253z" display="none" fill="#007993" stroke="#71baba" stroke-linecap="round" stroke-linejoin="bevel" stroke-width=".6" style="paint-order:markers stroke fill"/>
 <path d="m250 171.4c-171.2 125-161 46.07-250 78.61h250z" fill="#fff"/>
 <path d="m0.3 0.3h249.4v249.4h-249.4z" display="none" fill="#007993" stroke="#71baba" stroke-linecap="round" stroke-linejoin="bevel" stroke-width=".5915" style="paint-order:markers stroke fill"/>
 <g transform="matrix(.4134 0 0 .4134 163.4 133.7)">
  <rect transform="matrix(.866 -.5 0 1 0 0)" x="99.42" y="257.7" width="55.05" height="9.239" fill="#161B3D" style="paint-order:stroke fill markers"/>
  <g transform="translate(211.5,12.09)" fill="#8393FF">
   <rect transform="matrix(.866 -.5 0 1 0 0)" x="-160.9" y="109.5" width="55.05" height="9.239" style="paint-order:stroke fill markers"/>
   <path d="m-139.4 190 14 5.917v9.239l-14-5.917z"/>
   <path d="m-91.7 162.5-47.67 27.52 14 5.917 47.67-27.52z"/>
   <rect transform="matrix(.866 -.5 0 1 0 0)" x="-197.4" y="14.99" width="133.5" height="92.87" rx="3.513" style="paint-order:stroke fill markers"/>
   <path d="m-56.32 48.48 7.964 3.318-5.531 7.079-6.194-2.323z"/>
   <path d="m-170.2 205 8.541 3.471 0.6467-12.2-8.269 0.4594z"/>
  </g>
  <rect transform="matrix(.866 -.5 0 1 0 0)" x="55.83" y="156.9" width="133.5" height="92.87" rx="3.513" fill="#161B3D" style="paint-order:stroke fill markers"/>
  <rect transform="matrix(.866 -.5 0 1 0 0)" x="65.52" y="167" width="115.5" height="74.07" rx="3.007" fill="#fff" fill-opacity=".9882" style="paint-order:stroke fill markers"/>
  <g transform="translate(211.5,12.09)" fill="#8393FF">
   <path transform="matrix(2.419 0 0 2.419 -606.8 -335.5)" d="m227.7 165.8v30.17c0.2814-0.3862 0.4766-0.8552 0.4766-1.281v-28.13c0-0.4313-0.1893-0.7009-0.4766-0.7578z" stroke-width=".4948"/>
   <path transform="matrix(2.419 0 0 2.419 -606.8 -335.5)" d="m227.9 195.7-40.81 23.56c0.1971 0.149 0.4845 0.1531 0.8106-0.0352l39.2-22.63c0.3236-0.1868 0.6038-0.5196 0.8008-0.8926z" stroke-width=".4948"/>
   <rect transform="matrix(.866 -.5 0 1 0 0)" x="-91.05" y="51.72" width="19.11" height="18.08" rx="0" style="paint-order:stroke fill markers"/>
  </g>
  <rect transform="matrix(.866 -.5 0 1 0 0)" x="155.8" y="187.7" width="19.11" height="18.08" rx="0" fill="#161B3D" style="paint-order:stroke fill markers"/>
  <g transform="translate(211.5,12.09)" fill="#8393FF">
   <path d="m-78.85 115.3 2.291 0.4593v-18.08l-2.291-0.4593z"/>
   <path d="m-60.01 88.15-2.291-0.4593-16.55 9.555 2.291 0.4593z"/>
   <rect transform="matrix(.866 -.5 0 1 0 0)" x="-114.6" y="51.72" width="19.11" height="18.08" rx="0" style="paint-order:stroke fill markers"/>
  </g>
  <rect transform="matrix(.866 -.5 0 1 0 0)" x="132.3" y="187.7" width="19.11" height="18.08" rx="0" fill="#161B3D" style="paint-order:stroke fill markers"/>
  <g transform="translate(211.5,12.09)" fill="#8393FF">
   <path d="m-99.24 127.1 2.291 0.4593v-18.08l-2.291-0.4593z"/>
   <path d="m-80.4 99.92-2.291-0.4593-16.55 9.555 2.291 0.4593z"/>
   <rect transform="matrix(.866 -.5 0 1 0 0)" x="-138.1" y="51.72" width="19.11" height="18.08" rx="0" style="paint-order:stroke fill markers"/>
  </g>
  <rect transform="matrix(.866 -.5 0 1 0 0)" x="108.7" y="187.7" width="19.11" height="18.08" rx="0" fill="#161B3D" style="paint-order:stroke fill markers"/>
  <g transform="translate(211.5,12.09)" fill="#8393FF">
   <path d="m-119.6 138.9 2.291 0.4593v-18.08l-2.291-0.4593z"/>
   <path d="m-100.8 111.7-2.291-0.4593-16.55 9.555 2.291 0.4593z"/>
   <rect transform="matrix(.866 -.5 0 1 0 0)" x="-176.3" y="51.72" width="19.11" height="18.08" rx="0" style="paint-order:stroke fill markers"/>
  </g>
  <rect transform="matrix(.866 -.5 0 1 0 0)" x="70.52" y="187.7" width="19.11" height="18.08" rx="0" fill="#161B3D" style="paint-order:stroke fill markers"/>
  <g transform="translate(211.5,12.09)" fill="#8393FF">
   <path d="m-152.7 158 2.291 0.4593v-18.08l-2.291-0.4593z"/>
   <path d="m-133.8 130.8-2.291-0.4593-16.55 9.555 2.291 0.4593z"/>
   <rect transform="matrix(.866 -.5 0 1 0 0)" x="-138.1" y="75.39" width="66.32" height="18.08" rx="0" style="paint-order:stroke fill markers"/>
  </g>
  <rect transform="matrix(.866 -.5 0 1 0 0)" x="108.9" y="212" width="66.32" height="18.08" rx="0" fill="#161B3D" style="paint-order:stroke fill markers"/>
  <g transform="translate(211.5,12.09)" fill="#8393FF">
   <path d="m-119.6 162.5 2.394 1.012v-18.08l-2.394-1.012z"/>
   <path d="m-117.2 145.4 57.44-33.16-2.394-1.012-57.44 33.16z"/>
   <path d="m-140.5 156.6-4.8 20.69 9.026-5.211v-17.92z" style="paint-order:stroke fill markers"/>
  </g>
  <path d="m73.4 169.7-4.8 20.69 9.026-5.211v-17.92z" fill="#161B3D" style="paint-order:stroke fill markers"/>
  <g transform="translate(211.5,12.09)" fill="#8393FF">
   <path d="m-136.2 154.1 2.394 1.012-4.225 2.439-2.394-1.012z"/>
   <path d="m-145.3 177.3 2.394 1.012 4.8-20.69-2.394-1.012z"/>
   <path d="m-152.8 163.7v17.92l4.906-2.832 4.8-20.69z" style="paint-order:stroke fill markers"/>
  </g>
  <g transform="translate(211.5,12.09)">
   <path d="m-150.4 164.7v17.92l4.906-2.832 4.8-20.69z" fill="#161B3D" style="paint-order:stroke fill markers"/>
   <path d="m-152.8 181.6 2.394 1.012v-17.92l-2.394-1.012z" fill="#8393FF"/>
   <path d="m-152.8 163.7 2.394 1.012 9.706-5.604-2.394-1.012z" fill="#8393FF"/>
  </g>
  <g transform="translate(211.5,12.09)" fill="#DC143C">
   <rect transform="matrix(.866 -.5 0 1 0 0)" x="-80.25" y="37.82" width="6.139" height="1.063" rx="1.421" style="paint-order:stroke fill markers"/>
   <rect transform="matrix(.866 -.5 0 1 0 0)" x="-80.25" y="39.28" width="6.139" height="1.063" rx="1.421" style="paint-order:stroke fill markers"/>
   <rect transform="matrix(.866 -.5 0 1 0 0)" x="-80.25" y="40.73" width="6.139" height="1.063" rx="1.421" style="paint-order:stroke fill markers"/>
  </g>
  <g transform="translate(211.5,12.09)" fill="#161B3D">
   <rect transform="matrix(.866 -.5 0 1 0 0)" x="-176.3" y="38.36" width="24.4" height="5.972" rx="0" style="paint-order:stroke fill markers"/>
   <rect transform="matrix(.866 -.5 0 1 0 0)" x="-145" y="38.59" width="12.2" height="1.838" rx="0" style="paint-order:stroke fill markers"/>
   <rect transform="matrix(.866 -.5 0 1 0 0)" x="-131.1" y="38.59" width="12.2" height="1.838" rx="0" style="paint-order:stroke fill markers"/>
   <rect transform="matrix(.866 -.5 0 1 0 0)" x="-117.1" y="38.59" width="12.2" height="1.838" rx="0" style="paint-order:stroke fill markers"/>
   <rect transform="matrix(.866 -.5 0 1 0 0)" x="-130" y="162.6" width="18.53" height="8.885" style="paint-order:normal"/>
   <rect transform="matrix(.866 -.5 0 1 0 0)" x="-144.7" y="146.6" width="18.53" height="8.885" style="paint-order:normal"/>
  </g>
  <path d="m86.2 231 12.75 8.641v8.885l-12.75-8.641z" fill="#8393FF"/>
  <path d="m102.2 221.7-16.05 9.266 12.75 8.641 16.05-9.266z" fill="#8393FF"/>
  <g transform="translate(211.5,12.09)" fill="none">
   <path d="m-117.3 214.2 3.528 2.536" stroke="#fff" stroke-width=".378"/>
   <path d="m-121.4 221.2 15.29-8.826" stroke="#fff" stroke-width=".378"/>
   <path d="m-104.5 227.4s22.27 25.89 51.01 29.55c28.75 3.659 31.88 12.02 31.88 12.02" stroke="#DC143C" stroke-width="1.178"/>
  </g>
 </g>
</symbol>
</svg>
